<svg xmlns="http://www.w3.org/2000/svg" xmlns:xlink="http://www.w3.org/1999/xlink" version="1.1" id="Layer_1" x="0px" y="0px" width="193.833px" height="81.875px" viewBox="0 0 193.833 81.875" enable-background="new 0 0 193.833 81.875" xml:space="preserve">
<style>
	.style0{
		fill:	none;
	}
	.style1{
		stroke:	#231F20;
		stroke-width:	2;
		fill:	none;
	}
	.style2{
		fill:	#191818;
	}
	.style3{
		fill-rule:	evenodd;
		clip-rule:	evenodd;
		fill:	#191818;
	}
</style><g>
	<g>
		<path d="M22.534 100.904c-3.708 0-4.464-2.08-4.464-5.543c0-3.609 0.894-5.646 4.446-5.646 c1.206 0 2 0.3 2.6 0.668l-0.623 1.523c-0.658-0.26-1.171-0.43-1.968-0.43c-1.893 0-2.32 1.113-2.32 3.7 c0 2.7 0.4 3.9 2.6 3.918c0.983 0 1.199-0.096 1.956-0.25l0.436 1.609C24.52 100.7 24 100.9 22.5 100.9" class="style0"/>
		<path d="M34.03 100.943c-3.158 0-3.563-2.227-3.563-5.67c0-3.61 0.585-5.605 3.841-5.605 c3.014 0 3.5 2.3 3.5 5.637C37.842 98.8 37.3 100.9 34 100.9 M34.188 91.354c-1.526 0-1.639 1.419-1.639 3.9 c0 2.7 0.2 4 1.5 4.016c1.574 0 1.697-1.297 1.697-3.984C35.763 92.7 35.6 91.4 34.2 91.4" class="style0"/>
		<polygon points="47.8,100.8 45.2,93.8 44.8,92.1 44.7,92.1 44.9,93.9 44.9,100.8 43,100.8 43,89.8 45.5,89.8 48.2,96.9 48.7,98.6 48.7,98.6 48.6,96.9 48.6,89.8 50.5,89.8 50.5,100.8" class="style0"/>
		<path d="M60.272 100.904c-3.705 0-4.456-2.08-4.456-5.543c0-3.609 0.893-5.646 4.442-5.646 c1.205 0 2 0.3 2.6 0.668l-0.622 1.523c-0.657-0.26-1.171-0.43-1.974-0.43c-1.884 0-2.312 1.113-2.312 3.7 c0 2.7 0.4 3.9 2.6 3.918c0.987 0 1.196-0.096 1.953-0.25l0.439 1.609C62.264 100.7 61.8 100.9 60.3 100.9" class="style0"/>
		<polygon points="68.7,100.8 68.7,89.8 75.3,89.8 75.3,91.5 70.8,91.5 70.8,94.5 75,94.5 75,96.1 70.8,96.1 70.8,99.1 75.4,99.1 75.4,100.8" class="style0"/>
		<path d="M83.954 97.34h-0.739v3.416h-2.118v-10.92h3.631c2.361 0 3.5 1.3 3.5 3.7 C88.276 95.6 87.1 97.3 84 97.3 M84.305 91.506h-1.09v4.184h0.83c1.669 0 2.058-0.801 2.058-2.082 C86.103 92.3 85.8 91.5 84.3 91.5" class="style0"/>
		<polygon points="98.1,91.5 98.1,100.8 96,100.8 96,91.5 93.2,91.5 93.2,89.8 100.9,89.8 100.9,91.5" class="style0"/>
		<path d="M121.313 100.904c-1.562 0-2.333-0.166-3.214-0.488l0.481-1.669c0.846 0.3 1.6 0.4 2.7 0.4 c1.144 0 1.916-0.399 1.916-1.342c0-2.115-4.907-1.509-4.907-5.215c0-2.055 1.74-2.828 3.593-2.828 c1.236 0 2.1 0.2 2.9 0.541l-0.618 1.59c-0.725-0.246-1.314-0.436-2.201-0.436c-1.134 0-1.613 0.357-1.613 1.1 c0 1.9 5 1.7 5 5.17C125.31 100.1 123.5 100.9 121.3 100.9" class="style0"/>
		<polygon points="135.4,91.5 135.4,100.8 133.3,100.8 133.3,91.5 130.5,91.5 130.5,89.8 138.1,89.8 138.1,91.5" class="style0"/>
		<path d="M146.782 100.943c-3.165 0-3.568-2.227-3.568-5.67c0-3.61 0.585-5.605 3.847-5.605 c3.007 0 3.5 2.3 3.5 5.637C150.599 98.8 150.1 100.9 146.8 100.9 M146.938 91.4 c-1.525 0-1.639 1.419-1.639 3.902c0 2.7 0.2 4 1.5 4.016c1.572 0 1.699-1.297 1.699-3.984 C148.516 92.7 148.4 91.4 146.9 91.4" class="style0"/>
		<path d="M161.29 100.756l-1.789-3.971c-0.125 0.02-0.326 0.031-0.479 0.031h-0.74v3.939h-2.117v-10.92h3.629 c2.271 0 3.5 1.3 3.5 3.434c0 1.31-0.567 2.467-1.886 3.072l2.227 4.414H161.29z M159.376 91.506h-1.094v3.643h0.832 c1.391 0 2.053-0.676 2.053-1.807C161.167 92.2 160.7 91.5 159.4 91.5" class="style0"/>
		<polygon points="169.1,100.8 169.1,89.8 175.7,89.8 175.7,91.5 171.2,91.5 171.2,94.5 175.4,94.5 175.4,96.1 171.2,96.1 171.2,99.1 175.8,99.1 175.8,100.8" class="style0"/>
	</g>
	<rect x="1" y="1" width="192" height="80" class="style1"/>
	<g>
		<path d="M97.985 13.542h-1.981c-9.395 0-9.395 7.559-9.395 10.9v33.199c0 3.3 0 10.9 9.4 10.9h1.981 c9.392 0 9.392-7.561 9.392-10.9V24.441C107.377 21.1 107.4 13.5 98 13.5 M101.868 59.1 c0 4.049-1.505 4.049-4.876 4.049c-3.363 0-4.862 0-4.862-4.049V23.02c0-4.055 1.499-4.055 4.862-4.055 c3.371 0 4.9 0 4.9 4.055V59.062z" class="style2"/>
		<polygon points="17,13.9 22.5,13.9 22.5,62.8 32.4,62.8 32.4,68.2 17,68.2" class="style3"/>
		<polygon points="64.8,13.9 81.3,13.9 81.3,19.3 70.3,19.3 70.3,36.7 80.2,36.7 80.2,42.1 70.3,42.1 70.3,68.2 64.8,68.2" class="style3"/>
		<polygon points="39.1,13.9 56.9,13.9 56.9,19.3 44.6,19.3 44.6,36.7 54.4,36.7 54.4,42.1 44.6,42.1 44.6,62.8 56.9,62.8 56.9,68.2 39.1,68.2" class="style3"/>
		<polygon points="168.4,13.9 160.4,55.2 152.2,13.9 143.9,13.9 143.9,68.2 149.4,68.2 149.4,30.3 157.5,68.2 164,68.2 171.5,30 171.5,68.2 177,68.2 177,13.9" class="style2"/>
		<path d="M136.849 68.201l-5.807-23.658c4.998-2.119 4.998-5.977 4.998-9.871v-9.925 c0-3.823 0.008-10.867-9.389-10.867h-11.476v54.321h5.524V45.328h4.67l5.467 22.873H136.849z M120.696 19.314h4.958 c3.369 0 4.9 0 4.9 4.042l-0.009 12.722c0 4.069-1.497 4.069-4.864 4.069H120.7L120.696 19.314z" class="style2"/>
	</g>
</g>
</svg>
