<?xml version="1.0" standalone="no"?>
<!DOCTYPE svg PUBLIC "-//W3C//DTD SVG 1.1//EN" "http://www.w3.org/Graphics/SVG/1.1/DTD/svg11.dtd" >
<svg xmlns="http://www.w3.org/2000/svg">
<metadata></metadata>
<defs>
<font id="charcoal_cyregular" horiz-adv-x="1229" >
<font-face units-per-em="2048" ascent="1638" descent="-410" />
<missing-glyph horiz-adv-x="512" />
<glyph unicode="&#xd;" horiz-adv-x="512" />
<glyph horiz-adv-x="0" />
<glyph horiz-adv-x="0" />
<glyph unicode=" "  horiz-adv-x="512" />
<glyph unicode="&#x09;" horiz-adv-x="512" />
<glyph unicode="&#xa0;" horiz-adv-x="512" />
<glyph unicode="!" horiz-adv-x="721" d="M174 1536h373l-39 -1014h-293zM199 0v324h323v-324h-323z" />
<glyph unicode="&#x22;" horiz-adv-x="1024" d="M131 1038v498h285v-498h-285zM610 1038v498h283v-498h-283z" />
<glyph unicode="#" horiz-adv-x="1352" d="M4 383l49 225h269l75 320h-270l47 223h277l88 385h223l-92 -385h190l92 385h222l-93 -383h265l-58 -225h-260l-78 -320h277l-53 -223h-277l-90 -385h-217l90 385h-195l-90 -385h-217l90 383h-264zM539 608h194l78 320h-195z" />
<glyph unicode="$" d="M111 1135q0 176 131 287q114 97 299 124v158h147v-148q167 -3 367 -53l-37 -225q-158 58 -330 61v-401q210 -91 299 -174q133 -124 133 -305q0 -193 -122 -316q-113 -112 -310 -149v-166h-147v152h-15q-206 0 -401 61l45 239q189 -77 358 -77h13v475q-14 6 -54 22 q-376 149 -376 435zM397 1186q0 -118 144 -182v317q-144 -46 -144 -135zM688 223q125 49 125 176q0 125 -125 207v-383z" />
<glyph unicode="%" horiz-adv-x="1802" d="M80 1176q0 178 88 276q92 104 268 104q355 0 355 -380q0 -383 -355 -383q-177 0 -269 105q-87 99 -87 278zM238 0l1054 1536h260l-1052 -1536h-262zM301 1163q0 -221 135 -221q133 0 133 221q0 223 -133 223q-135 0 -135 -223zM1012 358q0 381 356 381q354 0 354 -381 q0 -383 -354 -383q-177 0 -269 105q-87 99 -87 278zM1233 348q0 -221 135 -221q133 0 133 221t-133 221q-135 0 -135 -221z" />
<glyph unicode="&#x26;" horiz-adv-x="1477" d="M63 365q0 165 107 292q82 98 246 205q-79 93 -119 162q-55 95 -55 186q0 161 112 256q105 90 269 90q174 0 281 -75q122 -87 122 -254q0 -135 -86 -240q-53 -65 -199 -170q80 -96 238 -291q138 153 219 373l229 -123q-34 -109 -110 -233q-86 -141 -158 -207l301 -336 h-321q-53 57 -160 170q-172 -197 -453 -197q-203 0 -326 92q-137 103 -137 300zM373 387q0 -154 174 -154q138 0 262 134l-131 151q-29 34 -119 150q-186 -153 -186 -281zM508 1202q0 -55 102 -190q148 113 148 184q0 139 -131 139q-119 0 -119 -133z" />
<glyph unicode="'" horiz-adv-x="594" d="M154 1038v498h282v-498h-282z" />
<glyph unicode="(" horiz-adv-x="864" d="M86 700q0 311 176 576q198 298 494 307v-151q-155 -59 -258 -318q-88 -222 -88 -414q0 -205 84 -415q99 -248 262 -316v-149q-321 9 -508 295q-162 248 -162 585z" />
<glyph unicode=")" horiz-adv-x="864" d="M111 -31q191 68 278 305q66 179 66 426q0 206 -82 418q-100 258 -262 314v151q312 0 503 -297q164 -255 164 -586q0 -339 -162 -583q-187 -282 -505 -297v149z" />
<glyph unicode="*" d="M162 1112l71 229l293 -124l-34 319h249l-36 -317l290 122l72 -229l-305 -68l211 -233l-203 -145l-156 272l-165 -272l-201 145l215 233z" />
<glyph unicode="+" d="M125 594v217h375v365h227v-365h377v-217h-377v-367h-227v367h-375z" />
<glyph unicode="," horiz-adv-x="594" d="M35 -219l143 551h348l-207 -551h-284z" />
<glyph unicode="-" horiz-adv-x="711" d="M55 571v240h600v-240h-600z" />
<glyph unicode="." horiz-adv-x="594" d="M129 0v332h334v-332h-334z" />
<glyph unicode="/" horiz-adv-x="965" d="M-51 -172l839 1708h232l-844 -1708h-227z" />
<glyph unicode="0" d="M63 762q0 331 113 536q142 258 436 258q551 0 551 -794q0 -789 -551 -789q-549 0 -549 789zM406 762q0 -245 22 -352q45 -217 184 -217q144 0 189 217q22 107 22 352q0 269 -22 371q-45 206 -189 206q-140 0 -184 -190q-22 -96 -22 -387z" />
<glyph unicode="1" d="M150 1167l466 369h293v-1536h-340v1141l-245 -195z" />
<glyph unicode="2" d="M78 0v274q219 196 389 369q272 277 272 461q0 106 -63.5 168.5t-169.5 62.5q-192 0 -374 -104l-33 211q240 114 483 114q232 0 360 -108q137 -116 137 -344q0 -209 -215 -479q-107 -134 -409 -398h673v-227h-1050z" />
<glyph unicode="3" d="M86 29l18 241q200 -77 357 -77q120 0 203 51q102 63 102 184q0 250 -320 250h-167v225h157q126 0 214 50q110 63 110 182q0 99 -77 154q-69 50 -171 50q-172 0 -358 -90l-23 228q212 79 447 79q197 0 331 -73q191 -104 191 -328q0 -244 -252 -354q125 -34 194 -135 q66 -96 66 -230q0 -249 -207 -370q-159 -93 -397 -93q-231 0 -418 56z" />
<glyph unicode="4" d="M20 334v244l582 958h412v-965h192v-237h-192v-334h-330v334h-664zM281 571h403v689z" />
<glyph unicode="5" d="M120 35l51 231q180 -67 312 -67q133 0 221.5 79.5t88.5 210.5q0 130 -105 204q-93 65 -229 65q-146 0 -293 -47l16 825h916v-227h-596l-10 -336q92 10 131 10q240 0 373 -120q139 -125 139 -363q0 -255 -185 -398q-167 -129 -430 -129q-180 0 -400 62z" />
<glyph unicode="6" d="M84 688q0 364 131 588q164 280 514 280q174 0 333 -58l-37 -228q-118 69 -282 69q-304 0 -342 -456q106 121 279 121q221 0 343 -127t122 -349q0 -260 -131 -404q-136 -151 -393 -151q-537 0 -537 715zM426 479q0 -286 195 -286q98 0 147 100q37 76 37 188 q0 305 -191 305q-188 0 -188 -307z" />
<glyph unicode="7" d="M94 1309v227h1022v-270l-549 -1266h-370l589 1309h-692z" />
<glyph unicode="8" d="M63 424q0 231 265 373q-240 116 -240 348q0 210 155 318q135 93 353 93q212 0 352 -80q174 -99 174 -296q0 -116 -63 -213t-168 -150q272 -138 272 -391q0 -231 -161 -349q-141 -104 -381 -104t-388 102q-170 119 -170 349zM406 410q0 -89 63 -153t152 -64q85 0 143.5 59 t58.5 145q0 178 -239 258q-178 -89 -178 -245zM418 1137q0 -128 223 -207q62 22 108 78t46 120q0 86 -44 146q-49 65 -133 65q-87 0 -143.5 -57t-56.5 -145z" />
<glyph unicode="9" d="M84 1001q0 263 129 406q134 149 395 149q537 0 537 -714q0 -363 -131 -586q-166 -283 -514 -283q-170 0 -362 66l44 227q134 -62 301 -62q308 0 344 443q-102 -121 -278 -121q-222 0 -343.5 126t-121.5 349zM426 1038q0 -295 190 -295q189 0 189 297q0 117 -41 197 q-52 102 -156 102q-100 0 -147 -106q-35 -79 -35 -195z" />
<glyph unicode=":" horiz-adv-x="594" d="M127 0v332h332v-332h-332zM127 838v329h332v-329h-332z" />
<glyph unicode=";" horiz-adv-x="594" d="M25 -219l145 551h346l-207 -551h-284zM135 838v329h334v-329h-334z" />
<glyph unicode="&#x3c;" d="M182 604v205l865 408v-250l-539 -265l539 -256v-251z" />
<glyph unicode="=" d="M135 340v240h957v-240h-957zM135 825v242h957v-242h-957z" />
<glyph unicode="&#x3e;" d="M182 195v251l539 256l-539 265v250l865 -408v-205z" />
<glyph unicode="?" horiz-adv-x="934" d="M29 1425q188 131 450 131q186 0 303 -69q146 -85 146 -258q0 -144 -85 -235l-194 -160q-96 -81 -96 -211v-150h-279v193q0 187 172 307q87 60 111 89q45 53 45 132q0 139 -205 139q-185 0 -336 -112zM256 0v328h319v-328h-319z" />
<glyph unicode="@" horiz-adv-x="1714" d="M94 760q0 359 236 580q231 216 592 216q299 0 491 -157q209 -171 209 -465q0 -202 -106 -359q-117 -174 -314 -174q-179 0 -194 162q-96 -176 -277 -176q-132 0 -207 95q-69 88 -69 223q0 183 112 329q122 158 299 160q162 1 217 -127l27 94h205l-133 -459 q-19 -66 -19 -92q0 -73 76 -73q53 0 117 63q123 120 123 346q0 237 -166 370q-153 122 -395 122q-307 0 -499 -190t-192 -496q0 -296 188 -469q182 -168 480 -168q297 0 553 194l70 -92q-303 -223 -631 -223q-348 0 -568 208q-225 212 -225 558zM700 684q0 -147 103 -147 q128 0 186 260q29 129 29 151q0 99 -103 99q-71 0 -131 -91q-84 -127 -84 -272z" />
<glyph unicode="A" horiz-adv-x="1382" d="M4 0l516 1536h324l532 -1536h-354l-115 369h-506l-116 -369h-281zM469 590h367l-189 565z" />
<glyph unicode="B" horiz-adv-x="1323" d="M150 0v1536h575q198 0 308 -91q120 -98 120 -292q0 -129 -72 -223q-75 -98 -200 -119q350 -46 350 -375q0 -226 -167 -339q-143 -97 -380 -97h-534zM483 221h166q238 0 238 238q0 221 -256 221h-148v-459zM483 883h113q238 0 238 213q0 219 -240 219h-111v-432z" />
<glyph unicode="C" horiz-adv-x="1210" d="M80 762q0 344 174 559q191 235 524 235q249 0 369 -60l-37 -228q-104 51 -276 51q-211 0 -316 -182q-84 -146 -84 -375q0 -549 369 -549q167 0 310 66l43 -226q-149 -80 -376 -80q-351 0 -533 224q-167 206 -167 565z" />
<glyph unicode="D" horiz-adv-x="1382" d="M150 0v1536h505q643 0 643 -768q0 -406 -147 -586q-102 -125 -205 -159q-69 -23 -233 -23h-563zM496 227h159q192 0 258 189q37 106 37 352q0 539 -325 539h-129v-1080z" />
<glyph unicode="E" horiz-adv-x="1176" d="M150 0v1536h933v-229h-587v-414h456v-229h-456v-437h587v-227h-933z" />
<glyph unicode="F" horiz-adv-x="1139" d="M150 0v1536h933v-229h-587v-414h456v-229h-456v-664h-346z" />
<glyph unicode="G" horiz-adv-x="1382" d="M86 772q0 363 178 568q189 216 547 216q218 0 362 -80l-37 -228q-159 71 -294 71q-412 0 -412 -557q0 -240 51 -365q77 -188 281 -188q184 0 246 96v313h-246v205h534v-594q-163 -256 -563 -256q-647 0 -647 799z" />
<glyph unicode="H" horiz-adv-x="1382" d="M150 0v1536h346v-641h391v641h346v-1536h-346v662h-391v-662h-346z" />
<glyph unicode="I" horiz-adv-x="764" d="M209 0v1536h346v-1536h-346z" />
<glyph unicode="J" horiz-adv-x="971" d="M53 52l41 220q110 -39 215 -39q154 0 154 152v1151h346v-1180q0 -179 -121 -278q-112 -92 -295 -92q-231 0 -340 66z" />
<glyph unicode="K" horiz-adv-x="1366" d="M150 0v1536h346v-647l483 647h340l-479 -594l542 -942h-374l-383 662l-129 -160v-502h-346z" />
<glyph unicode="L" horiz-adv-x="1077" d="M150 0v1536h346v-1309h571v-227h-917z" />
<glyph unicode="M" horiz-adv-x="1913" d="M129 0v1536h256l578 -1118l585 1118h228v-1536h-318v881l-471 -881h-178l-440 881v-881h-240z" />
<glyph unicode="N" horiz-adv-x="1421" d="M129 0v1536h184l736 -909v909h243v-1536h-149l-768 965v-965h-246z" />
<glyph unicode="O" horiz-adv-x="1419" d="M80 760q0 353 138 557q163 239 501 239q330 0 488 -243q132 -203 132 -551q0 -346 -137 -549q-161 -240 -491 -240q-333 0 -494 237q-137 202 -137 550zM428 672q0 -229 53 -340q66 -139 230 -139q280 0 280 477v184q0 226 -45 333q-64 152 -235 152q-175 0 -238 -149 q-45 -106 -45 -334v-184z" />
<glyph unicode="P" horiz-adv-x="1210" d="M150 0v1536h489q530 0 530 -457q0 -239 -152 -363q-140 -114 -384 -114h-137v-602h-346zM496 829h86q241 0 241 254q0 238 -258 238h-69v-492z" />
<glyph unicode="Q" horiz-adv-x="1419" d="M80 760q0 353 138 557q163 239 501 239q330 0 488 -243q132 -203 132 -551q0 -345 -137 -549q-69 -103 -170 -162q9 -96 129 -96l127 12v-252q-72 -16 -119 -16q-160 0 -236 63.5t-95 220.5q-60 -10 -127 -10q-333 0 -494 237q-137 202 -137 550zM428 672q0 -229 53 -340 q66 -139 230 -139q280 0 280 477v184q0 226 -45 333q-64 152 -235 152q-175 0 -238 -149q-45 -106 -45 -334v-184z" />
<glyph unicode="R" horiz-adv-x="1270" d="M150 0v1536h497q520 0 520 -446q0 -283 -231 -408l315 -682h-385l-248 623h-122v-623h-346zM496 840h92q231 0 231 250q0 231 -248 231h-75v-481z" />
<glyph unicode="S" horiz-adv-x="1176" d="M76 58l45 239q166 -80 344 -80q137 0 197 29q90 43 90 164q0 96 -113 168q-52 33 -195 90q-180 72 -263 171q-95 114 -95 296q0 211 186 325q157 96 383 96q239 0 393 -62l-37 -225q-193 50 -337 50q-260 0 -260 -152q0 -102 110 -166q13 -8 203 -77q383 -140 383 -467 q0 -477 -584 -477q-262 0 -450 78z" />
<glyph unicode="T" horiz-adv-x="1042" d="M10 1307v229h1022v-229h-334v-1307h-346v1307h-342z" />
<glyph unicode="U" horiz-adv-x="1382" d="M143 504v1032h349v-1075q0 -131 60 -190.5t191 -59.5q139 0 196.5 59.5t57.5 198.5v1067h258v-1092q0 -462 -546 -462q-566 0 -566 522z" />
<glyph unicode="V" horiz-adv-x="1270" d="M-25 1536h387l326 -1028l322 1028h282l-520 -1536h-291z" />
<glyph unicode="W" horiz-adv-x="1964" d="M-20 1536h372l258 -930l289 930h266l299 -930l238 930h280l-426 -1536h-249l-324 1001l-328 -1001h-252z" />
<glyph unicode="X" horiz-adv-x="1251" d="M-20 0l473 768l-422 768h389l264 -473l285 473h291l-443 -713l455 -823h-393l-289 526l-322 -526h-288z" />
<glyph unicode="Y" horiz-adv-x="1350" d="M-12 1536h405l336 -616l358 616h277l-512 -885v-651h-344v616z" />
<glyph unicode="Z" horiz-adv-x="1139" d="M39 0v209l674 1098h-647v229h1030v-203l-676 -1106h676v-227h-1057z" />
<glyph unicode="[" horiz-adv-x="711" d="M94 -348v1884h543v-188h-240v-1495h240v-201h-543z" />
<glyph unicode="\" horiz-adv-x="965" d="M-51 1536h227l844 -1708h-232z" />
<glyph unicode="]" horiz-adv-x="711" d="M74 -147h239v1495h-239v188h542v-1884h-542v201z" />
<glyph unicode="^" d="M106 698l386 838h247l383 -838h-317l-199 473l-178 -473h-322z" />
<glyph unicode="_" horiz-adv-x="1067" d="M0 -197h1067v-151h-1067v151z" />
<glyph unicode="`" horiz-adv-x="594" d="M33 1706h299l254 -360h-219z" />
<glyph unicode="a" horiz-adv-x="1251" d="M72 389q0 192 130 304q123 106 318 106q170 0 271 -100v155q0 143 -209 143q-185 0 -322 -73l-29 184q205 86 433 86q444 0 444 -428v-766h-291l-20 154q-44 -81 -144 -127q-89 -41 -190 -41q-391 0 -391 403zM399 406q0 -213 199 -213q195 0 195 215q0 231 -195 231 q-199 0 -199 -233z" />
<glyph unicode="b" horiz-adv-x="1303" d="M154 0v1536h323v-528q125 186 338 186q221 0 326 -199q82 -156 82 -397q0 -614 -430 -614q-94 0 -183 47t-139 125l-20 -156h-297zM473 594q0 -165 27 -242q45 -129 176 -129q139 0 184 127q25 71 25 244q0 172 -25 243q-45 128 -184 128q-131 0 -176 -130 q-27 -77 -27 -241z" />
<glyph unicode="c" horiz-adv-x="1065" d="M63 588q0 289 161 450.5t450 161.5q212 0 328 -81l-30 -196q-94 74 -249 74q-307 0 -307 -415q0 -394 270 -394q64 0 156.5 23t136.5 50l38 -194q-52 -34 -158.5 -64t-176.5 -30q-619 0 -619 615z" />
<glyph unicode="d" horiz-adv-x="1303" d="M86 598q0 236 92 397q114 199 336 199q217 0 317 -166v508h324v-1536h-297l-20 156q-50 -78 -139 -125t-183 -47q-430 0 -430 614zM424 594q0 -172 25 -244q44 -127 184 -127q131 0 176 129q27 77 27 242q0 164 -27 241q-45 130 -176 130q-139 0 -184 -128 q-25 -72 -25 -243z" />
<glyph unicode="e" horiz-adv-x="1251" d="M78 580q0 278 138 443q148 177 421 177q264 0 399 -155q127 -147 127 -414v-109h-760q0 -344 308 -344q161 0 343 83l50 -176q-199 -112 -449 -112q-282 0 -432 164q-145 158 -145 443zM406 690h456q-18 324 -225 324q-216 0 -231 -324z" />
<glyph unicode="f" horiz-adv-x="690" d="M18 963v206h160v13q0 175 100.5 274.5t276.5 99.5q174 0 289 -75l-86 -174q-67 51 -140 51q-115 0 -115 -166v-23h216v-206h-215v-963h-325v963h-161z" />
<glyph unicode="g" horiz-adv-x="1303" d="M80 596q0 257 112 412q128 178 375 178q189 0 285 -160v143h305v-1009q0 -263 -165 -403q-154 -132 -421 -132q-222 0 -415 78l43 210q160 -65 333 -65q314 0 314 238v125q-80 -197 -334 -197q-224 0 -338 188q-94 155 -94 394zM414 627q0 -207 40 -290q49 -101 179 -101 q137 0 178 148q20 72 20 263q0 359 -198 359q-219 0 -219 -379z" />
<glyph unicode="h" horiz-adv-x="1303" d="M145 0v1536h324v-545q141 203 395 203q295 0 295 -373v-821h-323v821q0 125 -134 125q-150 0 -233 -104v-842h-324z" />
<glyph unicode="i" horiz-adv-x="639" d="M156 0v1169h325v-1169h-325zM156 1286v250h325v-250h-325z" />
<glyph unicode="j" horiz-adv-x="639" d="M-208 -319l44 216q79 -30 164 -30q158 0 158 168v1134h325v-1091q0 -192 -93 -310q-101 -130 -288 -130q-195 0 -310 43zM158 1286v250h325v-250h-325z" />
<glyph unicode="k" horiz-adv-x="1210" d="M150 0v1536h327v-848l395 481h291l-381 -446l437 -723h-375l-273 473l-94 -113v-360h-327z" />
<glyph unicode="l" horiz-adv-x="639" d="M156 0v1536h325v-1536h-325z" />
<glyph unicode="m" horiz-adv-x="1997" d="M145 0v1169h291l21 -184q110 209 385 209q231 0 299 -219q61 121 154 170q81 43 225 49h16q143 0 231 -106q86 -104 86 -261v-827h-325v821q0 53 -47 91q-44 34 -99 34q-141 0 -223 -125v-821h-323v821q0 58 -48 93q-43 32 -102 32q-134 0 -217 -104v-842h-324z" />
<glyph unicode="n" horiz-adv-x="1303" d="M145 0v1169h291l21 -186q42 102 163 160q106 51 228 51q311 0 311 -373v-821h-323v821q0 56 -50 93q-45 32 -104 32q-124 0 -213 -104v-842h-324z" />
<glyph unicode="o" horiz-adv-x="1303" d="M63 588q0 287 150 447q153 165 438 165q286 0 439 -164q149 -160 149 -448q0 -293 -145 -451q-150 -164 -441 -164q-286 0 -440 166q-150 161 -150 449zM401 588q0 -420 250 -420q252 0 252 420t-252 420q-250 0 -250 -420z" />
<glyph unicode="p" horiz-adv-x="1303" d="M154 -348v1517h297l20 -155q50 77 139.5 124.5t182.5 47.5q430 0 430 -615q0 -236 -88 -397q-109 -199 -320 -199q-219 0 -338 177v-500h-323zM473 575q0 -164 27 -241q45 -129 176 -129q139 0 184 127q25 71 25 243q0 173 -25 244q-45 127 -184 127q-131 0 -176 -129 q-27 -77 -27 -242z" />
<glyph unicode="q" horiz-adv-x="1303" d="M86 575q0 615 430 615q95 0 183 -46.5t139 -125.5l20 151h297v-1517h-324v493q-100 -165 -317 -165q-223 0 -336 198q-92 161 -92 397zM424 580q0 -172 25 -244q44 -127 184 -127q131 0 176 129q27 77 27 242q0 164 -27 241q-45 129 -176 129q-140 0 -184 -127 q-25 -72 -25 -243z" />
<glyph unicode="r" horiz-adv-x="877" d="M154 0v1169h315v-243q24 106 103 184q86 84 190 84q42 0 63 -6v-301q-136 0 -229 -78q-119 -100 -119 -287v-522h-323z" />
<glyph unicode="s" horiz-adv-x="948" d="M43 45l38 193q143 -76 275 -76q87 0 154 28q88 37 88 115q0 81 -92 129q-23 12 -162 55q-145 45 -209 129q-67 87 -67 236q0 172 136 261q115 75 296 75q187 0 320 -68l-27 -175q-104 57 -277 57q-74 0 -127 -23q-74 -32 -74 -94q0 -70 88 -107q6 -3 148 -45 q170 -51 244 -125q92 -92 92 -254q0 -206 -158 -303q-129 -80 -348 -80q-206 0 -338 72z" />
<glyph unicode="t" horiz-adv-x="807" d="M18 963v206h155v148l325 196v-344h243v-206h-243v-594q0 -90 29 -129q34 -47 120 -47q77 0 113 17l47 -164q-107 -56 -287 -56q-173 0 -264 116q-84 106 -84 283v574h-154z" />
<glyph unicode="u" horiz-adv-x="1303" d="M145 352v817h324v-786q0 -158 133 -158q154 0 234 111v833h323v-1169h-297l-20 182q-155 -207 -404 -207q-293 0 -293 377z" />
<glyph unicode="v" horiz-adv-x="1198" d="M-8 1169h352l287 -768l317 768h258l-504 -1169h-237z" />
<glyph unicode="w" horiz-adv-x="1792" d="M-8 1169h366l250 -692l250 692h162l260 -686l264 686h258l-475 -1169h-213l-221 602l-244 -602h-223z" />
<glyph unicode="x" d="M-14 0l471 602l-414 567h377l219 -327l244 327h305l-416 -528l465 -641h-379l-272 401l-295 -401h-305z" />
<glyph unicode="y" d="M2 1169h352l287 -757l315 757h263l-674 -1517h-271l187 393z" />
<glyph unicode="z" horiz-adv-x="1038" d="M43 0v260l596 703h-588v206h938v-256l-616 -704h645v-209h-975z" />
<glyph unicode="{" horiz-adv-x="711" d="M35 516v182q174 -9 174 93v479q0 120 92 200q75 66 150 66h223v-190h-58q-67 0 -86 -33q-12 -21 -12 -72v-444q0 -172 -205 -191v-4q205 -15 205 -207v-448q0 -52 12 -72q20 -33 86 -33h58v-190h-223q-76 0 -150 65q-92 80 -92 203v477q0 128 -174 119z" />
<glyph unicode="|" horiz-adv-x="594" d="M168 -420v1958h260v-1958h-260z" />
<glyph unicode="}" horiz-adv-x="711" d="M35 -158h57q66 0 84 33q14 20 14 72v448q0 192 205 207v4q-205 19 -205 191v444q0 55 -14 72q-20 33 -84 33h-57v190h223q73 0 150 -66q92 -78 92 -200v-479q0 -102 174 -93v-182q-174 9 -174 -119v-477q0 -123 -92 -203q-75 -65 -150 -65h-223v190z" />
<glyph unicode="~" d="M121 709q99 188 258 188q94 0 248 -74.5t225 -74.5q76 0 178 151l76 -186q-114 -189 -246 -189q-84 0 -242 75t-237 75q-114 0 -184 -154z" />
<glyph unicode="&#xa3;" d="M31 641v207h147v190q0 230 169 377q161 141 394 141q169 0 371 -54l-36 -221q-156 42 -281 42q-153 0 -217 -82q-54 -70 -54 -229v-164h295v-207h-295v-414h631v-227h-977v641h-147z" />
<glyph unicode="&#xa4;" d="M33 332l121 123q-91 133 -91 295q0 156 91 292l-121 121l143 146l123 -121q131 90 295 90q156 0 293 -90l123 121l143 -146l-121 -121q88 -130 88 -290q0 -164 -88 -297l121 -123l-143 -146l-123 123q-137 -90 -293 -90q-158 0 -295 90l-123 -123zM324 750 q0 -117 77 -199t193 -82q117 0 192 83q74 80 74 198q0 116 -75.5 198t-190.5 82q-114 0 -192 -82.5t-78 -197.5z" />
<glyph unicode="&#xa7;" horiz-adv-x="924" d="M55 47l39 189q154 -70 273 -70q208 0 208 129q0 90 -213 188q-128 59 -186 113q-82 76 -82 192q0 59 34.5 127.5t82.5 104.5q-121 56 -121 215q0 157 118 244q105 77 267 77q188 0 322 -74l-30 -196q-116 80 -290 80q-153 0 -153 -104q0 -66 84 -117q28 -17 143 -64 q303 -124 303 -297q0 -175 -127 -268q113 -70 113 -221q0 -164 -142 -250q-119 -72 -292 -72q-75 0 -180 21q-115 23 -171 53zM317 821q0 -69 89 -123l151 -71q41 35 41 110q0 84 -223 185q-20 -12 -39 -45t-19 -56z" />
<glyph unicode="&#xa9;" horiz-adv-x="1638" d="M33 768q0 333 226.5 558.5t559.5 225.5q331 0 559 -226.5t228 -557.5q0 -335 -226 -561.5t-561 -226.5t-560.5 226.5t-225.5 561.5zM240 768q0 -266 156 -432q159 -170 423 -170q261 0 423 172q159 168 159 430q0 260 -160 428q-163 170 -422 170q-263 0 -423 -168 q-156 -166 -156 -430zM418 772q0 203 112 327q117 128 318 128q144 0 244 -78.5t129 -218.5h-179q-27 143 -196 143q-116 0 -179 -94q-53 -81 -53 -203q0 -117 59 -205q68 -100 179 -100q70 0 125 41q59 44 65 111h179q-19 -142 -121.5 -223t-247.5 -81q-197 0 -317 129 q-117 126 -117 324z" />
<glyph unicode="&#xab;" horiz-adv-x="1116" d="M43 612l260 451h277l-242 -451l242 -450h-277zM532 612l261 451h274l-240 -451l240 -450h-274z" />
<glyph unicode="&#xac;" d="M123 805v262h981v-596h-230v334h-751z" />
<glyph unicode="&#xad;" horiz-adv-x="711" d="M55 571v240h600v-240h-600z" />
<glyph unicode="&#xae;" horiz-adv-x="852" d="M33 1163q0 181 133 298q108 95 258 95q169 0 282 -112t113 -281q0 -166 -113.5 -279.5t-279.5 -113.5q-168 0 -280.5 112.5t-112.5 280.5zM133 1163q0 -130 81 -216.5t210 -86.5q131 0 213 87q80 84 80 216q0 133 -79 217t-212 84q-131 0 -212 -84.5t-81 -216.5zM279 948 v428h165q164 0 164 -131q0 -107 -114 -117l100 -180h-100l-95 180h-28v-180h-92zM369 1194h75q82 0 82 59q0 56 -102 56h-55v-115z" />
<glyph unicode="&#xb0;" horiz-adv-x="854" d="M51 1182q0 156 109.5 265t265.5 109t265.5 -109t109.5 -265q0 -157 -109 -266t-266 -109t-266 109t-109 266zM252 1184q0 -72 50 -122t122 -50t122 50t50 122q0 71 -50.5 121.5t-121.5 50.5t-121.5 -50.5t-50.5 -121.5z" />
<glyph unicode="&#xb1;" d="M201 0v221h825v-221h-825zM201 659v238h291v279h229v-279h295v-238h-295v-276h-229v276h-291z" />
<glyph unicode="&#xb5;" horiz-adv-x="1303" d="M145 -348v1517h324v-770q0 -172 137 -172q75 0 148 35q57 27 82 80v827h323v-1169h-307l-16 170q-81 -170 -277 -170h-61q-34 0 -56 8v-356h-297z" />
<glyph unicode="&#xb6;" d="M76 1087q0 171 115 305q124 144 307 144h639v-141h-158v-1661h-152v1661h-172v-1661h-151v897q-198 20 -311 138q-117 121 -117 318z" />
<glyph unicode="&#xbb;" horiz-adv-x="1116" d="M43 162l242 450l-242 451h276l261 -451l-261 -450h-276zM532 162l242 450l-242 451h279l256 -451l-256 -450h-279z" />
<glyph unicode="&#xf7;" d="M125 571v240h979v-240h-979zM487 195v249h250v-249h-250zM487 934v250h250v-250h-250z" />
<glyph unicode="&#x2000;" horiz-adv-x="853" />
<glyph unicode="&#x2001;" horiz-adv-x="1706" />
<glyph unicode="&#x2002;" horiz-adv-x="853" />
<glyph unicode="&#x2003;" horiz-adv-x="1706" />
<glyph unicode="&#x2004;" horiz-adv-x="568" />
<glyph unicode="&#x2005;" horiz-adv-x="426" />
<glyph unicode="&#x2006;" horiz-adv-x="284" />
<glyph unicode="&#x2007;" horiz-adv-x="284" />
<glyph unicode="&#x2008;" horiz-adv-x="213" />
<glyph unicode="&#x2009;" horiz-adv-x="341" />
<glyph unicode="&#x200a;" horiz-adv-x="94" />
<glyph unicode="&#x2010;" horiz-adv-x="711" d="M55 571v240h600v-240h-600z" />
<glyph unicode="&#x2011;" horiz-adv-x="711" d="M55 571v240h600v-240h-600z" />
<glyph unicode="&#x2012;" horiz-adv-x="711" d="M55 571v240h600v-240h-600z" />
<glyph unicode="&#x2013;" horiz-adv-x="1024" d="M0 571v240h1024v-240h-1024z" />
<glyph unicode="&#x2014;" horiz-adv-x="2048" d="M0 571v240h2048v-240h-2048z" />
<glyph unicode="&#x2018;" horiz-adv-x="594" d="M49 983l207 553h285l-144 -553h-348z" />
<glyph unicode="&#x2019;" horiz-adv-x="594" d="M49 983l146 553h346l-205 -553h-287z" />
<glyph unicode="&#x201c;" horiz-adv-x="1110" d="M63 983l207 553h287l-145 -553h-349zM545 983l205 553h284l-145 -553h-344z" />
<glyph unicode="&#x201d;" horiz-adv-x="1110" d="M63 983l146 553h348l-207 -553h-287zM545 983l143 553h346l-205 -553h-284z" />
<glyph unicode="&#x201e;" horiz-adv-x="1110" d="M63 -219l146 551h348l-207 -551h-287zM545 -219l143 551h346l-205 -551h-284z" />
<glyph unicode="&#x2022;" d="M180 780q0 181 126.5 307.5t307.5 126.5q180 0 307.5 -127t127.5 -307q0 -182 -126.5 -307t-308.5 -125q-181 0 -307.5 125.5t-126.5 306.5z" />
<glyph unicode="&#x2026;" horiz-adv-x="2048" d="M139 0v332h334v-332h-334zM860 0v332h332v-332h-332zM1579 0v332h334v-332h-334z" />
<glyph unicode="&#x202f;" horiz-adv-x="341" />
<glyph unicode="&#x205f;" horiz-adv-x="426" />
<glyph unicode="&#x20ac;" horiz-adv-x="1524" d="M-78 495l48 110h1047l-48 -110h-1047zM-78 715l48 110h1139l-46 -110h-1141zM100 660q0 280 190 470t470 190t476 -196l-48 -111q-183 197 -428 197q-230 0 -390 -160t-160 -390t160 -390t390 -160q250 0 428 201v-162q-173 -149 -428 -149q-280 0 -470 190t-190 470z " />
<glyph unicode="&#x2122;" horiz-adv-x="2048" d="M156 1372v164h714v-164h-256v-678h-202v678h-256zM961 694v842h253l232 -500l231 500h254v-842h-182v678h-4l-246 -524h-108l-242 524h-6v-678h-182z" />
<glyph unicode="&#x25fc;" horiz-adv-x="1170" d="M0 0v1170h1170v-1170h-1170z" />
</font>
</defs>
</svg>
