<?xml version="1.0" encoding="utf-8"?>
<!-- Generator: Adobe Illustrator 16.0.0, SVG Export Plug-In . SVG Version: 6.00 Build 0)  -->
<!DOCTYPE svg PUBLIC "-//W3C//DTD SVG 1.1//EN" "http://www.w3.org/Graphics/SVG/1.1/DTD/svg11.dtd">
<svg version="1.1" id="Layer_1" xmlns="http://www.w3.org/2000/svg" xmlns:xlink="http://www.w3.org/1999/xlink" x="0px" y="0px"
	 width="4px" height="20px" viewBox="0 0 4 20" enable-background="new 0 0 4 20" xml:space="preserve">
<g>
	<polygon fill="#FFFFFF" points="2,10 4,10 4,9 4,8 4,5 4,3 2,3 2,3 2,0 0,0 0,3 0,5 2,5 2,5 2,8 2,8 0,8 0,10 0,13 2,13 	"/>
	<polyline fill="#FFFFFF" points="2,20 4,20 4,19 4,18 4,15 4,13 2,13 2,13 2,10 0,10 0,13 0,15 2,15 2,15 2,18 2,18 0,18 0,20 	"/>
	<line fill="#FFFFFF" x1="2" y1="20" x2="0" y2="20"/>
</g>
</svg>
