<?xml version="1.0" encoding="utf-8"?>
<!-- Generator: Adobe Illustrator 16.0.0, SVG Export Plug-In . SVG Version: 6.00 Build 0)  -->
<!DOCTYPE svg PUBLIC "-//W3C//DTD SVG 1.1//EN" "http://www.w3.org/Graphics/SVG/1.1/DTD/svg11.dtd">
<svg version="1.1" id="Layer_1" xmlns="http://www.w3.org/2000/svg" xmlns:xlink="http://www.w3.org/1999/xlink" x="0px" y="0px"
	 width="138px" height="32.0415039px" viewBox="0 0 138 32.0415039" enable-background="new 0 0 138 32.0415039"
	 xml:space="preserve">
<g>
	<g>
		<rect y="0.0415039" fill="#FFFFFF" width="138" height="30"/>
	</g>
	<path fill="#0071CE" d="M137,1.0415039v28H1v-28H137 M138,0.0415039H0v30h138V0.0415039L138,0.0415039z"/>
</g>
<g opacity="0.25">
	<rect y="30.0415039" fill="#0071CE" width="138" height="2"/>
</g>
<g>
	<g>
		<path fill="#0071CE" d="M48.0751953,15.6137695c-0.1992188-0.4248047-0.4511719-0.7783203-0.7128906-1.0712891
			c0.2617188-0.2939453,0.5136719-0.6484375,0.7128906-1.0712891c0.2558594-0.5400391,0.4179688-1.1904297,0.4160156-1.9042969
			c0.0029297-0.9609375-0.2148438-1.7646484-0.5566406-2.3779297C47.71875,8.7963867,47.4130859,8.472168,47.0859375,8.2407227
			c-0.4941406-0.3486328-1.0117188-0.5068359-1.4824219-0.5957031c-0.4726562-0.0859375-0.9140625-0.1025391-1.3046875-0.1035156
			H39.40625v0.0009766c-0.3515625,0.0009766-0.6328125-0.0048828-0.9628906,0.0302734
			c-0.2431641,0.0302734-0.5488281,0.0761719-0.9101562,0.2880859c-0.2675781,0.15625-0.5195312,0.4296875-0.6533203,0.6943359
			c-0.2070312,0.4033203-0.2285156,0.7119141-0.2529297,0.9746094c-0.0185547,0.2666016-0.0166016,0.5166016-0.0166016,0.8125
			c0,1.2685547,0,4.8369141,0,5.4951172c0,1.1113281,0,2.2832031,0,2.9042969
			c0.0009766,0.3515625-0.0048828,0.6337891,0.0302734,0.9638672c0.0302734,0.2441406,0.0761719,0.5507812,0.2880859,0.9111328
			c0.15625,0.2685547,0.4287109,0.5205078,0.6933594,0.65625c0.4023438,0.2050781,0.7099609,0.2265625,0.9736328,0.2529297
			c0.265625,0.0175781,0.5146484,0.0146484,0.8105469,0.015625l0,0h4.8925781
			c0.5214844-0.0019531,1.1308594-0.0244141,1.7880859-0.21875c0.3271484-0.0996094,0.671875-0.2470703,0.9990234-0.4804688
			c0.3271484-0.2304688,0.6328125-0.5556641,0.8486328-0.9472656c0.3417969-0.6142578,0.5595703-1.4169922,0.5576172-2.3779297
			C48.4931641,16.8022461,48.3310547,16.1518555,48.0751953,15.6137695z M44.2988281,10.3422852
			c0.4013672-0.0029297,0.7744141,0.0332031,0.9814453,0.1005859c0.1044922,0.0302734,0.1630859,0.0644531,0.1865234,0.0810547
			c0.0224609,0.0185547,0.0146484,0.0117188,0.0224609,0.0224609c0.0927734,0.1708984,0.2050781,0.4619141,0.2070312,1.0205078
			c-0.0009766,0.3046875-0.0615234,0.5195312-0.1494141,0.7089844c-0.0878906,0.1875-0.2128906,0.3515625-0.3564453,0.4931641
			c-0.1123047,0.109375-0.2714844,0.2011719-0.5458984,0.2714844c-0.2695312,0.0703125-0.6347656,0.1025391-1.03125,0.1015625l0,0
			c-1.1865234,0-2.9013672,0-4.2070312,0c0-1.0800781,0-2.1992188,0-2.7998047H44.2988281z M45.4902344,18.5366211
			c-0.0087891,0.0117188-0.0009766,0.0048828-0.0244141,0.0244141c-0.03125,0.0244141-0.1552734,0.0859375-0.3701172,0.1240234
			c-0.2109375,0.0400391-0.4960938,0.0576172-0.796875,0.0566406H39.40625c0-0.6015625,0-1.7197266,0-2.7998047l0,0l0,0
			c0.1386719,0,0.28125,0,0.4287109,0c1.2353516,0,2.71875,0,3.7773438,0
			C44.0097656,15.940918,44.375,15.972168,44.6445312,16.043457c0.2744141,0.0703125,0.4335938,0.1621094,0.5458984,0.2714844
			c0.1435547,0.1416016,0.2685547,0.3046875,0.3564453,0.4921875c0.0878906,0.1904297,0.1484375,0.4052734,0.1494141,0.7099609
			C45.6943359,18.0756836,45.5820312,18.3666992,45.4902344,18.5366211z"/>
		<path fill="#0071CE" d="M34.0087891,9.5991211c-0.3046875-0.7617188-0.8964844-1.3095703-1.5078125-1.6181641
			c-0.6181641-0.3144531-1.2695312-0.4365234-1.9003906-0.4394531c-0.5839844,0-1.2929688,0-2.0107422,0s-1.4267578,0-2.0097656,0
			c-0.6318359,0.0029297-1.2822266,0.125-1.9003906,0.4394531c-0.6123047,0.3085938-1.203125,0.8564453-1.5078125,1.6181641
			c-0.4238281,1.046875-0.7851562,2.6230469-0.7851562,4.9433594c0,2.3193359,0.3613281,3.8945312,0.7851562,4.9423828
			c0.3046875,0.7617188,0.8955078,1.3095703,1.5087891,1.6181641c0.6181641,0.3144531,1.2685547,0.4375,1.9003906,0.4384766
			h0.5244141h2.9697266h0.5244141c0.6318359-0.0009766,1.28125-0.1240234,1.8994141-0.4384766
			c0.6132812-0.3085938,1.2050781-0.8564453,1.5097656-1.6181641c0.4228516-1.0478516,0.7841797-2.6230469,0.7841797-4.9423828
			C34.7929688,12.222168,34.4316406,10.6459961,34.0087891,9.5991211z M31.4169922,18.434082
			c-0.0253906,0.0556641-0.0507812,0.0986328-0.1923828,0.1767578c-0.1357422,0.0722656-0.3769531,0.1328125-0.625,0.1308594
			h-3.4941406l0,0h-0.5244141c-0.2480469,0.0019531-0.4902344-0.0585938-0.6259766-0.1308594
			c-0.1416016-0.078125-0.1660156-0.1210938-0.1914062-0.1767578c-0.2646484-0.6542969-0.5810547-1.8603516-0.5810547-3.8916016
			c0-2.0322266,0.3164062-3.2382812,0.5810547-3.8935547c0.0253906-0.0546875,0.0498047-0.0976562,0.1914062-0.1757812
			c0.1357422-0.0732422,0.3779297-0.1328125,0.625-0.1308594c0.1660156,0,0.3417969,0,0.5253906,0
			c0.9550781,0,2.0546875,0,2.9697266,0c0.1835938,0,0.3603516,0,0.5253906,0
			c0.2480469-0.0019531,0.4882812,0.0576172,0.6240234,0.1308594c0.1416016,0.078125,0.1669922,0.1210938,0.1923828,0.1757812
			c0.2646484,0.6552734,0.5800781,1.8613281,0.5800781,3.8935547C31.9970703,16.5737305,31.6816406,17.7797852,31.4169922,18.434082
			z"/>
		<path fill="#0071CE" d="M61.7910156,9.5991211c-0.3046875-0.7617188-0.8964844-1.3085938-1.5087891-1.6181641
			c-0.6171875-0.3144531-1.2675781-0.4365234-1.8994141-0.4394531c-0.5830078,0-1.2929688,0-2.0097656,0
			c-0.71875,0-1.4277344,0-2.0107422,0c-0.6328125,0.0029297-1.2822266,0.125-1.9003906,0.4394531
			c-0.6113281,0.3095703-1.203125,0.8564453-1.5078125,1.6181641c-0.4238281,1.046875-0.7851562,2.6230469-0.7851562,4.9433594
			c0,2.3193359,0.3613281,3.8945312,0.7851562,4.9423828c0.3046875,0.7617188,0.8964844,1.3095703,1.5078125,1.6181641
			c0.6191406,0.3144531,1.2685547,0.4375,1.9013672,0.4384766h0.5244141h2.9707031h0.5234375
			c0.6318359-0.0009766,1.2822266-0.1240234,1.8994141-0.4384766c0.6123047-0.3085938,1.2050781-0.8564453,1.5097656-1.6181641
			c0.4238281-1.0478516,0.7851562-2.6230469,0.7851562-4.9423828C62.5761719,12.222168,62.2148438,10.6459961,61.7910156,9.5991211z
			 M59.1992188,18.4350586c-0.0253906,0.0546875-0.0498047,0.0976562-0.1914062,0.1757812
			c-0.1357422,0.0722656-0.3769531,0.1328125-0.6259766,0.1308594h-3.4941406l0,0h-0.5244141
			c-0.2480469,0.0019531-0.4902344-0.0585938-0.6259766-0.1308594c-0.1416016-0.078125-0.1669922-0.1210938-0.1914062-0.1757812
			c-0.2646484-0.6552734-0.5810547-1.8613281-0.5810547-3.8925781c0-2.0322266,0.3164062-3.2382812,0.5810547-3.8935547
			c0.0244141-0.0546875,0.0498047-0.0976562,0.1914062-0.1757812c0.1357422-0.0732422,0.3779297-0.1328125,0.625-0.1308594
			c0.1650391,0,0.3417969,0,0.5253906,0c0.9550781,0,2.0546875,0,2.9707031,0c0.1826172,0,0.359375,0,0.5244141,0
			c0.2480469-0.0019531,0.4892578,0.0576172,0.625,0.1308594c0.1416016,0.078125,0.1660156,0.1210938,0.1914062,0.1757812
			c0.2646484,0.6552734,0.5800781,1.8613281,0.5800781,3.8935547
			C59.7792969,16.5737305,59.4638672,17.7797852,59.1992188,18.4350586z"/>
		<path fill="#0071CE" d="M15.8046875,17.6987305c0.0244141-0.0009766,0.0517578-0.0009766,0.0791016-0.0019531l1.9902344,3.8447266
			h3.1494141l-2.3476562-4.5341797c0.0478516-0.0253906,0.0957031-0.0498047,0.1445312-0.078125
			c0.6142578-0.3554688,1.2285156-0.9052734,1.6640625-1.6708984c0.4384766-0.765625,0.6816406-1.71875,0.6796875-2.8164062
			c0.0019531-1.2929688-0.2919922-2.3173828-0.6738281-3.0605469c-0.3789062-0.7460938-1.0263672-1.234375-1.6503906-1.4921875
			c-0.6318359-0.2626953-1.2646484-0.3447266-1.8554688-0.3476562c-1.4628906,0-3.7382812,0-5.0810547,0.0009766
			c-0.3515625,0.0009766-0.6328125-0.0048828-0.9628906,0.03125c-0.2431641,0.0292969-0.5488281,0.0751953-0.9101562,0.2871094
			c-0.2675781,0.15625-0.5195312,0.4296875-0.6542969,0.6933594C9.1708984,8.9594727,9.1484375,9.2670898,9.1240234,9.5297852
			c-0.0185547,0.2666016-0.015625,0.515625-0.0166016,0.8125c0,1.3994141,0,11.1992188,0,11.1992188h2.7958984
			c0,0,0-1.7353516,0-3.8496094h3.625C15.5888672,17.6948242,15.6826172,17.6987305,15.8046875,17.6987305z M11.9033203,10.3422852
			c1.3427734,0,3.6181641,0,5.0810547,0c0.3066406-0.0019531,0.5996094,0.0527344,0.7714844,0.1289062
			c0.1796875,0.0810547,0.2138672,0.1308594,0.2451172,0.1865234c0.1796875,0.3535156,0.3652344,0.9033203,0.3671875,1.7841797
			c-0.0019531,0.703125-0.1435547,1.1308594-0.3115234,1.4267578c-0.2480469,0.4326172-0.6123047,0.6708984-1.0732422,0.8378906
			c-0.4511719,0.1601562-0.9492188,0.1943359-1.1787109,0.1923828c-0.0507812,0-0.0888672-0.0009766-0.109375-0.0019531
			c-0.0068359,0-0.0107422-0.0009766-0.0136719-0.0009766c-0.0039062,0-0.0048828,0-0.0048828,0l0,0l-0.0458984-0.0039062
			h-3.7275391C11.9033203,12.8081055,11.9033203,10.902832,11.9033203,10.3422852z"/>
	</g>
	<path fill="#EB0029" d="M74.8144531,17.246582c-0.7568359-1.0800781-1.7646484-2.0068359-2.5976562-2.7099609
		c-0.0087891-0.0078125-0.0185547-0.015625-0.0283203-0.0224609c0.4501953-0.3759766,0.9541016-0.8261719,1.4404297-1.3232422
		c0.5097656-0.5244141,1.0029297-1.0996094,1.4013672-1.7402344c0.390625-0.6386719,0.7197266-1.3574219,0.7294922-2.234375
		V8.7983398c0-0.6923828-0.5605469-1.2539062-1.2529297-1.2539062h-0.6953125c-0.4619141,0-0.8349609,0.3740234-0.8349609,0.8359375
		c0,0.5566406-0.0205078,1.1376953-0.3144531,1.6113281c-0.0400391,0.0634766-0.0839844,0.1279297-0.1318359,0.1953125
		c-0.4960938,0.7216797-1.3671875,1.5556641-2.0996094,2.1660156c-0.3662109,0.3076172-0.6992188,0.5634766-0.9375,0.7431641
		c-0.0107422,0.0068359-0.0205078,0.0146484-0.03125,0.0224609c-0.1572266,0-0.3466797,0-0.5595703,0.0009766
		c-0.4384766-0.0009766-0.9697266-0.0019531-1.4921875-0.0039062c0-1.6787109,0-3.2509766,0-4.3164062
		c0-0.6923828-0.5605469-1.2548828-1.2529297-1.2548828h-0.2773438c-0.6923828,0-1.2529297,0.5644531-1.2529297,1.2578125
		c0,2.7392578,0,8.8183594,0,11.4550781c0,0.6923828,0.5595703,1.2587891,1.2529297,1.2587891h0.2773438
		c0.6914062,0,1.2529297-0.5605469,1.2529297-1.2519531c0-1.046875,0-2.640625,0-4.3535156
		c0.5107422-0.0019531,1.0292969-0.0029297,1.4619141-0.0039062c0.2246094,0.0009766,0.4248047,0.0009766,0.5898438,0.0009766
		c0.4208984,0.3144531,1.1572266,0.8886719,1.8564453,1.5595703c0.4873047,0.4658203,0.9492188,0.9794922,1.2519531,1.4316406
		c0.3144531,0.4501953,0.4199219,0.8300781,0.40625,0.9111328v0.4179688c0,0.6923828,0.5605469,1.2539062,1.2519531,1.2539062
		h0.2783203c0.6923828,0,1.2529297-0.5615234,1.2529297-1.2539062v-0.4179688
		C75.7431641,18.7788086,75.3066406,17.9711914,74.8144531,17.246582z M100.078125,13.2583008
		c-0.3896484-0.1123047-0.7460938-0.1376953-1.0615234-0.1396484h-3.7578125
		c-0.3642578,0.0029297-0.7060547-0.0429688-0.9023438-0.1123047c-0.2060547-0.0791016-0.2197266-0.1171875-0.2412109-0.1494141
		c-0.1191406-0.2177734-0.2451172-0.5488281-0.2470703-1.1318359c0.0019531-0.5839844,0.1279297-0.9140625,0.2470703-1.1318359
		c0.0214844-0.0322266,0.0351562-0.0703125,0.2402344-0.1484375c0.1962891-0.0703125,0.5361328-0.1162109,0.8994141-0.1132812
		c1.4599609,0,3.7714844,0,5.4208984,0c0.6933594,0,1.2626953-0.5585938,1.2626953-1.2539062V7.5444336c0,0-4.7871094,0-6.6835938,0
		c-0.2382812,0.0009766-0.4912109,0.0097656-0.7529297,0.0380859c-0.7089844,0.0761719-1.4082031,0.2851562-1.9824219,0.7080078
		c-0.6816406,0.5029297-1.0878906,1.2861328-1.2851562,2.1103516c-0.0078125,0.0302734-0.0136719,0.0595703-0.0205078,0.0898438
		c-0.1806641,0.8183594-0.1806641,1.6689453,0.0039062,2.4863281c0.0195312,0.0878906,0.0410156,0.1738281,0.0644531,0.2568359
		c0.1943359,0.6894531,0.5341797,1.3417969,1.0810547,1.8017578c0.6425781,0.5410156,1.4736328,0.7822266,2.3105469,0.8476562
		c0.2021484,0.0166016,0.3974609,0.0224609,0.5849609,0.0224609h3.3115234c0.4619141,0,0.9384766,0.2158203,1.0556641,0.6630859
		C99.75,17.0454102,99.75,17.5454102,99.6269531,18.0229492c-0.0439453,0.1738281-0.1025391,0.3066406-0.1630859,0.4121094
		c-0.0947266,0.1621094-0.2705078,0.2607422-0.4570312,0.2578125c-1.3115234,0-4.1640625,0-6.1025391,0
		c-0.6943359,0-1.2626953,0.5585938-1.2626953,1.2548828v0.2792969c0,0.6943359,0.5683594,1.2529297,1.2626953,1.2529297
		c1.9384766,0,4.7910156,0,6.1025391,0c0.3134766-0.0009766,0.6699219-0.0253906,1.0615234-0.1367188
		c0.3876953-0.1103516,0.8261719-0.3222656,1.1894531-0.6953125c0.6152344-0.6113281,1.25-1.7626953,1.2373047-3.3486328
		c0.0126953-1.5859375-0.6220703-2.7373047-1.2373047-3.3476562
		C100.8974609,13.581543,100.4638672,13.3686523,100.078125,13.2583008z M112.578125,13.2583008
		c-0.390625-0.1123047-0.7470703-0.1376953-1.0615234-0.1396484h-3.7578125
		c-0.3642578,0.0029297-0.7070312-0.0429688-0.9033203-0.1123047c-0.2060547-0.0791016-0.21875-0.1171875-0.2412109-0.1494141
		c-0.1191406-0.2177734-0.2441406-0.5488281-0.2470703-1.1318359c0.0029297-0.5839844,0.1279297-0.9140625,0.2470703-1.1318359
		c0.0224609-0.0322266,0.0361328-0.0712891,0.2412109-0.1484375c0.1943359-0.0703125,0.5361328-0.1162109,0.8984375-0.1132812
		c1.4609375,0,3.7714844,0,5.4208984,0c0.6953125,0,1.2626953-0.5585938,1.2626953-1.2539062V7.5444336
		c-1.4511719,0-4.7861328,0-6.6835938,0c-0.2382812,0.0009766-0.4912109,0.0097656-0.7519531,0.0380859
		c-0.7089844,0.0761719-1.4091797,0.2851562-1.9824219,0.7080078c-0.6816406,0.5029297-1.0878906,1.2861328-1.2861328,2.1103516
		c-0.0068359,0.0302734-0.0136719,0.0595703-0.0205078,0.0898438c-0.1816406,0.8183594-0.1796875,1.6689453,0.0039062,2.4863281
		c0.0205078,0.0878906,0.0410156,0.1738281,0.0654297,0.2568359c0.1933594,0.6894531,0.5332031,1.3417969,1.0800781,1.8017578
		c0.6425781,0.5410156,1.4746094,0.7822266,2.3105469,0.8476562c0.2021484,0.0166016,0.3984375,0.0224609,0.5859375,0.0224609
		h3.3105469c0.4628906,0,0.9394531,0.2158203,1.0556641,0.6640625c0.1230469,0.4755859,0.1230469,0.9755859,0.0019531,1.453125
		c-0.0458984,0.1738281-0.1025391,0.3066406-0.1640625,0.4121094c-0.09375,0.1621094-0.2695312,0.2607422-0.4570312,0.2578125
		c-1.3105469,0-4.1640625,0-6.1015625,0c-0.6953125,0-1.2636719,0.5585938-1.2636719,1.2548828v0.2792969
		c0,0.6943359,0.5683594,1.2529297,1.2636719,1.2529297c1.9384766,0,4.7910156,0,6.1015625,0
		c0.3144531-0.0009766,0.6708984-0.0253906,1.0625-0.1367188c0.3876953-0.1103516,0.8251953-0.3222656,1.1894531-0.6953125
		c0.6142578-0.6113281,1.25-1.7626953,1.2373047-3.3486328c0.0126953-1.5859375-0.6230469-2.7373047-1.2373047-3.3476562
		C113.3964844,13.581543,112.9638672,13.3686523,112.578125,13.2583008z M88.1357422,9.1635742
		c-0.4345703-0.6367188-1.0498047-1.0546875-1.6572266-1.2929688c-0.5185547-0.203125-1.0419922-0.2939453-1.546875-0.3193359
		V7.5444336c0-0.0048828-0.0078125,0-0.0126953,0c-0.5341797,0-1.0488281,0-1.5214844,0c-0.3886719,0-0.8027344,0-1.2285156,0
		c-0.0078125,0-0.0205078-0.0009766-0.0205078,0.0078125c-0.5039062,0.0244141-1.0244141,0.1152344-1.5400391,0.3173828
		c-0.6074219,0.2382812-1.2197266,0.65625-1.6523438,1.2910156c-0.7636719,1.1074219-1.5439453,2.9628906-1.5390625,5.6650391
		c0,2.4931641,0,4.296875,0,5.3916016c0,0.6953125,0.5585938,1.2626953,1.2529297,1.2626953h0.2773438
		c0.6943359,0,1.2529297-0.5673828,1.2529297-1.2626953c0-0.5751953,0-1.3496094,0-2.3134766h6.6796875
		c0,0.9677734,0,1.7451172,0,2.3232422c0,0.6923828,0.5605469,1.2529297,1.2519531,1.2529297h0.2792969
		c0.6904297,0,1.2509766-0.5605469,1.2509766-1.2529297c0-1.1035156,0-2.9257812,0-5.4355469
		C89.6679688,12.1079102,88.8984375,10.2670898,88.1357422,9.1635742z M86.8798828,15.1166992h-6.6796875
		c0-0.0966797,0-0.1923828,0-0.2910156c0.0048828-2.1787109,0.5947266-3.4130859,1.0517578-4.0888672
		c0.0722656-0.1035156,0.1738281-0.1914062,0.3779297-0.2744141c0.2001953-0.0800781,0.4902344-0.1318359,0.796875-0.1308594
		c0.8320312,0,1.609375,0,2.2275391,0c0.3085938-0.0009766,0.6015625,0.0507812,0.8027344,0.1318359
		c0.2070312,0.0849609,0.3115234,0.1728516,0.3847656,0.2783203c0.4511719,0.6669922,1.0332031,1.8847656,1.0380859,4.0498047
		C86.8798828,14.9018555,86.8798828,15.0092773,86.8798828,15.1166992z M128.8925781,14.7905273
		c0.0058594-2.6826172-0.7646484-4.5244141-1.5263672-5.6259766c-0.4345703-0.6376953-1.0498047-1.0556641-1.6582031-1.2939453
		c-0.5185547-0.203125-1.0419922-0.2939453-1.546875-0.3193359c0-0.0039062-0.0058594-0.0068359-0.0107422-0.0068359
		c-0.9335938,0-1.8115234,0-2.4951172,0c-0.0048828,0-0.0087891,0-0.0136719,0c-0.0820312,0-0.1630859,0-0.2470703,0
		c-0.0068359,0-0.015625,0.0009766-0.015625,0.0068359c-0.5029297,0.0253906-1.0253906,0.1162109-1.5410156,0.3193359
		c-0.6074219,0.2373047-1.21875,0.6542969-1.6523438,1.2900391c-0.7626953,1.1074219-1.5439453,2.9628906-1.5380859,5.6650391
		c0,2.4931641,0,4.296875,0,5.3916016c0,0.6953125,0.5576172,1.2626953,1.2519531,1.2626953h0.2783203
		c0.6943359,0,1.2519531-0.5673828,1.2519531-1.2626953c0-0.5751953,0-1.3496094,0-2.3134766h6.6796875
		c0,0.9677734,0,1.7451172,0,2.3232422c0,0.6923828,0.5605469,1.2529297,1.2519531,1.2529297h0.2783203
		c0.6923828,0,1.2529297-0.5615234,1.2529297-1.2529297C128.8916016,19.1235352,128.8925781,17.3012695,128.8925781,14.7905273z
		 M126.109375,15.1166992h-6.6796875c0-0.0966797,0-0.1923828,0-0.2910156
		c0.0048828-2.1787109,0.5947266-3.4140625,1.0507812-4.0888672c0.0732422-0.1035156,0.1748047-0.1904297,0.3789062-0.2734375
		c0.2001953-0.0810547,0.4892578-0.1328125,0.7939453-0.1318359c0.0244141,0,0.0498047,0,0.0732422,0
		c0.6103516,0,1.3652344,0,2.171875,0c0.3037109,0.0009766,0.5898438,0.0517578,0.7880859,0.1328125
		c0.2080078,0.0839844,0.3115234,0.171875,0.3847656,0.2773438c0.4511719,0.6669922,1.0332031,1.8847656,1.0380859,4.0488281
		C126.109375,14.9018555,126.109375,15.0092773,126.109375,15.1166992z"/>
</g>
</svg>
