<?xml version="1.0" encoding="utf-8"?>
<!-- Generator: Adobe Illustrator 16.0.0, SVG Export Plug-In . SVG Version: 6.00 Build 0)  -->
<!DOCTYPE svg PUBLIC "-//W3C//DTD SVG 1.1//EN" "http://www.w3.org/Graphics/SVG/1.1/DTD/svg11.dtd">
<svg version="1.1" id="Layer_1" xmlns="http://www.w3.org/2000/svg" xmlns:xlink="http://www.w3.org/1999/xlink" x="0px" y="0px"
	 width="91px" height="110px" viewBox="0 0 91 110" enable-background="new 0 0 91 110" xml:space="preserve">
<polygon opacity="0.25" fill="#FFFFFF" points="88,3 88,0 87,0 86,0 83,0 81,0 81,2 81,3 78,3 78,5 81,5 83,5 83,3 83,2 86,2 86,3 
	86,5 88,5 91,5 91,3 "/>
<polygon opacity="0.25" fill="#FFFFFF" points="73,108 73,105 72,105 71,105 68,105 66,105 66,107 66,108 63,108 63,110 66,110 
	68,110 68,108 68,107 71,107 71,108 71,110 73,110 76,110 76,108 "/>
<polygon opacity="0.25" fill="#FFFFFF" points="10,93 10,90 9,90 8,90 5,90 3,90 3,92 3,93 0,93 0,95 3,95 5,95 5,93 5,92 8,92 
	8,93 8,95 10,95 13,95 13,93 "/>
</svg>
