<?xml version="1.0" encoding="utf-8"?>
<!-- Generator: Adobe Illustrator 16.0.0, SVG Export Plug-In . SVG Version: 6.00 Build 0)  -->
<!DOCTYPE svg PUBLIC "-//W3C//DTD SVG 1.1//EN" "http://www.w3.org/Graphics/SVG/1.1/DTD/svg11.dtd">
<svg version="1.1" id="Layer_1" xmlns="http://www.w3.org/2000/svg" xmlns:xlink="http://www.w3.org/1999/xlink" x="0px" y="0px"
	 width="80px" height="109px" viewBox="0 0 80 109" enable-background="new 0 0 80 109" xml:space="preserve">
<polygon opacity="0.25" fill="#FFFFFF" points="10,31 10,28 9,28 8,28 5,28 3,28 3,30 3,31 0,31 0,33 3,33 5,33 5,31 5,30 8,30 
	8,31 8,33 10,33 13,33 13,31 "/>
<polygon opacity="0.25" fill="#FFFFFF" points="56,3 56,0 55,0 54,0 51,0 49,0 49,2 49,3 46,3 46,5 49,5 51,5 51,3 51,2 54,2 54,3 
	54,5 56,5 59,5 59,3 "/>
<polygon opacity="0.25" fill="#FFFFFF" points="21,81 21,78 20,78 19,78 16,78 14,78 14,80 14,81 11,81 11,83 14,83 16,83 16,81 
	16,80 19,80 19,81 19,83 21,83 24,83 24,81 "/>
<polygon opacity="0.25" fill="#FFFFFF" points="77,107 77,104 76,104 75,104 72,104 70,104 70,106 70,107 67,107 67,109 70,109 
	72,109 72,107 72,106 75,106 75,107 75,109 77,109 80,109 80,107 "/>
</svg>
