<?xml version="1.0" encoding="utf-8"?>
<!-- Generator: Adobe Illustrator 16.0.0, SVG Export Plug-In . SVG Version: 6.00 Build 0)  -->
<!DOCTYPE svg PUBLIC "-//W3C//DTD SVG 1.1//EN" "http://www.w3.org/Graphics/SVG/1.1/DTD/svg11.dtd">
<svg version="1.1" id="Layer_1" xmlns="http://www.w3.org/2000/svg" xmlns:xlink="http://www.w3.org/1999/xlink" x="0px" y="0px"
	 width="66.25px" height="77.5px" viewBox="0 0 66.25 77.5" enable-background="new 0 0 66.25 77.5" xml:space="preserve">
<g>
	<g>
		<path fill="none" stroke="#727C8E" stroke-width="2" stroke-miterlimit="10" d="M63.5009766,76.5644531H3.1494141
			c-0.5458984,0-1.015625-0.1962891-1.4130859-0.5957031c-0.3994141-0.3994141-0.5986328-0.8701172-0.5986328-1.4160156
			c0-0.5429688,0.1992188-1.015625,0.5986328-1.4130859c0.3974609-0.3974609,0.8671875-0.5986328,1.4130859-0.5986328h6.0117188
			c1.1318359,0,2.0839844-0.3974609,2.8613281-1.1914063c0.7753906-0.7978516,1.1621094-1.7402344,1.1621094-2.8320313
			l-2-36.4257813l-2-26.9853516c0-1.0888672,0.3974609-2.0322266,1.1943359-2.8261719
			c0.7978516-0.796875,1.7373047-1.1972656,2.8291016-1.1972656h40.234375c1.1318359,0,2.0839844,0.4003906,2.8613281,1.1972656
			c0.7753906,0.7939453,1.1621094,1.7373047,1.1621094,2.8261719l-2,27.2978516l-2,36.1132813
			c0,1.1318359,0.3974609,2.0869141,1.1943359,2.8623047c0.7978516,0.7744141,1.7373047,1.1611328,2.8291016,1.1611328h6.0117188
			c0.5429688,0,1.015625,0.2011719,1.4130859,0.5986328c0.3994141,0.3974609,0.5986328,0.8701172,0.5986328,1.4130859
			c0,0.5458984-0.1992188,1.0166016-0.5986328,1.4160156C64.5166016,76.3681641,64.0439453,76.5644531,63.5009766,76.5644531z
			 M48.3134766,5.7714844H18.5869141c-1.2246094,0-2.2792969,0.4511719-3.1689453,1.3427734
			c-0.8974609,0.890625-1.3427734,1.9511719-1.3427734,3.1689453l1.203125,19.046875
			c0,1.2246094,0.4453125,2.2802734,1.3427734,3.1757813c0.8896484,0.8955078,1.9443359,1.3359375,3.1689453,1.3359375h27.0703125
			c1.2177734,0,2.2792969-0.4404297,3.1689453-1.3359375c0.8974609-0.8955078,1.3427734-1.9511719,1.3427734-3.1757813
			l1.453125-19.046875c0-1.2177734-0.4453125-2.2783203-1.3427734-3.1689453
			C50.5927734,6.2226563,49.53125,5.7714844,48.3134766,5.7714844z"/>
	</g>
	<g>
		<path fill="#727C8E" d="M24.4208984,14.9970703h-4.0380859c-0.21875,0-0.4082031-0.0800781-0.5673828-0.2392578
			c-0.1601563-0.1601563-0.2402344-0.3496094-0.2402344-0.5683594v-4.0380859c0-0.2275391,0.0800781-0.4189453,0.2402344-0.5742188
			c0.1591797-0.15625,0.3486328-0.2333984,0.5673828-0.2333984h4.0380859c0.2275391,0,0.4189453,0.0771484,0.5742188,0.2333984
			c0.15625,0.1552734,0.234375,0.3466797,0.234375,0.5742188v4.0380859c0,0.21875-0.0800781,0.4082031-0.2402344,0.5683594
			C24.8291016,14.9169922,24.6396484,14.9970703,24.4208984,14.9970703z M24.4208984,22.2666016h-4.0380859
			c-0.21875,0-0.4082031-0.078125-0.5673828-0.2333984c-0.1601563-0.1552734-0.2402344-0.3466797-0.2402344-0.5742188v-4.0390625
			c0-0.2265625,0.0800781-0.4179688,0.2402344-0.5742188c0.1591797-0.1552734,0.3486328-0.2333984,0.5673828-0.2333984h4.0380859
			c0.2275391,0,0.4189453,0.078125,0.5742188,0.2333984c0.15625,0.15625,0.234375,0.3476563,0.234375,0.5742188v4.0390625
			c0,0.2275391-0.0800781,0.4189453-0.2402344,0.5742188S24.6396484,22.2666016,24.4208984,22.2666016z M23.6142578,11.3623047
			c0-0.109375-0.0410156-0.2041016-0.1210938-0.2832031c-0.0800781-0.0800781-0.1738281-0.1201172-0.2832031-0.1201172h-1.6152344
			c-0.109375,0-0.2050781,0.0400391-0.2841797,0.1201172c-0.0800781,0.0791016-0.1201172,0.1738281-0.1201172,0.2832031v1.6152344
			c0,0.1103516,0.0400391,0.2041016,0.1201172,0.2841797c0.0791016,0.0800781,0.1748047,0.1201172,0.2841797,0.1201172h1.6152344
			c0.109375,0,0.203125-0.0400391,0.2832031-0.1201172s0.1210938-0.1738281,0.1210938-0.2841797V11.3623047z M23.6142578,18.6318359
			c0-0.109375-0.0410156-0.2041016-0.1210938-0.2841797c-0.0800781-0.0791016-0.1738281-0.1191406-0.2832031-0.1191406h-1.6152344
			c-0.109375,0-0.2050781,0.0400391-0.2841797,0.1191406c-0.0800781,0.0800781-0.1201172,0.1748047-0.1201172,0.2841797v1.6152344
			c0,0.109375,0.0400391,0.2041016,0.1201172,0.2841797c0.0791016,0.0800781,0.1748047,0.1201172,0.2841797,0.1201172h1.6152344
			c0.109375,0,0.203125-0.0400391,0.2832031-0.1201172s0.1210938-0.1748047,0.1210938-0.2841797V18.6318359z M31.6904297,14.9970703
			h-4.0380859c-0.2275391,0-0.4189453-0.0800781-0.5742188-0.2392578c-0.1552734-0.1601563-0.2333984-0.3496094-0.2333984-0.5683594
			v-4.0380859c0-0.2275391,0.078125-0.4189453,0.2333984-0.5742188c0.1552734-0.15625,0.3466797-0.2333984,0.5742188-0.2333984
			h4.0380859c0.21875,0,0.4082031,0.0771484,0.5683594,0.2333984c0.1601563,0.1552734,0.2402344,0.3466797,0.2402344,0.5742188
			v4.0380859c0,0.21875-0.0800781,0.4082031-0.2402344,0.5683594
			C32.0986328,14.9169922,31.9091797,14.9970703,31.6904297,14.9970703z M31.6904297,22.2666016h-4.0380859
			c-0.2275391,0-0.4189453-0.078125-0.5742188-0.2333984s-0.2333984-0.3466797-0.2333984-0.5742188v-4.0390625
			c0-0.2265625,0.078125-0.4179688,0.2333984-0.5742188c0.1552734-0.1552734,0.3466797-0.2333984,0.5742188-0.2333984h4.0380859
			c0.21875,0,0.4082031,0.078125,0.5683594,0.2333984c0.1601563,0.15625,0.2402344,0.3476563,0.2402344,0.5742188v4.0390625
			c0,0.2275391-0.0800781,0.4189453-0.2402344,0.5742188S31.9091797,22.2666016,31.6904297,22.2666016z M30.8837891,11.3623047
			c0-0.109375-0.0410156-0.2041016-0.1210938-0.2832031c-0.0800781-0.0800781-0.1738281-0.1201172-0.2832031-0.1201172h-1.6152344
			c-0.109375,0-0.2050781,0.0400391-0.2841797,0.1201172C28.5,11.1582031,28.4599609,11.2529297,28.4599609,11.3623047v1.6152344
			c0,0.1103516,0.0400391,0.2041016,0.1201172,0.2841797c0.0791016,0.0800781,0.1748047,0.1201172,0.2841797,0.1201172h1.6152344
			c0.109375,0,0.203125-0.0400391,0.2832031-0.1201172s0.1210938-0.1738281,0.1210938-0.2841797V11.3623047z M30.8837891,18.6318359
			c0-0.109375-0.0410156-0.2041016-0.1210938-0.2841797c-0.0800781-0.0791016-0.1738281-0.1191406-0.2832031-0.1191406h-1.6152344
			c-0.109375,0-0.2050781,0.0400391-0.2841797,0.1191406C28.5,18.4277344,28.4599609,18.5224609,28.4599609,18.6318359v1.6152344
			c0,0.109375,0.0400391,0.2041016,0.1201172,0.2841797c0.0791016,0.0800781,0.1748047,0.1201172,0.2841797,0.1201172h1.6152344
			c0.109375,0,0.203125-0.0400391,0.2832031-0.1201172s0.1210938-0.1748047,0.1210938-0.2841797V18.6318359z"/>
	</g>
	<g>
		<path fill="#727C8E" d="M38.9980469,14.9970703h-4.0380859c-0.21875,0-0.4082031-0.0800781-0.5683594-0.2392578
			c-0.1601563-0.1601563-0.2402344-0.3496094-0.2402344-0.5683594v-4.0380859c0-0.2275391,0.0800781-0.4189453,0.2402344-0.5742188
			c0.1601563-0.15625,0.3496094-0.2333984,0.5683594-0.2333984h4.0380859c0.2275391,0,0.4189453,0.0771484,0.5742188,0.2333984
			c0.1552734,0.1552734,0.2333984,0.3466797,0.2333984,0.5742188v4.0380859c0,0.21875-0.0800781,0.4082031-0.2402344,0.5683594
			C39.40625,14.9169922,39.2167969,14.9970703,38.9980469,14.9970703z M38.9980469,22.2666016h-4.0380859
			c-0.21875,0-0.4082031-0.078125-0.5683594-0.2333984s-0.2402344-0.3466797-0.2402344-0.5742188v-4.0390625
			c0-0.2265625,0.0800781-0.4179688,0.2402344-0.5742188c0.1601563-0.1552734,0.3496094-0.2333984,0.5683594-0.2333984h4.0380859
			c0.2275391,0,0.4189453,0.078125,0.5742188,0.2333984c0.1552734,0.15625,0.2333984,0.3476563,0.2333984,0.5742188v4.0390625
			c0,0.2275391-0.0800781,0.4189453-0.2402344,0.5742188C39.40625,22.1884766,39.2167969,22.2666016,38.9980469,22.2666016z
			 M38.1904297,11.3623047c0-0.109375-0.0400391-0.2041016-0.1201172-0.2832031
			c-0.0800781-0.0800781-0.1748047-0.1201172-0.2841797-0.1201172h-1.6152344c-0.109375,0-0.2041016,0.0400391-0.2832031,0.1201172
			c-0.0800781,0.0791016-0.1210938,0.1738281-0.1210938,0.2832031v1.6152344c0,0.1103516,0.0410156,0.2041016,0.1210938,0.2841797
			c0.0791016,0.0800781,0.1738281,0.1201172,0.2832031,0.1201172h1.6152344c0.109375,0,0.2041016-0.0400391,0.2841797-0.1201172
			s0.1201172-0.1738281,0.1201172-0.2841797V11.3623047z M38.1904297,18.6318359
			c0-0.109375-0.0400391-0.2041016-0.1201172-0.2841797c-0.0800781-0.0791016-0.1748047-0.1191406-0.2841797-0.1191406h-1.6152344
			c-0.109375,0-0.2041016,0.0400391-0.2832031,0.1191406c-0.0800781,0.0800781-0.1210938,0.1748047-0.1210938,0.2841797v1.6152344
			c0,0.109375,0.0410156,0.2041016,0.1210938,0.2841797c0.0791016,0.0800781,0.1738281,0.1201172,0.2832031,0.1201172h1.6152344
			c0.109375,0,0.2041016-0.0400391,0.2841797-0.1201172s0.1201172-0.1748047,0.1201172-0.2841797V18.6318359z
			 M46.2675781,14.9970703h-4.0380859c-0.2275391,0-0.4199219-0.0800781-0.5742188-0.2392578
			c-0.15625-0.1601563-0.234375-0.3496094-0.234375-0.5683594v-4.0380859c0-0.2275391,0.078125-0.4189453,0.234375-0.5742188
			c0.1542969-0.15625,0.3466797-0.2333984,0.5742188-0.2333984h4.0380859c0.21875,0,0.4072266,0.0771484,0.5673828,0.2333984
			c0.1601563,0.1552734,0.2402344,0.3466797,0.2402344,0.5742188v4.0380859c0,0.21875-0.0800781,0.4082031-0.2402344,0.5683594
			C46.6748047,14.9169922,46.4863281,14.9970703,46.2675781,14.9970703z M46.2675781,22.2666016h-4.0380859
			c-0.2275391,0-0.4199219-0.078125-0.5742188-0.2333984c-0.15625-0.1552734-0.234375-0.3466797-0.234375-0.5742188v-4.0390625
			c0-0.2265625,0.078125-0.4179688,0.234375-0.5742188c0.1542969-0.1552734,0.3466797-0.2333984,0.5742188-0.2333984h4.0380859
			c0.21875,0,0.4072266,0.078125,0.5673828,0.2333984c0.1601563,0.15625,0.2402344,0.3476563,0.2402344,0.5742188v4.0390625
			c0,0.2275391-0.0800781,0.4189453-0.2402344,0.5742188S46.4863281,22.2666016,46.2675781,22.2666016z M45.4599609,11.3623047
			c0-0.109375-0.0400391-0.2041016-0.1201172-0.2832031c-0.0800781-0.0800781-0.1748047-0.1201172-0.2841797-0.1201172h-1.6152344
			c-0.109375,0-0.2041016,0.0400391-0.2832031,0.1201172c-0.0800781,0.0791016-0.1210938,0.1738281-0.1210938,0.2832031v1.6152344
			c0,0.1103516,0.0410156,0.2041016,0.1210938,0.2841797c0.0791016,0.0800781,0.1738281,0.1201172,0.2832031,0.1201172h1.6152344
			c0.109375,0,0.2041016-0.0400391,0.2841797-0.1201172s0.1201172-0.1738281,0.1201172-0.2841797V11.3623047z
			 M45.4599609,18.6318359c0-0.109375-0.0400391-0.2041016-0.1201172-0.2841797
			c-0.0800781-0.0791016-0.1748047-0.1191406-0.2841797-0.1191406h-1.6152344c-0.109375,0-0.2041016,0.0400391-0.2832031,0.1191406
			c-0.0800781,0.0800781-0.1210938,0.1748047-0.1210938,0.2841797v1.6152344c0,0.109375,0.0410156,0.2041016,0.1210938,0.2841797
			c0.0791016,0.0800781,0.1738281,0.1201172,0.2832031,0.1201172h1.6152344c0.109375,0,0.2041016-0.0400391,0.2841797-0.1201172
			s0.1201172-0.1748047,0.1201172-0.2841797V18.6318359z"/>
	</g>
	<g>
		<path fill="#727C8E" d="M24.4208984,29.4521484h-4.0380859c-0.21875,0-0.4082031-0.0800781-0.5673828-0.2392578
			c-0.1601563-0.1601563-0.2402344-0.3496094-0.2402344-0.5683594v-4.0380859c0-0.2275391,0.0800781-0.4189453,0.2402344-0.5742188
			c0.1591797-0.15625,0.3486328-0.2333984,0.5673828-0.2333984h4.0380859c0.2275391,0,0.4189453,0.0771484,0.5742188,0.2333984
			c0.15625,0.1552734,0.234375,0.3466797,0.234375,0.5742188v4.0380859c0,0.21875-0.0800781,0.4082031-0.2402344,0.5683594
			C24.8291016,29.3720703,24.6396484,29.4521484,24.4208984,29.4521484z M23.6142578,25.8173828
			c0-0.109375-0.0410156-0.2041016-0.1210938-0.2832031c-0.0800781-0.0800781-0.1738281-0.1201172-0.2832031-0.1201172h-1.6152344
			c-0.109375,0-0.2050781,0.0400391-0.2841797,0.1201172c-0.0800781,0.0791016-0.1201172,0.1738281-0.1201172,0.2832031v1.6152344
			c0,0.1103516,0.0400391,0.2041016,0.1201172,0.2841797c0.0791016,0.0800781,0.1748047,0.1201172,0.2841797,0.1201172h1.6152344
			c0.109375,0,0.203125-0.0400391,0.2832031-0.1201172s0.1210938-0.1738281,0.1210938-0.2841797V25.8173828z M31.6904297,29.4521484
			h-4.0380859c-0.2275391,0-0.4189453-0.0800781-0.5742188-0.2392578c-0.1552734-0.1601563-0.2333984-0.3496094-0.2333984-0.5683594
			v-4.0380859c0-0.2275391,0.078125-0.4189453,0.2333984-0.5742188c0.1552734-0.15625,0.3466797-0.2333984,0.5742188-0.2333984
			h4.0380859c0.21875,0,0.4082031,0.0771484,0.5683594,0.2333984c0.1601563,0.1552734,0.2402344,0.3466797,0.2402344,0.5742188
			v4.0380859c0,0.21875-0.0800781,0.4082031-0.2402344,0.5683594
			C32.0986328,29.3720703,31.9091797,29.4521484,31.6904297,29.4521484z M30.8837891,25.8173828
			c0-0.109375-0.0410156-0.2041016-0.1210938-0.2832031c-0.0800781-0.0800781-0.1738281-0.1201172-0.2832031-0.1201172h-1.6152344
			c-0.109375,0-0.2050781,0.0400391-0.2841797,0.1201172C28.5,25.6132813,28.4599609,25.7080078,28.4599609,25.8173828v1.6152344
			c0,0.1103516,0.0400391,0.2041016,0.1201172,0.2841797c0.0791016,0.0800781,0.1748047,0.1201172,0.2841797,0.1201172h1.6152344
			c0.109375,0,0.203125-0.0400391,0.2832031-0.1201172s0.1210938-0.1738281,0.1210938-0.2841797V25.8173828z"/>
	</g>
	<g>
		<path fill="#727C8E" d="M38.9980469,29.4521484h-4.0380859c-0.21875,0-0.4082031-0.0800781-0.5683594-0.2392578
			c-0.1601563-0.1601563-0.2402344-0.3496094-0.2402344-0.5683594v-4.0380859c0-0.2275391,0.0800781-0.4189453,0.2402344-0.5742188
			c0.1601563-0.15625,0.3496094-0.2333984,0.5683594-0.2333984h4.0380859c0.2275391,0,0.4189453,0.0771484,0.5742188,0.2333984
			c0.1552734,0.1552734,0.2333984,0.3466797,0.2333984,0.5742188v4.0380859c0,0.21875-0.0800781,0.4082031-0.2402344,0.5683594
			C39.40625,29.3720703,39.2167969,29.4521484,38.9980469,29.4521484z M38.1904297,25.8173828
			c0-0.109375-0.0400391-0.2041016-0.1201172-0.2832031c-0.0800781-0.0800781-0.1748047-0.1201172-0.2841797-0.1201172h-1.6152344
			c-0.109375,0-0.2041016,0.0400391-0.2832031,0.1201172c-0.0800781,0.0791016-0.1210938,0.1738281-0.1210938,0.2832031v1.6152344
			c0,0.1103516,0.0410156,0.2041016,0.1210938,0.2841797c0.0791016,0.0800781,0.1738281,0.1201172,0.2832031,0.1201172h1.6152344
			c0.109375,0,0.2041016-0.0400391,0.2841797-0.1201172s0.1201172-0.1738281,0.1201172-0.2841797V25.8173828z
			 M46.2675781,29.4521484h-4.0380859c-0.2275391,0-0.4199219-0.0800781-0.5742188-0.2392578
			c-0.15625-0.1601563-0.234375-0.3496094-0.234375-0.5683594v-4.0380859c0-0.2275391,0.078125-0.4189453,0.234375-0.5742188
			c0.1542969-0.15625,0.3466797-0.2333984,0.5742188-0.2333984h4.0380859c0.21875,0,0.4072266,0.0771484,0.5673828,0.2333984
			c0.1601563,0.1552734,0.2402344,0.3466797,0.2402344,0.5742188v4.0380859c0,0.21875-0.0800781,0.4082031-0.2402344,0.5683594
			C46.6748047,29.3720703,46.4863281,29.4521484,46.2675781,29.4521484z M45.4599609,25.8173828
			c0-0.109375-0.0400391-0.2041016-0.1201172-0.2832031c-0.0800781-0.0800781-0.1748047-0.1201172-0.2841797-0.1201172h-1.6152344
			c-0.109375,0-0.2041016,0.0400391-0.2832031,0.1201172c-0.0800781,0.0791016-0.1210938,0.1738281-0.1210938,0.2832031v1.6152344
			c0,0.1103516,0.0410156,0.2041016,0.1210938,0.2841797c0.0791016,0.0800781,0.1738281,0.1201172,0.2832031,0.1201172h1.6152344
			c0.109375,0,0.2041016-0.0400391,0.2841797-0.1201172s0.1201172-0.1738281,0.1201172-0.2841797V25.8173828z"/>
	</g>
	<g>
		<path fill-rule="evenodd" clip-rule="evenodd" fill="#727C8E" d="M39.375,39.5c0,0.5527344-0.4477539,1-1,1h-10
			c-0.5522461,0-1-0.4472656-1-1l0,0c0-0.5527344,0.4477539-1,1-1h10C38.9272461,38.5,39.375,38.9472656,39.375,39.5L39.375,39.5z"
			/>
	</g>
</g>
</svg>
