<?xml version="1.0" encoding="utf-8"?>
<!-- Generator: Adobe Illustrator 16.0.0, SVG Export Plug-In . SVG Version: 6.00 Build 0)  -->
<!DOCTYPE svg PUBLIC "-//W3C//DTD SVG 1.1//EN" "http://www.w3.org/Graphics/SVG/1.1/DTD/svg11.dtd">
<svg version="1.1" id="Layer_1" xmlns="http://www.w3.org/2000/svg" xmlns:xlink="http://www.w3.org/1999/xlink" x="0px" y="0px"
	 width="83.03125px" height="97.355957px" viewBox="0 0 83.03125 97.355957" enable-background="new 0 0 83.03125 97.355957"
	 xml:space="preserve">
<g>
	<g>
		<path fill="#EB0029" d="M80.4355469,97.355957H2.59375c-0.703125,0-1.3085938-0.2539063-1.8203125-0.7675781
			C0.2578125,96.0727539,0,95.465332,0,94.762207c0-0.7011719,0.2578125-1.3105469,0.7734375-1.8242188
			c0.5117188-0.5117188,1.1171875-0.7714844,1.8203125-0.7714844h7.7539063c1.4609375,0,2.6894531-0.5136719,3.6914063-1.5371094
			c1-1.0292969,1.5-2.2441406,1.5-3.6523438l-2.5800781-46.9829102L10.3789063,5.1894531
			c0-1.4042969,0.5136719-2.6210938,1.5410156-3.6445313C12.9492188,0.5175781,14.1601563,0,15.5683594,0h51.8945313
			c1.4589844,0,2.6875,0.5175781,3.6894531,1.5449219c1,1.0234375,1.5,2.2402344,1.5,3.6445313l-2.5800781,35.2089844
			l-2.5800781,46.5786133c0,1.4589844,0.5117188,2.6914063,1.5390625,3.6914063
			c1.03125,0.9980469,2.2421875,1.4980469,3.6503906,1.4980469h7.7539063c0.7011719,0,1.3105469,0.2597656,1.8222656,0.7714844
			c0.515625,0.5136719,0.7734375,1.1230469,0.7734375,1.8242188c0,0.703125-0.2578125,1.3105469-0.7734375,1.8261719
			C81.7460938,97.1020508,81.1367188,97.355957,80.4355469,97.355957z M60.8476563,6.046875H22.5058594
			c-1.5800781,0-2.9394531,0.5820313-4.0859375,1.7324219c-1.1582031,1.1484375-1.734375,2.515625-1.734375,4.0878906
			l1.5527344,24.5664063c0,1.578125,0.5742188,2.9414063,1.7324219,4.0957031
			c1.1484375,1.1542969,2.5078125,1.7226563,4.0878906,1.7226563h34.9140625c1.5703125,0,2.9394531-0.5683594,4.0859375-1.7226563
			c1.1582031-1.1542969,1.7324219-2.5175781,1.7324219-4.0957031l1.875-24.5664063
			c0-1.5722656-0.5742188-2.9394531-1.7324219-4.0878906C63.7851563,6.6289063,62.4160156,6.046875,60.8476563,6.046875z"/>
	</g>
	<g>
		<path fill="#EB0029" d="M30.03125,17.9472656h-5.2089844c-0.2832031,0-0.5253906-0.1035156-0.7324219-0.3085938
			C23.8847656,17.4316406,23.78125,17.1875,23.78125,16.9042969v-5.2070313c0-0.2929688,0.1035156-0.5410156,0.3085938-0.7421875
			c0.2070313-0.1992188,0.4492188-0.3007813,0.7324219-0.3007813H30.03125c0.2929688,0,0.5390625,0.1015625,0.7402344,0.3007813
			c0.2011719,0.2011719,0.3027344,0.4492188,0.3027344,0.7421875v5.2070313c0,0.2832031-0.1035156,0.5273438-0.3105469,0.734375
			C30.5566406,17.84375,30.3125,17.9472656,30.03125,17.9472656z M30.03125,27.3222656h-5.2089844
			c-0.2832031,0-0.5253906-0.0996094-0.7324219-0.3007813C23.8847656,26.8222656,23.78125,26.5742188,23.78125,26.28125v-5.2089844
			c0-0.2929688,0.1035156-0.5390625,0.3085938-0.7421875c0.2070313-0.1992188,0.4492188-0.3007813,0.7324219-0.3007813H30.03125
			c0.2929688,0,0.5390625,0.1015625,0.7402344,0.3007813c0.2011719,0.203125,0.3027344,0.4492188,0.3027344,0.7421875V26.28125
			c0,0.2929688-0.1035156,0.5410156-0.3105469,0.7402344C30.5566406,27.2226563,30.3125,27.3222656,30.03125,27.3222656z
			 M28.9902344,13.2578125c0-0.140625-0.0527344-0.2636719-0.15625-0.3652344s-0.2246094-0.1542969-0.3652344-0.1542969h-2.0820313
			c-0.1425781,0-0.265625,0.0527344-0.3671875,0.1542969c-0.1035156,0.1015625-0.15625,0.2246094-0.15625,0.3652344v2.0839844
			c0,0.1425781,0.0527344,0.2636719,0.15625,0.3671875c0.1015625,0.1035156,0.2246094,0.1542969,0.3671875,0.1542969H28.46875
			c0.140625,0,0.2617188-0.0507813,0.3652344-0.1542969s0.15625-0.2246094,0.15625-0.3671875V13.2578125z M28.9902344,22.6347656
			c0-0.140625-0.0527344-0.2636719-0.15625-0.3671875c-0.1035156-0.1015625-0.2246094-0.1523438-0.3652344-0.1523438h-2.0820313
			c-0.1425781,0-0.265625,0.0507813-0.3671875,0.1523438c-0.1035156,0.1035156-0.15625,0.2265625-0.15625,0.3671875V24.71875
			c0,0.140625,0.0527344,0.2617188,0.15625,0.3652344c0.1015625,0.1035156,0.2246094,0.1542969,0.3671875,0.1542969H28.46875
			c0.140625,0,0.2617188-0.0507813,0.3652344-0.1542969s0.15625-0.2246094,0.15625-0.3652344V22.6347656z M39.40625,17.9472656
			h-5.2089844c-0.2929688,0-0.5390625-0.1035156-0.7402344-0.3085938C33.2578125,17.4316406,33.15625,17.1875,33.15625,16.9042969
			v-5.2070313c0-0.2929688,0.1015625-0.5410156,0.3007813-0.7421875c0.2011719-0.1992188,0.4472656-0.3007813,0.7402344-0.3007813
			H39.40625c0.2832031,0,0.5273438,0.1015625,0.734375,0.3007813c0.2050781,0.2011719,0.3085938,0.4492188,0.3085938,0.7421875
			v5.2070313c0,0.2832031-0.1035156,0.5273438-0.3085938,0.734375C39.9335938,17.84375,39.6894531,17.9472656,39.40625,17.9472656z
			 M39.40625,27.3222656h-5.2089844c-0.2929688,0-0.5390625-0.0996094-0.7402344-0.3007813
			C33.2578125,26.8222656,33.15625,26.5742188,33.15625,26.28125v-5.2089844c0-0.2929688,0.1015625-0.5390625,0.3007813-0.7421875
			c0.2011719-0.1992188,0.4472656-0.3007813,0.7402344-0.3007813H39.40625c0.2832031,0,0.5273438,0.1015625,0.734375,0.3007813
			c0.2050781,0.203125,0.3085938,0.4492188,0.3085938,0.7421875V26.28125c0,0.2929688-0.1035156,0.5410156-0.3085938,0.7402344
			C39.9335938,27.2226563,39.6894531,27.3222656,39.40625,27.3222656z M38.3671875,13.2578125
			c0-0.140625-0.0527344-0.2636719-0.1582031-0.3652344c-0.1015625-0.1015625-0.2226563-0.1542969-0.3652344-0.1542969h-2.0820313
			c-0.140625,0-0.2636719,0.0527344-0.3671875,0.1542969s-0.1542969,0.2246094-0.1542969,0.3652344v2.0839844
			c0,0.1425781,0.0507813,0.2636719,0.1542969,0.3671875s0.2265625,0.1542969,0.3671875,0.1542969H37.84375
			c0.1425781,0,0.2636719-0.0507813,0.3652344-0.1542969c0.1054688-0.1035156,0.1582031-0.2246094,0.1582031-0.3671875V13.2578125z
			 M38.3671875,22.6347656c0-0.140625-0.0527344-0.2636719-0.1582031-0.3671875
			c-0.1015625-0.1015625-0.2226563-0.1523438-0.3652344-0.1523438h-2.0820313c-0.140625,0-0.2636719,0.0507813-0.3671875,0.1523438
			c-0.1035156,0.1035156-0.1542969,0.2265625-0.1542969,0.3671875V24.71875c0,0.140625,0.0507813,0.2617188,0.1542969,0.3652344
			s0.2265625,0.1542969,0.3671875,0.1542969H37.84375c0.1425781,0,0.2636719-0.0507813,0.3652344-0.1542969
			c0.1054688-0.1035156,0.1582031-0.2246094,0.1582031-0.3652344V22.6347656z"/>
	</g>
	<g>
		<path fill="#EB0029" d="M48.8320313,17.9472656h-5.2089844c-0.28125,0-0.5253906-0.1035156-0.7324219-0.3085938
			c-0.2070313-0.2070313-0.3105469-0.4511719-0.3105469-0.734375v-5.2070313c0-0.2929688,0.1035156-0.5410156,0.3105469-0.7421875
			c0.2070313-0.1992188,0.4511719-0.3007813,0.7324219-0.3007813h5.2089844c0.2929688,0,0.5390625,0.1015625,0.7402344,0.3007813
			c0.1992188,0.2011719,0.3007813,0.4492188,0.3007813,0.7421875v5.2070313c0,0.2832031-0.1035156,0.5273438-0.3105469,0.734375
			C49.359375,17.84375,49.1132813,17.9472656,48.8320313,17.9472656z M48.8320313,27.3222656h-5.2089844
			c-0.28125,0-0.5253906-0.0996094-0.7324219-0.3007813c-0.2070313-0.1992188-0.3105469-0.4472656-0.3105469-0.7402344v-5.2089844
			c0-0.2929688,0.1035156-0.5390625,0.3105469-0.7421875c0.2070313-0.1992188,0.4511719-0.3007813,0.7324219-0.3007813h5.2089844
			c0.2929688,0,0.5390625,0.1015625,0.7402344,0.3007813c0.1992188,0.203125,0.3007813,0.4492188,0.3007813,0.7421875V26.28125
			c0,0.2929688-0.1035156,0.5410156-0.3105469,0.7402344C49.359375,27.2226563,49.1132813,27.3222656,48.8320313,27.3222656z
			 M47.7910156,13.2578125c0-0.140625-0.0527344-0.2636719-0.15625-0.3652344
			c-0.1015625-0.1015625-0.2246094-0.1542969-0.3652344-0.1542969h-2.0839844c-0.140625,0-0.2636719,0.0527344-0.3652344,0.1542969
			c-0.1035156,0.1015625-0.15625,0.2246094-0.15625,0.3652344v2.0839844c0,0.1425781,0.0527344,0.2636719,0.15625,0.3671875
			c0.1015625,0.1035156,0.2246094,0.1542969,0.3652344,0.1542969h2.0839844c0.140625,0,0.2636719-0.0507813,0.3652344-0.1542969
			c0.1035156-0.1035156,0.15625-0.2246094,0.15625-0.3671875V13.2578125z M47.7910156,22.6347656
			c0-0.140625-0.0527344-0.2636719-0.15625-0.3671875c-0.1015625-0.1015625-0.2246094-0.1523438-0.3652344-0.1523438h-2.0839844
			c-0.140625,0-0.2636719,0.0507813-0.3652344,0.1523438c-0.1035156,0.1035156-0.15625,0.2265625-0.15625,0.3671875V24.71875
			c0,0.140625,0.0527344,0.2617188,0.15625,0.3652344c0.1015625,0.1035156,0.2246094,0.1542969,0.3652344,0.1542969h2.0839844
			c0.140625,0,0.2636719-0.0507813,0.3652344-0.1542969c0.1035156-0.1035156,0.15625-0.2246094,0.15625-0.3652344V22.6347656z
			 M58.2070313,17.9472656H53c-0.2929688,0-0.5410156-0.1035156-0.7402344-0.3085938
			c-0.2011719-0.2070313-0.3027344-0.4511719-0.3027344-0.734375v-5.2070313c0-0.2929688,0.1015625-0.5410156,0.3027344-0.7421875
			C52.4589844,10.7558594,52.7070313,10.6542969,53,10.6542969h5.2070313c0.2832031,0,0.5273438,0.1015625,0.7324219,0.3007813
			C59.1464844,11.15625,59.25,11.4042969,59.25,11.6972656v5.2070313c0,0.2832031-0.1035156,0.5273438-0.3105469,0.734375
			C58.734375,17.84375,58.4902344,17.9472656,58.2070313,17.9472656z M58.2070313,27.3222656H53
			c-0.2929688,0-0.5410156-0.0996094-0.7402344-0.3007813c-0.2011719-0.1992188-0.3027344-0.4472656-0.3027344-0.7402344v-5.2089844
			c0-0.2929688,0.1015625-0.5390625,0.3027344-0.7421875C52.4589844,20.1308594,52.7070313,20.0292969,53,20.0292969h5.2070313
			c0.2832031,0,0.5273438,0.1015625,0.7324219,0.3007813C59.1464844,20.5332031,59.25,20.7792969,59.25,21.0722656V26.28125
			c0,0.2929688-0.1035156,0.5410156-0.3105469,0.7402344C58.734375,27.2226563,58.4902344,27.3222656,58.2070313,27.3222656z
			 M57.1660156,13.2578125c0-0.140625-0.0507813-0.2636719-0.1542969-0.3652344s-0.2265625-0.1542969-0.3671875-0.1542969
			h-2.0839844c-0.140625,0-0.2617188,0.0527344-0.3652344,0.1542969c-0.1015625,0.1015625-0.1542969,0.2246094-0.1542969,0.3652344
			v2.0839844c0,0.1425781,0.0527344,0.2636719,0.1542969,0.3671875c0.1035156,0.1035156,0.2246094,0.1542969,0.3652344,0.1542969
			h2.0839844c0.140625,0,0.2636719-0.0507813,0.3671875-0.1542969s0.1542969-0.2246094,0.1542969-0.3671875V13.2578125z
			 M57.1660156,22.6347656c0-0.140625-0.0507813-0.2636719-0.1542969-0.3671875
			c-0.1035156-0.1015625-0.2265625-0.1523438-0.3671875-0.1523438h-2.0839844c-0.140625,0-0.2617188,0.0507813-0.3652344,0.1523438
			c-0.1015625,0.1035156-0.1542969,0.2265625-0.1542969,0.3671875V24.71875c0,0.140625,0.0527344,0.2617188,0.1542969,0.3652344
			c0.1035156,0.1035156,0.2246094,0.1542969,0.3652344,0.1542969h2.0839844c0.140625,0,0.2636719-0.0507813,0.3671875-0.1542969
			s0.1542969-0.2246094,0.1542969-0.3652344V22.6347656z"/>
	</g>
	<g>
		<path fill="#EB0029" d="M30.03125,36.5898438h-5.2089844c-0.2832031,0-0.5253906-0.1035156-0.7324219-0.3085938
			c-0.2050781-0.2070313-0.3085938-0.4511719-0.3085938-0.7324219v-5.2070313c0-0.2949219,0.1035156-0.5410156,0.3085938-0.7421875
			c0.2070313-0.2011719,0.4492188-0.3007813,0.7324219-0.3007813H30.03125c0.2929688,0,0.5390625,0.0996094,0.7402344,0.3007813
			s0.3027344,0.4472656,0.3027344,0.7421875v5.2070313c0,0.28125-0.1035156,0.5253906-0.3105469,0.7324219
			C30.5566406,36.4863281,30.3125,36.5898438,30.03125,36.5898438z M28.9902344,31.9023438
			c0-0.140625-0.0527344-0.2636719-0.15625-0.3652344c-0.1035156-0.1035156-0.2246094-0.15625-0.3652344-0.15625h-2.0820313
			c-0.1425781,0-0.265625,0.0527344-0.3671875,0.15625c-0.1035156,0.1015625-0.15625,0.2246094-0.15625,0.3652344v2.0820313
			c0,0.1445313,0.0527344,0.2636719,0.15625,0.3691406c0.1015625,0.1015625,0.2246094,0.1542969,0.3671875,0.1542969H28.46875
			c0.140625,0,0.2617188-0.0527344,0.3652344-0.1542969c0.1035156-0.1054688,0.15625-0.2246094,0.15625-0.3691406V31.9023438z
			 M39.40625,36.5898438h-5.2089844c-0.2929688,0-0.5390625-0.1035156-0.7402344-0.3085938
			c-0.1992188-0.2070313-0.3007813-0.4511719-0.3007813-0.7324219v-5.2070313c0-0.2949219,0.1015625-0.5410156,0.3007813-0.7421875
			c0.2011719-0.2011719,0.4472656-0.3007813,0.7402344-0.3007813H39.40625c0.2832031,0,0.5273438,0.0996094,0.734375,0.3007813
			c0.2050781,0.2011719,0.3085938,0.4472656,0.3085938,0.7421875v5.2070313c0,0.28125-0.1035156,0.5253906-0.3085938,0.7324219
			C39.9335938,36.4863281,39.6894531,36.5898438,39.40625,36.5898438z M38.3671875,31.9023438
			c0-0.140625-0.0527344-0.2636719-0.1582031-0.3652344c-0.1015625-0.1035156-0.2226563-0.15625-0.3652344-0.15625h-2.0820313
			c-0.140625,0-0.2636719,0.0527344-0.3671875,0.15625c-0.1035156,0.1015625-0.1542969,0.2246094-0.1542969,0.3652344v2.0820313
			c0,0.1445313,0.0507813,0.2636719,0.1542969,0.3691406c0.1035156,0.1015625,0.2265625,0.1542969,0.3671875,0.1542969H37.84375
			c0.1425781,0,0.2636719-0.0527344,0.3652344-0.1542969c0.1054688-0.1054688,0.1582031-0.2246094,0.1582031-0.3691406V31.9023438z"
			/>
	</g>
	<g>
		<path fill="#EB0029" d="M48.8320313,36.5898438h-5.2089844c-0.28125,0-0.5253906-0.1035156-0.7324219-0.3085938
			c-0.2070313-0.2070313-0.3105469-0.4511719-0.3105469-0.7324219v-5.2070313c0-0.2949219,0.1035156-0.5410156,0.3105469-0.7421875
			s0.4511719-0.3007813,0.7324219-0.3007813h5.2089844c0.2929688,0,0.5390625,0.0996094,0.7402344,0.3007813
			c0.1992188,0.2011719,0.3007813,0.4472656,0.3007813,0.7421875v5.2070313c0,0.28125-0.1035156,0.5253906-0.3105469,0.7324219
			C49.359375,36.4863281,49.1132813,36.5898438,48.8320313,36.5898438z M47.7910156,31.9023438
			c0-0.140625-0.0527344-0.2636719-0.15625-0.3652344c-0.1015625-0.1035156-0.2246094-0.15625-0.3652344-0.15625h-2.0839844
			c-0.140625,0-0.2636719,0.0527344-0.3652344,0.15625c-0.1035156,0.1015625-0.15625,0.2246094-0.15625,0.3652344v2.0820313
			c0,0.1445313,0.0527344,0.2636719,0.15625,0.3691406c0.1015625,0.1015625,0.2246094,0.1542969,0.3652344,0.1542969h2.0839844
			c0.140625,0,0.2636719-0.0527344,0.3652344-0.1542969c0.1035156-0.1054688,0.15625-0.2246094,0.15625-0.3691406V31.9023438z
			 M58.2070313,36.5898438H53c-0.2929688,0-0.5410156-0.1035156-0.7402344-0.3085938
			c-0.2011719-0.2070313-0.3027344-0.4511719-0.3027344-0.7324219v-5.2070313c0-0.2949219,0.1015625-0.5410156,0.3027344-0.7421875
			C52.4589844,29.3984375,52.7070313,29.2988281,53,29.2988281h5.2070313c0.2832031,0,0.5273438,0.0996094,0.7324219,0.3007813
			C59.1464844,29.8007813,59.25,30.046875,59.25,30.3417969v5.2070313c0,0.28125-0.1035156,0.5253906-0.3105469,0.7324219
			C58.734375,36.4863281,58.4902344,36.5898438,58.2070313,36.5898438z M57.1660156,31.9023438
			c0-0.140625-0.0507813-0.2636719-0.1542969-0.3652344c-0.1035156-0.1035156-0.2265625-0.15625-0.3671875-0.15625h-2.0839844
			c-0.140625,0-0.2617188,0.0527344-0.3652344,0.15625c-0.1015625,0.1015625-0.1542969,0.2246094-0.1542969,0.3652344v2.0820313
			c0,0.1445313,0.0527344,0.2636719,0.1542969,0.3691406c0.1035156,0.1015625,0.2246094,0.1542969,0.3652344,0.1542969h2.0839844
			c0.140625,0,0.2636719-0.0527344,0.3671875-0.1542969c0.1035156-0.1054688,0.1542969-0.2246094,0.1542969-0.3691406V31.9023438z"
			/>
	</g>
	<g>
		<path fill-rule="evenodd" clip-rule="evenodd" fill="#FFFFFF" d="M48.6269531,50.5942383c0,0.5527344-0.4477539,1-1,1h-13
			c-0.5522461,0-1-0.4472656-1-1v-1c0-0.5527344,0.4477539-1,1-1h13c0.5522461,0,1,0.4472656,1,1V50.5942383z"/>
	</g>
</g>
</svg>
