<?xml version="1.0" encoding="utf-8"?>
<!-- Generator: Adobe Illustrator 16.0.0, SVG Export Plug-In . SVG Version: 6.00 Build 0)  -->
<!DOCTYPE svg PUBLIC "-//W3C//DTD SVG 1.1//EN" "http://www.w3.org/Graphics/SVG/1.1/DTD/svg11.dtd">
<svg version="1.1" id="Layer_1" xmlns="http://www.w3.org/2000/svg" xmlns:xlink="http://www.w3.org/1999/xlink" x="0px" y="0px"
	 width="96.9296875px" height="95.9638672px" viewBox="0 0 96.9296875 95.9638672"
	 enable-background="new 0 0 96.9296875 95.9638672" xml:space="preserve">
<g>
	<path fill-rule="evenodd" clip-rule="evenodd" fill="#EB9A30" d="M13.1855469,65.0927734H0.6816406l-0.1132813,0.6191406
		c8.6132813,2.1640625,15.6542969,6.8632813,18.8457031,15.7226563l-2.7128906-13.796875
		C16.2265625,65.7275391,14.8710938,65.1708984,13.1855469,65.0927734z"/>
	<path fill-rule="evenodd" clip-rule="evenodd" fill="#293E84" d="M27.8066406,65.5166016h8.2089844l-12.1992188,29.96875
		l-8.2050781,0.0097656L9.3046875,71.6064453c4.4941406,1.8398438,8.484375,5.8476563,10.109375,10.2226563l0.8105469,4.1523438
		L27.8066406,65.5166016 M34.3066406,95.5205078h7.7578125l4.8457031-30.0371094h-7.7441406L34.3066406,95.5205078
		 M70.1933594,66.2236328c-1.5371094-0.609375-3.9472656-1.2597656-6.9609375-1.2597656
		c-7.6601563,0-13.0527344,4.078125-13.0957031,9.9160156c-0.0527344,4.3105469,3.8457031,6.7207031,6.78125,8.15625
		c3.0253906,1.4707031,4.0390625,2.4023438,4.0273438,3.7226563c-0.0195313,2.0097656-2.40625,2.9335938-4.6445313,2.9335938
		c-3.0996094,0-4.7539063-0.453125-7.2929688-1.5683594l-1.0039063-0.4785156l-1.0878906,6.7128906
		c1.8066406,0.8417969,5.1621094,1.5703125,8.6386719,1.6054688c8.1503906,0,13.4453125-4.0253906,13.5097656-10.2578125
		c0.03125-3.4238281-2.0371094-6.0195313-6.5175781-8.1601563c-2.7050781-1.3925781-4.3632813-2.3105469-4.3515625-3.7226563
		c0-1.2480469,1.4101563-2.5859375,4.4355469-2.5859375c2.5449219-0.0390625,4.3789063,0.5410156,5.8144531,1.1542969
		l0.6992188,0.34375L70.1933594,66.2236328 M90.0820313,65.5185547l6.2792969,30.015625h-7.2011719
		c0,0-0.7109375-3.4628906-0.9472656-4.5039063c-1.1269531,0-9.0390625-0.0097656-9.9335938-0.0097656
		c-0.3066406,0.8085938-1.6289063,4.5136719-1.6289063,4.5136719H68.5l11.5214844-27.53125
		c0.8125-1.9550781,2.2128906-2.484375,4.0703125-2.484375H90.0820313 M86.9453125,84.8720703
		c-0.2988281-1.5058594-1.7832031-8.6738281-1.7832031-8.6738281l-0.5273438-2.5820313
		c-0.3945313,1.125-1.078125,2.9375-1.0273438,2.8574219c0,0-2.4492188,6.6738281-3.0859375,8.3984375
		C82.0273438,84.8720703,85.7460938,84.8720703,86.9453125,84.8720703z"/>
</g>
<g>
	<path fill="#ED9631" d="M48.4648438,50.4580078c5.1484375,4.6621094,11.9746094,7.5058594,19.4667969,7.5058594
		c16.0175781,0,28.9980469-12.9858398,28.9980469-29.0004883c0-16.015625-12.9804688-29-28.9980469-29
		c-7.4921875,0-14.3183594,2.8417969-19.4667969,7.5058594c-5.8535156,5.3046875-9.5332031,12.96875-9.5332031,21.4941406
		C38.9316406,37.4848633,42.6113281,45.1494141,48.4648438,50.4580078"/>
	<path fill="#ED9631" d="M93.0644531,45.1259766c0-0.5170898,0.4199219-0.9360352,0.9375-0.9360352
		s0.9375,0.4189453,0.9375,0.9360352c0,0.5175781-0.4199219,0.9394531-0.9375,0.9394531
		S93.0644531,45.6435547,93.0644531,45.1259766 M94.0019531,45.8388672c0.3925781,0,0.7109375-0.3183594,0.7109375-0.7128906
		c0-0.394043-0.3183594-0.7104492-0.7109375-0.7104492c-0.3945313,0-0.7128906,0.3164063-0.7128906,0.7104492
		C93.2890625,45.5205078,93.6074219,45.8388672,94.0019531,45.8388672 M93.875,45.5380859h-0.1914063V44.715332H94.03125
		c0.0722656,0,0.1464844,0,0.2089844,0.0419922c0.0664063,0.0449219,0.1054688,0.1240234,0.1054688,0.2050781
		c0,0.0947266-0.0546875,0.1791992-0.1425781,0.2124023l0.1523438,0.3632813H94.140625l-0.125-0.3261719H93.875V45.5380859z
		 M93.875,45.0712891h0.1054688c0.0410156,0,0.0839844,0.0058594,0.1191406-0.0141602
		c0.0292969-0.0214844,0.0449219-0.0615234,0.0449219-0.0966797c0-0.03125-0.0175781-0.0654297-0.0449219-0.0849609
		c-0.0332031-0.0175781-0.0859375-0.0136719-0.1230469-0.0136719H93.875V45.0712891z"/>
	<path fill="#BD202D" d="M57.8359375,25.8920898c-0.1074219-1.0400391-0.2734375-2.0654297-0.4902344-3.0693359H39.5859375
		c0.2265625-1.0458984,0.5078125-2.0703125,0.8417969-3.0722656h16.0761719
		c-0.3515625-1.0517578-0.7617188-2.0761719-1.2285156-3.0693359H41.6621094
		c0.4960938-1.0625,1.0585938-2.0849609,1.6738281-3.0712891h10.2695313
		c-0.671875-1.0722656-1.4101563-2.0976563-2.2128906-3.0703125h-5.8496094
		c0.9003906-1.0917969,1.875-2.1201172,2.9238281-3.0712891C43.3203125,2.8061523,36.4921875-0.0356445,29-0.0356445
		c-16.015625,0-29,12.9824219-29,28.9990234s12.984375,28.9985352,29,28.9985352
		c7.4921875,0,14.3203125-2.8417969,19.4667969-7.5039063c1.046875-0.953125,2.0253906-1.9785156,2.9257813-3.0722656h-5.8496094
		c-0.8007813-0.9726563-1.5351563-1.9980469-2.2070313-3.0708008h10.2695313
		c0.6152344-0.9863281,1.1738281-2.0107422,1.6699219-3.0703125H41.6621094
		c-0.4648438-0.9951172-0.8828125-2.0166016-1.234375-3.0703125h16.0761719
		c0.3339844-1.0019531,0.6191406-2.0253906,0.8417969-3.0722656c0.2167969-1.0048828,0.3828125-2.0283203,0.4902344-3.0693359
		C57.9453125,31.0239258,58,29.9985352,58,28.9633789C58,27.925293,57.9453125,26.9008789,57.8359375,25.8920898"/>
	<path fill="#FFFFFF" d="M93.0644531,35.6889648c0-0.5175781,0.4199219-0.9384766,0.9375-0.9384766
		s0.9375,0.4208984,0.9375,0.9384766s-0.4199219,0.9365234-0.9375,0.9365234S93.0644531,36.206543,93.0644531,35.6889648
		 M94.0019531,36.3999023c0.3925781,0,0.7109375-0.3164063,0.7109375-0.7109375
		c0-0.3935547-0.3183594-0.7128906-0.7109375-0.7128906c-0.3945313,0-0.7128906,0.3193359-0.7128906,0.7128906
		C93.2890625,36.0834961,93.6074219,36.3999023,94.0019531,36.3999023 M93.875,36.0991211h-0.1914063v-0.8232422H94.03125
		c0.0722656,0,0.1464844,0.0039063,0.2089844,0.0429688c0.0664063,0.0458984,0.1054688,0.1230469,0.1054688,0.2041016
		c0,0.0947266-0.0546875,0.1816406-0.1425781,0.2148438l0.1523438,0.3613281H94.140625l-0.125-0.3251953H93.875V36.0991211z
		 M93.875,35.6333008h0.1054688c0.0410156,0,0.0839844,0.0039063,0.1191406-0.015625
		c0.0292969-0.0214844,0.0449219-0.0585938,0.0449219-0.0947266c0-0.0332031-0.0175781-0.0673828-0.0449219-0.0849609
		c-0.0332031-0.0195313-0.0859375-0.015625-0.1230469-0.015625H93.875V35.6333008z"/>
	<path fill="#25265D" d="M38.6113281,37.3383789c-0.9726563,0.2705078-1.6445313,0.3886719-2.3730469,0.3886719
		c-1.46875,0-2.3828125-0.9257813-2.3828125-2.6269531c0-0.3359375,0.03125-0.6933594,0.0917969-1.0722656l0.1914063-1.1699219
		l0.1464844-0.9472656l1.3691406-8.1630859h3.0195313l-0.359375,1.7763672h1.8925781l-0.4453125,3.0175781h-1.8964844
		l-0.8144531,4.8818359c-0.0390625,0.21875-0.0566406,0.3847656-0.0566406,0.4951172
		c0,0.6171875,0.3261719,0.8867188,1.0742188,0.8867188c0.3574219,0,0.6367188-0.0371094,0.9589844-0.1142578L38.6113281,37.3383789
		"/>
	<path fill="#25265D" d="M48.328125,37.2260742c-1.078125,0.3291016-2.1191406,0.4853516-3.2246094,0.4853516
		c-3.3652344,0-5.3496094-1.8388672-5.3496094-5.3574219c0-4.1054688,2.3339844-7.1279297,5.4980469-7.1279297
		c2.5917969,0,4.2441406,1.6904297,4.2441406,4.3466797c0,0.8798828-0.1132813,1.7392578-0.3867188,2.9521484h-6.2558594
		c-0.0234375,0.1855469-0.03125,0.2666016-0.03125,0.375c0,1.3867188,0.9355469,2.0957031,2.7636719,2.0957031
		c1.1230469,0,2.1367188-0.2333984,3.2675781-0.7568359L48.328125,37.2260742 M46.453125,30.1108398
		c0.0195313-0.2490234,0.0292969-0.4521484,0.0292969-0.609375c0-0.9707031-0.5527344-1.5419922-1.4902344-1.5419922
		c-1,0-1.7167969,0.7646484-2.0078125,2.1435547L46.453125,30.1108398z"/>
	<polygon fill="#25265D" points="14.5800781,37.4848633 11.4316406,37.4848633 13.2324219,26.1782227 9.2109375,37.4848633 
		7.0664063,37.4848633 6.8007813,26.2436523 4.90625,37.4848633 1.8476563,37.4848633 4.3105469,22.7758789 8.8378906,22.7758789 
		8.9648438,31.8823242 12.0175781,22.7758789 17,22.7758789 	"/>
	<path fill="#25265D" d="M22.1425781,32.1586914c-0.3300781-0.0410156-0.3945313-0.0507813-0.6191406-0.0507813
		c-1.7851563,0-2.6894531,0.6835938-2.6894531,1.8193359c0,0.7441406,0.4414063,1.21875,1.1308594,1.21875
		C21.4863281,35.1459961,22.0878906,33.925293,22.1425781,32.1586914 M24.6289063,37.4848633H21.90625l0.0585938-1.2392578
		c-0.6894531,0.9345703-1.6210938,1.4443359-3.2988281,1.4443359c-1.5214844,0-2.796875-1.3291016-2.796875-3.2636719
		c0-0.5703125,0.1054688-1.0878906,0.234375-1.5644531c0.4941406-1.8339844,2.3554688-3.0097656,5.2148438-3.0488281
		c0.3574219-0.0039063,0.9179688-0.0107422,1.3847656,0.046875c0.0996094-0.3916016,0.125-0.5605469,0.125-0.7744141
		c0-0.7929688-0.6523438-1.0439453-2.1230469-1.0439453c-0.8984375,0-1.9042969,0.1582031-2.6074219,0.3623047l-0.4335938,0.1240234
		l-0.1835938,0.0517578l0.4335938-2.6894531c1.4746094-0.4453125,2.5-0.6347656,3.6621094-0.6347656
		c2.703125,0,4.1347656,1.2158203,4.1347656,3.5087891c0,0.5908203,0.0585938,1.0380859-0.1503906,2.3701172l-0.6582031,4.2421875
		l-0.1074219,0.7626953l-0.0820313,0.6064453l-0.0546875,0.4150391L24.6289063,37.4848633z"/>
	<path fill="#25265D" d="M63.46875,25.6333008c0.875,0,1.6914063,0.2304688,2.8125,0.7949219l0.515625-3.1933594
		c-0.2792969-0.1152344-0.3613281-0.1464844-0.7617188-0.2880859l-1.2890625-0.3251953
		c-0.4003906-0.0996094-0.8710938-0.1503906-1.4101563-0.1503906c-1.5625,0-2.4804688,0.0185547-3.421875,0.5957031
		c-0.5117188,0.3105469-1.1445313,0.7666016-1.8808594,1.5722656l-0.3710938-0.1132813l-3.2070313,2.2802734l0.1542969-1.2832031
		h-3.3378906l-1.9179688,11.9619141h3.1484375l1.1484375-6.4394531c0,0,0.4492188-0.8779297,0.6582031-1.1542969
		c0.578125-0.7802734,1.0898438-0.7861328,1.7460938-0.7646484c0.0800781,0.0019531,0.1894531,0.0039063,0.2246094,0.0068359
		c-0.09375,0.6972656-0.1425781,1.4550781-0.1425781,2.2714844c0,3.9140625,2.2226563,6.3496094,5.6113281,6.3496094
		c0.8730469,0,1.6210938-0.1142578,2.78125-0.4296875l0.5546875-3.3525391
		c-1.0449219,0.5117188-1.8984375,0.7548828-2.6757813,0.7548828c-1.828125,0-2.9355469-1.3496094-2.9355469-3.5830078
		C59.4726563,27.9038086,61.1191406,25.6333008,63.46875,25.6333008"/>
	<path fill="#25265D" d="M90.0683594,22.777832l-0.6914063,4.1982422c-0.7578125-1.1308594-1.6601563-1.6767578-2.8808594-1.6767578
		c-1.6523438,0-3.1679688,0.9462891-4.1328125,2.7119141l0.0078125-0.0166016l-2-1.1884766l0.1542969-1.2832031H77.1875
		L75.2675781,37.487793h3.1503906l1.0410156-6.4384766c0,0,0.8066406-0.8974609,1.015625-1.1738281
		c0.4628906-0.6064453,0.9785156-0.7255859,1.3964844-0.7529297c-0.3632813,1.0117188-0.5722656,2.2050781-0.5722656,3.5537109
		c0,2.9892578,1.5566406,4.9677734,3.8457031,4.9677734c1.1542969,0,2.046875-0.4052734,2.9082031-1.3291016l-0.1542969,1.1728516
		h2.9804688l2.3964844-14.7099609H90.0683594 M86.234375,34.6694336c-1.0722656,0-1.6132813-0.7919922-1.6132813-2.3583984
		c0-2.3505859,1.0117188-4.0195313,2.4414063-4.0195313c1.0839844,0,1.6699219,0.8232422,1.6699219,2.3447266
		C88.7324219,33.0083008,87.7011719,34.6694336,86.234375,34.6694336"/>
	<path fill="#25265D" d="M71.7363281,32.1586914c-0.3300781-0.0410156-0.3945313-0.0507813-0.6191406-0.0507813
		c-1.7851563,0-2.6875,0.6835938-2.6875,1.8193359c0,0.7441406,0.4394531,1.21875,1.1269531,1.21875
		C71.0800781,35.1459961,71.6835938,33.925293,71.7363281,32.1586914 M74.2226563,37.4848633H71.5l0.0605469-1.2392578
		c-0.6894531,0.9345703-1.6230469,1.4443359-3.2988281,1.4443359c-1.5234375,0-2.90625-1.3017578-2.8925781-3.2773438
		c0.0195313-2.8447266,2.1425781-4.5996094,5.5429688-4.5996094c0.3574219,0,0.9160156-0.0107422,1.3847656,0.046875
		c0.0996094-0.3916016,0.1269531-0.5605469,0.1269531-0.7744141c0-0.7929688-0.6523438-1.0439453-2.1230469-1.0439453
		c-0.8984375,0-1.9042969,0.1582031-2.6074219,0.3623047l-0.4355469,0.1240234l-0.1816406,0.0517578l0.4355469-2.6894531
		c1.4726563-0.4453125,2.4960938-0.6347656,3.6582031-0.6347656c2.703125,0,4.1347656,1.2158203,4.1347656,3.5087891
		c0,0.5908203,0.0585938,1.0380859-0.1484375,2.3701172l-0.6582031,4.2421875l-0.1113281,0.7626953l-0.078125,0.6064453
		l-0.0566406,0.4150391L74.2226563,37.4848633z"/>
	<path fill-rule="evenodd" clip-rule="evenodd" fill="#25265D" d="M31.1894531,28.0825195
		c0.6191406-0.0039063,1.4609375,0.0605469,2.3671875,0.1806641l0.4492188-2.7607422
		c-0.9238281-0.1396484-2.0957031-0.2412109-2.8125-0.2412109c-3.5195313,0-4.6777344,1.8759766-4.6777344,4.0839844
		c0,1.4238281,0.6914063,2.4892578,2.3515625,3.2734375c1.2734375,0.5986328,1.4902344,0.7080078,1.4902344,1.2509766
		c0,0.7451172-0.6464844,1.1669922-1.890625,1.1669922c-0.9394531,0-1.8125-0.1455078-2.8183594-0.4716797l-0.3652344,2.7490234
		l0.0722656,0.0166016l0.5742188,0.1201172c0.1835938,0.0390625,0.4648438,0.0849609,0.828125,0.1191406
		c0.7460938,0.0644531,1.3769531,0.1083984,1.7832031,0.1083984c3.4941406,0,4.9375-1.3535156,4.9375-3.9921875
		c0-1.6416016-0.78125-2.6054688-2.3554688-3.328125c-1.3183594-0.6064453-1.4765625-0.6914063-1.4707031-1.2480469
		C29.6601563,28.5600586,30.2304688,28.0883789,31.1894531,28.0825195"/>
	<g>
		<path fill="#FFFFFF" d="M67.6484375,22.3100586l-0.515625,3.1923828
			c-1.1230469-0.5654297-1.9394531-0.7939453-2.8105469-0.7939453c-2.3515625,0-4,2.2714844-4,5.5087891
			c0,2.234375,1.109375,3.5830078,2.9375,3.5830078c0.7753906,0,1.6328125-0.2402344,2.6757813-0.7539063l-0.5546875,3.3515625
			c-1.1601563,0.3173828-1.9082031,0.4306641-2.78125,0.4306641c-3.3867188,0-5.5-2.4355469-5.5-6.3486328
			c0-5.2607422,2.9160156-8.9355469,7.0898438-8.9355469c0.5351563,0,1.0078125,0.0517578,1.4082031,0.1523438l1.2910156,0.3242188
			C67.2871094,22.1635742,67.3710938,22.1958008,67.6484375,22.3100586"/>
		<path fill="#FFFFFF" d="M57.5449219,24.4975586c-0.09375-0.0185547-0.2011719-0.0283203-0.3164063-0.0283203
			c-1.03125,0-1.6210938,0.5273438-2.5839844,1.9423828l0.2753906-1.8134766h-2.8457031l-1.921875,11.9638672h3.1503906
			c1.125-7.3164063,1.4238281-8.5791016,2.9335938-8.5791016c0.0976563,0,0.1054688-0.0009766,0.2304688,0.0146484
			c0.28125-1.4462891,0.6679688-2.5068359,1.1953125-3.4716797L57.5449219,24.4975586"/>
		<path fill="#FFFFFF" d="M39.4101563,36.4135742c-0.8632813,0.2724609-1.5332031,0.3876953-2.2617188,0.3876953
			c-1.609375,0-2.4882813-0.9267578-2.4882813-2.6269531c0-0.3359375,0.03125-0.6953125,0.09375-1.0712891l0.1914063-1.1728516
			l0.1464844-0.9462891l1.3652344-8.1621094h3.1289063l-0.3613281,1.7763672h1.6074219l-0.4335938,2.9091797h-1.6113281
			l-0.8300781,4.9912109c-0.0371094,0.2158203-0.0527344,0.3818359-0.0527344,0.4941406
			c0,0.6162109,0.3242188,0.8847656,1.0742188,0.8847656c0.3574219,0,0.6347656-0.0351563,0.8496094-0.1123047
			L39.4101563,36.4135742"/>
		<path fill="#FFFFFF" d="M27.3164063,28.378418c0,1.5126953,0.734375,2.5517578,2.3945313,3.3359375
			c1.2714844,0.5986328,1.46875,0.7744141,1.46875,1.3173828c0,0.7451172-0.5605469,1.0810547-1.8027344,1.0810547
			c-0.9375,0-1.8105469-0.1464844-2.8164063-0.4736328L26.125,36.3999023l0.140625,0.0273438l0.5761719,0.1191406
			c0.1855469,0.0390625,0.4609375,0.0732422,0.8222656,0.1044922c0.7480469,0.0683594,1.3261719,0.1005859,1.7324219,0.1005859
			c3.3164063,0,4.8515625-1.2626953,4.8515625-3.9902344c0-1.6416016-0.6425781-2.6035156-2.21875-3.3300781
			c-1.3164063-0.6054688-1.46875-0.7392578-1.46875-1.2958984c0-0.6464844,0.5234375-0.9775391,1.5390625-0.9775391
			c0.6152344,0,1.4609375,0.0673828,2.2578125,0.1806641l0.4492188-2.7705078
			c-0.8144531-0.1298828-2.0488281-0.234375-2.7675781-0.234375C28.5234375,24.3334961,27.3066406,26.1733398,27.3164063,28.378418"
			/>
		<path fill="#FFFFFF" d="M91.6816406,36.5620117h-2.9765625l0.15625-1.1738281
			c-0.8671875,0.9228516-1.7578125,1.328125-2.9140625,1.328125c-2.2890625,0-3.8007813-1.9736328-3.8007813-4.9658203
			c0-3.9794922,2.3476563-7.3349609,5.1230469-7.3349609c1.2226563,0,2.1523438,0.5039063,3.015625,1.6376953l0.6894531-4.2011719
			h3.1054688L91.6816406,36.5620117 M87.0371094,33.7446289c1.46875,0,2.5-1.6630859,2.5-4.0332031
			c0-1.5224609-0.5859375-2.3447266-1.6699219-2.3447266c-1.4316406,0-2.4433594,1.6669922-2.4433594,4.0185547
			C85.4238281,32.949707,85.9648438,33.7446289,87.0371094,33.7446289"/>
		<path fill="#FFFFFF" d="M49.0253906,36.2993164c-1.078125,0.3300781-2.1230469,0.4902344-3.2246094,0.4863281
			c-3.5175781-0.0009766-5.3515625-1.8378906-5.3515625-5.3574219c0-4.1064453,2.3339844-7.1279297,5.4980469-7.1279297
			c2.59375,0,4.2460938,1.6914063,4.2460938,4.3476563c0,0.8818359-0.1132813,1.7412109-0.3886719,2.9521484h-6.2558594
			c-0.0234375,0.1835938-0.0292969,0.2646484-0.0292969,0.3730469c0,1.390625,0.9335938,2.0976563,2.7597656,2.0976563
			c1.125,0,2.1386719-0.2324219,3.2695313-0.7597656L49.0253906,36.2993164 M47.2578125,29.1860352
			c0.0195313-0.2490234,0.0292969-0.4550781,0.0292969-0.609375c0-0.9736328-0.5527344-1.5429688-1.4902344-1.5429688
			c-1.0019531,0-1.7167969,0.765625-2.0078125,2.1445313L47.2578125,29.1860352z"/>
		<polygon fill="#FFFFFF" points="15.3828125,36.5600586 12.234375,36.5600586 14.0371094,25.253418 10.0117188,36.5600586 
			7.8671875,36.5600586 7.5976563,25.3188477 5.7050781,36.5600586 2.7578125,36.5600586 5.2207031,21.8510742 
			9.7480469,21.8510742 9.8730469,30.956543 12.9277344,21.8510742 17.8164063,21.8510742 		"/>
		<path fill="#FFFFFF" d="M23.1328125,31.230957c-0.3300781-0.0380859-0.4746094-0.0478516-0.703125-0.0478516
			c-1.78125,0-2.6855469,0.6123047-2.6855469,1.8193359c0,0.7431641,0.4414063,1.21875,1.1269531,1.21875
			C22.1542969,34.2211914,23.0800781,33.0004883,23.1328125,31.230957 M25.4238281,36.5600586h-2.609375l0.0625-1.2402344
			c-0.7988281,0.9814453-1.8613281,1.4472656-3.3007813,1.4472656c-1.7070313,0-2.8769531-1.3330078-2.8769531-3.2685547
			c0-2.9121094,2.0371094-4.609375,5.5292969-4.609375c0.3574219,0,0.8144531,0.03125,1.2792969,0.0917969
			c0.1015625-0.3945313,0.125-0.5625,0.125-0.7763672c0-0.7939453-0.5488281-1.0878906-2.0195313-1.0878906
			c-0.8964844,0-1.9121094,0.1279297-2.6113281,0.3320313l-0.4375,0.1279297L18.28125,27.652832l0.4375-2.6884766
			c1.5683594-0.4609375,2.6035156-0.6337891,3.765625-0.6337891c2.7050781,0,4.1328125,1.2158203,4.1328125,3.5078125
			c0,0.5898438-0.0449219,1.0380859-0.2539063,2.3710938l-0.6582031,4.2402344l-0.109375,0.7646484l-0.0800781,0.6064453
			l-0.0566406,0.4150391L25.4238281,36.5600586z"/>
		<path fill="#FFFFFF" d="M72.7285156,31.230957c-0.328125-0.0380859-0.4746094-0.0478516-0.703125-0.0478516
			c-1.7832031,0-2.6875,0.6123047-2.6875,1.8193359c0,0.7431641,0.4433594,1.21875,1.1289063,1.21875
			C71.7519531,34.2211914,72.6738281,33.0004883,72.7285156,31.230957 M75.0195313,36.5600586h-2.609375l0.0625-1.2402344
			c-0.7988281,0.9814453-1.8613281,1.4472656-3.3007813,1.4472656c-1.7070313,0-2.8769531-1.3330078-2.8769531-3.2685547
			c0-2.9121094,2.03125-4.609375,5.5273438-4.609375c0.3554688,0,0.8144531,0.03125,1.28125,0.0917969
			c0.0976563-0.3945313,0.125-0.5625,0.125-0.7763672c0-0.7939453-0.5507813-1.0878906-2.0195313-1.0878906
			c-0.8984375,0-1.9121094,0.1279297-2.6113281,0.3320313l-0.4394531,0.1279297l-0.28125,0.0761719L68.3125,24.9643555
			c1.5683594-0.4609375,2.6035156-0.6337891,3.7675781-0.6337891c2.703125,0,4.1328125,1.2158203,4.1328125,3.5078125
			c0,0.5898438-0.0488281,1.0380859-0.2558594,2.3710938l-0.6582031,4.2402344l-0.1074219,0.7646484l-0.0820313,0.6064453
			l-0.0546875,0.4150391L75.0195313,36.5600586z"/>
		<path fill="#FFFFFF" d="M83.4628906,24.4975586c-0.0976563-0.0185547-0.2011719-0.0283203-0.3164063-0.0283203
			c-1.0351563,0-1.6210938,0.5273438-2.5859375,1.9423828l0.2773438-1.8134766h-2.8476563l-1.9179688,11.9638672h3.1484375
			c1.1269531-7.3164063,1.4238281-8.5791016,2.9335938-8.5791016c0.0957031,0,0.09375-0.0029297,0.2167969,0.0117188
			c0.28125-1.4433594,0.6679688-2.5039063,1.1972656-3.46875L83.4628906,24.4975586"/>
	</g>
</g>
</svg>
