<?xml version="1.0" encoding="utf-8"?>
<!-- Generator: Adobe Illustrator 16.0.0, SVG Export Plug-In . SVG Version: 6.00 Build 0)  -->
<!DOCTYPE svg PUBLIC "-//W3C//DTD SVG 1.1//EN" "http://www.w3.org/Graphics/SVG/1.1/DTD/svg11.dtd">
<svg version="1.1" id="Layer_1" xmlns="http://www.w3.org/2000/svg" xmlns:xlink="http://www.w3.org/1999/xlink" x="0px" y="0px"
	 width="77.3334961px" height="73.9169922px" viewBox="0 0 77.3334961 73.9169922"
	 enable-background="new 0 0 77.3334961 73.9169922" xml:space="preserve">
<g>
	<path fill-rule="evenodd" clip-rule="evenodd" fill="none" stroke="#727C8E" stroke-width="2" stroke-miterlimit="10" d="
		M10.9892578,49.1601563H1.1982422l-0.0859375,0.484375c6.7421875,1.6962891,12.2558594,5.3710938,14.7539063,12.3105469
		l-2.125-10.8046875C13.3720703,49.65625,12.3115234,49.2207031,10.9892578,49.1601563z"/>
	<path fill-rule="evenodd" clip-rule="evenodd" fill="none" stroke="#727C8E" stroke-width="2" stroke-miterlimit="10" d="
		M22.4365234,49.4902344h6.4277344l-9.5507813,23.4658203l-6.4238281,0.0058594l-4.9375-18.7021484
		c3.515625,1.4414063,6.6425781,4.5800781,7.9140625,8.0029297l0.6328125,3.2509766L22.4365234,49.4902344 M27.5263672,72.9804688
		h6.0742188l3.7929688-23.5146484h-6.0625L27.5263672,72.9804688 M55.6220703,50.0449219
		c-1.2050781-0.4746094-3.0917969-0.9863281-5.4472656-0.9863281c-6,0-10.2207031,3.1914063-10.2539063,7.7607422
		c-0.0410156,3.3779297,3.0117188,5.2646484,5.3085938,6.3867188c2.3691406,1.1533203,3.1621094,1.8857422,3.1523438,2.9150391
		c-0.0136719,1.5742188-1.8828125,2.2988281-3.6347656,2.2988281c-2.4257813,0-3.7207031-0.3554688-5.7109375-1.2285156
		l-0.7851563-0.375l-0.8515625,5.2578125c1.4140625,0.6542969,4.0429688,1.2275391,6.7636719,1.2539063
		c6.3789063,0,10.5234375-3.1503906,10.5761719-8.0302734c0.0234375-2.6787109-1.5976563-4.7138672-5.1035156-6.3876953
		c-2.1171875-1.0917969-3.4160156-1.8105469-3.4082031-2.9169922c0-0.9736328,1.1054688-2.0244141,3.4746094-2.0244141
		c1.9941406-0.0273438,3.4277344,0.4248047,4.5507813,0.9052734l0.5488281,0.2705078L55.6220703,50.0449219 M71.1928711,49.4941406
		l4.9199219,23.4980469h-5.640625c0,0-0.5566406-2.7089844-0.7402344-3.5273438
		c-0.8828125,0-7.0766602-0.0058594-7.7797852-0.0058594c-0.2382813,0.6328125-1.2753906,3.5332031-1.2753906,3.5332031h-6.3789063
		l9.0195313-21.5527344c0.6367188-1.53125,1.734375-1.9453125,3.1875-1.9453125H71.1928711 M68.7397461,64.6474609
		c-0.2348633-1.1806641-1.3989258-6.7919922-1.3989258-6.7919922l-0.4101563-2.0253906
		c-0.3085938,0.8828125-0.84375,2.3027344-0.8066406,2.2402344c0,0-1.9179688,5.2236328-2.4160156,6.5771484
		C64.8876953,64.6474609,67.7998047,64.6474609,68.7397461,64.6474609z"/>
</g>
<g>
	<g>
		<g>
			<g>
				
					<circle fill="none" stroke="#727C8E" stroke-width="2" stroke-miterlimit="10" cx="23.5507813" cy="23.4443359" r="22.4384766"/>
				<g>
					<path fill="none" stroke="#727C8E" stroke-width="2" stroke-miterlimit="10" d="M53.6728516,1.0058594
						c-5.796875,0-11.0800781,2.2001953-15.0625,5.8085938c-0.8105469,0.7353516-1.5664063,1.5292969-2.2636719,2.3740234h4.5332031
						c0.6171875,0.7548828,1.1875,1.5458984,1.7109375,2.3779297h-7.9550781
						c-0.4785156,0.7646484-0.9101563,1.5556641-1.2929688,2.3759766h10.5390625
						c0.3613281,0.7685547,0.6777344,1.5615234,0.9511719,2.3759766H32.3916016
						c-0.2578125,0.7744141-0.4785156,1.5654297-0.6503906,2.3730469h13.7421875
						c0.3300781,1.5332031,0.5058594,3.1210938,0.5058594,4.7529297c0,2.4902344-0.40625,4.8886719-1.15625,7.1269531H32.3916016
						c0.2753906,0.8144531,0.5917969,1.6064453,0.9492188,2.3769531h10.5410156
						c-0.3828125,0.8203125-0.8144531,1.6113281-1.2929688,2.3759766h-7.953125
						c0.5175781,0.828125,1.0898438,1.6220703,1.7109375,2.375h4.53125
						c-0.6953125,0.8466797-1.4511719,1.640625-2.2675781,2.3759766c3.9824219,3.6074219,9.265625,5.8066406,15.0625,5.8066406
						c12.3925781,0,22.4399414-10.0478516,22.4399414-22.4375C76.112793,11.0537109,66.0654297,1.0058594,53.6728516,1.0058594z"/>
				</g>
			</g>
		</g>
		<g>
			<g>
				<path fill="#727C8E" d="M18.3115234,25.9013672c-0.2539063-0.0292969-0.3691406-0.0380859-0.5449219-0.0380859
					c-1.3789063,0-2.078125,0.4726563-2.078125,1.4091797c0,0.5751953,0.3398438,0.9414063,0.8710938,0.9414063
					C17.5537109,28.2138672,18.2705078,27.2705078,18.3115234,25.9013672z M20.0830078,30.0244141
					c-0.3242188,0-2.0175781,0-2.0175781,0l0.0449219-0.9589844c-0.6152344,0.7587891-1.4394531,1.1191406-2.5527344,1.1191406
					c-1.3203125,0-2.2246094-1.0302734-2.2246094-2.5273438c0-2.2529297,1.5722656-3.5683594,4.2753906-3.5683594
					c0.2773438,0,0.6308594,0.0253906,0.9921875,0.0703125c0.0742188-0.3056641,0.0976563-0.4345703,0.0976563-0.6005859
					c0-0.6123047-0.4277344-0.8417969-1.5644531-0.8417969c-1.1894531-0.0117188-2.1738281,0.2841797-2.578125,0.4189453
					c0.0253906-0.1542969,0.3378906-2.0820313,0.3378906-2.0820313c1.2148438-0.3574219,2.0136719-0.4921875,2.9160156-0.4921875
					c2.0898438,0,3.2011719,0.9394531,3.1972656,2.7148438c0.0039063,0.4755859-0.0761719,1.0615234-0.1992188,1.8349609
					C20.5986328,26.4521484,20.1455078,29.3242188,20.0830078,30.0244141z"/>
				<polygon fill="#727C8E" points="12.3134766,30.0244141 9.8779297,30.0244141 11.2724609,21.2783203 8.1572266,30.0244141 
					6.4970703,30.0244141 6.2900391,21.3261719 4.8232422,30.0244141 2.5439453,30.0244141 4.4482422,18.6445313 
					7.9521484,18.6445313 8.1630859,25.0146484 10.3017578,18.6445313 14.1962891,18.6445313 				"/>
				<path fill="#727C8E" d="M56.6845703,25.9013672c-0.2578125-0.0292969-0.3691406-0.0380859-0.5429688-0.0380859
					c-1.3789063,0-2.078125,0.4726563-2.078125,1.4091797c0,0.5751953,0.3378906,0.9414063,0.8710938,0.9414063
					C55.9287109,28.2138672,56.6416016,27.2705078,56.6845703,25.9013672z M58.4580078,30.0244141
					c-0.3261719,0-2.0195313,0-2.0195313,0l0.046875-0.9589844c-0.6152344,0.7587891-1.4375,1.1191406-2.5546875,1.1191406
					c-1.3183594,0-2.2246094-1.0302734-2.2246094-2.5273438c0-2.2529297,1.5761719-3.5683594,4.2773438-3.5683594
					c0.2773438,0,0.6308594,0.0253906,0.9921875,0.0703125c0.0742188-0.3056641,0.0957031-0.4345703,0.0957031-0.6005859
					c0-0.6123047-0.4238281-0.8417969-1.5625-0.8417969c-1.1914063-0.0117188-2.1738281,0.2841797-2.5800781,0.4189453
					c0.0273438-0.1542969,0.3398438-2.0820313,0.3398438-2.0820313c1.2128906-0.3574219,2.0136719-0.4921875,2.9121094-0.4921875
					c2.0957031,0,3.2011719,0.9394531,3.1992188,2.7148438c0.0058594,0.4755859-0.0742188,1.0615234-0.1972656,1.8349609
					C58.9755859,26.4521484,58.5185547,29.3242188,58.4580078,30.0244141z"/>
				<path fill="#727C8E" d="M30.9091797,29.8857422c-0.6679688,0.2089844-1.1875,0.2988281-1.7519531,0.2988281
					c-1.2441406,0-1.9238281-0.7148438-1.9238281-2.0332031c-0.0175781-0.4101563,0.1777344-1.4853516,0.3339844-2.4667969
					c0.140625-0.8662109,1.0546875-6.3164063,1.0546875-6.3164063h2.421875l-0.28125,1.4003906h1.4628906l-0.3300781,2.2246094
					h-1.46875c-0.28125,1.7597656-0.6835938,3.9521484-0.6855469,4.2451172c0,0.4765625,0.2539063,0.6855469,0.8320313,0.6855469
					c0.2773438,0,0.4921875-0.0273438,0.6582031-0.0888672L30.9091797,29.8857422z"/>
				<path fill="#727C8E" d="M38.3330078,29.8095703c-0.8320313,0.2548828-1.6347656,0.3789063-2.484375,0.375
					c-2.7128906-0.0029297-4.125-1.4179688-4.125-4.1279297c0-3.1630859,1.7988281-5.4951172,4.2382813-5.4951172
					c1.9941406,0,3.2714844,1.3066406,3.2714844,3.3486328c0,0.6796875-0.0859375,1.34375-0.2988281,2.2753906h-4.8203125
					c-0.1640625,1.3457031,0.6914063,1.9072266,2.1035156,1.9072266c0.8671875,0,1.6503906-0.1835938,2.5175781-0.5830078
					L38.3330078,29.8095703z M36.9697266,24.3222656c0.015625-0.1933594,0.2597656-1.6494141-1.1269531-1.6494141
					c-0.7675781,0-1.3203125,0.5839844-1.5429688,1.6494141H36.9697266z"/>
				<path fill="#727C8E" d="M21.5439453,23.6962891c0,1.1689453,0.5683594,1.9746094,1.8535156,2.5810547
					c0.9863281,0.4658203,1.140625,0.6025391,1.140625,1.0224609c0,0.5771484-0.4355469,0.8398438-1.3984375,0.8398438
					c-0.7265625,0-1.4042969-0.1142578-2.1835938-0.3662109c0,0-0.3183594,2.0390625-0.3339844,2.1357422
					c0.5527344,0.1230469,1.046875,0.2324219,2.5351563,0.2753906c2.5683594,0,3.7558594-0.9804688,3.7558594-3.0927734
					c0-1.2724609-0.4941406-2.0185547-1.7167969-2.5810547c-1.0195313-0.4658203-1.1367188-0.5722656-1.1367188-1.0048828
					c0-0.5009766,0.4042969-0.7568359,1.1914063-0.7568359c0.4765625,0,1.1308594,0.0507813,1.7480469,0.140625l0.3476563-2.1445313
					c-0.6328125-0.1025391-1.5859375-0.1835938-2.1445313-0.1835938
					C22.4775391,20.5615234,21.5341797,21.9873047,21.5439453,23.6962891z"/>
				<path fill="#727C8E" d="M50.1806641,20.8066406c0.6757813,0,1.3066406,0.1757813,2.1757813,0.6132813l0.3964844-2.4677734
					c-0.3554688-0.1425781-1.6132813-0.9638672-2.6757813-0.9638672c-1.6289063,0-3.0078125,0.8095703-3.9765625,2.1425781
					c-1.4160156-0.4667969-1.9960938,0.4794922-2.7070313,1.4208984l-0.6347656,0.1484375
					c0.046875-0.3095703,0.0917969-0.6181641,0.0800781-0.9316406h-2.2382813
					c-0.3066406,2.8681641-0.8496094,5.7685547-1.2714844,8.6337891l-0.1113281,0.6220703h2.4375
					c0.4042969-2.6425781,0.6269531-4.3359375,0.765625-5.4794922l0.9160156-0.5097656
					c0.1367188-0.5097656,0.5664063-0.6845703,1.4257813-0.6611328c-0.1132813,0.6035156-0.1738281,1.2392578-0.1738281,1.8955078
					c0,3.0292969,1.6367188,4.9150391,4.2597656,4.9150391c0.6738281,0,1.2539063-0.0878906,2.1523438-0.3330078l0.4277344-2.59375
					C50.6201172,27.65625,49.9580078,27.84375,49.3603516,27.84375c-1.4160156,0-2.2734375-1.0478516-2.2734375-2.7744141
					C47.0869141,22.5615234,48.3603516,20.8066406,50.1806641,20.8066406z"/>
				<path fill="#727C8E" d="M70.8022461,18.6425781l-0.5410156,3.2890625c-0.6640625-0.875-1.3789063-1.5107422-2.324707-1.5107422
					c-1.2285156,0-2.3496094,0.9316406-3.0820313,2.3046875c-1.0214844-0.2109375-1.9941406-1.7197266-1.9941406-1.7197266l0,0
					c0.0820313-0.7646484,0.0371094-0.0761719,0.0292969-0.2373047h-2.2382813
					c-0.3046875,2.8681641-0.8476563,5.7685547-1.2714844,8.6337891l-0.1113281,0.6220703h2.4375
					c0.3300781-2.1367188,0.5820313-3.9091797,0.7675781-5.3173828c0.8320313-0.7529297,1.2480469-1.4091797,2.0878906-1.3652344
					c-0.3710938,0.9023438-0.5878906,1.9384766-0.5878906,3.0019531c0,2.3144531,1.1699219,3.8408203,2.9414063,3.8408203
					c0.890625,0,1.5761719-0.3076172,2.2446289-1.0214844l-0.1132813,0.8613281h2.3027344l1.8554688-11.3818359H70.8022461z
					 M67.7548828,27.8876953c-0.828125,0-1.2480469-0.6152344-1.2480469-1.8251953
					c0-1.8183594,0.7871094-3.1083984,1.890625-3.1083984c0.8383789,0,1.2915039,0.6357422,1.2915039,1.8115234
					C69.6889648,26.6015625,68.8901367,27.8876953,67.7548828,27.8876953z"/>
			</g>
		</g>
	</g>
</g>
</svg>
