<?xml version="1.0" encoding="utf-8"?>
<!-- Generator: Adobe Illustrator 16.0.0, SVG Export Plug-In . SVG Version: 6.00 Build 0)  -->
<!DOCTYPE svg PUBLIC "-//W3C//DTD SVG 1.1//EN" "http://www.w3.org/Graphics/SVG/1.1/DTD/svg11.dtd">
<svg version="1.1" id="Layer_1" xmlns="http://www.w3.org/2000/svg" xmlns:xlink="http://www.w3.org/1999/xlink" x="0px" y="0px"
	 width="205.599px" height="251.505px" viewBox="0 0 205.599 251.505" enable-background="new 0 0 205.599 251.505"
	 xml:space="preserve">
<g>
	<path fill="none" stroke="#B7D3EA" stroke-width="3" stroke-linecap="round" stroke-miterlimit="10" d="M1287.607,1852.596
		c0,37.895,51.134,70.404,89.362,70.404"/>
	<path fill="none" stroke="#B7D3EA" stroke-width="3" stroke-linecap="round" stroke-miterlimit="10" d="M1240.966,1848.391
		c0,26.289,21.501,56.008,48.02,56.008"/>
	<path fill="none" stroke="#B7D3EA" stroke-width="3" stroke-linecap="round" stroke-miterlimit="10" d="M1279.128,1804.258
		c0,32.092,17.768,58.109,50.14,58.109"/>
	<g opacity="0.8">
		<path fill="#E9A650" d="M1203.51,1748.281c8.663,32.629,50.987,61.354,73.923,55.367c22.934-5.986,45.503-51.646,36.838-84.266
			c-8.663-32.629-40.48-52.609-71.067-44.627C1212.618,1682.736,1194.847,1715.658,1203.51,1748.281z"/>
		<path fill="#E9A650" d="M1274.625,1818.719c2.794,6.227,4.07-1.797,9.098-4.014c5.024-2.219,11.892,2.209,9.098-4.02
			c-2.797-6.221-9.136-9.473-14.161-7.254C1273.636,1805.646,1271.826,1812.494,1274.625,1818.719z"/>
		<path fill="#E9A650" d="M1267.688,1817.537c0.842,6.762,4.425-0.543,9.884-1.207c5.463-0.67,10.727,5.553,9.885-1.209
			c-0.844-6.768-5.954-11.709-11.408-11.039C1270.59,1804.752,1266.841,1810.775,1267.688,1817.537z"/>
		<path fill="#FFFFFF" d="M1289.457,1698.805c-0.507-1.9-2.409-2.818-4.32-2.314l-11.091,2.891c-1.913,0.5-3.116,2.23-2.613,4.125
			l15.786,20.361c0.505,1.9,2.526,3.256,4.437,2.756l6.241-1.629c1.913-0.494,2.995-2.664,2.492-4.561L1289.457,1698.805z"/>
	</g>
	<g opacity="0.8">
		<path fill="#EB0029" d="M1176.828,1807.045c8.752,25.457,44.048,45.922,61.943,39.873c17.896-6.047,33.234-43.617,24.48-69.076
			c-8.753-25.459-35.196-39.559-59.063-31.492C1180.325,1754.412,1168.073,1781.588,1176.828,1807.045z"/>
		<path fill="#EB0029" d="M1237.401,1859.064c2.579,4.793,3.138-1.662,7.004-3.705c3.871-2.047,9.587,1.09,7.009-3.705
			c-2.581-4.791-7.81-7.021-11.677-4.977C1235.867,1848.725,1234.821,1854.27,1237.401,1859.064z"/>
		<path fill="#EB0029" d="M1231.821,1858.514c1.055,5.33,3.485-0.682,7.789-1.52c4.303-0.836,8.849,3.816,7.79-1.516
			c-1.055-5.332-5.403-8.977-9.704-8.137C1233.393,1848.18,1230.762,1853.184,1231.821,1858.514z"/>
		<path fill="#F7F8F8" d="M1242.222,1762.518c-0.508-1.486-2.198-2.465-3.691-1.959l-8.654,2.924
			c-1.491,0.504-2.224,2.303-1.717,3.783l13.716,15.307c0.51,1.482,2.194,2.447,3.687,1.939l4.865-1.641
			c1.496-0.506,2.233-2.287,1.724-3.768L1242.222,1762.518z"/>
	</g>
	<g opacity="0.8">
		<path fill="#0071CE" d="M1244.323,1752.102c-10.611,39.039,16.115,93.906,43.558,101.236c27.443,7.33,78.361-26.801,88.972-65.836
			c10.61-39.039-10.456-78.611-47.052-88.387C1293.204,1689.342,1254.935,1713.064,1244.323,1752.102z"/>
		<path fill="#0071CE" d="M1275.901,1867.352c-0.84,8.123,5.315,0.539,11.871,1.201c6.56,0.662,11.039,9.324,11.875,1.199
			c0.838-8.125-3.801-15.25-10.358-15.912C1282.731,1853.174,1276.736,1859.225,1275.901,1867.352z"/>
		<path fill="#0071CE" d="M1269.397,1862.025c-3.188,7.527,4.928,2.051,11.007,4.582c6.075,2.529,7.812,12.111,11.004,4.582
			c3.191-7.529,0.851-15.686-5.226-18.217C1280.104,1850.441,1272.589,1854.492,1269.397,1862.025z"/>
		<path fill="#F7F8F8" d="M1363.435,1751.426c0.614-2.266-0.807-4.363-3.099-4.975l-13.269-3.543c-2.29-0.613-4.583,0.49-5.198,2.76
			l4.32,29.928c-0.62,2.27,0.822,4.299,3.114,4.91l7.464,1.994c2.289,0.611,4.564-0.424,5.183-2.695L1363.435,1751.426z"/>
	</g>
</g>
<g>
	<path fill="none" stroke="#B7D3EA" stroke-width="3" stroke-linecap="round" stroke-miterlimit="10" d="M113.607,179.596
		c0,37.895,51.134,70.404,89.362,70.404"/>
	<path fill="none" stroke="#B7D3EA" stroke-width="3" stroke-linecap="round" stroke-miterlimit="10" d="M66.966,175.391
		c0,26.289,21.501,56.008,48.02,56.008"/>
	<path fill="none" stroke="#B7D3EA" stroke-width="3" stroke-linecap="round" stroke-miterlimit="10" d="M105.128,131.258
		c0,32.092,17.768,58.109,50.14,58.109"/>
	<g opacity="0.8">
		<path fill="#E9A650" d="M29.51,75.282c8.663,32.628,50.987,61.353,73.923,55.367c22.934-5.986,45.503-51.646,36.838-84.266
			C131.607,13.754,99.79-6.226,69.203,1.756C38.618,9.737,20.847,42.659,29.51,75.282z"/>
		<path fill="#E9A650" d="M100.625,145.719c2.794,6.227,4.07-1.797,9.098-4.014c5.024-2.219,11.892,2.209,9.098-4.02
			c-2.797-6.221-9.136-9.473-14.161-7.254C99.636,132.646,97.826,139.494,100.625,145.719z"/>
		<path fill="#E9A650" d="M93.688,144.537c0.842,6.762,4.425-0.543,9.884-1.207c5.463-0.67,10.727,5.553,9.885-1.209
			c-0.844-6.768-5.954-11.709-11.408-11.039C96.59,131.752,92.841,137.775,93.688,144.537z"/>
		<path fill="#FFFFFF" d="M115.457,25.805c-0.507-1.9-2.409-2.818-4.32-2.315l-11.091,2.891c-1.913,0.501-3.116,2.23-2.613,4.126
			l15.786,20.36c0.505,1.901,2.526,3.257,4.437,2.757l6.241-1.63c1.913-0.494,2.995-2.664,2.492-4.561L115.457,25.805z"/>
	</g>
	<g opacity="0.8">
		<path fill="#EB0029" d="M2.828,134.045c8.752,25.457,44.048,45.922,61.943,39.873c17.896-6.047,33.234-43.617,24.48-69.076
			c-8.753-25.459-35.196-39.559-59.063-31.493C6.325,81.413-5.927,108.588,2.828,134.045z"/>
		<path fill="#EB0029" d="M63.401,186.064c2.579,4.793,3.138-1.662,7.004-3.705c3.871-2.047,9.587,1.09,7.009-3.705
			c-2.581-4.791-7.81-7.021-11.677-4.977C61.867,175.725,60.821,181.27,63.401,186.064z"/>
		<path fill="#EB0029" d="M57.821,185.514c1.055,5.33,3.485-0.682,7.789-1.52c4.303-0.836,8.849,3.816,7.79-1.516
			c-1.055-5.332-5.403-8.977-9.704-8.137C59.393,175.18,56.762,180.184,57.821,185.514z"/>
		<path fill="#F7F8F8" d="M68.222,89.517c-0.508-1.485-2.198-2.464-3.691-1.959l-8.654,2.924c-1.491,0.505-2.224,2.303-1.717,3.784
			l13.716,15.306c0.51,1.482,2.194,2.447,3.687,1.939l4.865-1.641c1.496-0.506,2.233-2.287,1.724-3.768L68.222,89.517z"/>
	</g>
	<g opacity="0.8">
		<path fill="#0071CE" d="M70.323,79.102c-10.611,39.039,16.115,93.906,43.558,101.236c27.443,7.33,78.361-26.801,88.972-65.836
			c10.61-39.04-10.456-78.611-47.052-88.387C119.204,16.341,80.935,40.065,70.323,79.102z"/>
		<path fill="#0071CE" d="M101.901,194.352c-0.84,8.123,5.315,0.539,11.871,1.201c6.56,0.662,11.039,9.324,11.875,1.199
			c0.838-8.125-3.801-15.25-10.358-15.912C108.731,180.174,102.736,186.225,101.901,194.352z"/>
		<path fill="#0071CE" d="M95.397,189.025c-3.188,7.527,4.928,2.051,11.007,4.582c6.075,2.529,7.812,12.111,11.004,4.582
			c3.191-7.529,0.851-15.686-5.226-18.217C106.104,177.441,98.589,181.492,95.397,189.025z"/>
		<path fill="#F7F8F8" d="M189.435,78.425c0.614-2.265-0.807-4.362-3.099-4.974l-13.269-3.544c-2.29-0.612-4.583,0.491-5.198,2.76
			l4.32,29.928c-0.62,2.27,0.822,4.299,3.114,4.911l7.464,1.994c2.289,0.611,4.564-0.424,5.183-2.695L189.435,78.425z"/>
	</g>
</g>
</svg>
