<?xml version="1.0" encoding="utf-8"?>
<!-- Generator: Adobe Illustrator 16.2.0, SVG Export Plug-In . SVG Version: 6.00 Build 0)  -->
<!DOCTYPE svg PUBLIC "-//W3C//DTD SVG 1.1//EN" "http://www.w3.org/Graphics/SVG/1.1/DTD/svg11.dtd">
<svg version="1.1" xmlns="http://www.w3.org/2000/svg" xmlns:xlink="http://www.w3.org/1999/xlink" x="0px" y="0px"
	 width="82.6621094px" height="77.5097656px" viewBox="0 0 82.6621094 77.5097656"
	 enable-background="new 0 0 82.6621094 77.5097656" xml:space="preserve">
<g id="Слой_1">
</g>
<g id="Слой_2">
	<rect x="-6.1992188" y="-5.375" fill="#3196DB" width="95" height="88"/>
	<g opacity="0.15">
		<rect y="0.0136719" fill="none" width="82.6621094" height="77.4960938"/>
		<path fill="#FFFFFF" d="M73.7431641,89.625h6.1210938c-0.6171875-2-2.1484375-4.4199219-4.5898438-6.9277344
			c1.5957031-0.421875,3.4101563-1.7285156,5.4453125-3.4863281c2.0332031-1.7578125,3.921875-3.9082031,5.6640625-6.2363281
			c1.7402344-2.328125,3.2148438-4.9462891,4.4179688-7.7451172c1.2050781-2.7988281,1.8066406-5.3818359,1.8066406-7.6923828
			c0-3.3847656-0.8378906-6.5322266-2.5136719-9.4130859c-1.6777344-2.8808594-3.9550781-5.1660156-6.8359375-6.84375
			c-2.8808594-1.6757813-6.0136719-2.5166016-9.4003906-2.5166016c-3.3847656,0-6.5175781,0.8369141-9.3984375,2.5126953
			s-5.1601563,3.9521484-6.8359375,6.8330078c-1.6777344,2.8808594-2.515625,6.015625-2.515625,9.4003906
			c0,2.3105469,0.6035156,4.8671875,1.8066406,7.6660156c1.2050781,2.7988281,2.6777344,5.3632813,4.4199219,7.6894531
			c1.7402344,2.328125,3.6289063,4.5820313,5.6640625,6.3398438C68.9501953,80.890625,70.7138672,81.625,72.2900391,82.625
			h-0.2988281c0,0,0.0136719,0.5996094,0.015625,0.7890625C69.8212891,85.7070313,68.4287109,87.625,67.8525391,89.625h4.84375
			c3.4140625,15,19.1044922,26.6328125,37.1044922,26.6328125v-1C91.8007813,115.2578125,77.2060547,104.625,73.7431641,89.625z
			 M80.1572266,48.28125c1.2382813-0.3574219,2.4414063-0.0976563,3.6132813,0.78125s1.953125,2.1152344,2.34375,3.7109375
			c0.4570313,1.5625,0.5371094,4.3046875,0.2441406,8.2265625c-0.2929688,3.9238281-0.8125,5.8847656-1.5625,5.8847656
			c-0.4550781,0-0.8300781-0.5292969-1.1230469-1.5878906c-0.2929688-1.0566406-0.59375-2.2539063-0.9023438-3.5878906
			c-0.3105469-1.3339844-0.6757813-2.2128906-1.0996094-2.6367188c-0.1621094-0.1621094-0.4882813-0.4804688-0.9765625-0.953125
			c-0.4882813-0.4707031-0.8710938-0.8535156-1.1464844-1.1464844c-0.2773438-0.2929688-0.6035156-0.6425781-0.9765625-1.0507813
			c-0.375-0.40625-0.6757813-0.796875-0.9042969-1.171875c-0.2265625-0.3730469-0.3730469-0.7402344-0.4394531-1.0976563
			C76.4794922,50.8203125,77.4560547,49.0292969,80.1572266,48.28125z"/>
		<path fill="#FFFFFF" d="M-8.9199219,89.625h6.1220703c-0.6181641-2-2.1484375-4.4199219-4.5898438-6.9277344
			c1.5957031-0.421875,3.4101563-1.7285156,5.4443359-3.4863281s3.9228516-3.9082031,5.6640625-6.2363281
			s3.2148438-4.9462891,4.4189453-7.7451172c1.2050781-2.7988281,1.8066406-5.3818359,1.8066406-7.6923828
			c0-3.3847656-0.8378906-6.5322266-2.5146484-9.4130859s-3.9550781-5.1660156-6.8359375-6.84375
			c-2.8808594-1.6757813-6.0136719-2.5166016-9.3994141-2.5166016c-3.3847656,0-6.5185547,0.8369141-9.3994141,2.5126953
			s-5.1591797,3.9521484-6.8359375,6.8330078s-2.5146484,6.015625-2.5146484,9.4003906
			c0,2.3105469,0.6025391,4.8671875,1.8066406,7.6660156c1.2050781,2.7988281,2.6777344,5.3632813,4.4189453,7.6894531
			c1.7412109,2.328125,3.6298828,4.5820313,5.6640625,6.3398438C-13.7119141,80.890625-11.9492188,81.625-10.3720703,82.625
			h-0.2988281c0,0,0.0126953,0.5996094,0.015625,0.7890625C-12.8408203,85.7070313-14.2333984,87.625-14.8095703,89.625h4.84375
			c3.4140625,15,18.7666016,26.6328125,37.7666016,26.6328125v-1C9.8007813,115.2578125-5.4570313,104.625-8.9199219,89.625z
			 M-2.5048828,48.28125c1.2373047-0.3574219,2.4414063-0.0976563,3.6132813,0.78125s1.953125,2.1152344,2.34375,3.7109375
			C3.9082031,54.3359375,3.9892578,57.078125,3.6962891,61c-0.2929688,3.9238281-0.8134766,5.8847656-1.5625,5.8847656
			c-0.4550781,0-0.8300781-0.5292969-1.1230469-1.5878906c-0.2929688-1.0566406-0.59375-2.2539063-0.9033203-3.5878906
			s-0.6748047-2.2128906-1.0986328-2.6367188c-0.1621094-0.1621094-0.4882813-0.4804688-0.9765625-0.953125
			c-0.4882813-0.4707031-0.8710938-0.8535156-1.1474609-1.1464844s-0.6025391-0.6425781-0.9765625-1.0507813
			C-4.4658203,55.515625-4.7666016,55.125-4.9951172,54.75c-0.2275391-0.3730469-0.3740234-0.7402344-0.4394531-1.0976563
			C-6.1826172,50.8203125-5.2060547,49.0292969-2.5048828,48.28125z"/>
		<path fill="#FFFFFF" d="M73.7431641,11.625h6.1210938c-0.6171875-2-2.1484375-4.1679688-4.5898438-6.6757813
			c1.5957031-0.421875,3.4101563-1.6025391,5.4453125-3.3603516c2.0332031-1.7578125,3.921875-3.8447266,5.6640625-6.1728516
			c1.7402344-2.328125,3.2148438-4.9150391,4.4179688-7.7138672c1.2050781-2.7988281,1.8066406-5.3671875,1.8066406-7.6777344
			c0-3.3847656-0.8378906-6.5234375-2.5136719-9.4042969c-1.6777344-2.8808594-3.9550781-5.1621094-6.8359375-6.8398438
			c-2.8808594-1.6757813-6.0136719-2.5146484-9.4003906-2.5146484c-3.3847656,0-6.5175781,0.8378906-9.3984375,2.5136719
			s-5.1601563,3.953125-6.8359375,6.8339844c-1.6777344,2.8808594-2.515625,6.015625-2.515625,9.4003906
			c0,2.3105469,0.6035156,4.8671875,1.8066406,7.6660156c1.2050781,2.7988281,2.6777344,5.3632813,4.4199219,7.6894531
			c1.7402344,2.328125,3.6289063,4.3300781,5.6640625,6.0878906C68.9501953,3.1425781,70.7138672,4.625,72.2900391,4.625h-0.2988281
			c0,0,0.0136719,0.5996094,0.015625,0.7890625C69.8212891,7.7070313,68.4287109,9.625,67.8525391,11.625h4.84375
			c3.4140625,15,19.1044922,27.1367188,37.1044922,27.1367188v-1C91.8007813,37.7617188,77.2060547,26.625,73.7431641,11.625z
			 M80.1572266-29.2148438c1.2382813-0.3574219,2.4414063-0.0976563,3.6132813,0.78125s1.953125,2.1152344,2.34375,3.7109375
			c0.4570313,1.5625,0.5371094,4.3046875,0.2441406,8.2265625c-0.2929688,3.9238281-0.8125,5.8847656-1.5625,5.8847656
			c-0.4550781,0-0.8300781-0.5292969-1.1230469-1.5878906c-0.2929688-1.0566406-0.59375-2.2539063-0.9023438-3.5878906
			C82.4599609-17.1210938,82.0947266-18,81.6708984-18.4238281c-0.1621094-0.1621094-0.4882813-0.4804688-0.9765625-0.953125
			c-0.4882813-0.4707031-0.8710938-0.8535156-1.1464844-1.1464844c-0.2773438-0.2929688-0.6035156-0.6425781-0.9765625-1.0507813
			c-0.375-0.40625-0.6757813-0.796875-0.9042969-1.171875c-0.2265625-0.3730469-0.3730469-0.7402344-0.4394531-1.0976563
			C76.4794922-26.6757813,77.4560547-28.4667969,80.1572266-29.2148438z"/>
		<path fill="#FFFFFF" d="M32.4111328,50.625h6.1220703c-0.6181641-2-2.1484375-4.2949219-4.5898438-6.8027344
			c1.5957031-0.421875,3.4101563-1.6640625,5.4443359-3.421875s3.9228516-3.8769531,5.6640625-6.2050781
			s3.2148438-4.9306641,4.4189453-7.7294922c1.2050781-2.7988281,1.8066406-5.375,1.8066406-7.6855469
			c0-3.3847656-0.8378906-6.5273438-2.5146484-9.4082031s-3.9550781-5.1640625-6.8359375-6.8417969
			c-2.8808594-1.6757813-6.0136719-2.515625-9.3994141-2.515625c-3.3847656,0-6.5185547,0.8369141-9.3994141,2.5126953
			s-5.1591797,3.953125-6.8359375,6.8339844s-2.5146484,6.015625-2.5146484,9.4003906
			c0,2.3105469,0.6025391,4.8671875,1.8066406,7.6660156c1.2050781,2.7988281,2.6777344,5.3632813,4.4189453,7.6894531
			c1.7412109,2.328125,3.6298828,4.4550781,5.6640625,6.2128906C27.6191406,42.015625,29.3818359,42.625,30.9589844,43.625
			h-0.2988281c0,0,0.0126953,0.5996094,0.015625,0.7890625C28.4902344,46.7070313,27.0976563,48.625,26.5214844,50.625h4.84375
			c3.4140625,15,18.4355469,26.8847656,37.4355469,26.8847656v-1C50.8007813,76.5097656,35.8740234,65.625,32.4111328,50.625z
			 M38.8261719,9.5332031c1.2373047-0.3574219,2.4414063-0.0976563,3.6132813,0.78125s1.953125,2.1152344,2.34375,3.7109375
			c0.4560547,1.5625,0.5371094,4.3046875,0.2441406,8.2265625c-0.2929688,3.9238281-0.8134766,5.8847656-1.5625,5.8847656
			c-0.4550781,0-0.8300781-0.5292969-1.1230469-1.5878906c-0.2929688-1.0566406-0.59375-2.2539063-0.9033203-3.5878906
			s-0.6748047-2.2128906-1.0986328-2.6367188c-0.1621094-0.1621094-0.4882813-0.4804688-0.9765625-0.953125
			c-0.4882813-0.4707031-0.8710938-0.8535156-1.1474609-1.1464844s-0.6025391-0.6425781-0.9765625-1.0507813
			c-0.3740234-0.40625-0.6748047-0.796875-0.9033203-1.171875c-0.2275391-0.3730469-0.3740234-0.7402344-0.4394531-1.0976563
			C35.1484375,12.0722656,36.125,10.28125,38.8261719,9.5332031z"/>
		<path fill="#FFFFFF" d="M-8.9199219,11.625h6.1220703c-0.6181641-2-2.1484375-4.1679688-4.5898438-6.6757813
			c1.5957031-0.421875,3.4101563-1.6025391,5.4443359-3.3603516s3.9228516-3.8447266,5.6640625-6.1728516
			s3.2148438-4.9150391,4.4189453-7.7138672c1.2050781-2.7988281,1.8066406-5.3671875,1.8066406-7.6777344
			c0-3.3847656-0.8378906-6.5234375-2.5146484-9.4042969s-3.9550781-5.1621094-6.8359375-6.8398438
			c-2.8808594-1.6757813-6.0136719-2.5146484-9.3994141-2.5146484c-3.3847656,0-6.5185547,0.8378906-9.3994141,2.5136719
			s-5.1591797,3.953125-6.8359375,6.8339844s-2.5146484,6.015625-2.5146484,9.4003906
			c0,2.3105469,0.6025391,4.8671875,1.8066406,7.6660156c1.2050781,2.7988281,2.6777344,5.3632813,4.4189453,7.6894531
			c1.7412109,2.328125,3.6298828,4.3300781,5.6640625,6.0878906C-13.7119141,3.1425781-11.9492188,4.625-10.3720703,4.625
			h-0.2988281c0,0,0.0126953,0.5996094,0.015625,0.7890625C-12.8408203,7.7070313-14.2333984,9.625-14.8095703,11.625h4.84375
			c3.4140625,15,18.7666016,27.1367188,37.7666016,27.1367188v-1C9.8007813,37.7617188-5.4570313,26.625-8.9199219,11.625z
			 M-2.5048828-29.2148438c1.2373047-0.3574219,2.4414063-0.0976563,3.6132813,0.78125s1.953125,2.1152344,2.34375,3.7109375
			c0.4560547,1.5625,0.5371094,4.3046875,0.2441406,8.2265625c-0.2929688,3.9238281-0.8134766,5.8847656-1.5625,5.8847656
			c-0.4550781,0-0.8300781-0.5292969-1.1230469-1.5878906c-0.2929688-1.0566406-0.59375-2.2539063-0.9033203-3.5878906
			S-0.5673828-18-0.9912109-18.4238281c-0.1621094-0.1621094-0.4882813-0.4804688-0.9765625-0.953125
			c-0.4882813-0.4707031-0.8710938-0.8535156-1.1474609-1.1464844s-0.6025391-0.6425781-0.9765625-1.0507813
			c-0.3740234-0.40625-0.6748047-0.796875-0.9033203-1.171875c-0.2275391-0.3730469-0.3740234-0.7402344-0.4394531-1.0976563
			C-6.1826172-26.6757813-5.2060547-28.4667969-2.5048828-29.2148438z"/>
	</g>
</g>
</svg>
