<?xml version="1.0" encoding="utf-8"?>
<!-- Generator: Adobe Illustrator 16.0.0, SVG Export Plug-In . SVG Version: 6.00 Build 0)  -->
<!DOCTYPE svg PUBLIC "-//W3C//DTD SVG 1.1//EN" "http://www.w3.org/Graphics/SVG/1.1/DTD/svg11.dtd">
<svg version="1.1" id="Layer_1" xmlns="http://www.w3.org/2000/svg" xmlns:xlink="http://www.w3.org/1999/xlink" x="0px" y="0px"
	 width="606.954px" height="71px" viewBox="0 0 606.954 71" enable-background="new 0 0 606.954 71" xml:space="preserve">
<g>
	<path fill="#0071CE" d="M191.763,35.383c1.307-1.471,2.573-3.242,3.573-5.352c1.28-2.703,2.09-5.949,2.076-9.518
		c0.027-4.805-1.075-8.822-2.777-11.886c-1.089-1.96-2.614-3.58-4.248-4.738c-2.479-1.742-5.079-2.732-7.421-3.181
		C180.598,0.28,178.384,0,176.431,0H152v0.404c-2,0-3.198-0.027-4.845,0.143c-1.218,0.157-2.759,0.388-4.571,1.443
		c-1.335,0.776-2.607,2.146-3.282,3.466c-1.028,2.028-1.618,3.566-1.739,4.874C137.467,11.664,137,12.91,137,14.387V41.85v14.514
		c0,1.766,0.449,3.174,0.626,4.82c0.15,1.219,0.62,2.75,1.68,4.555c0.777,1.342,2.265,2.594,3.586,3.275
		c2.022,1.033,3.621,1.462,4.933,1.585c1.335,0.082,2.641,0.401,4.112,0.401h24.494c2.613,0,5.664-0.442,8.952-1.409
		c1.641-0.504,3.356-1.399,5.004-2.569c1.634-1.152,3.159-2.85,4.248-4.811c1.702-3.057,2.805-7.12,2.791-11.921
		c0-3.566-0.81-6.846-2.09-9.535C194.336,38.638,193.07,36.846,191.763,35.383z M182.394,55.344c-0.04,0.055,0,0.027-0.122,0.121
		c-0.149,0.123-0.776,0.247-1.852,0.444c-1.062,0.197-2.479,0.091-3.989,0.091H152V42h2.087h18.906c1.994,0,3.818,0.343,5.166,0.698
		c1.375,0.354,2.172,0.903,2.737,1.446c0.708,0.717,1.334,1.564,1.783,2.506c0.437,0.951,0.749,2.052,0.749,3.577
		C183.416,53.011,182.844,54.492,182.394,55.344z M182.68,24.055c-0.449,0.939-1.075,1.764-1.783,2.463
		c-0.565,0.545-1.362,1.317-2.737,1.665c-1.348,0.354-3.172,0.817-5.166,0.817H152V15h24.431c2.009,0,3.881-0.13,4.915,0.198
		c0.518,0.156,0.817,0.173,0.926,0.247c0.122,0.102,0.082-0.008,0.122,0.045c0.45,0.852,1.021,2.271,1.035,5.062
		C183.423,22.069,183.117,23.107,182.68,24.055z"/>
	<path fill="#0071CE" d="M117.387,2.397C114.289,0.831,111.035,0,107.87,0H97.814H87.751c-3.165,0-6.419,0.831-9.51,2.397
		c-3.07,1.539-6.025,4.374-7.55,8.174c-2.118,5.241-3.935,13.161-3.935,24.763c0,11.594,1.816,19.479,3.935,24.722
		c1.524,3.813,4.479,6.882,7.55,8.421C81.339,70.049,84.593,71,87.751,71h2.629h14.868h2.614c3.172,0,6.426-0.938,9.517-2.513
		c3.063-1.537,6.025-4.435,7.544-8.247c2.124-5.24,3.935-13.184,3.935-24.777c0-11.602-1.811-19.611-3.935-24.853
		C123.405,6.812,120.443,3.937,117.387,2.397z M111.96,54.838c-0.122,0.273-0.252,0.302-0.967,0.696
		c-0.673,0.361-1.886,0.466-3.131,0.466H90.38h-2.629c-1.238,0-2.45-0.104-3.131-0.466c-0.708-0.395-0.83-0.515-0.954-0.788
		c-1.32-3.279-2.913-9.254-2.913-19.41s1.593-16.165,2.913-19.433c0.124-0.273,0.246-0.173,0.954-0.565
		C85.301,14.982,86.513,15,87.751,15h2.629h14.868h2.621c1.238,0,2.451-0.007,3.124,0.347c0.715,0.395,0.845,0.46,0.967,0.731
		c1.321,3.268,2.9,9.223,2.9,19.381C114.861,45.615,113.282,51.559,111.96,54.838z"/>
	<path fill="#0071CE" d="M256.429,2.397C253.339,0.831,250.078,0,246.919,0h-10.062h-10.056c-3.166,0-6.42,0.831-9.511,2.397
		c-3.063,1.539-6.024,4.374-7.55,8.174c-2.117,5.241-3.929,13.161-3.929,24.763c0,11.594,1.812,19.479,3.929,24.722
		c1.532,3.813,4.486,6.882,7.55,8.421c3.099,1.572,6.345,2.523,9.518,2.523h2.614h14.869h2.627c3.158,0,6.412-0.938,9.51-2.513
		c3.057-1.537,6.025-4.435,7.55-8.247c2.124-5.24,3.93-13.184,3.93-24.777c0-11.602-1.806-19.611-3.93-24.846
		C262.455,6.812,259.5,3.937,256.429,2.397z M251.01,54.838c-0.129,0.273-0.251,0.302-0.959,0.696
		c-0.688,0.361-1.894,0.466-3.132,0.466h-17.496h-2.614c-1.246,0-2.45-0.104-3.131-0.466c-0.723-0.395-0.845-0.515-0.968-0.788
		c-1.32-3.279-2.9-9.254-2.9-19.41s1.58-16.165,2.9-19.433c0.123-0.273,0.245-0.173,0.968-0.565
		c0.681-0.355,1.885-0.338,3.124-0.338h2.621h14.869h2.627c1.246,0,2.451-0.007,3.132,0.347c0.708,0.395,0.83,0.46,0.959,0.731
		c1.321,3.268,2.908,9.223,2.908,19.381C253.918,45.615,252.332,51.559,251.01,54.838z"/>
	<path fill="#0071CE" d="M57.24,38.963c2.199-3.826,3.417-8.592,3.403-14.078c0.007-6.461-1.463-11.58-3.377-15.296
		c-1.892-3.725-5.133-6.363-8.251-7.658C45.85,0.616,42.684,0,39.716,0c-7.312,0-18.694,0-25.428,0
		c-1.757,0-3.166,0.175-4.813,0.351c-1.22,0.15-2.75,0.483-4.555,1.545C3.581,2.673,2.321,4.084,1.647,5.405
		c-1.021,2.028-1.293,3.592-1.416,4.898C0.143,11.638,0,12.902,0,14.387V71h14V51h18.432c0.313,0,0.782,0,1.388,0
		c0.123,0,0.259,0,0.396,0l9.966,20h15.754l-11.75-22.976c0.245-0.131,0.483-0.419,0.721-0.556
		C51.984,45.686,55.06,42.789,57.24,38.963z M45.094,32.02c-1.246,2.152-3.063,3.329-5.378,4.159C37.456,36.981,34.964,37,33.82,37
		C33.562,37,14,37,14,37V15h25.716c1.538,0,3.009-0.034,3.873,0.339c0.893,0.416,1.069,0.501,1.232,0.78
		c0.885,1.77,1.818,4.443,1.824,8.842C46.64,28.475,45.925,30.535,45.094,32.02z"/>
	<path fill="#EB0029" d="M331.187,35.383c1.308-1.471,2.573-3.242,3.573-5.352c1.28-2.703,2.09-5.949,2.077-9.518
		c0.027-4.805-1.076-8.822-2.777-11.886c-1.09-1.96-2.615-3.58-4.248-4.738c-2.479-1.742-5.079-2.732-7.421-3.181
		C320.022,0.28,317.81,0,315.856,0H291v0.404c-2,0-2.985-0.027-4.633,0.143c-1.219,0.157-2.653,0.388-4.463,1.443
		c-1.336,0.776-2.557,2.146-3.23,3.466c-1.028,2.028-1.302,3.566-1.425,4.874C277.153,11.664,277,12.91,277,14.387V41.85v14.514
		c0,1.766,0.162,3.174,0.34,4.82c0.15,1.219,0.473,2.75,1.536,4.555c0.777,1.342,2.193,2.594,3.514,3.275
		c2.021,1.033,3.583,1.462,4.897,1.585c1.336,0.082,2.605,0.401,4.076,0.401h24.494c2.614,0,5.664-0.442,8.952-1.409
		c1.641-0.504,3.356-1.399,5.004-2.569c1.633-1.152,3.158-2.85,4.248-4.811c1.701-3.057,2.805-7.12,2.79-11.921
		c0-3.566-0.81-6.846-2.09-9.535C333.76,38.638,332.495,36.846,331.187,35.383z M321.819,55.344c-0.04,0.055,0,0.027-0.122,0.121
		c-0.149,0.123-0.775,0.247-1.852,0.444c-1.063,0.197-2.479,0.091-3.989,0.091H291V42h2.512h18.906c1.993,0,3.818,0.343,5.166,0.698
		c1.375,0.354,2.173,0.903,2.737,1.446c0.708,0.717,1.334,1.564,1.783,2.506c0.437,0.951,0.75,2.052,0.75,3.577
		C322.84,53.011,322.268,54.492,321.819,55.344z M322.105,24.055c-0.449,0.939-1.075,1.764-1.783,2.463
		c-0.564,0.545-1.362,1.317-2.737,1.665c-1.348,0.354-3.173,0.817-5.166,0.817H291V15h24.856c2.008,0,3.881-0.13,4.915,0.198
		c0.517,0.156,0.816,0.173,0.926,0.247c0.122,0.102,0.082-0.008,0.122,0.045c0.449,0.852,1.021,2.271,1.036,5.062
		C322.847,22.069,322.542,23.107,322.105,24.055z"/>
	<path fill="#EB0029" d="M395.855,2.397C392.763,0.831,389.503,0,386.343,0h-10.062h-10.056c-3.165,0-6.419,0.831-9.51,2.397
		c-3.063,1.539-6.024,4.374-7.55,8.174c-2.118,5.241-3.929,13.161-3.929,24.763c0,11.594,1.811,19.479,3.929,24.722
		c1.532,3.813,4.486,6.882,7.55,8.421c3.098,1.572,6.345,2.523,9.518,2.523h2.614h14.868h2.627c3.16,0,6.414-0.938,9.512-2.513
		c3.057-1.537,6.025-4.435,7.549-8.247c2.125-5.24,3.929-13.184,3.929-24.777c0-11.602-1.804-19.611-3.929-24.846
		C401.88,6.812,398.925,3.937,395.855,2.397z M390.435,54.838c-0.129,0.273-0.252,0.302-0.959,0.696
		c-0.688,0.361-1.893,0.466-3.133,0.466h-17.495h-2.614c-1.246,0-2.451-0.104-3.132-0.466c-0.722-0.395-0.845-0.515-0.967-0.788
		c-1.32-3.279-2.9-9.254-2.9-19.41s1.58-16.165,2.9-19.433c0.122-0.273,0.245-0.173,0.967-0.565
		c0.681-0.355,1.886-0.338,3.124-0.338h2.622h14.868h2.627c1.246,0,2.451-0.007,3.133,0.347c0.707,0.395,0.83,0.46,0.959,0.731
		c1.322,3.268,2.907,9.223,2.907,19.381C393.342,45.615,391.757,51.559,390.435,54.838z"/>
	<path fill="#EB0029" d="M466.493,0h-0.286C462.435,0,460,3.08,460,6.851v36.524L431.41,3.563c-0.368-0.259-0.735-0.386-1.042-0.589
		C429.164,1.229,427.095,0,424.808,0h-0.571C420.546,0,418,3.018,418,6.708v56.34c0,3.689,2.546,6.951,6.237,6.951h0.571
		c3.69,0,6.192-3.262,6.192-6.951V26.268l29.848,41.215c0.066,0.033,0.218,0.173,0.287,0.208c1.246,1.326,3.105,2.31,5.072,2.31
		h0.286c3.771,0,6.507-3.322,6.507-7.094V6.851C473,3.08,470.263,0,466.493,0z"/>
	<path fill="#EB0029" d="M535.974,0h-1.396C531.106,0,528,3.025,528,6.497c0,0,0,36.906,0,39.451c0,2.547-3.158,9.053-7.514,9.053
		c-4.357,0-13.615,0-17.318,0c-3.705,0-8.167-6.586-8.167-9.053c0-2.463,0-39.498,0-39.498c0-3.459-2.924-6.45-6.389-6.45h-1.389
		C483.764,0,481,2.991,481,6.45v27.169c0,13.404,3.805,22.609,7.619,28.117c2.172,3.186,4.957,5.275,8.006,6.467
		c2.601,1.008,5.829,1.471,7.499,1.592c0,0,4.02,0.643,8.209,0.643c4.191,0,6.234-0.297,6.234-0.338
		c2.525-0.123,5.121-0.738,7.701-1.738c3.043-1.191,5.983-3.355,8.148-6.529C538.244,56.299,542,46.941,542,33.441V6.497
		C542,3.025,539.453,0,535.974,0z"/>
	<path fill="#EB0029" d="M601.37,32.135c-1.804-1.852-3.968-2.901-5.901-3.446c-1.955-0.572-3.731-0.688-5.311-0.688H571.34
		c-1.817,0-3.526-0.231-4.507-0.577c-1.034-0.396-1.104-0.593-1.211-0.749c-0.601-1.096-1.227-2.746-1.24-5.66
		c0.014-2.92,0.64-4.577,1.24-5.659c0.107-0.162,0.177,0.124,1.197-0.265c0.98-0.348,2.683-0.09,4.507-0.09h27.136
		c3.473,0,5.538-3.744,5.538-7.223V0h-32.673c-1.198,0-2.464,0.105-3.771,0.242c-3.548,0.382-7.047,1.46-9.92,3.569
		c-3.41,2.521-5.439,6.441-6.427,10.565c-0.042,0.145-0.075,0.31-0.102,0.46c-0.913,4.084-0.913,8.344,0.013,12.422
		c0.096,0.434,0.205,0.871,0.328,1.293c0.966,3.439,2.668,6.699,5.404,9.002c3.214,2.709,7.379,3.959,11.561,4.285
		c1.021,0.082,1.994,0.161,2.927,0.161h16.57c2.328,0,4.712,1.03,5.289,3.271c0.62,2.377,0.62,4.854,0.008,7.237
		c-0.219,0.873-0.518,1.11-0.817,1.636c-0.477,0.803-1.348,0.856-2.287,0.856h-30.541c-3.479,0-6.562,3.625-6.562,7.104v1.389
		c0,3.479,3.083,6.508,6.562,6.508h30.541c1.572,0,3.355-0.251,5.316-0.81c1.94-0.545,4.132-1.665,5.957-3.532
		c3.07-3.055,6.25-8.83,6.194-16.762C607.626,40.973,604.447,35.186,601.37,32.135z"/>
</g>
</svg>
