<?xml version="1.0" encoding="utf-8"?>
<!-- Generator: Adobe Illustrator 16.0.0, SVG Export Plug-In . SVG Version: 6.00 Build 0)  -->
<!DOCTYPE svg PUBLIC "-//W3C//DTD SVG 1.1//EN" "http://www.w3.org/Graphics/SVG/1.1/DTD/svg11.dtd">
<svg version="1.1" id="Layer_1" xmlns="http://www.w3.org/2000/svg" xmlns:xlink="http://www.w3.org/1999/xlink" x="0px" y="0px"
	 width="102px" height="93.7910156px" viewBox="0 0 102 93.7910156" enable-background="new 0 0 102 93.7910156"
	 xml:space="preserve">
<path fill-rule="evenodd" clip-rule="evenodd" fill="#EB0029" d="M63.75,49.5019531
	c3.8671875,0,7.0166016-3.15625,7.0166016-7.0371094c0-3.8798828-3.1494141-7.0361328-7.0166016-7.0361328
	c-3.8662109,0-7.0166016,3.15625-7.0166016,7.0361328C56.7333984,46.3457031,59.8837891,49.5019531,63.75,49.5019531z
	 M80.7480469,44.8457031h-3.1875c-0.4628906,2.9882813-1.3154297,4.1796875-2.5058594,5.7607422l2.2509766,2.5585938
	l-3.4833984,3.4980469l-2.3378906-2.3486328c-1.6591797,1.0673828-4.0351563,1.8310547-5.5244141,2.1298828v3.2412109h-4.4189453
	v-3.3623047c-2.9785156-0.3867188-4.1220703-1.2412109-5.7382813-2.390625l-2.5556641,2.3046875l-3.4824219-3.4951172
	l2.2958984-2.3085938c-1.1044922-1.6572266-1.8671875-4.0878906-2.2060547-5.5878906h-3.1025391v-4.4296875h3.1445313
	c0.3798828-2.9794922,1.2304688-4.2617188,2.4238281-5.9296875l-2.1269531-2.3808594l3.484375-3.4960938l2.125,2.1308594
	c1.6972656-1.1484375,4.2480469-1.921875,5.7382813-2.2626953V25.578125h4.4189453v3.03125
	c2.9785156,0.4257813,4.2919922,1.2744141,5.9072266,2.5146484l2.3857422-2.0888672l3.5185547,3.4951172l-2.2119141,2.1748047
	c1.1083984,1.7060547,1.8808594,4.2216797,2.1279297,5.7109375h3.0605469V44.8457031z M18.0644531,12.7890625
	c-2.9335938,0-5.3144531,2.2646484-5.3144531,5.0292969v49.6269531c0,2.7744141,2.3808594,5.0283203,5.3144531,5.0283203h65.8710938
	c2.9335938,0,5.3144531-2.2539063,5.3144531-5.0283203V17.8183594c0-2.7646484-2.3808594-5.0292969-5.3144531-5.0292969H18.0644531z
	 M21.2519531,25.578125h12.7519531v8.5273438H21.2519531V25.578125z M21.2519531,38.3691406H25.5v4.2636719h-4.2480469V38.3691406z
	 M29.7480469,38.3691406h4.2558594v4.2636719h-4.2558594V38.3691406z M21.2519531,46.8955078H25.5v4.2617188h-4.2480469V46.8955078z
	 M29.7480469,46.8955078h4.2558594v4.2617188h-4.2558594V46.8955078z M21.2519531,55.421875H25.5v4.2636719h-4.2480469V55.421875z
	 M29.7480469,55.421875h4.2558594v4.2636719h-4.2558594V55.421875z M8.5039063,0C3.8291016,0,0,3.8388672,0,8.5244141v68.2138672
	c0,4.6884766,3.8291016,8.5283203,8.5039063,8.5283203h8.4941406v8.5244141h17.0058594v-8.5244141h38.2480469v8.5244141H89.25
	v-8.5244141h4.2470703c4.6738281,0,8.5029297-3.8398438,8.5029297-8.5283203V8.5244141C102,3.8388672,98.1708984,0,93.4970703,0
	H8.5039063z M13.8105469,8.5244141h74.3789063c2.9267578,0,5.3076172,2.2646484,5.3076172,5.0302734v58.1552734
	c0,2.7714844-2.3808594,5.0283203-5.3076172,5.0283203H13.8105469c-2.9257813,0-5.3066406-2.2568359-5.3066406-5.0283203V13.5546875
	C8.5039063,10.7890625,10.8847656,8.5244141,13.8105469,8.5244141z"/>
</svg>
