<?xml version="1.0" encoding="utf-8"?>
<!-- Generator: Adobe Illustrator 16.0.0, SVG Export Plug-In . SVG Version: 6.00 Build 0)  -->
<!DOCTYPE svg PUBLIC "-//W3C//DTD SVG 1.1//EN" "http://www.w3.org/Graphics/SVG/1.1/DTD/svg11.dtd">
<svg version="1.1" id="Layer_1" xmlns="http://www.w3.org/2000/svg" xmlns:xlink="http://www.w3.org/1999/xlink" x="0px" y="0px"
	 width="84.0834961px" height="77.3330078px" viewBox="0 0 84.0834961 77.3330078"
	 enable-background="new 0 0 84.0834961 77.3330078" xml:space="preserve">
<path fill-rule="evenodd" clip-rule="evenodd" fill="none" stroke="#727C8E" stroke-width="2" stroke-miterlimit="10" d="
	M52.3330078,40.8457031c3.1083984,0,5.640625-2.5371094,5.640625-5.65625c0-3.1206055-2.5322266-5.6582031-5.640625-5.6582031
	s-5.640625,2.5375977-5.640625,5.6582031C46.6923828,38.3085938,49.2246094,40.8457031,52.3330078,40.8457031z
	 M65.9980469,37.1035156h-2.5625c-0.3720703,2.4023438-1.0576172,3.359375-2.0146484,4.6308594l1.8095703,2.0556641
	l-2.7998047,2.8125l-1.8798828-1.8876953c-1.3339844,0.8574219-3.2441406,1.4716797-4.4414063,1.7119141V49.03125h-3.5527344
	v-2.703125c-2.3945313-0.3095703-3.3134766-0.9970703-4.6123047-1.921875l-2.0546875,1.8535156l-2.7998047-2.8105469
	l1.8457031-1.8535156c-0.8876953-1.3339844-1.5009766-3.2871094-1.7734375-4.4921875h-2.4941406v-3.5625h2.5273438
	c0.3056641-2.3955078,0.9892578-3.4257813,1.9492188-4.7661133l-1.7099609-1.9140625l2.8007813-2.8115234l1.7089844,1.7133789
	c1.3642578-0.9243164,3.4150391-1.5454102,4.6123047-1.8193359v-2.3310547h3.5527344v2.4370117
	c2.3945313,0.3427734,3.4501953,1.0249023,4.7490234,2.0224609l1.9179688-1.6796875l2.8291016,2.809082l-1.7783203,1.7495117
	c0.890625,1.3710938,1.5117188,3.3930664,1.7099609,4.590332h2.4609375V37.1035156z M15.6054688,11.331543
	c-2.3583984,0-4.2724609,1.8193359-4.2724609,4.0424805v39.8955078c0,2.2314453,1.9140625,4.0429688,4.2724609,4.0429688h52.9550781
	c2.3583984,0,4.2729492-1.8115234,4.2729492-4.0429688V15.3740234c0-2.2231445-1.9145508-4.0424805-4.2729492-4.0424805H15.6054688z
	 M18.1679688,21.6123047h10.2509766v6.855957H18.1679688V21.6123047z M18.1679688,31.8950195h3.4150391v3.4282227h-3.4150391
	V31.8950195z M24.9980469,31.8950195h3.4208984v3.4282227h-3.4208984V31.8950195z M18.1679688,38.75h3.4150391v3.4257813h-3.4150391
	V38.75z M24.9980469,38.75h3.4208984v3.4257813h-3.4208984V38.75z M18.1679688,45.6054688h3.4150391V49.03125h-3.4150391V45.6054688
	z M24.9980469,45.6054688h3.4208984V49.03125h-3.4208984V45.6054688z M7.9189453,1.0498047
	c-3.7578125,0-6.8359375,3.0859375-6.8359375,6.8525391v54.8398438c0,3.7695313,3.078125,6.8554688,6.8359375,6.8554688h6.8291016
	v6.8525391h13.6708984v-6.8525391h30.7490234v6.8525391h13.6655273v-6.8525391h3.4140625
	c3.7578125,0,6.8359375-3.0859375,6.8359375-6.8554688V7.9023438c0-3.7666016-3.078125-6.8525391-6.8359375-6.8525391H7.9189453z
	 M12.1855469,7.9023438h59.7944336c2.3535156,0,4.2675781,1.8217773,4.2675781,4.043457v46.753418
	c0,2.2275391-1.9140625,4.0429688-4.2675781,4.0429688H12.1855469c-2.3525391,0-4.2666016-1.8154297-4.2666016-4.0429688v-46.753418
	C7.9189453,9.7241211,9.8330078,7.9023438,12.1855469,7.9023438z"/>
</svg>
