<?xml version="1.0" encoding="utf-8"?>
<!-- Generator: Adobe Illustrator 16.0.0, SVG Export Plug-In . SVG Version: 6.00 Build 0)  -->
<!DOCTYPE svg PUBLIC "-//W3C//DTD SVG 1.1//EN" "http://www.w3.org/Graphics/SVG/1.1/DTD/svg11.dtd">
<svg version="1.1" id="Layer_1" xmlns="http://www.w3.org/2000/svg" xmlns:xlink="http://www.w3.org/1999/xlink" x="0px" y="0px"
	 width="51.875px" height="83px" viewBox="0 0 51.875 83" enable-background="new 0 0 51.875 83" xml:space="preserve">
<path fill-rule="evenodd" clip-rule="evenodd" fill="#EB0029" d="M44.9609375,69.1640625H6.9140625V10.375h38.046875V69.1640625z
	 M25.96875,79.5771484c-2.0390625,0-3.6953125-1.6591797-3.6953125-3.6982422c0-2.0449219,1.65625-3.6962891,3.6953125-3.6962891
	c2.0078125,0,3.671875,1.6513672,3.671875,3.6962891C29.640625,77.9179688,27.9765625,79.5771484,25.96875,79.5771484z M42.4375,0
	h-33C4.25,0,0,4.2890625,0,9.5078125v63.984375C0,78.7109375,4.25,83,9.4375,83h33c5.1875,0,9.4375-4.2890625,9.4375-9.5078125
	V9.5078125C51.875,4.2890625,47.625,0,42.4375,0z M17.2890625,4.3203125c0-0.4804688,0.3828125-0.859375,0.8671875-0.859375h15.5625
	c0.484375,0,0.8671875,0.3789063,0.8671875,0.859375v1.734375c0,0.4863281-0.3828125,0.859375-0.8671875,0.859375h-15.5625
	c-0.484375,0-0.8671875-0.3730469-0.8671875-0.859375V4.3203125z"/>
</svg>
