<?xml version="1.0" encoding="utf-8"?>
<!-- Generator: Adobe Illustrator 16.0.0, SVG Export Plug-In . SVG Version: 6.00 Build 0)  -->
<!DOCTYPE svg PUBLIC "-//W3C//DTD SVG 1.1//EN" "http://www.w3.org/Graphics/SVG/1.1/DTD/svg11.dtd">
<svg version="1.1" id="Layer_1" xmlns="http://www.w3.org/2000/svg" xmlns:xlink="http://www.w3.org/1999/xlink" x="0px" y="0px"
	 width="51.875px" height="82.9995117px" viewBox="0 0 51.875 82.9995117" enable-background="new 0 0 51.875 82.9995117"
	 xml:space="preserve">
<path fill-rule="evenodd" clip-rule="evenodd" fill="#EB0029" d="M44.9609375,69.1635742H6.9140625V10.375h38.046875V69.1635742z
	 M25.96875,79.5776367c-2.0390625,0-3.6953125-1.6601563-3.6953125-3.6992188c0-2.0449219,1.65625-3.6953125,3.6953125-3.6953125
	c2.0078125,0,3.671875,1.6503906,3.671875,3.6953125C29.640625,77.9174805,27.9765625,79.5776367,25.96875,79.5776367z M42.4375,0
	h-33C4.25,0,0,4.2890625,0,9.5078125v63.9838867c0,5.21875,4.25,9.5078125,9.4375,9.5078125h33
	c5.1875,0,9.4375-4.2890625,9.4375-9.5078125V9.5078125C51.875,4.2890625,47.625,0,42.4375,0z M17.2890625,4.3203125
	c0-0.4804688,0.3828125-0.859375,0.8671875-0.859375h15.5625c0.484375,0,0.8671875,0.3789063,0.8671875,0.859375v1.734375
	c0,0.4863281-0.3828125,0.859375-0.8671875,0.859375h-15.5625c-0.484375,0-0.8671875-0.3730469-0.8671875-0.859375V4.3203125z"/>
<g>
	<path fill="#EB0029" d="M24.1367188,52.3706055v-3.2304688c-2.2792969-0.1015625-4.4882813-0.7148438-5.7792969-1.4609375
		l1.0195313-3.9785156c1.4277344,0.78125,3.4335938,1.4960938,5.6425781,1.4960938
		c1.9375,0,3.2636719-0.7480469,3.2636719-2.1074219c0-1.2929688-1.0878906-2.109375-3.6035156-2.9589844
		c-3.6367188-1.2226563-6.1191406-2.9238281-6.1191406-6.2207031c0-2.9916992,2.1074219-5.3374023,5.7460938-6.050293v-3.2304688
		h3.3300781v2.9921875c2.2792969,0.1015625,3.8085938,0.578125,4.9296875,1.1210938l-0.984375,3.8417969
		c-0.8847656-0.3730469-2.4492188-1.15625-4.8964844-1.15625c-2.2089844,0-2.9238281,0.953125-2.9238281,1.9038086
		c0,1.1210938,1.1894531,1.8359375,4.0800781,2.9238281c4.0449219,1.4277344,5.6777344,3.296875,5.6777344,6.3574219
		c0,3.0253906-2.1425781,5.609375-6.0527344,6.2890625v3.46875H24.1367188z"/>
</g>
</svg>
