<?xml version="1.0" encoding="utf-8"?>
<!-- Generator: Adobe Illustrator 16.0.0, SVG Export Plug-In . SVG Version: 6.00 Build 0)  -->
<!DOCTYPE svg PUBLIC "-//W3C//DTD SVG 1.1//EN" "http://www.w3.org/Graphics/SVG/1.1/DTD/svg11.dtd">
<svg version="1.1" id="Layer_1" xmlns="http://www.w3.org/2000/svg" xmlns:xlink="http://www.w3.org/1999/xlink" x="0px" y="0px"
	 width="650.6665039px" height="678.6665039px" viewBox="0 0 650.6665039 678.6665039"
	 enable-background="new 0 0 650.6665039 678.6665039" xml:space="preserve">
<g opacity="0.1">
	<path fill="#A4ACB7" d="M607.6645508,213.6674805c6,10,10,21,14,32c1,5,3,10,5,15c39,123,0,260-104,342c-60,47-133,70-207,63
		c-53-5-103-23-146-57c-31-25-54-54-72-88c-21-42-30-88-25-135c7-64,35-122,90-161c19-13,38-24,59-31c30-11,62-13,94-10
		c44,5,81,26,119,52c1,0,3,0,4,0c0-1,1-2,1-2c-10-31-38-51-65-67c-39-22-82-30-125-27c-59,4-114,30-158,71c-43,41-71,91-83,150
		c-8,44-9,85,1,128c8,30,16,57,31,84c19,35,42,65,72,91c13,11,24,20,38,30c15,9,28,16,43,24c30,15,60,24,93,30
		c121,21,243-19,329-102c-10,9-19,18-30,26c-12,8-21,15-33,23c-78,48-163,66-252,54c-79-11-150-47-206-105c-35-37-60-78-75-126
		c-21-69-19-142,9-209c21-49,53-90,99-120s96-46,150-36c1,0,3,0,4,0c3,1,5,2,8,3s1,4-1,5c-39,8-75,16-109,37c-16,10-30,21-44,33
		c-30,29-51,63-63,103c-9,29-12,58-11,88c1,18,5,36,9,54c7,29,19,53,35,78c36,54,86,88,144,108c41,13,83,18,126,12c27-4,53-10,78-20
		c40-16,75-40,106-72c30-31,52-66,68-105c14-33,20-68,23-104c4-70-13-137-50-199c-33-54-75-95-129-126c-6-3-11-6-17-9
		c-54-26-112-42-172-36c0,0,0,2,1,2c25,4,49,8,74,14c14,4,27,9,41,14c46,19,87,46,122,83c27,29,49,61,63,97c-2-10-7-19-11-29
		c-7-18-19-33-26-51c1,0,1,0,2,0c0,1,1,1,3,3C576.6645508,156.6674805,593.6645508,184.6674805,607.6645508,213.6674805
		L607.6645508,213.6674805z"/>
</g>
<g opacity="0.1">
	<path fill="#A4ACB7" d="M519.6645508,285.6674805c31,61,32,135,6,198c-20,47-54,86-100,111c-25,14-51,22-79,26c-63,8-126-13-171-59
		c-33-35-53-80-54-127c0-31,6-61,22-89c17-28,39-52,68-66c27-13,56-20,86-17c29,3,54,12,79,29c5,4,10,7,15,10c1,0,2,0,3,0
		c1-2-1-5-1-7c-3-6-7-11-11-16c-5-7-11-12-18-17c-13-9-26-17-41-22c-24-9-50-11-75-9c-69,7-129,53-158,116c-5,12-9,25-13,38
		c-10,35-9,69-2,105c8,39,25,71,50,102c27,31,57,56,95,72c23,9,46,16,71,20c86,12,173-18,234-78c-82,80-213,104-317,51
		c-41-21-73-50-99-89c-27-41-39-87-37-134c2-50,20-97,54-135c21-23,45-41,74-51c27-9,56-15,83-5c1,0,1,1,1,2c-1,1-1,2-2,2
		c-34,6-64,14-92,34c-16,12-30,25-42,41c-14,20-23,40-29,63c-18,70,6,142,60,190c32,28,69,46,111,52c43,6,86-1,125-19
		c19-10,37-20,54-35c16-15,29-30,42-48c58-85,55-189,0-274c-52-80-140-130-233-121c-1,0,2-1,2,1c93,8,186,65,221,154c-1-8-5-15-8-22
		c-5-10-10-19-15-29c-2-2-2-4-4-6c0,0,0-1,0-2c4,1,8,5,11,8c2,2,3,5,5,7
		C503.6645508,253.6674805,511.6645508,269.6674805,519.6645508,285.6674805L519.6645508,285.6674805z"/>
</g>
</svg>
