<?xml version="1.0" encoding="utf-8"?>
<!-- Generator: Adobe Illustrator 16.0.0, SVG Export Plug-In . SVG Version: 6.00 Build 0)  -->
<!DOCTYPE svg PUBLIC "-//W3C//DTD SVG 1.1//EN" "http://www.w3.org/Graphics/SVG/1.1/DTD/svg11.dtd">
<svg version="1.1" id="Layer_1" xmlns="http://www.w3.org/2000/svg" xmlns:xlink="http://www.w3.org/1999/xlink" x="0px" y="0px"
	 width="76.125px" height="69.25px" viewBox="0 0 76.125 69.25" enable-background="new 0 0 76.125 69.25" xml:space="preserve">
<g>
	<g>
		<path fill="#727C8E" d="M64.4091797,29.8574219c0.0332031,0,0.0703125,0.0078125,0.1103516,0.0273438
			c0.1601563,0.0859375,0.0664063,0.2480469,0.0664063,0.2480469l-1.8339844,3.2070313
			c3.3457031,1.5351563,5.609375,4.5322266,5.609375,7.9863281H57.6806641H46.9833984
			c0-3.4541016,2.2626953-6.4511719,5.6083984-7.9863281l-1.8330078-3.2070313c0,0-0.09375-0.1621094,0.0810547-0.2480469
			c0.0371094-0.0195313,0.0712891-0.0273438,0.1025391-0.0273438c0.1044922,0,0.1728516,0.0849609,0.1728516,0.0849609
			l1.859375,3.0263672c1.421875-0.6035156,3.0126953-0.9335938,4.7060547-0.9335938
			c1.6777344,0,3.2705078,0.3300781,4.6884766,0.9335938l1.8613281-3.0263672
			C64.2304688,29.9423828,64.2988281,29.8574219,64.4091797,29.8574219 M61.2177734,37.0263672h1.4365234v-1.4345703h-1.4365234
			V37.0263672 M52.6162109,37.0263672h1.4335938v-1.4345703h-1.4335938V37.0263672 M43.3398438,41.6425781
			c1.3105469,0,2.1074219,1.1611328,2.1074219,2.4824219v9.015625c0,1.3203125-0.796875,2.4824219-2.1074219,2.4824219
			c-1.2988281,0-2.1914063-1.1621094-2.1914063-2.4824219V44.125
			C41.1484375,42.8037109,42.0410156,41.6425781,43.3398438,41.6425781 M71.9335938,41.6845703
			c1.2753906,0,2.1914063,1.1191406,2.1914063,2.4404297v9.015625c0,1.3203125-0.8710938,2.4414063-2.1523438,2.4414063
			c-1.2753906,0-2.1484375-1.1210938-2.1484375-2.4414063V44.125
			C69.8242188,42.8037109,70.6582031,41.6845703,71.9335938,41.6845703 M68.3867188,42.7607422v15.4716797
			c0,0.7441406-0.9550781,1.7333984-1.7421875,1.7333984h-2.5576172v4.7900391c0,1.3173828-0.8457031,2.4248047-2.1064453,2.4248047
			c-1.2636719,0-2.1933594-1.1074219-2.1933594-2.4248047v-4.7900391h-4.3007813v4.7900391
			c0,1.3173828-0.7607422,2.3779297-2.0234375,2.3779297c-1.2480469,0-2.2773438-1.0605469-2.2773438-2.3779297v-4.7900391
			h-2.5498047c-0.7939453,0-1.7519531-0.9892578-1.7519531-1.7333984V42.7607422H68.3867188 M64.4101563,27.8574219h-0.0009766
			c-0.6699219,0-1.3193359,0.3115234-1.7382813,0.8330078l-0.078125,0.0976563l-0.0654297,0.1064453l-1.0195313,1.65625
			c-1.2246094-0.3427734-2.5058594-0.515625-3.8271484-0.515625c-1.328125,0-2.6142578,0.1738281-3.84375,0.5166016
			l-1.0175781-1.65625l-0.0683594-0.1103516l-0.0810547-0.1015625c-0.4189453-0.5175781-1.0654297-0.8261719-1.7275391-0.8261719
			c-0.3515625,0-0.7011719,0.0859375-1.0166016,0.2480469c-0.5371094,0.2744141-0.9267578,0.7363281-1.0996094,1.3037109
			c-0.1738281,0.5742188-0.1005859,1.203125,0.2011719,1.7246094l0.8320313,1.4560547
			c-2.6660156,1.8125-4.3964844,4.484375-4.7900391,7.4404297c-0.5205078-0.25-1.1044922-0.3876953-1.7294922-0.3876953
			c-2.3505859,0-4.1914063,1.96875-4.1914063,4.4824219v9.015625c0,2.5136719,1.8408203,4.4824219,4.1914063,4.4824219
			c0.5517578,0,1.0712891-0.1074219,1.5439453-0.3037109v0.9130859c0,1.8837891,1.8583984,3.7333984,3.7519531,3.7333984h0.5498047
			v2.7900391c0,2.4140625,1.9189453,4.3779297,4.2773438,4.3779297c2.2939453,0,4.0234375-1.8818359,4.0234375-4.3779297v-2.7900391
			h0.3007813v2.7900391c0,2.4814453,1.8417969,4.4248047,4.1933594,4.4248047c2.3027344,0,4.1064453-1.9433594,4.1064453-4.4248047
			v-2.7900391h0.5576172c1.8886719,0,3.7421875-1.8496094,3.7421875-3.7333984v-0.9746094
			c0.4863281,0.2089844,1.0214844,0.3242188,1.5859375,0.3242188c2.328125,0,4.1523438-1.9511719,4.1523438-4.4414063V44.125
			c0-2.4902344-1.8408203-4.4404297-4.1914063-4.4404297c-0.5927734,0-1.1513672,0.1289063-1.65625,0.3623047
			c-0.3896484-2.9619141-2.1210938-5.640625-4.7929688-7.4570313l0.8378906-1.4638672
			c0.2919922-0.5048828,0.3691406-1.1230469,0.2089844-1.6875c-0.1611328-0.5664063-0.5400391-1.0332031-1.0664063-1.3164063
			l-0.0292969-0.015625L65.40625,28.0917969C65.0917969,27.9365234,64.7558594,27.8574219,64.4101563,27.8574219
			L64.4101563,27.8574219z"/>
	</g>
	<g>
		<path fill="#727C8E" d="M26.7539063,2.0922852c-0.0859375,5.7636719-2.8994141,9.4609375-8.0654297,9.5288086
			c-0.1767578-5.4296875,3.2216797-8.3818359,7.6689453-9.5288086H26.7539063 M26.3076172,12.1254883
			c3.5449219,0,6.1767578,1.8496094,7.7363281,4.1303711c-2.7275391,1.9487305-4.7744141,4.7250977-4.2324219,9.3886719
			c0.3955078,3.5791016,3.0361328,5.6103516,5.2900391,7.2246094c-0.6738281,2.2724609-1.7011719,4.1640625-3.0351563,6.1240234
			c-1.1972656,1.7001953-2.53125,3.9423828-4.6503906,4.4775391c-0.4677734,0.1230469-0.9111328,0.1757813-1.3359375,0.1757813
			c-2.3974609,0-4.2226563-1.6669922-6.5986328-1.6669922c-2.4326172,0-3.7294922,1.1962891-6.2333984,1.7685547h-1.0566406
			C6.3603516,41.1630859,3.0273438,33.4902344,2.125,25.7851563v-2.1865234
			c0.40625-5.6704102,4.1025391-11.3710938,9.9492188-11.3710938c0.3828125,0,0.7734375,0.0244141,1.1738281,0.074707
			c1.8310547,0.2402344,3.5976563,1.7680664,5.6650391,1.7680664c0.0097656,0,0.0205078,0,0.0302734,0
			c2.0136719-0.0185547,4.21875-1.7197266,6.4931641-1.9082031C25.7333984,12.1376953,26.0234375,12.1254883,26.3076172,12.1254883
			 M28.7841797,0.0922852h-2.0302734h-0.3964844h-0.2539063l-0.2451172,0.0634766
			c-5.9130859,1.5249023-9.2431641,5.612793-9.1757813,11.2387695c-0.0644531-0.0288086-0.1289063-0.0576172-0.1943359-0.0869141
			c-0.8808594-0.3955078-1.8798828-0.8442383-2.9804688-0.9882813c-0.4863281-0.0615234-0.9658203-0.0917969-1.4335938-0.0917969
			c-7.1425781,0-11.4848633,6.8154297-11.9443359,13.2280273L0.125,23.5273438v0.0712891v2.1865234v0.1171875l0.0136719,0.1152344
			c1.1269531,9.6259766,5.3300781,16.9375,11.2421875,19.5585938l0.3867188,0.171875h0.4238281h1.0566406h0.2255859
			l0.2197266-0.0498047c1.1660156-0.2666016,2.0859375-0.6416016,2.8974609-0.9726563
			c1.0615234-0.4335938,1.828125-0.7460938,2.890625-0.7460938c0.8037109,0,1.6123047,0.3203125,2.5478516,0.6904297
			c1.1572266,0.4580078,2.4677734,0.9765625,4.0507813,0.9765625c0.6162109,0,1.2382813-0.0810547,1.8466797-0.2421875
			c2.5996094-0.65625,4.1494141-2.9042969,5.3935547-4.7109375c0.1298828-0.1875,0.2558594-0.3710938,0.3808594-0.5488281
			c1.6337891-2.3994141,2.6513672-4.4599609,3.3183594-6.7070313l0.4042969-1.3652344l-1.1582031-0.8291016
			c-2.2714844-1.6269531-4.1757813-3.1884766-4.4658203-5.8183594c-0.3798828-3.2646484,0.671875-5.5874023,3.4072266-7.5415039
			l1.59375-1.1391602l-1.1054688-1.6171875c-2.1738281-3.1782227-5.5947266-5.0014648-9.3876953-5.0014648
			c-0.0136719,0-0.0283203,0-0.0419922,0.0004883c1.5566406-1.9677734,2.4384766-4.6958008,2.4882813-8.0039063
			L28.7841797,0.0922852L28.7841797,0.0922852z"/>
	</g>
</g>
</svg>
