<?xml version="1.0" encoding="utf-8"?>
<!-- Generator: Adobe Illustrator 16.0.0, SVG Export Plug-In . SVG Version: 6.00 Build 0)  -->
<!DOCTYPE svg PUBLIC "-//W3C//DTD SVG 1.1//EN" "http://www.w3.org/Graphics/SVG/1.1/DTD/svg11.dtd">
<svg version="1.1" id="Layer_1" xmlns="http://www.w3.org/2000/svg" xmlns:xlink="http://www.w3.org/1999/xlink" x="0px" y="0px"
	 width="77.8330078px" height="70.9165039px" viewBox="0 0 77.8330078 70.9165039"
	 enable-background="new 0 0 77.8330078 70.9165039" xml:space="preserve">
<g>
	<g>
		<path fill="#727C8E" d="M66.0131836,30.609375c0.0341797,0,0.0727539,0.0083008,0.1142578,0.0288086
			c0.1640625,0.0878906,0.0683594,0.253418,0.0683594,0.253418l-1.8847656,3.2973633
			c3.4389648,1.578125,5.7651367,4.6572266,5.7651367,8.2080078H59.0981445H48.1040039
			c0-3.5507813,2.3261719-6.6298828,5.7646484-8.2080078l-1.8847656-3.2973633c0,0-0.0957031-0.1655273,0.0839844-0.253418
			c0.0380859-0.0205078,0.0737305-0.0288086,0.105957-0.0288086c0.1064453,0,0.1772461,0.0864258,0.1772461,0.0864258
			l1.9111328,3.1123047c1.4609375-0.621582,3.0957031-0.9604492,4.8359375-0.9604492
			c1.7246094,0,3.3613281,0.3388672,4.8193359,0.9604492l1.9121094-3.1123047
			C65.8295898,30.6958008,65.8999023,30.609375,66.0131836,30.609375 M62.7338867,37.9770508h1.4765625v-1.4746094h-1.4765625
			V37.9770508 M53.8930664,37.9770508h1.4736328v-1.4746094h-1.4736328V37.9770508 M44.3598633,42.7211914
			c1.3457031,0,2.1650391,1.1943359,2.1650391,2.5527344v9.265625c0,1.3574219-0.8193359,2.5507813-2.1650391,2.5507813
			c-1.3359375,0-2.2529297-1.1933594-2.2529297-2.5507813v-9.265625
			C42.1069336,43.9155273,43.0239258,42.7211914,44.3598633,42.7211914 M73.7460938,42.7641602
			c1.3125,0,2.2539063,1.1513672,2.2539063,2.5097656v9.265625c0,1.3574219-0.8945313,2.5087891-2.2128906,2.5087891
			c-1.3105469,0-2.2070313-1.1513672-2.2070313-2.5087891v-9.265625
			C71.5800781,43.9155273,72.4355469,42.7641602,73.7460938,42.7641602 M70.1015625,43.871582v15.9003906
			c0,0.765625-0.9824219,1.78125-1.7890625,1.78125h-2.6303711v4.9238281c0,1.3535156-0.8681641,2.4931641-2.1650391,2.4931641
			c-1.2978516,0-2.2539063-1.1396484-2.2539063-2.4931641v-4.9238281h-4.4199219v4.9238281
			c0,1.3535156-0.7822266,2.4443359-2.0800781,2.4443359c-1.2832031,0-2.3398438-1.0908203-2.3398438-2.4443359v-4.9238281
			h-2.6210938c-0.8164063,0-1.8007813-1.015625-1.8007813-1.78125V43.871582H70.1015625 M66.0131836,28.609375
			c-0.6669922,0-1.3154297,0.3085938-1.7353516,0.824707l-0.0830078,0.1025391l-0.0693359,0.1123047l-1.0683594,1.7387695
			c-1.2651367-0.3588867-2.5908203-0.5400391-3.9589844-0.5400391c-1.3745117,0-2.7055664,0.1811523-3.9750977,0.5405273
			l-1.0673828-1.7387695l-0.0717773-0.1162109l-0.0864258-0.1054688c-0.4199219-0.512207-1.0644531-0.8183594-1.7236328-0.8183594
			c-0.3525391,0-0.7041016,0.0864258-1.0200195,0.25c-0.5380859,0.2744141-0.9287109,0.7363281-1.1015625,1.3037109
			c-0.1757813,0.5756836-0.1025391,1.2060547,0.2001953,1.7294922l0.8818359,1.5429688
			c-2.7749023,1.8696289-4.5668945,4.6450195-4.9521484,7.7124023c-0.5449219-0.2753906-1.1606445-0.4267578-1.8222656-0.4267578
			c-2.3847656,0-4.2529297,2-4.2529297,4.5527344v9.265625c0,2.5517578,1.8681641,4.5507813,4.2529297,4.5507813
			c0.5893555,0,1.1425781-0.1201172,1.6416016-0.3417969v1.0234375c0,1.9082031,1.8828125,3.78125,3.8007813,3.78125h0.6210938
			v2.9238281c0,2.4501953,1.9467773,4.4443359,4.3398438,4.4443359c2.3261719,0,4.0800781-1.9111328,4.0800781-4.4443359v-2.9238281
			h0.4199219v2.9238281c0,2.5195313,1.8686523,4.4931641,4.2539063,4.4931641c2.3354492,0,4.1645508-1.9736328,4.1645508-4.4931641
			v-2.9238281H68.3125c1.8769531,0,3.7890625-1.9082031,3.7890625-3.78125V58.684082
			c0.5136719,0.2353516,1.0830078,0.3642578,1.6855469,0.3642578C76.1494141,59.0483398,78,57.0678711,78,54.5395508v-9.265625
			c0-2.5292969-1.8681641-4.5097656-4.2539063-4.5097656c-0.6269531,0-1.2177734,0.1425781-1.7460938,0.4003906
			c-0.3808594-3.0742188-2.1738281-5.855957-4.9550781-7.7290039l0.8876953-1.5512695
			c0.2919922-0.5053711,0.3701172-1.125,0.2080078-1.690918c-0.1611328-0.5673828-0.5410156-1.0351563-1.0683594-1.3183594
			l-0.0273438-0.0141602l-0.0273438-0.0136719C66.7050781,28.6918945,66.3574219,28.609375,66.0131836,28.609375
			L66.0131836,28.609375z"/>
	</g>
	<g>
		<path fill="#727C8E" d="M27.3120117,2.0732422c-0.0878906,5.9233398-2.9794922,9.7236328-8.2890625,9.7939453
			c-0.1816406-5.5805664,3.3115234-8.6152344,7.8818359-9.7939453H27.3120117 M26.8544922,12.3852539
			c3.644043,0,6.3481445,1.9008789,7.9506836,4.2451172c-2.8027344,2.0024414-4.90625,4.855957-4.3496094,9.6499023
			c0.40625,3.6772461,3.1201172,5.7651367,5.4365234,7.4238281c-0.6923828,2.3354492-1.7480469,4.2807617-3.1201172,6.2944336
			c-1.2304688,1.7480469-2.6015625,4.0527344-4.7783203,4.6015625c-0.480957,0.1269531-0.9370117,0.1806641-1.3745117,0.1806641
			c-2.4643555,0-4.3393555-1.7119141-6.7807617-1.7119141c-2.5009766,0-3.8339844,1.2294922-6.40625,1.8173828h-1.0859375
			c-5.9941406-2.65625-9.4189453-10.543457-10.3466797-18.4624023v-2.246582
			c0.4169922-5.828125,4.2163086-11.6875,10.2260742-11.6875c0.3930664,0,0.7954102,0.0249023,1.206543,0.0766602
			c1.8818359,0.2470703,3.6982422,1.8178711,5.8232422,1.8178711c0.0097656,0,0.0200195,0,0.0302734,0
			c2.0693359-0.0205078,4.3349609-1.7675781,6.6728516-1.9614258
			C26.2631836,12.3974609,26.5615234,12.3852539,26.8544922,12.3852539 M29.3417969,0.0732422h-2.0297852h-0.4072266h-0.2539063
			l-0.2456055,0.0634766c-6.0800781,1.5678711-9.4912109,5.7836914-9.3867188,11.5830078
			c-0.0922852-0.0410156-0.1850586-0.0825195-0.2783203-0.1245117c-0.9467773-0.425293-1.925293-0.8642578-3.0478516-1.0117188
			c-0.4980469-0.0625-0.987793-0.09375-1.4663086-0.09375c-7.3085938,0-11.7514648,6.9785156-12.2216797,13.5449219
			l-0.0048828,0.0712891v0.0712891v2.246582v0.1166992l0.0136719,0.1162109
			c1.1567383,9.875,5.4643555,17.3730469,11.5229492,20.0576172l0.3867188,0.171875h0.4233398h1.0859375h0.2255859
			l0.2202148-0.0498047c1.1928711-0.2734375,2.1357422-0.6572266,2.9677734-0.9970703
			c1.0966797-0.4472656,1.8891602-0.7705078,2.9926758-0.7705078c0.8364258,0,1.6713867,0.3300781,2.6386719,0.7128906
			c1.1835938,0.46875,2.5258789,0.9990234,4.1420898,0.9990234c0.6293945,0,1.2636719-0.0830078,1.8852539-0.2470703
			c2.6513672-0.6679688,4.2373047-2.9707031,5.5117188-4.8203125c0.1328125-0.1923828,0.2626953-0.3808594,0.3911133-0.5634766
			c1.6743164-2.4570313,2.7182617-4.5703125,3.4023438-6.8774414l0.4047852-1.3652344l-1.1577148-0.8291016
			c-2.3457031-1.6796875-4.3120117-3.2919922-4.6132813-6.0175781c-0.3920898-3.378418,0.6953125-5.78125,3.5244141-7.8027344
			l1.5942383-1.1391602l-1.105957-1.6171875c-2.2226563-3.2514648-5.722168-5.1162109-9.6015625-5.1162109
			c-0.0541992,0-0.1083984,0.0004883-0.1630859,0.0009766c1.6396484-2.0195313,2.5693359-4.8452148,2.6206055-8.2832031
			L29.3417969,0.0732422L29.3417969,0.0732422z"/>
	</g>
</g>
</svg>
