<?xml version="1.0" encoding="utf-8"?>
<!-- Generator: Adobe Illustrator 16.0.0, SVG Export Plug-In . SVG Version: 6.00 Build 0)  -->
<!DOCTYPE svg PUBLIC "-//W3C//DTD SVG 1.1//EN" "http://www.w3.org/Graphics/SVG/1.1/DTD/svg11.dtd">
<svg version="1.1" id="Layer_1" xmlns="http://www.w3.org/2000/svg" xmlns:xlink="http://www.w3.org/1999/xlink" x="0px" y="0px"
	 width="94px" height="84.9765625px" viewBox="0 0 94 84.9765625" enable-background="new 0 0 94 84.9765625" xml:space="preserve">
<g>
	<g>
		<path fill-rule="evenodd" clip-rule="evenodd" fill="#EB0029" d="M91.1904297,69.8330078
			c1.6728516,0,2.8095703-1.4628906,2.8095703-3.1875V54.8759766c0-1.7255859-1.1953125-3.1865234-2.8613281-3.1865234
			c-1.6650391,0-2.7529297,1.4609375-2.7529297,3.1865234v11.7695313
			C88.3857422,68.3701172,89.5253906,69.8330078,91.1904297,69.8330078z M53.8085938,69.8867188
			c1.7099609,0,2.7509766-1.5166016,2.7509766-3.2412109V54.8759766c0-1.7255859-1.0410156-3.2412109-2.7509766-3.2412109
			c-1.6962891,0-2.8613281,1.515625-2.8613281,3.2412109v11.7695313
			C50.9472656,68.3701172,52.1123047,69.8867188,53.8085938,69.8867188z M86.5078125,73.2939453V53.0947266H58.4355469v20.1992188
			c0,0.9707031,1.25,2.2626953,2.2871094,2.2626953h3.3291016v6.2539063c0,1.7197266,1.3427734,3.1044922,2.9726563,3.1044922
			c1.6484375,0,2.6416016-1.3847656,2.6416016-3.1044922v-6.2539063H75.28125v6.2539063
			c0,1.7197266,1.2138672,3.1660156,2.8632813,3.1660156c1.6464844,0,2.75-1.4462891,2.75-3.1660156v-6.2539063h3.3398438
			C85.2607422,75.5566406,86.5078125,74.2646484,86.5078125,73.2939453z M58.5654297,51.2216797H72.53125h13.9433594
			c0-4.5097656-2.9541016-8.421875-7.3222656-10.4267578l2.3945313-4.1875c0,0,0.1210938-0.2109375-0.0869141-0.3232422
			c-0.2275391-0.1113281-0.3779297,0.0751953-0.3779297,0.0751953l-2.4296875,3.9521484
			c-1.8515625-0.7890625-3.9306641-1.2197266-6.1210938-1.2197266c-2.2109375,0-4.2871094,0.4306641-6.1435547,1.2197266
			l-2.4277344-3.9521484c0,0-0.1523438-0.1865234-0.359375-0.0751953c-0.2285156,0.1123047-0.1064453,0.3232422-0.1064453,0.3232422
			l2.3935547,4.1875C61.5195313,42.7998047,58.5654297,46.7119141,58.5654297,51.2216797z M65.9189453,43.7353516h1.8720703
			v1.8730469h-1.8720703V43.7353516z M77.1494141,43.7353516h1.875v1.8730469h-1.875V43.7353516z"/>
	</g>
	<g>
		<path fill-rule="evenodd" clip-rule="evenodd" fill="#EB0029" d="M43.0527344,40.1796875
			c-2.9423828-2.1064453-6.3896484-4.7587891-6.90625-9.4306641c-0.7070313-6.0888672,1.9648438-9.7138672,5.5253906-12.2578125
			c-2.1992188-3.2167969-6.03125-5.7763672-11.2373047-5.3447266c-2.9697266,0.2460938-5.8476563,2.4667969-8.4765625,2.4912109
			c-2.7158203,0.0195313-5.0341797-1.9931641-7.4355469-2.3085938C6.0058594,12.2587891,0.5644531,20.1904297,0,28.0771484
			v2.8544922c1.1787109,10.0595703,5.5292969,20.0771484,13.1425781,23.4521484h1.3798828
			c3.2675781-0.7470703,4.9609375-2.3085938,8.1376953-2.3085938c3.6523438,0,6.3056641,3.015625,10.359375,1.9462891
			c2.765625-0.6982422,4.5068359-3.6259766,6.0703125-5.8457031C40.8320313,45.6171875,42.1738281,43.1474609,43.0527344,40.1796875
			z M31.6367188,0C25.8310547,1.4970703,21.3935547,5.3515625,21.625,12.4404297
			C28.3691406,12.3515625,32.0419922,7.5244141,32.1542969,0H31.6367188z"/>
	</g>
</g>
</svg>
