<?xml version="1.0" encoding="utf-8"?>
<!-- Generator: Adobe Illustrator 16.0.0, SVG Export Plug-In . SVG Version: 6.00 Build 0)  -->
<!DOCTYPE svg PUBLIC "-//W3C//DTD SVG 1.1//EN" "http://www.w3.org/Graphics/SVG/1.1/DTD/svg11.dtd">
<svg version="1.1" id="Layer_1" xmlns="http://www.w3.org/2000/svg" xmlns:xlink="http://www.w3.org/1999/xlink" x="0px" y="0px"
	 width="94.5449219px" height="80px" viewBox="0 0 94.5449219 80" enable-background="new 0 0 94.5449219 80" xml:space="preserve">
<path fill-rule="evenodd" clip-rule="evenodd" fill="#EB0029" d="M0,11.2001953v57.5996094C0,76.2919922,3.7089844,80,11.2001953,80
	h64.8720703c7.4931641,0,11.2001953-3.7080078,11.2001953-11.2001953v-6.9824219h0.2910156
	c4.2539063,0,6.9814453-2.7265625,6.9814453-6.9814453V42.7978516c0-3.9980469-2.4003906-6.4345703-6.4345703-6.4345703H54.5449219
	c-6.0361328,0-10.9814453,6.4345703-10.9814453,12.4365234v0.3613281c0,0.9521484,0.1455078,1.8964844,0.3632813,2.8769531
	C41.5263672,50,40,47.0166016,40,43.6357422c0-6.0371094,4.8720703-10.9091797,10.9091797-10.9091797h33.5644531
	c1.0517578,0,1.9960938,0.1494141,2.7988281,0.4765625V11.2001953C87.2724609,3.7070313,83.5654297,0,76.0722656,0H11.2001953
	C3.7089844,0,0,3.7070313,0,11.2001953z M7.2724609,10.9091797c0-1.9960938,1.6367188-3.6367188,3.6367188-3.6367188h65.4541016
	C78.3623047,7.2724609,80,8.9130859,80,10.9091797c0,2.0019531-1.6376953,3.6357422-3.6367188,3.6357422H10.9091797
	C8.9091797,14.5449219,7.2724609,12.9111328,7.2724609,10.9091797z M50.9091797,52.7265625
	c0-3.0185547,2.4355469-5.4541016,5.4541016-5.4541016s5.4541016,2.4355469,5.4541016,5.4541016
	s-2.4355469,5.4550781-5.4541016,5.4550781S50.9091797,55.7451172,50.9091797,52.7265625z"/>
</svg>
