<svg xmlns="http://www.w3.org/2000/svg" xmlns:xlink="http://www.w3.org/1999/xlink" version="1.1" id="Layer_1" x="0px" y="0px" width="194px" height="82px" viewBox="0 0 194 82" enable-background="new 0 0 194 82" xml:space="preserve"><g><g><path fill="none" d="M22.535 101.029c-3.708 0-4.464-2.08-4.464-5.543 0-3.609 0.894-5.646 4.446-5.646 1.206 0 2.021 0.281 2.626 0.668l-0.623 1.524c-0.658-0.261-1.171-0.431-1.968-0.431 -1.893 0-2.32 1.113-2.32 3.738 0 2.654 0.354 3.918 2.582 3.918 0.983 0 1.199-0.096 1.956-0.25l0.436 1.61C24.521 100.863 24.034 101.029 22.535 101.029"/><path fill="none" d="M34.031 101.068c-3.158 0-3.563-2.227-3.563-5.669 0-3.612 0.585-5.606 3.841-5.606 3.014 0 3.534 2.301 3.534 5.637C37.843 98.961 37.311 101.068 34.031 101.068M34.189 91.479c-1.526 0-1.639 1.42-1.639 3.902 0 2.689 0.188 4.016 1.516 4.016 1.574 0 1.697-1.297 1.697-3.984C35.764 92.852 35.641 91.479 34.189 91.479"/><polygon fill="none" points="47.801,100.881 45.24,93.919 44.779,92.232 44.699,92.232 44.87,93.988 44.87,100.881     42.973,100.881 42.973,89.965 45.547,89.965 48.188,97.037 48.688,98.769 48.744,98.769 48.594,97.063 48.594,89.965     50.506,89.965 50.506,100.881   "/><path fill="none" d="M60.273 101.029c-3.705 0-4.456-2.08-4.456-5.543 0-3.609 0.893-5.646 4.442-5.646 1.205 0 2.023 0.281 2.627 0.668l-0.622 1.524c-0.657-0.261-1.171-0.431-1.974-0.431 -1.885 0-2.313 1.113-2.313 3.738 0 2.654 0.353 3.918 2.58 3.918 0.987 0 1.196-0.096 1.953-0.25l0.439 1.61C62.265 100.863 61.778 101.029 60.273 101.029"/><polygon fill="none" points="68.658,100.881 68.658,89.965 75.268,89.965 75.268,91.631 70.77,91.631 70.77,94.611 75.033,94.611     75.033,96.186 70.77,96.186 70.77,99.211 75.357,99.211 75.357,100.881   "/><path fill="none" d="M83.955 97.465h-0.739v3.416h-2.118v-10.92h3.631c2.361 0 3.549 1.346 3.549 3.707C88.277 95.736 87.102 97.465 83.955 97.465M84.306 91.631h-1.09v4.184h0.83c1.669 0 2.058-0.801 2.058-2.082C86.104 92.42 85.834 91.631 84.306 91.631"/><polygon fill="none" points="98.109,91.648 98.109,100.881 96.008,100.881 96.008,91.648 93.244,91.648 93.244,89.961     100.875,89.961 100.875,91.648   "/><path fill="none" d="M121.314 101.029c-1.563 0-2.333-0.166-3.214-0.488l0.481-1.668c0.846 0.25 1.603 0.398 2.699 0.398 1.144 0 1.916-0.398 1.916-1.342 0-2.115-4.907-1.51-4.907-5.215 0-2.055 1.74-2.828 3.593-2.828 1.236 0 2.135 0.219 2.888 0.541l-0.618 1.59c-0.725-0.246-1.314-0.435-2.201-0.435 -1.134 0-1.613 0.356-1.613 1.083 0 1.945 4.973 1.697 4.973 5.17C125.311 100.2 123.52 101.029 121.314 101.029"/><polygon fill="none" points="135.379,91.648 135.379,100.881 133.276,100.881 133.276,91.648 130.512,91.648 130.512,89.961     138.139,89.961 138.139,91.648   "/><path fill="none" d="M146.783 101.068c-3.165 0-3.568-2.227-3.568-5.669 0-3.612 0.585-5.606 3.847-5.606 3.007 0 3.538 2.301 3.538 5.637C150.6 98.961 150.056 101.068 146.783 101.068M146.938 91.479c-1.525 0-1.639 1.42-1.639 3.902 0 2.689 0.186 4.016 1.518 4.016 1.572 0 1.699-1.297 1.699-3.984C148.517 92.852 148.39 91.479 146.938 91.479"/><path fill="none" d="M161.291 100.881l-1.789-3.971c-0.125 0.02-0.326 0.031-0.479 0.031h-0.74v3.939h-2.117v-10.92h3.629c2.271 0 3.546 1.346 3.546 3.434 0 1.311-0.567 2.467-1.886 3.073l2.227 4.413H161.291zM159.377 91.631h-1.094v3.643h0.832c1.391 0 2.053-0.676 2.053-1.806C161.168 92.324 160.721 91.631 159.377 91.631"/><polygon fill="none" points="169.068,100.881 169.068,89.965 175.676,89.965 175.676,91.631 171.182,91.631 171.182,94.611     175.443,94.611 175.443,96.186 171.182,96.186 171.182,99.211 175.768,99.211 175.768,100.881   "/></g><rect x="0.985" y="1.109" fill="none" stroke="#231F20" stroke-width="2" width="192" height="80"/><g><path fill="#191818" d="M97.986 13.666h-1.981c-9.395 0-9.395 7.559-9.395 10.9v33.201c0 3.339 0 10.899 9.395 10.899h1.981c9.392 0 9.392-7.561 9.392-10.899V24.566C107.378 21.225 107.378 13.666 97.986 13.666M101.869 59.188c0 4.049-1.505 4.049-4.876 4.049 -3.363 0-4.862 0-4.862-4.049V23.145c0-4.055 1.499-4.055 4.862-4.055 3.371 0 4.876 0 4.876 4.055V59.188z"/><polygon fill-rule="evenodd" clip-rule="evenodd" fill="#191818" points="16.988,14.004 22.5,14.004 22.5,62.893 32.438,62.893     32.438,68.326 16.988,68.326   "/><polygon fill-rule="evenodd" clip-rule="evenodd" fill="#191818" points="64.762,14.004 81.312,14.004 81.312,19.439     70.282,19.439 70.282,36.776 80.17,36.776 80.17,42.209 70.282,42.209 70.282,68.326 64.762,68.326   "/><polygon fill-rule="evenodd" clip-rule="evenodd" fill="#191818" points="39.055,14.004 56.923,14.004 56.923,19.439     44.566,19.439 44.566,36.776 54.402,36.776 54.402,42.205 44.566,42.205 44.566,62.893 56.918,62.893 56.918,68.326     39.055,68.326   "/><polygon fill="#191818" points="168.38,14.004 160.431,55.34 152.156,14.004 143.88,14.004 143.88,68.326 149.398,68.326     149.398,30.457 157.481,68.326 163.99,68.326 171.467,30.138 171.467,68.326 176.988,68.326 176.988,14.004   "/><path fill="#191818" d="M136.85 68.326l-5.807-23.658c4.998-2.12 4.998-5.977 4.998-9.871v-9.925c0-3.824 0.008-10.869-9.389-10.869h-11.476v54.322h5.524V45.453h4.67l5.467 22.873H136.85zM120.697 19.439h4.958c3.369 0 4.873 0 4.873 4.042l-0.009 12.722c0 4.069-1.497 4.069-4.864 4.069h-4.954L120.697 19.439z"/></g></g></svg>