<?xml version="1.0" encoding="utf-8"?>
<!-- Generator: Adobe Illustrator 16.0.0, SVG Export Plug-In . SVG Version: 6.00 Build 0)  -->
<!DOCTYPE svg PUBLIC "-//W3C//DTD SVG 1.1//EN" "http://www.w3.org/Graphics/SVG/1.1/DTD/svg11.dtd">
<svg version="1.1" id="Layer_1" xmlns="http://www.w3.org/2000/svg" xmlns:xlink="http://www.w3.org/1999/xlink" x="0px" y="0px"
	 width="48.75px" height="77.0830078px" viewBox="0 0 48.75 77.0830078" enable-background="new 0 0 48.75 77.0830078"
	 xml:space="preserve">
<path fill-rule="evenodd" clip-rule="evenodd" fill="none" stroke="#727C8E" stroke-width="2" stroke-miterlimit="10" d="
	M41.5834961,63.5830078h-34.375v-53.125h34.375V63.5830078z M24.4272461,72.9882813c-1.84375,0-3.34375-1.4951172-3.34375-3.3388672
	c0-1.8496094,1.5-3.34375,3.34375-3.34375c1.8125,0,3.3125,1.4941406,3.3125,3.34375
	C27.7397461,71.4931641,26.2397461,72.9882813,24.4272461,72.9882813z M39.3022461,1.0830078h-29.8125
	c-4.6875,0-8.53125,3.875-8.53125,8.59375v57.8125c0,4.71875,3.84375,8.59375,8.53125,8.59375h29.8125
	c4.6875,0,8.53125-3.875,8.53125-8.59375v-57.8125C47.8334961,4.9580078,43.9897461,1.0830078,39.3022461,1.0830078z
	 M16.5834961,4.9892578c0-0.4335938,0.34375-0.78125,0.78125-0.78125h14.0625c0.4375,0,0.78125,0.3476563,0.78125,0.78125v1.5625
	c0,0.4394531-0.34375,0.78125-0.78125,0.78125h-14.0625c-0.4375,0-0.78125-0.3417969-0.78125-0.78125V4.9892578z"/>
<g>
	<path fill="none" stroke="#727C8E" stroke-width="2" stroke-miterlimit="10" d="M22.7329102,48.390625v-2.9824219
		c-2.1035156-0.0947266-4.1435547-0.6601563-5.3369141-1.3486328l0.9414063-3.6738281
		c1.3183594,0.7207031,3.1699219,1.3808594,5.2109375,1.3808594c1.7890625,0,3.0136719-0.6904297,3.0136719-1.9453125
		c0-1.1933594-1.0048828-1.9472656-3.3271484-2.7324219c-3.3583984-1.1289063-5.6503906-2.699707-5.6503906-5.7441406
		c0-2.7626953,1.9462891-4.9287109,5.3046875-5.5869141v-2.9824219h3.0751953v2.762207
		c2.1035156,0.0942383,3.5175781,0.5341797,4.5517578,1.0356445l-0.9091797,3.5473633
		c-0.8154297-0.3447266-2.2607422-1.0678711-4.5205078-1.0678711c-2.0400391,0-2.6992188,0.8803711-2.6992188,1.7583008
		c0,1.0356445,1.0986328,1.6953125,3.765625,2.699707c3.7363281,1.3183594,5.2431641,3.0449219,5.2431641,5.8701172
		c0,2.7939453-1.9775391,5.1796875-5.5878906,5.8076172v3.2021484H22.7329102z"/>
</g>
</svg>
