<?xml version="1.0" encoding="utf-8"?>
<!-- Generator: Adobe Illustrator 18.0.0, SVG Export Plug-In . SVG Version: 6.00 Build 0)  -->
<!DOCTYPE svg PUBLIC "-//W3C//DTD SVG 1.1//EN" "http://www.w3.org/Graphics/SVG/1.1/DTD/svg11.dtd">
<svg version="1.1" id="Layer_1" xmlns="http://www.w3.org/2000/svg" xmlns:xlink="http://www.w3.org/1999/xlink" x="0px" y="0px"
	 viewBox="0 0 16 16" enable-background="new 0 0 16 16" xml:space="preserve">
<g>
	<path fill="#0071CE" d="M14,13h-1h-0.5c-0.1,0-0.3,0-0.4-0.1C12,12.8,12,12.6,12,12.5v-5c0-0.1,0-0.3,0.1-0.4C12.2,7,12.4,7,12.5,7
		H13c0-1.5-0.4-2.8-1.3-3.7C10.9,2.4,9.6,2,8,2C6.4,2,5.1,2.4,4.3,3.3C3.4,4.2,3,5.5,3,7h0.5c0.1,0,0.3,0,0.4,0.1C4,7.2,4,7.4,4,7.5
		v5c0,0.1,0,0.3-0.1,0.4C3.8,13,3.6,13,3.5,13H3c0,0.6,0.2,1,0.6,1.4S4.4,15,5,15h1c0-0.3,0.1-0.5,0.3-0.7C6.5,14.1,6.7,14,7,14h1
		c0.3,0,0.5,0.1,0.7,0.3C8.9,14.5,9,14.7,9,15c0,0.3-0.1,0.5-0.3,0.7C8.5,15.9,8.3,16,8,16H7.5H7H5c-0.8,0-1.5-0.3-2.1-0.9
		C2.3,14.5,2,13.8,2,13c-0.6,0-1-0.3-1.4-0.9C0.2,11.5,0,10.8,0,10c0-0.5,0.1-1,0.3-1.5C0.5,8,0.7,7.7,1,7.4V7
		c0-0.9,0.2-1.9,0.6-2.7C1.9,3.4,2.4,2.7,3,2s1.4-1.1,2.2-1.5C6.1,0.2,7.1,0,8,0c0.9,0,1.9,0.2,2.7,0.6C11.6,0.9,12.3,1.4,13,2
		s1.1,1.4,1.5,2.2C14.8,5.1,15,6.1,15,7v0.4c0.3,0.3,0.5,0.6,0.7,1.1C15.9,9,16,9.5,16,10c0,0.8-0.2,1.5-0.6,2.1
		C15,12.7,14.6,13,14,13z"/>
</g>
</svg>
