<?xml version="1.0"?>
<!--Icons from directory ""-->
<svg xmlns="http://www.w3.org/2000/svg" width="32" height="512" viewBox="0 0 32 512"><svg xmlns:xlink="http://www.w3.org/1999/xlink" id="cat-auto-ico" xml:space="preserve" viewBox="0 0 40.9375 31.5625" version="1.1" y="0" x="0px" enable-background="new 0 0 40.9375 31.5625" width="32" height="32"><g stroke-linecap="round" stroke-miterlimit="10" fill="#fff"><path stroke="#3A3D48" d="m0.521 22.542v-5.4256c0-0.70377 0.18568-1.3951 0.53829-2.0041l3.8062-6.5744c0.7152-1.2354 2.0344-1.996 3.4617-1.996h11.037c1.0609 0 2.0783 0.42143 2.8284 1.1716l7.6569 7.6569c0.75015 0.75015 1.7676 1.1716 2.8284 1.1716h3.8431c2.2091 0 4 1.7909 4 4v2c0 2.2091-1.7909 4-4 4h-32c-2.2081 0-3.999-1.791-3.999-4z"/><path stroke="#3A3D48" d="m0.521 22.542v-5.4256c0-0.70377 0.18568-1.3951 0.53829-2.0041l3.8062-6.5744c0.7152-1.2354 2.0344-1.996 3.4617-1.996h11.037c1.0609 0 2.0783 0.42143 2.8284 1.1716l7.6569 7.6569c0.75015 0.75015 1.7676 1.1716 2.8284 1.1716h3.8431c2.2091 0 4 1.7909 4 4v2c0 2.2091-1.7909 4-4 4h-32c-2.2081 0-3.999-1.791-3.999-4z"/><circle cy="26.042" stroke="#010101" cx="6.021" r="5"/><circle cy="26.042" stroke="#010101" cx="31.021" r="5"/></g><line y2="17.625" x2="30.688" stroke="#010101" stroke-linecap="round" stroke-miterlimit="10" y1="17.625" x1=".6875" fill="none"/><line y2=".54163" x2="10.521" stroke="#010101" stroke-linecap="round" stroke-miterlimit="10" y1="6.0416" x1="16.021" fill="none"/></svg><svg xmlns:xlink="http://www.w3.org/1999/xlink" id="cat-child-ico" xml:space="preserve" viewBox="0 0 40.2916679 40.25" version="1.1" y="32" x="0px" enable-background="new 0 0 40.2916679 40.25" width="32" height="32"><g stroke="#010101" stroke-linecap="round" stroke-miterlimit="10" fill="none"><circle cy="36.25" cx="10.792" r="3.5"/><circle cy="36.25" cx="25.792" r="3.5"/><line y2="37.833" x2="5.4583" y1="37.833" x1=".45833"/><line y2="37.833" x2="20.458" y1="37.833" x1="15.458"/><line y2="37.833" x2="35.458" y1="37.833" x1="30.458"/></g>	<path d="m8.2918 20.75c-1.3784 0-2.5-1.1216-2.5-2.5v-6.5c0-0.82715-0.67285-1.5-1.5-1.5h-1c-1.3784 0-2.5-1.1216-2.5-2.5s1.1216-2.5 2.5-2.5h6c1.3784 0 2.5 1.1216 2.5 2.5v10.5c0 1.3784-1.1216 2.5-2.5 2.5h-1.0002z" fill="#fff"/>	<path d="m9.2918 5.75c1.1046 0 2 0.89542 2 2v10.5c0 1.1046-0.89542 2-2 2h-1c-1.1046 0-2-0.89543-2-2v-6.5c0-1.1046-0.89542-2-2-2h-1.0002c-1.1046 0-2-0.89542-2-2s0.89542-2 2-2h6m0-1h-6c-1.6542 0-3 1.3458-3 3s1.3458 3 3 3h1c0.55139 0 1 0.44859 1 1v6.5c0 1.6542 1.3458 3 3 3h1c1.6542 0 3-1.3458 3-3v-10.5c0-1.6542-1.346-3-3.0002-3z" fill="#010101"/><path stroke="#010101" stroke-linecap="round" stroke-miterlimit="10" d="m10.792 3.948v-2.3941c0-0.91648-0.50231-1.3502-0.7748-0.66896l-1.2252 3.0631" fill="none"/><path stroke="#010101" stroke-linecap="round" stroke-miterlimit="10" d="m7.7918 3.948v-2.3941c0-0.91648-0.50231-1.3502-0.7748-0.66896l-1.2252 3.0631" fill="none"/>	<path d="m6.2918 24.333c-0.9458 0-2-1.8481-2-4.5s1.0542-4.5 2-4.5h23.166v9h-23.166z" fill="#fff"/>	<path d="m28.458 15.333v8h-22.166c-0.52881 0-1.5-1.5186-1.5-4s0.97119-4 1.5-4h22.166m1-1h-23.166c-1.3809 0-2.5 2.2386-2.5 5s1.1191 5 2.5 5h23.166v-10z" fill="#010101"/>	<path d="m29.292 24.75c-0.94629 0-2-1.8481-2-4.5s1.0537-4.5 2-4.5 2 1.8481 2 4.5-1.053 4.5-2 4.5z" fill="#fff"/>	<path d="m29.292 16.25c0.52881 0 1.5 1.5186 1.5 4s-0.97119 4-1.5 4-1.5-1.5186-1.5-4 0.971-4 1.5-4m0-1c-1.3807 0-2.5 2.2386-2.5 5s1.1193 5 2.5 5 2.5-2.2386 2.5-5-1.119-5-2.5-5z" fill="#010101"/><polyline stroke-linejoin="round" stroke="#010101" stroke-linecap="round" stroke-miterlimit="10" fill="none" points="39.83 22.673 29.754 17.827 39.753 17.674"/><g stroke="#010101" stroke-linecap="round" stroke-miterlimit="10" fill="none">		<line y2="30.333" x2="8.9583" y1="25.333" x1="8.9583"/>		<line y2="30.333" x2="5.9583" y1="25.333" x1="5.9583"/></g><g stroke="#010101" stroke-linecap="round" stroke-miterlimit="10" fill="none">		<line y2="30.333" x2="26.958" y1="25.333" x1="26.958"/>		<line y2="30.333" x2="23.958" y1="25.333" x1="23.958"/></g><line y2="8.8333" x2="6.4583" stroke="#010101" stroke-linecap="round" stroke-miterlimit="10" y1="8.8333" x1="5.4583" fill="none"/></svg><svg xmlns:xlink="http://www.w3.org/1999/xlink" id="cat-comp-ico" xml:space="preserve" viewBox="0 0 41.3125 31.59375" version="1.1" y="64" x="0px" enable-background="new 0 0 41.3125 31.59375" width="32" height="32"><g stroke="#010101" stroke-linecap="round" stroke-miterlimit="10"><path d="m18.833 20.51h-16c-1.1046 0-2-0.89543-2-2v-11c0-1.1046 0.89543-2 2-2h16c1.1046 0 2 0.89543 2 2v11c0 1.105-0.895 2-2 2z" fill="#fff"/><line y2="31.094" x2="20.5" y1="31.094" x1=".5" fill="none"/><line y2="30.594" x2="10" y1="20.594" x1="10" fill="none"/><path d="m38.833 30.51h-11c-1.1046 0-2-0.89543-2-2v-26c0-1.1046 0.89543-2 2-2h11c1.1046 0 2 0.89543 2 2v26c0 1.105-0.895 2-2 2z" fill="#fff"/><circle cy="23.01" cx="33.333" r="2.5" fill="#fff"/><line y2="6.0938" x2="35.5" y1="6.0938" x1="30.5" fill="none"/></g></svg><svg xmlns:xlink="http://www.w3.org/1999/xlink" id="cat-devices-ico" xml:space="preserve" viewBox="0 0 30.958334 40.9583321" version="1.1" y="96" x="0px" enable-background="new 0 0 30.958334 40.9583321" width="32" height="32"><g stroke-linejoin="round" stroke="#3A3D48" stroke-linecap="round" stroke-miterlimit="10" fill="none"><path d="m28.5 40.5h-26c-1.1046 0-2-0.89543-2-2v-36c0-1.1046 0.89543-2 2-2h26c1.1046 0 2 0.89543 2 2v36c0 1.105-0.895 2-2 2z"/><line y2="31.083" x2="30.167" y1="31.083" x1=".16667"/><circle cx="15.5" cy="35.5" r="2"/></g></svg><svg xmlns:xlink="http://www.w3.org/1999/xlink" id="cat-entertainment-ico" xml:space="preserve" viewBox="0 0 41 40.9583321" version="1.1" y="128" x="0px" enable-background="new 0 0 41 40.9583321" width="32" height="32"><g stroke="#010101" stroke-linecap="round" stroke-miterlimit="10" fill="#fff"><path d="m36.5 40.5h-32c-2.2091 0-4-1.7909-4-4v-32c0-2.2091 1.7909-4 4-4h32c2.2091 0 4 1.7909 4 4v32c0 2.209-1.791 4-4 4z"/><circle cy="20.5" cx="20.5" r="15"/><circle cy="20.5" cx="20.5" r="6"/><circle cy="20.5" cx="20.5" r="3"/></g></svg><svg xmlns:xlink="http://www.w3.org/1999/xlink" id="cat-eqipment" xml:space="preserve" viewBox="0 0 41.0833321 41.0833321" version="1.1" y="160" x="0px" enable-background="new 0 0 41.0833321 41.0833321" width="32" height="32"><g stroke-linejoin="round" stroke="#3A3D48" stroke-linecap="round" stroke-miterlimit="10" fill="none"><path d="m30.583 0.58329v38c0 1.1046 0.89543 2 2 2h8"/><circle cx="18.083" cy="38.083" r="2.5"/><circle cx="8.0835" cy="38.083" r="2.5"/><path d="m0.5835 33.583v-31c0-1.1046 0.89543-2 2-2h16.558c0.86086 0 1.6251 0.55086 1.8974 1.3675l4.4415 18.325c0.067976 0.20393 0.10263 0.41749 0.10263 0.63246v12.675c0 1.1046-0.89543 2-2 2h-21c-1.1041 0-1.9995-0.895-1.9995-2z"/><path d="m10.583 0.58329v18c0 1.1046 0.89543 2 2 2h13"/><path d="m25.583 25.583h-3c-1.1046 0-2 0.89543-2 2v1c0 1.1046 0.89543 2 2 2h3"/><path d="m0.5835 10.583h3c1.1046 0 2 0.89543 2 2v1c0 1.1046-0.89543 2-2 2h-3"/><path d="m0.5835 15.583h3c1.1046 0 2 0.89543 2 2v1c0 1.1046-0.89543 2-2 2h-3"/><line y2="31.167" x2="30.25" y1="31.167" x1="25.25"/><line y2="21.167" x2="30.25" y1="21.167" x1="25.25"/></g></svg><svg xmlns:xlink="http://www.w3.org/1999/xlink" id="cat-food-ico" xml:space="preserve" viewBox="0 0 35.65625 31" version="1.1" y="192" x="0px" enable-background="new 0 0 35.65625 31" width="32" height="32"><g stroke="#3A3D48" stroke-linecap="round" stroke-miterlimit="10" fill="none"><circle cy="15.417" cx="18.021" r="10"/><circle cy="15.417" cx="18.021" r="6.6667"/><line y2="30.5" x2="32.188" y1=".5" x1="32.188"/><line y2="30.5" x2="2.1875" y1="5.5" x1="2.1875"/><polyline stroke-linejoin="round" points="29.188 0.5 29.188 6 35.188 6 35.188 0.5"/></g><ellipse stroke-linejoin="round" cx="3.021" rx="2.5" cy="4.4166" ry="3.5" stroke="#3A3D48" stroke-linecap="round" stroke-miterlimit="10" fill="#fff"/></svg><svg xmlns:xlink="http://www.w3.org/1999/xlink" id="cat-gifts-ico" xml:space="preserve" viewBox="0 0 31 36.0416679" version="1.1" y="224" x="0px" enable-background="new 0 0 31 36.0416679" width="32" height="32"><g stroke="#010101" stroke-miterlimit="10" fill="none"><path d="m26.042 35.542h-21c-1.1046 0-2-0.89543-2-2v-16c0-1.1046 0.89543-2 2-2h21c1.1046 0 2 0.89543 2 2v16c0 1.104-0.896 2-2 2z"/><path d="m28.542 15.542h-26c-1.1046 0-2-0.89543-2-2v-6c0-1.1046 0.89543-2 2-2h26c1.1046 0 2 0.89543 2 2v6c0 1.104-0.896 2-2 2z"/><line y2="35.625" x2="14.708" y1="5.625" x1="14.708"/><polygon stroke-linejoin="round" points="9.7083 0.54163 9.7083 10.542 19.708 0.54163 19.708 10.542"/></g></svg><svg xmlns:xlink="http://www.w3.org/1999/xlink" id="cat-goods-ico" xml:space="preserve" viewBox="0 0 41.3125 41.0625" version="1.1" y="256" x="0px" enable-background="new 0 0 41.3125 41.0625" width="32" height="32"><g stroke="#010101" stroke-linecap="round" stroke-miterlimit="10" fill="none"><path d="m36.833 40.542h-12c-2.2091 0-4-1.7909-4-4v-32c0-2.2091 1.7909-4 4-4h12c2.2091 0 4 1.7909 4 4v32c0 2.209-1.79 4-4 4z"/><path d="m11.833 20.542h-7c-2.2091 0-4 1.7909-4 4v12c0 2.2091 1.7909 4 4 4h7c2.2091 0 4-1.7909 4-4v-12c0-2.21-1.79-4-4-4z"/><line y2="22.125" x2="40.5" y1="22.125" x1="20.5"/><line y2="15.625" x2="34" y1="5.625" x1="34"/><line y2="30.625" x2="34" y1="25.625" x1="34"/><circle cy="33.042" cx="8.3335" r="1.5"/><circle cy="33.042" cx="8.3335" r="4.5"/><line y2="25.125" x2="15.5" y1="25.125" x1=".5"/></g></svg><svg xmlns:xlink="http://www.w3.org/1999/xlink" id="cat-health-ico" xml:space="preserve" viewBox="0 0 41 41" version="1.1" y="288" x="0px" enable-background="new 0 0 41 41" width="32" height="32"><path stroke-linejoin="round" d="m0.521 16.51v8c0 1.4728 1.1939 2.6667 2.6667 2.6667h8c1.4728 0 2.6667 1.1939 2.6667 2.6667v8c0 1.4728 1.1939 2.6667 2.6667 2.6667h8c1.4728 0 2.6667-1.1939 2.6667-2.6667v-8c0-1.4728 1.1939-2.6667 2.6667-2.6667h8c1.4728 0 2.6667-1.1939 2.6667-2.6667v-8c0-1.4728-1.1939-2.6667-2.6667-2.6667h-8c-1.4728 0-2.6667-1.1939-2.6667-2.6667v-8c0-1.4728-1.1939-2.6667-2.6667-2.6667h-8c-1.4728 0-2.6667 1.1939-2.6667 2.6667v8c0 1.4728-1.1939 2.6667-2.6667 2.6667h-8c-1.4731 0.001-2.667 1.195-2.667 2.667z" stroke="#3A3D48" stroke-linecap="round" stroke-miterlimit="10" fill="#fff"/></svg><svg xmlns:xlink="http://www.w3.org/1999/xlink" id="cat-home-ico" xml:space="preserve" viewBox="0 0 42 40.4375" version="1.1" y="320" x="0px" enable-background="new 0 0 42 40.4375" width="32" height="32"><g stroke="#010101" stroke-linecap="round" stroke-miterlimit="10" fill="#fff"><polyline points="31.021 13.948 36.021 8.9479 41.021 13.948"/><polyline points="41.021 18.948 36.021 13.948 31.021 18.948"/><polyline points="41.021 23.948 36.021 18.948 31.021 23.948"/></g><line y2="39.031" x2="35.188" stroke="#010101" stroke-linecap="round" stroke-miterlimit="10" y1="9.0312" x1="35.188" fill="none"/><path stroke="#010101" stroke-linecap="round" stroke-miterlimit="10" d="m27.021 38.948h-22c-0.55228 0-1-0.44772-1-1v-18c0-0.55228 0.44772-1 1-1h22c0.55228 0 1 0.44772 1 1v18c0 0.552-0.448 1-1 1z" fill="#fff"/>	<path d="m2.0215 39.948c-0.82715 0-1.5-0.67285-1.5-1.5v-8.8213c0-0.40967 0.16992-0.80566 0.46484-1.0864l1.5898-1.5142c0.28027-0.2666 0.64746-0.41357 1.0342-0.41357 0.40918 0 0.80664 0.17041 1.0879 0.46729l1.4102 1.4844c0.2666 0.28 0.4131 0.647 0.4131 1.033v8.8506c0 0.82715-0.67285 1.5-1.5 1.5h-3z" fill="#fff"/>	<path d="m3.6105 27.113c0.26453 0 0.52856 0.10431 0.72516 0.31125l1.4103 1.4846c0.17657 0.18585 0.27502 0.4324 0.27502 0.68875v8.8507c0 0.55229-0.44769 1-1 1h-3c-0.55231 0-1-0.44771-1-1v-8.8214c0-0.27368 0.11218-0.5354 0.31036-0.72414l1.5896-1.5139c0.1936-0.186 0.4417-0.277 0.6895-0.277m0-1c-0.51581 0-1.0056 0.19594-1.3792 0.55173l-1.5896 1.5139c-0.39447 0.37567-0.62073 0.90356-0.62073 1.4483v8.8214c0 1.1028 0.89722 2 2 2h3c1.1028 0 2-0.8972 2-2v-8.8507c0-0.51497-0.19531-1.0042-0.55005-1.3775l-1.4103-1.4846c-0.3759-0.396-0.9045-0.622-1.4502-0.622z" fill="#010101"/>	<path d="m7.0215 39.948c-0.82715 0-1.5-0.67285-1.5-1.5v-8.8213c0-0.40967 0.16992-0.80566 0.46484-1.0864l1.5898-1.5142c0.28027-0.2666 0.64746-0.41357 1.0342-0.41357 0.40918 0 0.80664 0.17041 1.0879 0.46729l1.4102 1.4844c0.2666 0.28027 0.41309 0.64697 0.41309 1.0332v8.8506c0 0.82715-0.67285 1.5-1.5 1.5h-2.9995z" fill="#fff"/>	<path d="m8.6105 27.113c0.26453 0 0.52856 0.10431 0.72516 0.31125l1.4103 1.4846c0.17657 0.18585 0.27502 0.4324 0.27502 0.68875v8.8507c0 0.55229-0.44769 1-1 1h-3c-0.55231 0-1-0.44771-1-1v-8.8214c0-0.27368 0.11218-0.5354 0.31036-0.72414l1.5896-1.5139c0.1936-0.186 0.4417-0.277 0.6895-0.277m0-1c-0.51581 0-1.0056 0.19594-1.3792 0.55173l-1.5896 1.5139c-0.39447 0.37567-0.62073 0.90356-0.62073 1.4483v8.8214c0 1.1028 0.89722 2 2 2h3c1.1028 0 2-0.8972 2-2v-8.8507c0-0.51497-0.19531-1.0042-0.55005-1.3775l-1.4103-1.4846c-0.3762-0.396-0.9048-0.622-1.4505-0.622z" fill="#010101"/>	<path d="m12.021 39.948c-0.82715 0-1.5-0.67285-1.5-1.5v-8.8213c0-0.40967 0.16992-0.80566 0.46484-1.0864l1.5898-1.5142c0.28027-0.2666 0.64746-0.41357 1.0342-0.41357 0.40918 0 0.80664 0.17041 1.0879 0.46729l1.4102 1.4844c0.2666 0.28027 0.41309 0.64697 0.41309 1.0332v8.8506c0 0.82715-0.67285 1.5-1.5 1.5h-3z" fill="#fff"/>	<path d="m13.61 27.113c0.26453 0 0.52856 0.10431 0.72516 0.31125l1.4103 1.4846c0.17657 0.18585 0.27502 0.4324 0.27502 0.68875v8.8507c0 0.55229-0.44769 1-1 1h-3c-0.55231 0-1-0.44771-1-1v-8.8214c0-0.27368 0.11218-0.5354 0.31036-0.72414l1.5896-1.5139c0.195-0.186 0.443-0.277 0.69-0.277m0-1c-0.51581 0-1.0056 0.19594-1.3792 0.55173l-1.5896 1.5139c-0.39447 0.37567-0.62073 0.90356-0.62073 1.4483v8.8214c0 1.1028 0.89722 2 2 2h3c1.1028 0 2-0.8972 2-2v-8.8507c0-0.51497-0.19531-1.0042-0.55005-1.3775l-1.4103-1.4846c-0.375-0.396-0.904-0.622-1.45-0.622z" fill="#010101"/>	<path d="m17.021 39.948c-0.82715 0-1.5-0.67285-1.5-1.5v-8.8213c0-0.40967 0.16992-0.80566 0.46484-1.0864l1.5898-1.5142c0.28027-0.2666 0.64746-0.41357 1.0342-0.41357 0.40918 0 0.80664 0.17041 1.0879 0.46729l1.4102 1.4844c0.2666 0.28027 0.41309 0.64697 0.41309 1.0332v8.8506c0 0.82715-0.67285 1.5-1.5 1.5h-3z" fill="#fff"/>	<path d="m18.61 27.113c0.26453 0 0.52856 0.10431 0.72516 0.31125l1.4103 1.4846c0.17657 0.18585 0.27502 0.4324 0.27502 0.68875v8.8507c0 0.55229-0.44769 1-1 1h-3c-0.55231 0-1-0.44771-1-1v-8.8214c0-0.27368 0.11218-0.5354 0.31036-0.72414l1.5896-1.5139c0.195-0.186 0.443-0.277 0.69-0.277m0-1c-0.51581 0-1.0056 0.19594-1.3792 0.55173l-1.5896 1.5139c-0.39447 0.37567-0.62073 0.90356-0.62073 1.4483v8.8214c0 1.1028 0.89722 2 2 2h3c1.1028 0 2-0.8972 2-2v-8.8507c0-0.51497-0.19531-1.0042-0.55005-1.3775l-1.4103-1.4846c-0.375-0.396-0.904-0.622-1.45-0.622z" fill="#010101"/>	<path d="m22.021 39.948c-0.82715 0-1.5-0.67285-1.5-1.5v-8.8213c0-0.40967 0.16992-0.80566 0.46484-1.0864l1.5898-1.5142c0.28027-0.2666 0.64746-0.41357 1.0342-0.41357 0.40918 0 0.80664 0.17041 1.0879 0.46729l1.4102 1.4844c0.2666 0.28027 0.41309 0.64697 0.41309 1.0332v8.8506c0 0.82715-0.67285 1.5-1.5 1.5h-3z" fill="#fff"/>	<path d="m23.61 27.113c0.26453 0 0.52856 0.10431 0.72516 0.31125l1.4103 1.4846c0.17657 0.18585 0.27502 0.4324 0.27502 0.68875v8.8507c0 0.55229-0.44769 1-1 1h-3c-0.55231 0-1-0.44771-1-1v-8.8214c0-0.27368 0.11218-0.5354 0.31036-0.72414l1.5896-1.5139c0.195-0.186 0.443-0.277 0.69-0.277m0-1c-0.51581 0-1.0056 0.19594-1.3792 0.55173l-1.5896 1.5139c-0.39447 0.37567-0.62073 0.90356-0.62073 1.4483v8.8214c0 1.1028 0.89722 2 2 2h3c1.1028 0 2-0.8972 2-2v-8.8507c0-0.51497-0.19531-1.0042-0.55005-1.3775l-1.4103-1.4846c-0.375-0.396-0.904-0.622-1.45-0.622z" fill="#010101"/>	<path d="m27.021 39.948c-0.82715 0-1.5-0.67285-1.5-1.5v-8.8213c0-0.40967 0.16992-0.80566 0.46484-1.0864l1.5898-1.5142c0.28027-0.2666 0.64746-0.41357 1.0342-0.41357 0.40918 0 0.80664 0.17041 1.0879 0.46729l1.4102 1.4844c0.2666 0.28027 0.41309 0.64697 0.41309 1.0332v8.8506c0 0.82715-0.67285 1.5-1.5 1.5h-3z" fill="#fff"/>	<path d="m28.61 27.113c0.26453 0 0.52856 0.10431 0.72516 0.31125l1.4103 1.4846c0.17657 0.18585 0.27502 0.4324 0.27502 0.68875v8.8507c0 0.55229-0.44769 1-1 1h-3c-0.55231 0-1-0.44771-1-1v-8.8214c0-0.27368 0.11218-0.5354 0.31036-0.72414l1.5896-1.5139c0.195-0.186 0.443-0.277 0.69-0.277m0-1c-0.51581 0-1.0056 0.19594-1.3792 0.55173l-1.5896 1.5139c-0.39447 0.37567-0.62073 0.90356-0.62073 1.4483v8.8214c0 1.1028 0.89722 2 2 2h3c1.1028 0 2-0.8972 2-2v-8.8507c0-0.51497-0.19531-1.0042-0.55005-1.3775l-1.4103-1.4846c-0.375-0.396-0.904-0.622-1.45-0.622z" fill="#010101"/>	<path d="m32.021 39.948c-0.82715 0-1.5-0.67285-1.5-1.5v-8.8213c0-0.40967 0.16992-0.80566 0.46484-1.0864l1.5898-1.5142c0.28027-0.2666 0.64746-0.41357 1.0342-0.41357 0.40918 0 0.80664 0.17041 1.0879 0.46729l1.4102 1.4844c0.2666 0.28027 0.41309 0.64697 0.41309 1.0332v8.8506c0 0.82715-0.67285 1.5-1.5 1.5h-3z" fill="#fff"/>	<path d="m33.61 27.113c0.26453 0 0.52856 0.10431 0.72516 0.31125l1.4103 1.4846c0.17657 0.18585 0.27502 0.4324 0.27502 0.68875v8.8507c0 0.55229-0.44769 1-1 1h-3c-0.55231 0-1-0.44771-1-1v-8.8214c0-0.27368 0.11218-0.5354 0.31036-0.72414l1.5896-1.5139c0.195-0.186 0.443-0.277 0.69-0.277m0-1c-0.51581 0-1.0056 0.19594-1.3792 0.55173l-1.5896 1.5139c-0.39447 0.37567-0.62073 0.90356-0.62073 1.4483v8.8214c0 1.1028 0.89722 2 2 2h3c1.1028 0 2-0.8972 2-2v-8.8507c0-0.51497-0.19531-1.0042-0.55005-1.3775l-1.4103-1.4846c-0.375-0.396-0.904-0.622-1.45-0.622z" fill="#010101"/>	<path d="m37.021 39.948c-0.82715 0-1.5-0.67285-1.5-1.5v-8.8213c0-0.40967 0.16992-0.80566 0.46484-1.0864l1.5898-1.5142c0.28027-0.2666 0.64746-0.41357 1.0342-0.41357 0.40918 0 0.80664 0.17041 1.0879 0.46729l1.4102 1.4844c0.2666 0.28027 0.41309 0.64697 0.41309 1.0332v8.8506c0 0.82715-0.67285 1.5-1.5 1.5h-3z" fill="#fff"/>	<path d="m38.61 27.113c0.26453 0 0.52856 0.10431 0.72516 0.31125l1.4103 1.4846c0.17657 0.18585 0.27502 0.4324 0.27502 0.68875v8.8507c0 0.55229-0.44769 1-1 1h-3c-0.55231 0-1-0.44771-1-1v-8.8214c0-0.27368 0.11218-0.5354 0.31036-0.72414l1.5896-1.5139c0.195-0.186 0.443-0.277 0.69-0.277m0-1c-0.51581 0-1.0056 0.19594-1.3792 0.55173l-1.5896 1.5139c-0.39447 0.37567-0.62073 0.90356-0.62073 1.4483v8.8214c0 1.1028 0.89722 2 2 2h3c1.1028 0 2-0.8972 2-2v-8.8507c0-0.51497-0.19531-1.0042-0.55005-1.3775l-1.4103-1.4846c-0.375-0.396-0.904-0.622-1.45-0.622z" fill="#010101"/><path stroke-linejoin="round" d="m31.021 19.448l-13.946-18.29c-0.6605-0.86623-1.9608-0.87638-2.6348-0.020575l-3.919 4.9772v0c0-0.92048-0.7462-1.6667-1.6667-1.6667h-1.6666c-0.92049 0-1.6667 0.7462-1.6667 1.6667v6.1568c0 0.33231-0.099337 0.65703-0.28525 0.93246l-4.2148 6.245h30z" stroke="#010101" stroke-linecap="round" stroke-miterlimit="10" fill="#fff"/></svg><svg xmlns:xlink="http://www.w3.org/1999/xlink" id="cat-office-ico" xml:space="preserve" viewBox="0 0 41.0625 41" version="1.1" y="352" x="0px" enable-background="new 0 0 41.0625 41" width="32" height="32"><g stroke="#010101" stroke-linecap="round" stroke-miterlimit="10"><g fill="none">		<line y2="20.562" x2="23.75" y1=".5625" x1="23.75"/>		<line y2="40.479" x2="16.083" y1="20.479" x1="20.083"/>		<line y2="40.479" x2="35.583" y1="20.479" x1="30.583"/>	</g><path d="m36.583 31.146h-22c-2.2091 0-4-1.7909-4-4v-17.667c0-2.2091 1.7909-4 4-4h22c2.2091 0 4 1.7909 4 4v17.667c0 2.209-1.79 4-4 4z" fill="#fff"/>		<line y2="27.062" x2="25.25" y1="27.062" x1="15.25" fill="none"/>		<line y2="27.062" x2="35.25" y1="27.062" x1="30.25" fill="none"/></g><path stroke="#010101" stroke-linecap="round" stroke-miterlimit="10" d="m26.583 35.479h-22c-2.2091 0-4-1.7909-4-4v-7c0-2.2091 1.7909-4 4-4h22c2.2091 0 4 1.7909 4 4v7c0 2.209-1.79 4-4 4z" fill="#fff"/><path stroke="#010101" stroke-linecap="round" stroke-miterlimit="10" d="m8.0835 30.479h0c-1.375 0-2.5-1.125-2.5-2.5v-0.0000038c0-1.375 1.125-2.5 2.5-2.5h0c1.375 0 2.5 1.125 2.5 2.5v0.0000038c-0.001 1.375-1.1255 2.5-2.5005 2.5z" fill="#fff"/><g stroke="#010101" stroke-linecap="round" stroke-miterlimit="10" fill="none"><line y2="40.562" x2="3.75" y1="35.562" x1="3.75"/><line y2="40.562" x2="23.75" y1="35.562" x1="23.75"/><line y2="25.062" x2="25.25" y1="25.062" x1="20.25"/><line y2="28.062" x2="25.25" y1="28.062" x1="20.25"/><line y2="31.062" x2="25.25" y1="31.062" x1="20.25"/></g></svg><svg xmlns:xlink="http://www.w3.org/1999/xlink" id="cat-services-ico" xml:space="preserve" viewBox="0 0 41.3333321 40.6373558" version="1.1" y="384" x="0px" enable-background="new 0 0 41.3333321 40.6373558" width="32" height="32"><path stroke-linejoin="round" d="m35.833 20.542c0-2.7614-2.2388-5-5-5 0-2.7614-2.2388-5-5-5-0.14404 0-0.2793 0.030456-0.42041 0.042358-1.0186-2.9333-3.7993-5.0424-7.0796-5.0424-3.3848 0-6.2437 2.2432-7.1768 5.3234-3.0801 0.93311-5.3232 3.7918-5.3232 7.1766 0 0.89514 0.16504 1.7497 0.45264 2.5456-0.15137-0.013794-0.29736-0.045593-0.45264-0.045593-2.7612 0-5 2.2386-5 5s2.2388 5 5 5 5-2.2386 5-5c0-0.15503-0.031738-0.30115-0.04541-0.45258 0.7959 0.28766 1.6504 0.45258 2.5454 0.45258 3.3848 0 6.2437-2.2432 7.1768-5.3234 0.72266-0.21906 1.4004-0.54205 2.0127-0.95532 0.88379 0.78632 2.0352 1.2787 3.3105 1.2787 0 2.7614 2.2388 5 5 5 0 2.7614 2.2388 5 5 5s5-2.2386 5-5-2.239-5.001-5.001-5.001z" stroke="#3A3D48" stroke-linecap="round" stroke-miterlimit="10" fill="none"/><g stroke-linejoin="round" stroke="#3A3D48" stroke-miterlimit="10" fill="#fff"><rect height="9.45" width="4.6666" y="26.521" x="18.5"/><path d="m25 18.625v9.8208s-0.68336 4.6666-5 4.6666-5-4.6666-5-4.6666v-9.821"/><path d="m25 18.625v9.8208s-0.68336 4.6666-5 4.6666-5-4.6666-5-4.6666v-9.821" stroke-linecap="round"/><path d="m34.833 40.637c0-2.5773-2.0893-4.6666-4.6666-4.6666h-18.666c-2.5773 0-4.6666 2.0893-4.6666 4.6666"/><path d="m15 17.583s10 0.86456 10 4.9583 0-4.916 0-4.916" stroke-linecap="round"/></g><g stroke-linejoin="round" stroke="#3A3D48" stroke-linecap="round" stroke-miterlimit="10" fill="none"><line y2="23.125" x2="22.5" y1="23.125" x1="21.5"/><line y2="23.125" x2="19.5" y1="23.125" x1="18.5"/><path d="m19.833 28.542s1.0625 1.2188 2 0"/><line y2="5.5416" x2="5.8335" y1=".54163" x1=".83350"/><line y2="11.125" x2="5.5" y1="11.125" x1=".5"/><line y2="5.625" x2="10" y1=".625" x1="10"/><line y2=".625" x2="30" y1="5.625" x1="30"/><line y2=".54163" x2="40.833" y1="5.5416" x1="35.833"/><line y2="11.125" x2="40.5" y1="11.125" x1="35.5"/></g></svg><svg xmlns:xlink="http://www.w3.org/1999/xlink" id="cat-sport-ico" xml:space="preserve" viewBox="0 0 36.479126 40.25" version="1.1" y="416" x="0px" enable-background="new 0 0 36.479126 40.25" width="32" height="32"><g stroke="#3A3D48" stroke-miterlimit="10" fill="none"><circle cx="11" cy="34.729" r="5"/><circle cx="31" cy="34.729" r="5"/><g stroke-linejoin="round" stroke-linecap="round"><polyline points="10.667 35.312 31 35.312 26 20.312 20.667 20.312"/><path d="m1.5859 4.1433l3-3c0.78105-0.78105 2.0474-0.78105 2.8284 0l3 3c0.37507 0.37507 0.58579 0.88378 0.58579 1.4142v3.6994c0 0.31049-0.07229 0.61672-0.21115 0.89443l-3 6c-0.73705 1.4741-2.8407 1.4741-3.5777 0l-3-6c-0.13886-0.27771-0.21115-0.58394-0.21115-0.89443v-3.699c-0.0001-0.5305 0.2106-1.0392 0.5857-1.4143z"/><path d="m16 14.729v3c0 1.1046-0.89543 2-2 2h-1c-1.1046 0-2 0.89543-2 2v1c0 1.1046-0.89543 2-2 2h-1c-1.1046 0-2-0.89543-2-2v-3"/></g></g></svg><svg xmlns:xlink="http://www.w3.org/1999/xlink" id="cat-wear-ico" xml:space="preserve" viewBox="0 0 40.25 31.0625" version="1.1" y="448" x="0px" enable-background="new 0 0 40.25 31.0625" width="32" height="32"><path stroke-linejoin="round" d="m0.8531 11.249l3.5858 3.5858c0.39052 0.39052 1.0237 0.39052 1.4142 0l2.5858-2.5858c0.62996-0.62996 1.7071-0.1838 1.7071 0.70711v16.586c0 0.55228 0.44771 1 1 1h18c0.55228 0 1-0.44772 1-1v-16.586c0-0.8909 1.0771-1.3371 1.7071-0.70711l2.5858 2.5858c0.39053 0.39052 1.0237 0.39052 1.4142 0l3.5858-3.5858c0.39053-0.39052 0.39053-1.0237 0-1.4142l-9-9c-0.18754-0.18754-0.44189-0.29289-0.70711-0.29289h-19.172c-0.26522 0-0.51957 0.10536-0.70711 0.29289l-9 9c-0.39032 0.3902-0.39032 1.0232 0.0002 1.4142z" stroke="#3A3D48" stroke-linecap="round" stroke-miterlimit="10" fill="none"/><path stroke-linejoin="round" d="m25.146 0.54163c0 2.7614-2.2386 5-5 5s-5-2.2386-5-5" stroke="#3A3D48" stroke-linecap="round" stroke-miterlimit="10" fill="none"/></svg><svg xmlns:xlink="http://www.w3.org/1999/xlink" id="cat-xxx-ico" xml:space="preserve" viewBox="0 0 51.875 36.5416679" version="1.1" y="480" x="0px" enable-background="new 0 0 51.875 36.5416679" width="32" height="32"><rect y=".94657" x="35.542" height="9.5117" width="30" fill="none"/><text font-size="10" font-family="'Roboto-Light'" transform="translate(35.542 9.5013)" fill="#010101">18+</text><g stroke-linejoin="round" stroke="#010101" stroke-linecap="round" stroke-miterlimit="10" fill="#fff"><polygon points="30.542 26.042 0.54183 26.042 15.542 36.042"/><path d="m15.542 35.458h-0.0000105c-2.7614 0-5-2.2386-5-5v-5h10v5c0 2.762-2.239 5-5 5z"/><path d="m5.5418 5.4583h0.00001c2.7614 0 5 2.2386 5 5v5h-10v-5c-0.00017-2.7611 2.2384-4.9997 4.9998-4.9997z"/><path d="m25.542 5.4583h0.0000095c2.7614 0 5 2.2386 5 5v5h-10v-5c0-2.7611 2.238-4.9997 5-4.9997z"/></g><g stroke-linejoin="round" stroke="#010101" stroke-linecap="round" stroke-miterlimit="10" fill="none"><line y2="11.042" x2="20.208" y1="11.042" x1="10.208"/><line y2=".54167" x2="4.7083" y1="5.5417" x1="4.7083"/><line y2="5.5417" x2="24.708" y1=".54167" x1="24.708"/></g></svg></svg>
