<?xml version="1.0" encoding="utf-8"?>
<!-- Generator: Adobe Illustrator 16.0.0, SVG Export Plug-In . SVG Version: 6.00 Build 0)  -->
<!DOCTYPE svg PUBLIC "-//W3C//DTD SVG 1.1//EN" "http://www.w3.org/Graphics/SVG/1.1/DTD/svg11.dtd" [
	<!ENTITY ns_extend "http://ns.adobe.com/Extensibility/1.0/">
	<!ENTITY ns_ai "http://ns.adobe.com/AdobeIllustrator/10.0/">
	<!ENTITY ns_graphs "http://ns.adobe.com/Graphs/1.0/">
	<!ENTITY ns_vars "http://ns.adobe.com/Variables/1.0/">
	<!ENTITY ns_imrep "http://ns.adobe.com/ImageReplacement/1.0/">
	<!ENTITY ns_sfw "http://ns.adobe.com/SaveForWeb/1.0/">
	<!ENTITY ns_custom "http://ns.adobe.com/GenericCustomNamespace/1.0/">
	<!ENTITY ns_adobe_xpath "http://ns.adobe.com/XPath/1.0/">
]>
<svg version="1.1" xmlns:x="&ns_extend;" xmlns:i="&ns_ai;" xmlns:graph="&ns_graphs;"
	 xmlns="http://www.w3.org/2000/svg" xmlns:xlink="http://www.w3.org/1999/xlink" x="0px" y="0px" width="44.8027344px"
	 height="40px" viewBox="0 0 44.8027344 40" enable-background="new 0 0 44.8027344 40" xml:space="preserve">
<metadata>
	<sfw  xmlns="&ns_sfw;">
		<slices></slices>
		<sliceSourceBounds  width="16383" height="16383" y="-8472" x="-7711" bottomLeftOrigin="true"></sliceSourceBounds>
	</sfw>
</metadata>
<g id="Слой_1">
	<g>
		<defs>
			<rect id="SVGID_7_" x="-1785.0966797" y="343.7358398" width="2560" height="1260"/>
		</defs>
		<clipPath id="SVGID_2_">
			<use xlink:href="#SVGID_7_"  overflow="visible"/>
		</clipPath>
		<g clip-path="url(#SVGID_2_)">
			<g>
				<g>
					<defs>
						<rect id="SVGID_9_" x="-1785.0966797" y="-240.2641602" width="2767" height="1844"/>
					</defs>
					<clipPath id="SVGID_4_">
						<use xlink:href="#SVGID_9_"  overflow="visible"/>
					</clipPath>
					<g clip-path="url(#SVGID_4_)">
						
							<image overflow="visible" width="7500" height="5000" xlink:href="D285B4EE.jpg"  transform="matrix(0.406176 0 0 0.406176 -1765.6391602 -427.1416016)">
						</image>
					</g>
				</g>
			</g>
		</g>
	</g>
	<g>
		<path fill-rule="evenodd" clip-rule="evenodd" fill="#FFFFFF" d="M38.4423828,34.5029297
			c-0.3925781,0.3769531-1.3251953,1.1943359-0.1962891,2.7802734C39.3730469,38.8730469,41.8896484,38.9443359,42.2207031,40
			C42.2207031,40,43.0126953,31.9267578,38.4423828,34.5029297z M39.0117188,33.1875
			c0.5117188-0.3056641,0.7021484-1.0009766,0.421875-1.5429688L38.1875,29.2490234
			c-0.2832031-0.5419922-0.9472656-0.7607422-1.4765625-0.4902344l-1.5048828,0.7734375
			c-0.5292969,0.2734375-0.6962891,0.9140625-0.3701172,1.4326172l1.578125,2.4931641
			c0.3261719,0.5146484,1.0126953,0.6845703,1.5234375,0.3730469L39.0117188,33.1875z M36.4472656,25.4326172
			c-0.6416016-1.1621094-5.8720703-11.3691406-8.3759766-15.3271484
			c-2.5029297-3.9570313-5.8447266-10.5498047-6.7773438-10.0820313C19.9882813,0.6748047,24.03125,9.046875,25.3701172,12.1904297
			c1.3388672,3.1464844,6.5634766,15.2011719,7.609375,15.7285156c1.0488281,0.5214844,1.4560547,0.2314453,2.1542969-0.0605469
			C35.8330078,27.5683594,37.0878906,26.5996094,36.4472656,25.4326172z M43.796875,17.2490234h-9.6191406
			c1.0820313,2.0214844,2.0888672,4.1699219,2.7919922,5.5126953l0.9736328,1.8457031
			c0.1611328,0.2910156,0.2548828,0.9443359,0.3164063,1.2539063h5.3085938c0.5537109,0,1.234375-0.4511719,1.234375-1.0048828
			v-6.6025391C44.8027344,17.7001953,44.3505859,17.2490234,43.796875,17.2490234z M11.9550781,17.2490234H1.0058594
			C0.4521484,17.2490234,0,17.7001953,0,18.2539063v6.6025391c0,0.5537109,0.4521484,1.0048828,1.0058594,1.0048828h6.3310547
			L11.9550781,17.2490234z M22.5585938,17.2490234l-4.6181641,8.6123047h11.0263672l-3.7470703-8.6123047H22.5585938z
			 M7.8554688,35.7949219l-2.6191406-1.5039063c-0.4785156-0.2744141-0.921875-0.0507813-0.9853516,0.4990234L3.796875,38.7324219
			c-0.0634766,0.5498047,0.2587891,0.7460938,0.7167969,0.4345703l3.3828125-2.3046875
			C8.3535156,36.5527344,8.3339844,36.0703125,7.8554688,35.7949219z M21.84375,11.7675781l-2.6191406-1.5
			c-0.4775391-0.2792969-1.0976563-0.1103516-1.3710938,0.3701172L5.7216797,31.765625
			c-0.2773438,0.4794922-0.1074219,1.0966797,0.3701172,1.3710938l2.6191406,1.5029297
			c0.4794922,0.2753906,1.0976563,0.1113281,1.375-0.3681641l12.1289063-21.1298828
			C22.4902344,12.6630859,22.3232422,12.046875,21.84375,11.7675781z"/>
	</g>
</g>
<g id="Слой_2">
</g>
</svg>
