<?xml version="1.0" encoding="utf-8"?>
<!-- Generator: Adobe Illustrator 16.0.0, SVG Export Plug-In . SVG Version: 6.00 Build 0)  -->
<!DOCTYPE svg PUBLIC "-//W3C//DTD SVG 1.1//EN" "http://www.w3.org/Graphics/SVG/1.1/DTD/svg11.dtd" [
	<!ENTITY ns_flows "http://ns.adobe.com/Flows/1.0/">
	<!ENTITY ns_extend "http://ns.adobe.com/Extensibility/1.0/">
	<!ENTITY ns_ai "http://ns.adobe.com/AdobeIllustrator/10.0/">
	<!ENTITY ns_graphs "http://ns.adobe.com/Graphs/1.0/">
	<!ENTITY ns_vars "http://ns.adobe.com/Variables/1.0/">
	<!ENTITY ns_imrep "http://ns.adobe.com/ImageReplacement/1.0/">
	<!ENTITY ns_sfw "http://ns.adobe.com/SaveForWeb/1.0/">
	<!ENTITY ns_custom "http://ns.adobe.com/GenericCustomNamespace/1.0/">
	<!ENTITY ns_adobe_xpath "http://ns.adobe.com/XPath/1.0/">
]>
<svg version="1.1" xmlns:x="&ns_extend;" xmlns:i="&ns_ai;" xmlns:graph="&ns_graphs;"
	 xmlns="http://www.w3.org/2000/svg" xmlns:xlink="http://www.w3.org/1999/xlink" xmlns:a="http://ns.adobe.com/AdobeSVGViewerExtensions/3.0/"
	 x="0px" y="0px" width="39.84375px" height="39.8828125px" viewBox="0 0 39.84375 39.8828125"
	 enable-background="new 0 0 39.84375 39.8828125" xml:space="preserve">
<metadata>
	<sfw  xmlns="&ns_sfw;">
		<slices></slices>
		<sliceSourceBounds  height="16383" width="16383" x="-7711" y="-8472" bottomLeftOrigin="true"></sliceSourceBounds>
	</sfw>
</metadata>
<g id="Слой_1">
	<g>
		<path fill="#FFFFFF" d="M39.84375,37.2753906c0,0.3115234-0.1748047,0.5976563-0.5253906,0.8564453
			c-0.3496094,0.2597656-0.8886719,0.4736328-1.6152344,0.6416016c-0.7265625,0.1699219-1.4716797,0.3251953-2.2363281,0.4677734
			c-0.765625,0.1425781-1.7451172,0.2529297-2.9375,0.3300781c-1.1933594,0.078125-2.2324219,0.1367188-3.1132813,0.1757813
			c-0.8828125,0.0380859-2.0175781,0.0712891-3.4042969,0.0966797c-1.3886719,0.0263672-2.4394531,0.0390625-3.1523438,0.0390625
			c-0.7138672,0-1.6923828,0-2.9375,0s-2.2246094,0-2.9375,0c-0.7148438,0-1.7646484-0.0126953-3.1523438-0.0390625
			c-1.3876953-0.0253906-2.5234375-0.0585938-3.4042969-0.0966797c-0.8828125-0.0390625-1.9199219-0.0976563-3.1132813-0.1757813
			c-1.1933594-0.0771484-2.1728516-0.1875-2.9375-0.3300781c-0.765625-0.1425781-1.5117188-0.2978516-2.2373047-0.4677734
			C1.4130859,38.6054688,0.875,38.3916016,0.5253906,38.1318359C0.1748047,37.8730469,0,37.5869141,0,37.2753906
			c0.0507813-2.2822266,1.4785156-4.2988281,4.2792969-6.0498047c2.8017578-1.7509766,6.3554688-2.9121094,10.6621094-3.4824219
			v-1.2841797c-1.3496094-0.5966797-2.5166016-1.4404297-3.5019531-2.5292969
			C10.453125,22.8398438,9.6748047,21.5625,9.1044922,20.0966797c-0.5712891-1.4648438-0.9853516-3.0351563-1.2451172-4.7080078
			S7.4707031,11.90625,7.4707031,9.9609375c0-1.6601563,0.3242188-3.1386719,0.9726563-4.4365234
			c0.6484375-1.296875,1.5429688-2.3398438,2.6845703-3.1318359c1.1416016-0.7910156,2.4511719-1.3876953,3.9306641-1.7900391
			C16.5371094,0.2011719,18.1572266,0,19.921875,0c1.7636719,0,3.3847656,0.2011719,4.8632813,0.6025391
			c1.4785156,0.4023438,2.7890625,0.9990234,3.9296875,1.7900391c1.1416016,0.7919922,2.0371094,1.8349609,2.6855469,3.1318359
			c0.6484375,1.2978516,0.9726563,2.7763672,0.9726563,4.4365234c0,9.0791016-2.4902344,14.6044922-7.4707031,16.5751953v1.2070313
			c4.3056641,0.5703125,7.859375,1.7314453,10.6611328,3.4824219S39.7910156,34.9931641,39.84375,37.2753906z"/>
	</g>
</g>
<g id="Слой_2">
</g>
</svg>
