<?xml version="1.0" encoding="utf-8"?>
<!-- Generator: Adobe Illustrator 16.0.0, SVG Export Plug-In . SVG Version: 6.00 Build 0)  -->
<!DOCTYPE svg PUBLIC "-//W3C//DTD SVG 1.1//EN" "http://www.w3.org/Graphics/SVG/1.1/DTD/svg11.dtd" [
	<!ENTITY ns_flows "http://ns.adobe.com/Flows/1.0/">
	<!ENTITY ns_extend "http://ns.adobe.com/Extensibility/1.0/">
	<!ENTITY ns_ai "http://ns.adobe.com/AdobeIllustrator/10.0/">
	<!ENTITY ns_graphs "http://ns.adobe.com/Graphs/1.0/">
	<!ENTITY ns_vars "http://ns.adobe.com/Variables/1.0/">
	<!ENTITY ns_imrep "http://ns.adobe.com/ImageReplacement/1.0/">
	<!ENTITY ns_sfw "http://ns.adobe.com/SaveForWeb/1.0/">
	<!ENTITY ns_custom "http://ns.adobe.com/GenericCustomNamespace/1.0/">
	<!ENTITY ns_adobe_xpath "http://ns.adobe.com/XPath/1.0/">
]>
<svg version="1.1" xmlns:x="&ns_extend;" xmlns:i="&ns_ai;" xmlns:graph="&ns_graphs;"
	 xmlns="http://www.w3.org/2000/svg" xmlns:xlink="http://www.w3.org/1999/xlink" xmlns:a="http://ns.adobe.com/AdobeSVGViewerExtensions/3.0/"
	 x="0px" y="0px" width="631.7373047px" height="200px" viewBox="0 0 631.7373047 200" enable-background="new 0 0 631.7373047 200"
	 xml:space="preserve">
<metadata>
	<sfw  xmlns="&ns_sfw;">
		<slices></slices>
		<sliceSourceBounds  height="16383" width="16383" x="-7711" y="-8472" bottomLeftOrigin="true"></sliceSourceBounds>
	</sfw>
</metadata>
<g id="Слой_1">
	<g>
		<g>
			<g>
				<path fill="#EB0029" d="M270.5800781,48.4082031v35.546875h-8.2275391V54.7558594h-8.7890625v9.4726563
					c0,7.1289063-1.0419922,12.1992188-3.125,15.2109375c-2.0834961,3.0107422-5.2084961,4.515625-9.375,4.515625h-2.0263672
					v-6.3476563h0.9521484c2.2294922-0.2597656,3.6699219-1.2519531,4.3212891-2.9785156
					c0.6508789-1.7246094,0.9765625-5.1914063,0.9765625-10.4003906V48.4082031H270.5800781z"/>
				<path fill="#EB0029" d="M291.0634766,57.5390625h8.2519531v26.4160156h-8.2519531V69.453125l-0.1464844-0.0234375
					L283.8125,83.9550781h-8.2763672V57.5390625H283.8125v14.453125l0.1464844,0.0253906L291.0634766,57.5390625z"/>
				<path fill="#EB0029" d="M327.1962891,83.9550781h-8.2763672v-7.9335938
					c-0.5048828,0.0810547-0.9604492,0.1425781-1.3671875,0.1826172c-0.4072266,0.0410156-0.7651367,0.0615234-1.0742188,0.0615234
					c-4.2480469,0-7.4951172-0.8222656-9.7412109-2.4667969c-2.2460938-1.6425781-3.3691406-4.2226563-3.3691406-7.7382813
					v-8.5214844h8.2275391v8.5214844c0,1.5625,0.3457031,2.5957031,1.0375977,3.0996094
					c0.6914063,0.5058594,1.9731445,0.7578125,3.8452148,0.7578125c0.390625,0,0.7890625-0.0166016,1.1962891-0.0488281
					c0.4067383-0.0332031,0.8217773-0.0898438,1.2451172-0.171875V57.5390625h8.2763672V83.9550781z"/>
				<path fill="#EB0029" d="M355.1259766,83.9550781h-8.2519531v-9.765625h-7.2021484v9.765625h-8.2275391V57.5390625h8.2275391
					v10.3027344h7.2021484V57.5390625h8.2519531V83.9550781z"/>
				<path fill="#EB0029" d="M368.4560547,64.7910156h4.1748047c3.7758789,0,6.7543945,0.8828125,8.9355469,2.6484375
					c2.1806641,1.765625,3.2714844,4.1132813,3.2714844,7.0429688c0,2.8320313-1.0947266,5.1191406-3.2836914,6.8613281
					c-2.1894531,1.7412109-5.1635742,2.6113281-8.9233398,2.6113281h-12.4511719V57.5390625h8.2763672V64.7910156z
					 M368.4560547,71.1386719v6.46875h4.1748047c1.3183594,0,2.3149414-0.296875,2.9907227-0.8925781
					c0.675293-0.5957031,1.0131836-1.359375,1.0131836-2.2929688c0-0.9980469-0.3339844-1.7949219-1.0009766-2.390625
					c-0.6674805-0.5957031-1.668457-0.8925781-3.0029297-0.8925781H368.4560547z M397.0205078,83.9550781h-8.2763672V57.5390625
					h8.2763672V83.9550781z"/>
				<path fill="#EB0029" d="M417.6259766,57.5390625h8.2519531v26.4160156h-8.2519531V69.453125l-0.1464844-0.0234375
					L410.375,83.9550781h-8.2763672V57.5390625H410.375v14.453125l0.1464844,0.0253906L417.6259766,57.5390625z
					 M422.8017578,45.7226563l0.0488281,0.1464844c0.0810547,2.1660156-0.6918945,3.9316406-2.3193359,5.2988281
					c-1.6279297,1.3671875-3.8085938,2.0507813-6.5429688,2.0507813c-2.7509766,0-4.9399414-0.6835938-6.5673828-2.0507813
					c-1.6279297-1.3671875-2.3925781-3.1328125-2.2949219-5.2988281l0.0488281-0.1464844h5.9326172
					c0,0.765625,0.2319336,1.3925781,0.6958008,1.8808594s1.1918945,0.7324219,2.1850586,0.7324219
					c0.9765625,0,1.6967773-0.2441406,2.1606445-0.7324219s0.6958008-1.1152344,0.6958008-1.8808594H422.8017578z"/>
				<path fill="#EB0029" d="M454.0029297,74.7265625h-2.4658203v9.2285156h-8.2519531V57.5390625h8.2519531v9.4980469h2.3681641
					l4.1992188-9.4980469h10.546875l-7.7148438,12.2070313h0.0244141l8.4716797,14.2089844h-11.1572266L454.0029297,74.7265625z"/>
				<path fill="#EB0029" d="M486.6201172,83.9316406c-0.2280273-0.4238281-0.4355469-0.8955078-0.6225586-1.4160156
					c-0.1875-0.5214844-0.3461914-1.0585938-0.4760742-1.6113281c-0.78125,1.0898438-1.7255859,1.9570313-2.8320313,2.5996094
					c-1.1069336,0.6425781-2.449707,0.9648438-4.0283203,0.9648438c-2.5068359,0-4.5454102-0.7246094-6.1157227-2.1738281
					c-1.5708008-1.4472656-2.355957-3.3769531-2.355957-5.7851563c0-2.6210938,0.9804688-4.6425781,2.9418945-6.0673828
					c1.9609375-1.4238281,4.9438477-2.1357422,8.9477539-2.1357422h3.0029297v-1.8808594
					c0-1.1230469-0.2646484-1.984375-0.793457-2.5878906c-0.5292969-0.6015625-1.347168-0.9023438-2.4536133-0.9023438
					c-0.9443359,0-1.6479492,0.2236328-2.1118164,0.6708984c-0.4638672,0.4482422-0.6958008,1.1435547-0.6958008,2.0869141
					l-7.9833984-0.0234375l-0.0488281-0.1464844c-0.1142578-2.4091797,0.8867188-4.4238281,3.0029297-6.0429688
					c2.1157227-1.6191406,4.9150391-2.4296875,8.3984375-2.4296875c3.2548828,0,5.8959961,0.8144531,7.9223633,2.4414063
					c2.0263672,1.6289063,3.0395508,3.9550781,3.0395508,6.9824219v9.9609375c0,1.4160156,0.1176758,2.7265625,0.3540039,3.9316406
					c0.2358398,1.2041016,0.5898438,2.4003906,1.0620117,3.5878906L486.6201172,83.9316406z M481.1757813,78.5839844
					c0.8134766,0,1.5625-0.1621094,2.2460938-0.4882813c0.6835938-0.3242188,1.2368164-0.7480469,1.6601563-1.2695313v-4.125
					h-2.9296875c-1.3022461,0-2.2504883,0.3164063-2.8442383,0.9511719
					c-0.5942383,0.6347656-0.8911133,1.4414063-0.8911133,2.4179688c0,0.7480469,0.2563477,1.3544922,0.769043,1.8183594
					S480.3618164,78.5839844,481.1757813,78.5839844z"/>
				<path fill="#EB0029" d="M510.6923828,59.0039063c3.8896484,0,6.9213867,1.15625,9.0942383,3.4667969
					c2.1728516,2.3125,3.2592773,5.3144531,3.2592773,9.0097656v0.5117188c0,3.7109375-1.1230469,6.71875-3.3691406,9.0214844
					s-5.3710938,3.4550781-9.375,3.4550781c-4.0527344,0-7.2021484-1.1523438-9.4482422-3.4550781
					s-3.3691406-5.3105469-3.3691406-9.0214844v-3.6367188c0.0322266-6.1035156,1.184082-10.7421875,3.4545898-13.9160156
					s5.2041016-5.1035156,8.8012695-5.7871094c1.3833008-0.2109375,2.4086914-0.5117188,3.0761719-0.9023438
					c0.6669922-0.390625,1.0009766-1.0175781,1.0009766-1.8808594h6.3964844l0.0732422,0.1464844
					c0.0649414,3.2890625-0.6835938,5.4775391-2.2460938,6.5683594c-1.5625,1.0898438-4.3212891,1.9365234-8.2763672,2.5390625
					c-1.6601563,0.2763672-2.9296875,0.9277344-3.8085938,1.953125s-1.4326172,2.4335938-1.6601563,4.2226563l0.0976563,0.1230469
					c0.8461914-0.7167969,1.8105469-1.2988281,2.8930664-1.7460938
					C508.3686523,59.2285156,509.5039063,59.0039063,510.6923828,59.0039063z M510.2529297,65.3515625
					c-1.6279297,0-2.7875977,0.5625-3.4790039,1.6855469c-0.6918945,1.1230469-1.0375977,2.6035156-1.0375977,4.4433594v0.5117188
					c0,1.9042969,0.3457031,3.4023438,1.0375977,4.4921875c0.6914063,1.0917969,1.8676758,1.6367188,3.527832,1.6367188
					c1.6113281,0,2.7666016-0.5449219,3.4667969-1.6367188c0.699707-1.0898438,1.0498047-2.5878906,1.0498047-4.4921875v-0.5117188
					c0-1.8398438-0.3500977-3.3203125-1.0498047-4.4433594C513.0683594,65.9140625,511.8964844,65.3515625,510.2529297,65.3515625z"
					/>
				<path fill="#EB0029" d="M541.7470703,57.5390625h8.2519531v26.4160156h-8.2519531V69.453125l-0.1464844-0.0234375
					l-7.1044922,14.5253906h-8.2763672V57.5390625h8.2763672v14.453125l0.1464844,0.0253906L541.7470703,57.5390625z"/>
				<path fill="#EB0029" d="M577.9287109,83.9550781h-8.2519531v-9.765625h-7.2021484v9.765625h-8.2275391V57.5390625h8.2275391
					v10.3027344h7.2021484V57.5390625h8.2519531V83.9550781z"/>
				<path fill="#EB0029" d="M594.5302734,84.46875c-3.8901367,0-6.9946289-1.2207031-9.3139648-3.6621094
					s-3.4790039-5.5019531-3.4790039-9.1796875v-0.9277344c0-4.0205078,1.0537109-7.3046875,3.1616211-9.8515625
					c2.1074219-2.546875,5.1225586-3.8125,9.0454102-3.796875c3.5805664,0,6.3881836,1.0742188,8.4228516,3.2226563
					c2.0341797,2.1484375,3.0517578,5.0625,3.0517578,8.7402344v4.3222656h-15.0878906l-0.0488281,0.1464844
					c0.1787109,1.3505859,0.7324219,2.4609375,1.6601563,3.3320313s2.1645508,1.3066406,3.7109375,1.3066406
					c1.5625,0,2.8115234-0.1230469,3.7475586-0.3671875c0.9355469-0.2441406,2.1196289-0.6660156,3.5522461-1.2695313
					l1.953125,5.0292969c-1.1557617,0.8476563-2.6489258,1.5507813-4.4799805,2.1123047S596.6298828,84.46875,594.5302734,84.46875z
					 M593.9443359,63.3984375c-1.1884766,0-2.0795898,0.4238281-2.6733398,1.2695313
					c-0.5942383,0.8476563-0.956543,1.9785156-1.0864258,3.3945313l0.0732422,0.1210938h7.1044922v-0.6347656
					c0-1.3339844-0.2768555-2.359375-0.8300781-3.0761719C595.9785156,63.7578125,595.1162109,63.3984375,593.9443359,63.3984375z"
					/>
				<path fill="#EB0029" d="M631.7373047,63.8867188h-8.3251953v20.0683594h-8.2763672V63.8867188h-8.203125v-6.3476563h24.8046875
					V63.8867188z"/>
				<path fill="#EB0029" d="M264.0371094,143.9550781h-8.2763672v-20.0683594h-7.2753906v20.0683594h-8.2275391v-26.4160156
					h23.7792969V143.9550781z"/>
				<path fill="#EB0029" d="M267.3818359,130.5039063c0-3.9716797,1.1230469-7.2070313,3.3691406-9.7050781
					s5.3789063-3.7480469,9.3994141-3.7480469c4.0361328,0,7.1777344,1.25,9.4238281,3.7480469
					s3.3691406,5.7333984,3.3691406,9.7050781v0.5117188c0,3.9882813-1.1230469,7.2265625-3.3691406,9.7167969
					s-5.3710938,3.7363281-9.375,3.7363281c-4.0527344,0-7.2021484-1.2460938-9.4482422-3.7363281
					s-3.3691406-5.7285156-3.3691406-9.7167969V130.5039063z M275.6337891,131.015625
					c0,2.2148438,0.3457031,3.9511719,1.0375977,5.2128906c0.6914063,1.2617188,1.8676758,1.8925781,3.527832,1.8925781
					c1.6113281,0,2.7666016-0.6347656,3.4667969-1.9042969c0.699707-1.2695313,1.0498047-3.0039063,1.0498047-5.2011719v-0.5117188
					c0-2.1484375-0.3500977-3.8701172-1.0498047-5.1640625c-0.7001953-1.2939453-1.8720703-1.9414063-3.515625-1.9414063
					c-1.6279297,0-2.7875977,0.6523438-3.4790039,1.953125c-0.6918945,1.3027344-1.0375977,3.0195313-1.0375977,5.1523438
					V131.015625z"/>
				<path fill="#EB0029" d="M307.8115234,134.7265625h-2.4658203v9.2285156H297.09375v-26.4160156h8.2519531v9.4980469h2.3681641
					l4.1992188-9.4980469h10.546875l-7.7148438,12.2070313h0.0244141l8.4716797,14.2089844h-11.1572266L307.8115234,134.7265625z"/>
				<path fill="#EB0029" d="M335.4726563,132.3105469l0.0244141,0.1953125h0.1464844l4.3701172-14.9667969h8.7890625
					l-10.5224609,30.3466797c-0.8139648,1.953125-1.8637695,3.5644531-3.1494141,4.8339844
					c-1.2861328,1.2695313-3.3286133,1.9042969-6.1279297,1.9042969c-0.7163086,0-1.3022461-0.0449219-1.7578125-0.1328125
					c-0.4560547-0.0898438-1.171875-0.2558594-2.1484375-0.5l1.0009766-5.8613281
					c0.2275391,0.0488281,0.3984375,0.0859375,0.5126953,0.1113281c0.1137695,0.0234375,0.2602539,0.0351563,0.4394531,0.0351563
					c1.3017578,0,2.2539063-0.1914063,2.8564453-0.5761719c0.6020508-0.3847656,1.0498047-0.9628906,1.3427734-1.7324219
					l0.6591797-1.7197266l-9.1308594-26.7089844h8.7646484L335.4726563,132.3105469z"/>
				<path fill="#EB0029" d="M374.5351563,143.9550781h-8.2763672v-20.0683594h-7.2753906v20.0683594h-8.2275391v-26.4160156
					h23.7792969V143.9550781z"/>
				<path fill="#EB0029" d="M394.1640625,143.9316406c-0.2280273-0.4238281-0.4355469-0.8955078-0.6225586-1.4160156
					c-0.1875-0.5214844-0.3461914-1.0585938-0.4760742-1.6113281c-0.78125,1.0898438-1.7255859,1.9570313-2.8320313,2.5996094
					c-1.1069336,0.6425781-2.449707,0.9648438-4.0283203,0.9648438c-2.5068359,0-4.5454102-0.7246094-6.1157227-2.1738281
					c-1.5708008-1.4472656-2.355957-3.3769531-2.355957-5.7851563c0-2.6210938,0.9804688-4.6425781,2.9418945-6.0673828
					c1.9609375-1.4238281,4.9438477-2.1357422,8.9477539-2.1357422h3.0029297v-1.8808594
					c0-1.1230469-0.2646484-1.984375-0.793457-2.5878906c-0.5292969-0.6015625-1.347168-0.9023438-2.4536133-0.9023438
					c-0.9443359,0-1.6479492,0.2236328-2.1118164,0.6708984c-0.4638672,0.4482422-0.6958008,1.1435547-0.6958008,2.0869141
					l-7.9833984-0.0234375l-0.0488281-0.1464844c-0.1142578-2.4091797,0.8867188-4.4238281,3.0029297-6.0429688
					c2.1157227-1.6191406,4.9150391-2.4296875,8.3984375-2.4296875c3.2548828,0,5.8959961,0.8144531,7.9223633,2.4414063
					c2.0263672,1.6289063,3.0395508,3.9550781,3.0395508,6.9824219v9.9609375c0,1.4160156,0.1176758,2.7265625,0.3540039,3.9316406
					c0.2358398,1.2041016,0.5898438,2.4003906,1.0620117,3.5878906L394.1640625,143.9316406z M388.7197266,138.5839844
					c0.8134766,0,1.5625-0.1621094,2.2460938-0.4882813c0.6835938-0.3242188,1.2368164-0.7480469,1.6601563-1.2695313v-4.125
					h-2.9296875c-1.3022461,0-2.2504883,0.3164063-2.8442383,0.9511719
					c-0.5942383,0.6347656-0.8911133,1.4414063-0.8911133,2.4179688c0,0.7480469,0.2563477,1.3544922,0.769043,1.8183594
					S387.9057617,138.5839844,388.7197266,138.5839844z"/>
				<path fill="#EB0029" d="M428.1972656,123.8867188h-8.3251953v20.0683594h-8.2763672v-20.0683594h-8.203125v-6.3476563
					h24.8046875V123.8867188z"/>
				<path fill="#EB0029" d="M442.9189453,144.46875c-3.8901367,0-6.9946289-1.2207031-9.3139648-3.6621094
					s-3.4790039-5.5019531-3.4790039-9.1796875v-0.9277344c0-4.0205078,1.0537109-7.3046875,3.1616211-9.8515625
					c2.1074219-2.546875,5.1225586-3.8125,9.0454102-3.796875c3.5805664,0,6.3881836,1.0742188,8.4228516,3.2226563
					c2.0341797,2.1484375,3.0517578,5.0625,3.0517578,8.7402344v4.3222656h-15.0878906l-0.0488281,0.1464844
					c0.1787109,1.3505859,0.7324219,2.4609375,1.6601563,3.3320313s2.1645508,1.3066406,3.7109375,1.3066406
					c1.5625,0,2.8115234-0.1230469,3.7475586-0.3671875c0.9355469-0.2441406,2.1196289-0.6660156,3.5522461-1.2695313
					l1.953125,5.0292969c-1.1557617,0.8476563-2.6489258,1.5507813-4.4799805,2.1123047
					S445.0185547,144.46875,442.9189453,144.46875z M442.3330078,123.3984375c-1.1884766,0-2.0795898,0.4238281-2.6733398,1.2695313
					c-0.5942383,0.8476563-0.956543,1.9785156-1.0864258,3.3945313l0.0732422,0.1210938h7.1044922v-0.6347656
					c0-1.3339844-0.2768555-2.359375-0.8300781-3.0761719C444.3671875,123.7578125,443.5048828,123.3984375,442.3330078,123.3984375
					z"/>
				<path fill="#EB0029" d="M480.8583984,117.5390625v26.4160156h-8.2275391v-20.0683594h-5.078125v4.9082031
					c0,5.2080078-0.8544922,9.0371094-2.5634766,11.4863281s-4.6142578,3.6738281-8.7158203,3.6738281h-1.0009766
					l-0.1953125-6.3476563h0.6591797c1.5786133,0,2.5673828-0.5742188,2.9663086-1.7226563
					c0.3984375-1.1484375,0.5981445-3.5078125,0.5981445-7.0761719v-11.2695313H480.8583984z"/>
				<path fill="#EB0029" d="M508.3242188,117.5390625v26.4160156h-8.203125v-8.7402344h-3.1738281l-4.6630859,8.7402344h-8.203125
					l5.4199219-10.1308594c-1.5791016-0.7324219-2.7954102-1.7255859-3.6499023-2.9785156
					c-0.8544922-1.2539063-1.2817383-2.6533203-1.2817383-4.1992188c0-2.6699219,1.078125-4.8544922,3.2348633-6.5556641
					c2.15625-1.7001953,5.0415039-2.5517578,8.6547852-2.5517578H508.3242188z M492.796875,126.9628906
					c0,0.7753906,0.3251953,1.4609375,0.9765625,2.0585938c0.6508789,0.5976563,1.5625,0.8964844,2.734375,0.8964844h3.6132813
					v-6.03125h-3.6621094c-1.1557617,0-2.0551758,0.3154297-2.6977539,0.9453125
					C493.1181641,125.4609375,492.796875,126.171875,492.796875,126.9628906z"/>
			</g>
			<path fill="#0071CE" d="M190.234375,165.2099609c0,13.6962891-10.8398438,24.7919922-24.2119141,24.7919922H34.7597656
				c-13.3730469,0-24.2128906-11.0957031-24.2128906-24.7919922V35.5957031
				c0-13.6962891,10.8398438-24.7929688,24.2128906-24.7929688h131.2626953
				c13.3720703,0,24.2119141,11.0966797,24.2119141,24.7929688V165.2099609z"/>
			<path fill="#FFFFFF" d="M170.703125,0H29.296875C13.1166992,0,0,13.4394531,0,30.0048828v140.0029297
				C0,186.5722656,13.1166992,200,29.296875,200h141.40625C186.8837891,200,200,186.5722656,200,170.0078125V30.0048828
				C200,13.4394531,186.8837891,0,170.703125,0z M189.84375,164.8193359c0,13.6845703-10.8398438,24.7802734-24.2119141,24.7802734
				H34.3691406c-13.3730469,0-24.2128906-11.0957031-24.2128906-24.7802734V35.1933594
				c0-13.6845703,10.8398438-24.7929688,24.2128906-24.7929688h131.2626953
				c13.3720703,0,24.2119141,11.1083984,24.2119141,24.7929688V164.8193359z"/>
			<path fill="#FFFFFF" d="M79.9257813,103.9550781V71.375c0-11.0966797,8.984375-20.0810547,20.0742188-20.0810547
				c11.090332,0,20.0751953,8.984375,20.0751953,20.0810547v32.5800781h14.1904297V71.4472656
				c0-18.9199219-15.3383789-34.2646484-34.265625-34.2646484c-18.9267578,0-34.2587891,15.3447266-34.2587891,34.2646484
				v32.5078125H79.9257813z"/>
			<path fill="#FFFFFF" d="M51.7216797,160.4980469c0,3.4423828,2.8012695,6.25,6.25,6.25h84.0576172
				c3.4482422,0,6.25-2.8076172,6.25-6.25v-58.59375c0-3.4423828-2.8017578-6.25-6.25-6.25H57.9716797
				c-3.4487305,0-6.25,2.8076172-6.25,6.25V160.4980469z"/>
			<path fill="#0071CE" d="M108.203125,147.0097656c0,4.5283203-3.6679688,8.203125-8.203125,8.203125l0,0
				c-4.534668,0-8.203125-3.6748047-8.203125-8.203125v-15.2226563c0-4.5292969,3.668457-8.203125,8.203125-8.203125l0,0
				c4.5351563,0,8.203125,3.6738281,8.203125,8.203125V147.0097656z"/>
		</g>
		<g>
			<g opacity="0.3"  a:adobe-blending-mode="multiply">
				<path fill="#1D1D1B"  a:adobe-blending-mode="normal" d="M120.074707,71.1328125
					c0-11.0966797-8.9848633-20.0810547-20.0751953-20.0810547c-11.0898438,0-20.0742188,8.984375-20.0742188,20.0810547v1.5625
					c0-11.0966797,8.984375-20.0810547,20.0742188-20.0810547c11.090332,0,20.0751953,8.984375,20.0751953,20.0810547V71.1328125z"
					/>
			</g>
			<path opacity="0.3" fill="#1D1D1B"  a:adobe-blending-mode="multiply" d="M142.0288086,166.5058594H57.9711914
				c-3.4487305,0-6.25-2.8076172-6.25-6.25v1.5625c0,3.4423828,2.8012695,6.25,6.25,6.25h84.0576172
				c3.4482422,0,6.25-2.8076172,6.25-6.25v-1.5625C148.2788086,163.6982422,145.4770508,166.5058594,142.0288086,166.5058594z"/>
			<path opacity="0.3" fill="#1D1D1B"  a:adobe-blending-mode="multiply" d="M99.9995117,153.4082031
				c-4.534668,0-8.203125-3.6748047-8.203125-8.203125v1.5625c0,4.5283203,3.668457,8.203125,8.203125,8.203125
				c4.5351563,0,8.203125-3.6748047,8.203125-8.203125v-1.5625
				C108.2026367,149.7333984,104.534668,153.4082031,99.9995117,153.4082031z"/>
			<path opacity="0.5" fill="#FFFFFF"  a:adobe-blending-mode="softLight" d="M142.0288086,95.4121094H57.9711914
				c-3.4487305,0-6.25,2.8076172-6.25,6.25v1.5625c0-3.4423828,2.8012695-6.25,6.25-6.25h84.0576172
				c3.4482422,0,6.25,2.8076172,6.25,6.25v-1.5625C148.2788086,98.2197266,145.4770508,95.4121094,142.0288086,95.4121094z"/>
		</g>
	</g>
</g>
<g id="Слой_2">
</g>
<g id="Слой_3">
</g>
<g id="Слой_4">
</g>
</svg>
