<?xml version="1.0" encoding="utf-8"?>
<!-- Generator: Adobe Illustrator 16.0.0, SVG Export Plug-In . SVG Version: 6.00 Build 0)  -->
<!DOCTYPE svg PUBLIC "-//W3C//DTD SVG 1.1//EN" "http://www.w3.org/Graphics/SVG/1.1/DTD/svg11.dtd" [
	<!ENTITY ns_flows "http://ns.adobe.com/Flows/1.0/">
	<!ENTITY ns_extend "http://ns.adobe.com/Extensibility/1.0/">
	<!ENTITY ns_ai "http://ns.adobe.com/AdobeIllustrator/10.0/">
	<!ENTITY ns_graphs "http://ns.adobe.com/Graphs/1.0/">
	<!ENTITY ns_vars "http://ns.adobe.com/Variables/1.0/">
	<!ENTITY ns_imrep "http://ns.adobe.com/ImageReplacement/1.0/">
	<!ENTITY ns_sfw "http://ns.adobe.com/SaveForWeb/1.0/">
	<!ENTITY ns_custom "http://ns.adobe.com/GenericCustomNamespace/1.0/">
	<!ENTITY ns_adobe_xpath "http://ns.adobe.com/XPath/1.0/">
]>
<svg version="1.1" xmlns:x="&ns_extend;" xmlns:i="&ns_ai;" xmlns:graph="&ns_graphs;"
	 xmlns="http://www.w3.org/2000/svg" xmlns:xlink="http://www.w3.org/1999/xlink" xmlns:a="http://ns.adobe.com/AdobeSVGViewerExtensions/3.0/"
	 x="0px" y="0px" width="140px" height="140px" viewBox="0 0 140 140" enable-background="new 0 0 140 140" xml:space="preserve">
<metadata>
	<sfw  xmlns="&ns_sfw;">
		<slices></slices>
		<sliceSourceBounds  height="16383" width="16383" x="-7711" y="-8472" bottomLeftOrigin="true"></sliceSourceBounds>
	</sfw>
</metadata>
<g id="Слой_1">
	<g>
		<g opacity="0.5">
			<path fill="#0071CE" d="M140,70c0,38.5-31.5,70-70,70S0,108.5,0,70S31.5,0,70,0S140,31.5,140,70z"/>
		</g>
		<g>
			<path fill="#FFFFFF" d="M103.1738281,50.0205078c-0.7382813,0.7382813-1.6298828,1.1074219-2.6728516,1.1074219
				c-1.0439453,0-1.9345703-0.3691406-2.6728516-1.1074219s-1.1074219-1.6289063-1.1074219-2.6728516
				c0,1.0439453-0.3691406,1.9345703-1.1074219,2.6728516s-1.6298828,1.1074219-2.6728516,1.1074219
				c-1.0439453,0-1.9345703-0.3691406-2.6728516-1.1074219s-1.1074219-1.6289063-1.1074219-2.6728516
				c0,1.0439453-0.3691406,1.9345703-1.1083984,2.6728516c-0.7382813,0.7382813-1.6289063,1.1074219-2.6728516,1.1074219
				c-1.0429688,0-1.9345703-0.3691406-2.6728516-1.1074219s-1.1074219-1.6289063-1.1074219-2.6728516
				c0,1.0439453-0.3691406,1.9345703-1.1074219,2.6728516s-1.6289063,1.1074219-2.6728516,1.1074219
				s-1.9345703-0.3691406-2.6728516-1.1074219s-1.1074219-1.6289063-1.1074219-2.6728516
				c0-0.6689453,0.3144531-1.6142578,0.9453125-2.8349609l2.7167969-7.0585938
				c0.1376953-0.4140625,0.3935547-0.7578125,0.7675781-1.0341797c0.3740234-0.2753906,0.7480469-0.4130859,1.1230469-0.4130859
				h19.2558594c0.3935547,0,0.7724609,0.1376953,1.1376953,0.4130859c0.3642578,0.2763672,0.6152344,0.6201172,0.7529297,1.0341797
				l2.5986328,7.0585938c0.0390625,0.0986328,0.1328125,0.3105469,0.28125,0.6347656
				c0.1474609,0.3251953,0.2607422,0.5810547,0.3388672,0.7685547c0.0791016,0.1865234,0.1523438,0.4179688,0.2216797,0.6933594
				c0.0693359,0.2763672,0.1035156,0.5224609,0.1035156,0.7382813
				C104.28125,48.3916016,103.9121094,49.2822266,103.1738281,50.0205078z M75.9287109,62.4697266v-7.5605469
				c0-0.5322266,0.1865234-0.9794922,0.5605469-1.34375s0.8173828-0.546875,1.3291016-0.546875
				s0.9550781,0.1826172,1.3291016,0.546875s0.5615234,0.8115234,0.5615234,1.34375v7.5605469h5.6699219v-7.5605469
				c0-0.5322266,0.1826172-0.9794922,0.546875-1.34375s0.8125-0.546875,1.34375-0.546875h3.7802734
				c0.53125,0,0.9794922,0.1826172,1.34375,0.546875s0.546875,0.8115234,0.546875,1.34375v7.5605469h5.6699219v-7.5605469
				c0-0.5322266,0.1875-0.9794922,0.5615234-1.34375s0.8164063-0.546875,1.3291016-0.546875
				c0.5117188,0,0.9550781,0.1826172,1.3291016,0.546875s0.5615234,0.8115234,0.5615234,1.34375v7.5605469
				c0.5117188,0,0.9541016,0.1826172,1.328125,0.5458984c0.3740234,0.3652344,0.5615234,0.8076172,0.5615234,1.3291016
				c0,0.5224609-0.1875,0.9707031-0.5615234,1.34375c-0.3740234,0.375-0.8164063,0.5615234-1.328125,0.5615234H75.9287109
				c-0.5126953,0-0.9560547-0.1865234-1.3291016-0.5615234c-0.375-0.3730469-0.5615234-0.8212891-0.5615234-1.34375
				c0-0.5214844,0.1865234-0.9638672,0.5615234-1.3291016C74.9726563,62.6523438,75.4160156,62.4697266,75.9287109,62.4697266z"/>
		</g>
		<g>
			<path fill="#FFFFFF" d="M65.0839844,50.0205078c-0.7382813,0.7382813-1.6298828,1.1074219-2.6728516,1.1074219
				c-1.0439453,0-1.9345703-0.3691406-2.6728516-1.1074219s-1.1074219-1.6289063-1.1074219-2.6728516
				c0,1.0439453-0.3691406,1.9345703-1.1074219,2.6728516s-1.6298828,1.1074219-2.6728516,1.1074219
				c-1.0439453,0-1.9345703-0.3691406-2.6728516-1.1074219s-1.1074219-1.6289063-1.1074219-2.6728516
				c0,1.0439453-0.3691406,1.9345703-1.1083984,2.6728516c-0.7382813,0.7382813-1.6289063,1.1074219-2.6728516,1.1074219
				c-1.0429688,0-1.9345703-0.3691406-2.6728516-1.1074219s-1.1074219-1.6289063-1.1074219-2.6728516
				c0,1.0439453-0.3691406,1.9345703-1.1074219,2.6728516s-1.6289063,1.1074219-2.6728516,1.1074219
				s-1.9345703-0.3691406-2.6728516-1.1074219s-1.1074219-1.6289063-1.1074219-2.6728516
				c0-0.6689453,0.3144531-1.6142578,0.9453125-2.8349609l2.7167969-7.0585938
				c0.1376953-0.4140625,0.3935547-0.7578125,0.7675781-1.0341797c0.3740234-0.2753906,0.7480469-0.4130859,1.1230469-0.4130859
				h19.2558594c0.3935547,0,0.7724609,0.1376953,1.1376953,0.4130859c0.3642578,0.2763672,0.6152344,0.6201172,0.7529297,1.0341797
				l2.5986328,7.0585938c0.0390625,0.0986328,0.1328125,0.3105469,0.28125,0.6347656
				c0.1474609,0.3251953,0.2607422,0.5810547,0.3388672,0.7685547c0.0791016,0.1865234,0.1523438,0.4179688,0.2216797,0.6933594
				c0.0693359,0.2763672,0.1035156,0.5224609,0.1035156,0.7382813
				C66.1914063,48.3916016,65.8222656,49.2822266,65.0839844,50.0205078z M37.8388672,62.4697266v-7.5605469
				c0-0.5322266,0.1865234-0.9794922,0.5605469-1.34375s0.8173828-0.546875,1.3291016-0.546875
				s0.9550781,0.1826172,1.3291016,0.546875s0.5615234,0.8115234,0.5615234,1.34375v7.5605469h5.6699219v-7.5605469
				c0-0.5322266,0.1826172-0.9794922,0.546875-1.34375s0.8125-0.546875,1.34375-0.546875h3.7802734
				c0.53125,0,0.9794922,0.1826172,1.34375,0.546875s0.546875,0.8115234,0.546875,1.34375v7.5605469h5.6699219v-7.5605469
				c0-0.5322266,0.1875-0.9794922,0.5615234-1.34375s0.8164063-0.546875,1.3291016-0.546875
				c0.5117188,0,0.9550781,0.1826172,1.3291016,0.546875s0.5615234,0.8115234,0.5615234,1.34375v7.5605469
				c0.5117188,0,0.9541016,0.1826172,1.328125,0.5458984c0.3740234,0.3652344,0.5615234,0.8076172,0.5615234,1.3291016
				c0,0.5224609-0.1875,0.9707031-0.5615234,1.34375c-0.3740234,0.375-0.8164063,0.5615234-1.328125,0.5615234H37.8388672
				c-0.5126953,0-0.9560547-0.1865234-1.3291016-0.5615234c-0.375-0.3730469-0.5615234-0.8212891-0.5615234-1.34375
				c0-0.5214844,0.1865234-0.9638672,0.5615234-1.3291016C36.8828125,62.6523438,37.3261719,62.4697266,37.8388672,62.4697266z"/>
		</g>
		<g>
			<path fill="#FFFFFF" d="M103.1738281,88.1103516c-0.7382813,0.7382813-1.6298828,1.1074219-2.6728516,1.1074219
				c-1.0439453,0-1.9345703-0.3691406-2.6728516-1.1074219s-1.1074219-1.6289063-1.1074219-2.6728516
				c0,1.0439453-0.3691406,1.9345703-1.1074219,2.6728516s-1.6298828,1.1074219-2.6728516,1.1074219
				c-1.0439453,0-1.9345703-0.3691406-2.6728516-1.1074219s-1.1074219-1.6289063-1.1074219-2.6728516
				c0,1.0439453-0.3691406,1.9345703-1.1083984,2.6728516c-0.7382813,0.7382813-1.6289063,1.1074219-2.6728516,1.1074219
				c-1.0429688,0-1.9345703-0.3691406-2.6728516-1.1074219s-1.1074219-1.6289063-1.1074219-2.6728516
				c0,1.0439453-0.3691406,1.9345703-1.1074219,2.6728516s-1.6289063,1.1074219-2.6728516,1.1074219
				s-1.9345703-0.3691406-2.6728516-1.1074219s-1.1074219-1.6289063-1.1074219-2.6728516
				c0-0.6689453,0.3144531-1.6142578,0.9453125-2.8349609l2.7167969-7.0585938
				c0.1376953-0.4140625,0.3935547-0.7578125,0.7675781-1.0341797c0.3740234-0.2753906,0.7480469-0.4130859,1.1230469-0.4130859
				h19.2558594c0.3935547,0,0.7724609,0.1376953,1.1376953,0.4130859c0.3642578,0.2763672,0.6152344,0.6201172,0.7529297,1.0341797
				l2.5986328,7.0585938c0.0390625,0.0986328,0.1328125,0.3105469,0.28125,0.6347656
				c0.1474609,0.3251953,0.2607422,0.5810547,0.3388672,0.7685547c0.0791016,0.1865234,0.1523438,0.4179688,0.2216797,0.6933594
				c0.0693359,0.2763672,0.1035156,0.5224609,0.1035156,0.7382813
				C104.28125,86.4814453,103.9121094,87.3720703,103.1738281,88.1103516z M75.9287109,100.5595703v-7.5605469
				c0-0.5322266,0.1865234-0.9794922,0.5605469-1.34375s0.8173828-0.546875,1.3291016-0.546875
				s0.9550781,0.1826172,1.3291016,0.546875s0.5615234,0.8115234,0.5615234,1.34375v7.5605469h5.6699219v-7.5605469
				c0-0.5322266,0.1826172-0.9794922,0.546875-1.34375s0.8125-0.546875,1.34375-0.546875h3.7802734
				c0.53125,0,0.9794922,0.1826172,1.34375,0.546875s0.546875,0.8115234,0.546875,1.34375v7.5605469h5.6699219v-7.5605469
				c0-0.5322266,0.1875-0.9794922,0.5615234-1.34375s0.8164063-0.546875,1.3291016-0.546875
				c0.5117188,0,0.9550781,0.1826172,1.3291016,0.546875s0.5615234,0.8115234,0.5615234,1.34375v7.5605469
				c0.5117188,0,0.9541016,0.1826172,1.328125,0.5458984c0.3740234,0.3652344,0.5615234,0.8076172,0.5615234,1.3291016
				c0,0.5224609-0.1875,0.9707031-0.5615234,1.34375c-0.3740234,0.375-0.8164063,0.5615234-1.328125,0.5615234H75.9287109
				c-0.5126953,0-0.9560547-0.1865234-1.3291016-0.5615234c-0.375-0.3730469-0.5615234-0.8212891-0.5615234-1.34375
				c0-0.5214844,0.1865234-0.9638672,0.5615234-1.3291016C74.9726563,100.7421875,75.4160156,100.5595703,75.9287109,100.5595703z"
				/>
		</g>
		<g>
			<path fill="#FFFFFF" d="M65.0839844,88.1103516c-0.7382813,0.7382813-1.6298828,1.1074219-2.6728516,1.1074219
				c-1.0439453,0-1.9345703-0.3691406-2.6728516-1.1074219s-1.1074219-1.6289063-1.1074219-2.6728516
				c0,1.0439453-0.3691406,1.9345703-1.1074219,2.6728516s-1.6298828,1.1074219-2.6728516,1.1074219
				c-1.0439453,0-1.9345703-0.3691406-2.6728516-1.1074219s-1.1074219-1.6289063-1.1074219-2.6728516
				c0,1.0439453-0.3691406,1.9345703-1.1083984,2.6728516c-0.7382813,0.7382813-1.6289063,1.1074219-2.6728516,1.1074219
				c-1.0429688,0-1.9345703-0.3691406-2.6728516-1.1074219s-1.1074219-1.6289063-1.1074219-2.6728516
				c0,1.0439453-0.3691406,1.9345703-1.1074219,2.6728516s-1.6289063,1.1074219-2.6728516,1.1074219
				s-1.9345703-0.3691406-2.6728516-1.1074219s-1.1074219-1.6289063-1.1074219-2.6728516
				c0-0.6689453,0.3144531-1.6142578,0.9453125-2.8349609l2.7167969-7.0585938
				c0.1376953-0.4140625,0.3935547-0.7578125,0.7675781-1.0341797c0.3740234-0.2753906,0.7480469-0.4130859,1.1230469-0.4130859
				h19.2558594c0.3935547,0,0.7724609,0.1376953,1.1376953,0.4130859c0.3642578,0.2763672,0.6152344,0.6201172,0.7529297,1.0341797
				l2.5986328,7.0585938c0.0390625,0.0986328,0.1328125,0.3105469,0.28125,0.6347656
				c0.1474609,0.3251953,0.2607422,0.5810547,0.3388672,0.7685547c0.0791016,0.1865234,0.1523438,0.4179688,0.2216797,0.6933594
				c0.0693359,0.2763672,0.1035156,0.5224609,0.1035156,0.7382813
				C66.1914063,86.4814453,65.8222656,87.3720703,65.0839844,88.1103516z M37.8388672,100.5595703v-7.5605469
				c0-0.5322266,0.1865234-0.9794922,0.5605469-1.34375s0.8173828-0.546875,1.3291016-0.546875
				s0.9550781,0.1826172,1.3291016,0.546875s0.5615234,0.8115234,0.5615234,1.34375v7.5605469h5.6699219v-7.5605469
				c0-0.5322266,0.1826172-0.9794922,0.546875-1.34375s0.8125-0.546875,1.34375-0.546875h3.7802734
				c0.53125,0,0.9794922,0.1826172,1.34375,0.546875s0.546875,0.8115234,0.546875,1.34375v7.5605469h5.6699219v-7.5605469
				c0-0.5322266,0.1875-0.9794922,0.5615234-1.34375s0.8164063-0.546875,1.3291016-0.546875
				c0.5117188,0,0.9550781,0.1826172,1.3291016,0.546875s0.5615234,0.8115234,0.5615234,1.34375v7.5605469
				c0.5117188,0,0.9541016,0.1826172,1.328125,0.5458984c0.3740234,0.3652344,0.5615234,0.8076172,0.5615234,1.3291016
				c0,0.5224609-0.1875,0.9707031-0.5615234,1.34375c-0.3740234,0.375-0.8164063,0.5615234-1.328125,0.5615234H37.8388672
				c-0.5126953,0-0.9560547-0.1865234-1.3291016-0.5615234c-0.375-0.3730469-0.5615234-0.8212891-0.5615234-1.34375
				c0-0.5214844,0.1865234-0.9638672,0.5615234-1.3291016C36.8828125,100.7421875,37.3261719,100.5595703,37.8388672,100.5595703z"
				/>
		</g>
	</g>
</g>
<g id="Слой_2">
</g>
</svg>
