<?xml version="1.0" encoding="utf-8"?>
<!-- Generator: Adobe Illustrator 16.0.0, SVG Export Plug-In . SVG Version: 6.00 Build 0)  -->
<!DOCTYPE svg PUBLIC "-//W3C//DTD SVG 1.1//EN" "http://www.w3.org/Graphics/SVG/1.1/DTD/svg11.dtd" [
	<!ENTITY ns_extend "http://ns.adobe.com/Extensibility/1.0/">
	<!ENTITY ns_ai "http://ns.adobe.com/AdobeIllustrator/10.0/">
	<!ENTITY ns_graphs "http://ns.adobe.com/Graphs/1.0/">
	<!ENTITY ns_vars "http://ns.adobe.com/Variables/1.0/">
	<!ENTITY ns_imrep "http://ns.adobe.com/ImageReplacement/1.0/">
	<!ENTITY ns_sfw "http://ns.adobe.com/SaveForWeb/1.0/">
	<!ENTITY ns_custom "http://ns.adobe.com/GenericCustomNamespace/1.0/">
	<!ENTITY ns_adobe_xpath "http://ns.adobe.com/XPath/1.0/">
]>
<svg version="1.1" xmlns:x="&ns_extend;" xmlns:i="&ns_ai;" xmlns:graph="&ns_graphs;"
	 xmlns="http://www.w3.org/2000/svg" xmlns:xlink="http://www.w3.org/1999/xlink" x="0px" y="0px" width="37.1044922px"
	 height="40.7495117px" viewBox="0 0 37.1044922 40.7495117" enable-background="new 0 0 37.1044922 40.7495117"
	 xml:space="preserve">
<metadata>
	<sfw  xmlns="&ns_sfw;">
		<slices></slices>
		<sliceSourceBounds  width="16383" height="16383" y="-8472" x="-7711" bottomLeftOrigin="true"></sliceSourceBounds>
	</sfw>
</metadata>
<g id="Слой_1">
	<g>
		<defs>
			<rect id="SVGID_7_" x="-2002" y="352.3911133" width="2560" height="1260"/>
		</defs>
		<clipPath id="SVGID_2_">
			<use xlink:href="#SVGID_7_"  overflow="visible"/>
		</clipPath>
		<g clip-path="url(#SVGID_2_)">
			<g>
				<g>
					<defs>
						<rect id="SVGID_9_" x="-2002" y="-231.6088867" width="2767" height="1844"/>
					</defs>
					<clipPath id="SVGID_4_">
						<use xlink:href="#SVGID_9_"  overflow="visible"/>
					</clipPath>
					<g clip-path="url(#SVGID_4_)">
						
							<image overflow="visible" width="7500" height="5000" xlink:href="2D1A3C08.jpg"  transform="matrix(0.406176 0 0 0.406176 -1982.5424805 -418.4863281)">
						</image>
					</g>
				</g>
			</g>
		</g>
	</g>
	<g>
		<g>
			<path fill="#FFFFFF" d="M25.4335938,16.1064453c0.7773438-0.777832,0.6337891-1.8632813-0.3193359-2.4121094
				l-4.2988281-2.4765625c-0.953125-0.5488281-2.5136719-1.4467773-3.4677734-1.9946289l-15.5-8.9091797
				C0.8935547-0.2338867,0.75-0.0463867,1.5273438,0.7314453l18.2265625,18.2265625
				c0.7773438,0.777832,2.0507813,0.777832,2.828125,0L25.4335938,16.1064453z"/>
		</g>
		<g>
			<path fill="#FFFFFF" d="M1.4140625,3.4458008C0.6367188,2.6679688,0,2.9316406,0,4.0317383v15.1547852
				c0,1.1000977,0,2.8999023,0,4v16.3540039c0,1.1000977,0.6367188,1.3637695,1.4140625,0.5859375l16.9257813-16.9262695
				c0.7773438-0.777832,0.7773438-2.050293,0-2.828125L1.4140625,3.4458008z"/>
		</g>
		<g>
			<path fill="#FFFFFF" d="M26.4628906,25.6669922c0.7773438,0.777832,2.1943359,0.965332,3.1474609,0.4165039l6.7792969-3.8994141
				c0.953125-0.5488281,0.9541016-1.4467773,0-1.9956055l-6.0136719-3.4643555
				c-0.9541016-0.5488281-2.3701172-0.3618164-3.1474609,0.4160156l-3.2324219,3.2319336
				c-0.7773438,0.777832-0.7773438,2.050293,0,2.828125L26.4628906,25.6669922z"/>
		</g>
		<g>
			<path fill="#FFFFFF" d="M4.3496094,40.0185547c-0.7773438,0.777832-0.6337891,0.965332,0.3193359,0.4165039l12.6582031-7.2836914
				c0.953125-0.5488281,2.5136719-1.4462891,3.4667969-1.9951172l3.5546875-2.0444336
				c0.953125-0.5488281,1.0966797-1.6337891,0.3193359-2.4116211l-2.0859375-2.0859375
				c-0.7773438-0.777832-2.0507813-0.777832-2.828125,0L4.3496094,40.0185547z"/>
		</g>
	</g>
</g>
<g id="Слой_2">
</g>
</svg>
