<?xml version="1.0" encoding="utf-8"?>
<!-- Generator: Adobe Illustrator 16.0.0, SVG Export Plug-In . SVG Version: 6.00 Build 0)  -->
<!DOCTYPE svg PUBLIC "-//W3C//DTD SVG 1.1//EN" "http://www.w3.org/Graphics/SVG/1.1/DTD/svg11.dtd" [
	<!ENTITY ns_flows "http://ns.adobe.com/Flows/1.0/">
	<!ENTITY ns_extend "http://ns.adobe.com/Extensibility/1.0/">
	<!ENTITY ns_ai "http://ns.adobe.com/AdobeIllustrator/10.0/">
	<!ENTITY ns_graphs "http://ns.adobe.com/Graphs/1.0/">
	<!ENTITY ns_vars "http://ns.adobe.com/Variables/1.0/">
	<!ENTITY ns_imrep "http://ns.adobe.com/ImageReplacement/1.0/">
	<!ENTITY ns_sfw "http://ns.adobe.com/SaveForWeb/1.0/">
	<!ENTITY ns_custom "http://ns.adobe.com/GenericCustomNamespace/1.0/">
	<!ENTITY ns_adobe_xpath "http://ns.adobe.com/XPath/1.0/">
]>
<svg version="1.1" xmlns:x="&ns_extend;" xmlns:i="&ns_ai;" xmlns:graph="&ns_graphs;"
	 xmlns="http://www.w3.org/2000/svg" xmlns:xlink="http://www.w3.org/1999/xlink" xmlns:a="http://ns.adobe.com/AdobeSVGViewerExtensions/3.0/"
	 x="0px" y="0px" width="140px" height="140px" viewBox="0 0 140 140" enable-background="new 0 0 140 140" xml:space="preserve">
<metadata>
	<sfw  xmlns="&ns_sfw;">
		<slices></slices>
		<sliceSourceBounds  height="16383" width="16383" x="-7711" y="-8472" bottomLeftOrigin="true"></sliceSourceBounds>
	</sfw>
</metadata>
<g id="Слой_1">
	<g>
		<g opacity="0.5">
			<path fill="#EB0029" d="M140,70c0,38.5-31.5,70-70,70S0,108.5,0,70S31.5,0,70,0S140,31.5,140,70z"/>
		</g>
		<g>
			<path fill="#FFFFFF" d="M61.8935547,75.8486328H50.7128906v11.1806641c0,0.6289063-0.2158203,1.1591797-0.6464844,1.5898438
				c-0.4316406,0.4316406-0.9609375,0.6464844-1.5898438,0.6464844h-4.4726563
				c-0.6289063,0-1.1582031-0.2207031-1.5888672-0.6640625c-0.4316406-0.4423828-0.6464844-0.9658203-0.6464844-1.5722656
				V75.8486328H30.5878906c-0.6289063,0-1.1591797-0.2207031-1.5898438-0.6630859
				c-0.4316406-0.4423828-0.6464844-0.9667969-0.6464844-1.5722656V69.140625c0-0.6289063,0.2148438-1.1582031,0.6464844-1.5898438
				c0.4306641-0.4306641,0.9609375-0.6464844,1.5898438-0.6464844h11.1806641V55.7236328
				c0-0.6289063,0.2148438-1.1582031,0.6464844-1.5898438c0.4306641-0.4306641,0.9599609-0.6455078,1.5888672-0.6455078h4.4726563
				c0.6289063,0,1.1582031,0.2148438,1.5898438,0.6455078c0.4306641,0.4316406,0.6464844,0.9609375,0.6464844,1.5898438v11.1806641
				h11.1806641c0.6289063,0,1.1582031,0.2158203,1.5898438,0.6464844c0.4306641,0.4316406,0.6455078,0.9609375,0.6455078,1.5898438
				v4.4726563c0,0.6054688-0.2148438,1.1298828-0.6455078,1.5722656
				C63.0517578,75.6279297,62.5224609,75.8486328,61.8935547,75.8486328z"/>
			<path fill="#FFFFFF" d="M107.5419922,70.0664063c-0.8740234,0.8740234-1.9277344,1.3105469-3.1621094,1.3105469
				c-1.2353516,0-2.2890625-0.4365234-3.1621094-1.3105469c-0.8730469-0.8730469-1.3105469-1.9267578-1.3105469-3.1621094
				c0,1.2353516-0.4365234,2.2890625-1.3095703,3.1621094c-0.8740234,0.8740234-1.9277344,1.3105469-3.1621094,1.3105469
				c-1.2353516,0-2.2890625-0.4365234-3.1621094-1.3105469c-0.8740234-0.8730469-1.3105469-1.9267578-1.3105469-3.1621094
				c0,1.2353516-0.4365234,2.2890625-1.3095703,3.1621094c-0.8740234,0.8740234-1.9277344,1.3105469-3.1621094,1.3105469
				c-1.2353516,0-2.2890625-0.4365234-3.1621094-1.3105469c-0.8740234-0.8730469-1.3105469-1.9267578-1.3105469-3.1621094
				c0,1.2353516-0.4365234,2.2890625-1.3105469,3.1621094c-0.8730469,0.8740234-1.9267578,1.3105469-3.1611328,1.3105469
				c-1.2353516,0-2.2890625-0.4365234-3.1621094-1.3105469c-0.8740234-0.8730469-1.3105469-1.9267578-1.3105469-3.1621094
				c0-0.7910156,0.3720703-1.9091797,1.1181641-3.3535156l3.2138672-8.3505859
				c0.1630859-0.4892578,0.4658203-0.8964844,0.9091797-1.2236328c0.4414063-0.3251953,0.8847656-0.4882813,1.3271484-0.4882813
				h22.7802734c0.4658203,0,0.9140625,0.1630859,1.3457031,0.4882813c0.4306641,0.3271484,0.7275391,0.734375,0.890625,1.2236328
				l3.0751953,8.3505859c0.0458984,0.1162109,0.1572266,0.3662109,0.3310547,0.7509766
				c0.1748047,0.3837891,0.3085938,0.6875,0.4023438,0.9082031c0.0927734,0.2216797,0.1796875,0.4951172,0.2617188,0.8212891
				s0.1220703,0.6171875,0.1220703,0.8730469C108.8515625,68.1396484,108.4150391,69.1933594,107.5419922,70.0664063z
				 M75.3105469,84.7929688v-8.9443359c0-0.6289063,0.2207031-1.1582031,0.6640625-1.5898438
				c0.4414063-0.4306641,0.9658203-0.6455078,1.5722656-0.6455078c0.6054688,0,1.1289063,0.2148438,1.5722656,0.6455078
				c0.4414063,0.4316406,0.6630859,0.9609375,0.6630859,1.5898438v8.9443359h6.7089844v-8.9443359
				c0-0.6289063,0.2148438-1.1582031,0.6464844-1.5898438c0.4306641-0.4306641,0.9599609-0.6455078,1.5888672-0.6455078h4.4726563
				c0.6289063,0,1.1582031,0.2148438,1.5898438,0.6455078c0.4306641,0.4316406,0.6464844,0.9609375,0.6464844,1.5898438v8.9443359
				h6.7080078v-8.9443359c0-0.6289063,0.2216797-1.1582031,0.6640625-1.5898438
				c0.4423828-0.4306641,0.9658203-0.6455078,1.5722656-0.6455078c0.6054688,0,1.1298828,0.2148438,1.5722656,0.6455078
				c0.4423828,0.4316406,0.6640625,0.9609375,0.6640625,1.5898438v8.9443359c0.6054688,0,1.1289063,0.2158203,1.5722656,0.6464844
				c0.4414063,0.4316406,0.6630859,0.9560547,0.6630859,1.5722656c0,0.6181641-0.2216797,1.1474609-0.6630859,1.5898438
				c-0.4433594,0.4433594-0.9667969,0.6640625-1.5722656,0.6640625H75.3105469
				c-0.6064453,0-1.1298828-0.2207031-1.5722656-0.6640625c-0.4433594-0.4423828-0.6640625-0.9716797-0.6640625-1.5898438
				c0-0.6162109,0.2207031-1.140625,0.6640625-1.5722656C74.1806641,85.0087891,74.7041016,84.7929688,75.3105469,84.7929688z"/>
		</g>
	</g>
</g>
<g id="Слой_2">
</g>
</svg>
