<?xml version="1.0" encoding="utf-8"?>
<!-- Generator: Adobe Illustrator 16.0.0, SVG Export Plug-In . SVG Version: 6.00 Build 0)  -->
<!DOCTYPE svg PUBLIC "-//W3C//DTD SVG 1.1//EN" "http://www.w3.org/Graphics/SVG/1.1/DTD/svg11.dtd" [
	<!ENTITY ns_extend "http://ns.adobe.com/Extensibility/1.0/">
	<!ENTITY ns_ai "http://ns.adobe.com/AdobeIllustrator/10.0/">
	<!ENTITY ns_graphs "http://ns.adobe.com/Graphs/1.0/">
	<!ENTITY ns_vars "http://ns.adobe.com/Variables/1.0/">
	<!ENTITY ns_imrep "http://ns.adobe.com/ImageReplacement/1.0/">
	<!ENTITY ns_sfw "http://ns.adobe.com/SaveForWeb/1.0/">
	<!ENTITY ns_custom "http://ns.adobe.com/GenericCustomNamespace/1.0/">
	<!ENTITY ns_adobe_xpath "http://ns.adobe.com/XPath/1.0/">
]>
<svg version="1.1" xmlns:x="&ns_extend;" xmlns:i="&ns_ai;" xmlns:graph="&ns_graphs;"
	 xmlns="http://www.w3.org/2000/svg" xmlns:xlink="http://www.w3.org/1999/xlink" x="0px" y="0px" width="884.5458984px"
	 height="251.4990234px" viewBox="0 0 884.5458984 251.4990234" enable-background="new 0 0 884.5458984 251.4990234"
	 xml:space="preserve">
<metadata>
	<sfw  xmlns="&ns_sfw;">
		<slices></slices>
		<sliceSourceBounds  width="16383" height="16383" y="-8472" x="-7711" bottomLeftOrigin="true"></sliceSourceBounds>
		<optimizationSettings>
			<targetSettings  fileFormat="PNG24Format" targetSettingsID="0">
				<PNG24Format  transparency="true" filtered="false" matteColor="#FFFFFF" noMatteColor="false" interlaced="false">
					</PNG24Format>
			</targetSettings>
		</optimizationSettings>
	</sfw>
</metadata>
<g id="Слой_1">
	<g>
		<g>
			<path fill="none" stroke="#B6D3EA" stroke-width="3" stroke-linecap="round" stroke-miterlimit="10" d="M113.6074219,179.5947266
				c0,37.8945313,51.1337891,70.4042969,89.3623047,70.4042969"/>
			<path fill="none" stroke="#B6D3EA" stroke-width="3" stroke-linecap="round" stroke-miterlimit="10" d="M66.9658203,175.390625
				c0,26.2890625,21.5009766,56.0078125,48.0195313,56.0078125"/>
			<path fill="none" stroke="#B6D3EA" stroke-width="3" stroke-linecap="round" stroke-miterlimit="10" d="M105.1279297,131.2568359
				c0,32.0917969,17.7675781,58.109375,50.1396484,58.109375"/>
			<g opacity="0.8">
				<path fill="#E9A64F" d="M29.5097656,75.28125c8.6630859,32.6289063,50.9873047,61.3525391,73.9228516,55.3671875
					c22.9335938-5.9863281,45.5029297-51.6464844,36.8378906-84.2666016
					C131.6074219,13.7539063,99.7900391-6.2265625,69.203125,1.7558594
					C38.6181641,9.7363281,20.8466797,42.6582031,29.5097656,75.28125z"/>
				<path fill="#E9A64F" d="M100.625,145.71875c2.7939453,6.2255859,4.0703125-1.796875,9.0976563-4.0136719
					c5.0244141-2.21875,11.8916016,2.2089844,9.0976563-4.0195313c-2.796875-6.2216797-9.1357422-9.4726563-14.1611328-7.2539063
					C99.6357422,132.6464844,97.8261719,139.4931641,100.625,145.71875z"/>
				<path fill="#E9A64F" d="M93.6875,144.5371094c0.8417969,6.7607422,4.4248047-0.5439453,9.8837891-1.2080078
					c5.4628906-0.6689453,10.7265625,5.5537109,9.8847656-1.2089844c-0.84375-6.7666016-5.9541016-11.7080078-11.4082031-11.0380859
					C96.5898438,131.7509766,92.8408203,137.7744141,93.6875,144.5371094z"/>
				<path fill="#FFFFFF" d="M115.4570313,25.8046875c-0.5068359-1.9003906-2.4091797-2.8183594-4.3203125-2.3154297
					l-11.0908203,2.890625c-1.9130859,0.5009766-3.1162109,2.2304688-2.6132813,4.1259766L113.21875,50.8662109
					c0.5048828,1.9013672,2.5263672,3.2568359,4.4365234,2.7568359l6.2412109-1.6298828
					c1.9130859-0.4941406,2.9951172-2.6640625,2.4921875-4.5605469L115.4570313,25.8046875z"/>
			</g>
			<g opacity="0.8">
				<path fill="#EB0029" d="M2.828125,134.0439453c8.7519531,25.4580078,44.0478516,45.9228516,61.9433594,39.8740234
					c17.8964844-6.046875,33.234375-43.6181641,24.4804688-69.0761719
					c-8.7529297-25.4599609-35.1962891-39.5595703-59.0634766-31.4931641
					C6.3251953,81.4121094-5.9267578,108.5878906,2.828125,134.0439453z"/>
				<path fill="#EB0029" d="M63.4013672,186.0634766c2.5791016,4.7939453,3.1376953-1.6611328,7.0039063-3.7041016
					c3.8710938-2.046875,9.5869141,1.0898438,7.0087891-3.7050781c-2.5810547-4.7919922-7.8095703-7.0214844-11.6767578-4.9775391
					C61.8671875,175.7236328,60.8212891,181.2695313,63.4013672,186.0634766z"/>
				<path fill="#EB0029" d="M57.8212891,185.5136719c1.0546875,5.3300781,3.4853516-0.6816406,7.7890625-1.5195313
					c4.3027344-0.8369141,8.8486328,3.8154297,7.7900391-1.5166016c-1.0546875-5.3310547-5.4033203-8.9765625-9.7041016-8.1357422
					C59.3925781,175.1796875,56.7617188,180.1835938,57.8212891,185.5136719z"/>
				<path fill="#F8F8F8" d="M68.2216797,89.5166016c-0.5078125-1.4853516-2.1982422-2.4638672-3.6914063-1.9589844
					l-8.6542969,2.9238281c-1.4912109,0.5048828-2.2236328,2.3027344-1.7167969,3.7841797L67.875,109.5722656
					c0.5097656,1.4824219,2.1943359,2.4462891,3.6865234,1.9394531l4.8652344-1.640625
					c1.4960938-0.5058594,2.2333984-2.2871094,1.7236328-3.7685547L68.2216797,89.5166016z"/>
			</g>
			<g opacity="0.8">
				<path fill="#0071CE" d="M70.3232422,79.1015625c-10.6113281,39.0380859,16.1152344,93.90625,43.5576172,101.2363281
					c27.4433594,7.3300781,78.3613281-26.8007813,88.9716797-65.8369141
					c10.6103516-39.0390625-10.4560547-78.6103516-47.0517578-88.3867188
					C119.2041016,16.3408203,80.9345703,40.0644531,70.3232422,79.1015625z"/>
				<path fill="#0071CE" d="M101.9013672,194.3515625c-0.8398438,8.1230469,5.3154297,0.5380859,11.8710938,1.2001953
					c6.5595703,0.6630859,11.0390625,9.3251953,11.875,1.2001953c0.8378906-8.125-3.8007813-15.25-10.3583984-15.9121094
					C108.7314453,180.1738281,102.7363281,186.2246094,101.9013672,194.3515625z"/>
				<path fill="#0071CE" d="M95.3974609,189.0253906c-3.1884766,7.5273438,4.9277344,2.0498047,11.0068359,4.5810547
					c6.0751953,2.5292969,7.8115234,12.1123047,11.0039063,4.5830078
					c3.1914063-7.5292969,0.8505859-15.6865234-5.2255859-18.2177734
					C106.1044922,177.4414063,98.5888672,181.4921875,95.3974609,189.0253906z"/>
				<path fill="#F8F8F8" d="M189.4345703,78.4248047c0.6142578-2.2646484-0.8066406-4.3623047-3.0986328-4.9736328
					l-13.2685547-3.5439453c-2.2900391-0.6123047-4.5830078,0.4912109-5.1982422,2.7597656l4.3203125,29.9277344
					c-0.6201172,2.2705078,0.8222656,4.2998047,3.1142578,4.9111328l7.4638672,1.9931641
					c2.2890625,0.6113281,4.5644531-0.4228516,5.1826172-2.6943359L189.4345703,78.4248047z"/>
			</g>
		</g>
		<g>
			<path fill="#0071CE" d="M468.7373047,142.8857422c1.3066406-1.4707031,2.5732422-3.2412109,3.5732422-5.3505859
				c1.2802734-2.703125,2.0898438-5.9492188,2.0761719-9.5175781c0.0273438-4.8056641-1.0751953-8.8232422-2.7773438-11.8867188
				c-1.0888672-1.9599609-2.6142578-3.5800781-4.2480469-4.7382813c-2.4785156-1.7421875-5.0791016-2.7714844-7.4208984-3.2207031
				c-2.3681641-0.4277344-4.5820313-0.7480469-6.5351563-0.7480469h-24.2519531v0.4833984
				c-2,0-3.2880859-0.0273438-4.9345703,0.1425781c-1.2177734,0.1572266-2.8037109,0.3876953-4.6152344,1.4433594
				c-1.3349609,0.7763672-2.6298828,2.1455078-3.3046875,3.4658203c-1.0283203,2.0283203-1.5400391,3.5664063-1.6611328,4.8740234
				c-0.0957031,1.3339844-0.484375,2.5800781-0.484375,4.0576172v27.4628906v14.5136719
				c0,1.7646484,0.359375,3.1728516,0.5361328,4.8203125c0.1503906,1.21875,0.5751953,2.75,1.6357422,4.5537109
				c0.7773438,1.3417969,2.2421875,2.59375,3.5634766,3.2753906c2.0224609,1.0341797,3.609375,1.4228516,4.921875,1.5458984
				c1.3349609,0.0820313,2.6298828,0.3613281,4.1005859,0.3613281h24.4941406c2.6132813,0,5.6640625-0.4023438,8.9521484-1.3691406
				c1.640625-0.5039063,3.3564453-1.3789063,5.0039063-2.5488281c1.6337891-1.1523438,3.1591797-2.8408203,4.2480469-4.8017578
				c1.7021484-3.0556641,2.8046875-7.1152344,2.7910156-11.9150391c0-3.5673828-0.8095703-6.84375-2.0898438-9.5332031
				C471.3105469,146.1386719,470.0439453,144.3496094,468.7373047,142.8857422z M459.3681641,162.8466797
				c-0.0400391,0.0546875,0,0.0273438-0.1220703,0.1220703c-0.1494141,0.1230469-0.7763672,0.2070313-1.8515625,0.4042969
				c-1.0615234,0.1972656-2.4785156,0.0507813-3.9892578,0.0507813h-24.2519531v-14h1.9082031h18.90625
				c1.9941406,0,3.8183594,0.3828125,5.1660156,0.7373047c1.375,0.3535156,2.171875,0.9238281,2.7373047,1.4677734
				c0.7080078,0.7158203,1.3339844,1.5742188,1.7832031,2.515625c0.4365234,0.9511719,0.7490234,2.0556641,0.7490234,3.5810547
				C460.3896484,160.5097656,459.8183594,161.9960938,459.3681641,162.8466797z M459.6542969,131.5576172
				c-0.4492188,0.9394531-1.0751953,1.7636719-1.7832031,2.4638672c-0.5654297,0.5449219-1.3623047,1.2773438-2.7373047,1.6240234
				c-1.3476563,0.3535156-3.171875,0.7783203-5.1660156,0.7783203h-20.8144531v-14h24.2519531
				c2.0087891,0,3.8808594-0.0898438,4.9150391,0.2382813c0.5175781,0.15625,0.8173828,0.1923828,0.9257813,0.2675781
				c0.1220703,0.1015625,0.0820313,0.0019531,0.1220703,0.0546875c0.4501953,0.8515625,1.0214844,2.2753906,1.0351563,5.0664063
				C460.3974609,129.5683594,460.0908203,130.6113281,459.6542969,131.5576172z"/>
			<path fill="#0071CE" d="M394.3613281,109.8613281c-3.0986328-1.5664063-6.3525391-2.4375-9.5175781-2.4375h-10.0556641h-10.0625
				c-3.1650391,0-6.4189453,0.8710938-9.5097656,2.4375c-3.0703125,1.5390625-6.0253906,4.3935547-7.5498047,8.1933594
				c-2.1181641,5.2421875-3.9345703,13.1708984-3.9345703,24.7724609c0,11.59375,1.8164063,19.4853516,3.9345703,24.7275391
				c1.5244141,3.8125,4.4794922,6.84375,7.5498047,8.3818359c3.0976563,1.5722656,6.3515625,2.4873047,9.5097656,2.4873047
				h2.6289063h14.8681641h2.6142578c3.171875,0,6.4257813-0.8984375,9.5166016-2.4726563
				c3.0634766-1.5371094,6.0253906-4.4140625,7.5439453-8.2265625c2.1240234-5.2412109,3.9345703-13.1748047,3.9345703-24.7685547
				c0-11.6005859-1.8105469-19.6259766-3.9345703-24.8671875
				C400.3789063,114.2900391,397.4169922,111.4003906,394.3613281,109.8613281z M388.9345703,162.3417969
				c-0.1220703,0.2734375-0.2519531,0.2617188-0.9667969,0.65625c-0.6728516,0.3613281-1.8857422,0.4257813-3.1308594,0.4257813
				h-17.4824219h-2.6289063c-1.2382813,0-2.4501953-0.0644531-3.1308594-0.4257813
				c-0.7080078-0.3945313-0.8300781-0.4941406-0.9541016-0.7675781c-1.3203125-3.2792969-2.9130859-9.2441406-2.9130859-19.4003906
				c0-10.1572266,1.5927734-16.1611328,2.9130859-19.4287109c0.1240234-0.2734375,0.2460938-0.2109375,0.9541016-0.6035156
				c0.6806641-0.3554688,1.8925781-0.3740234,3.1308594-0.3740234h2.6289063h14.8681641h2.6210938
				c1.2382813,0,2.4511719,0.0332031,3.1240234,0.3867188c0.7148438,0.3945313,0.8447266,0.4794922,0.9667969,0.7519531
				c1.3212891,3.2675781,2.9003906,9.2324219,2.9003906,19.390625
				C391.8349609,153.109375,390.2558594,159.0615234,388.9345703,162.3417969z"/>
			<path fill="#0071CE" d="M533.4033203,109.8613281c-3.0898438-1.5664063-6.3515625-2.4375-9.5097656-2.4375h-10.0615234
				h-10.0556641c-3.1660156,0-6.4199219,0.8710938-9.5107422,2.4375c-3.0634766,1.5390625-6.0244141,4.3935547-7.5498047,8.1933594
				c-2.1171875,5.2421875-3.9287109,13.1708984-3.9287109,24.7724609c0,11.59375,1.8115234,19.4853516,3.9287109,24.7275391
				c1.5322266,3.8125,4.4863281,6.84375,7.5498047,8.3818359c3.0986328,1.5722656,6.3447266,2.4873047,9.5175781,2.4873047
				h2.6142578h14.8691406h2.6269531c3.1582031,0,6.4121094-0.8984375,9.5097656-2.4726563
				c3.0566406-1.5371094,6.0253906-4.4140625,7.5498047-8.2265625c2.1240234-5.2412109,3.9296875-13.1748047,3.9296875-24.7685547
				c0-11.6005859-1.8056641-19.6259766-3.9296875-24.8603516
				C539.4287109,114.2900391,536.4746094,111.4003906,533.4033203,109.8613281z M527.984375,162.3417969
				c-0.1289063,0.2734375-0.2509766,0.2617188-0.9589844,0.65625c-0.6875,0.3613281-1.8935547,0.4257813-3.1318359,0.4257813
				h-17.4960938h-2.6142578c-1.2460938,0-2.4501953-0.0644531-3.1308594-0.4257813
				c-0.7226563-0.3945313-0.8447266-0.4941406-0.9677734-0.7675781c-1.3203125-3.2792969-2.9003906-9.2441406-2.9003906-19.4003906
				c0-10.1572266,1.5800781-16.1611328,2.9003906-19.4287109c0.1230469-0.2734375,0.2451172-0.2109375,0.9677734-0.6035156
				c0.6806641-0.3554688,1.8847656-0.3740234,3.1240234-0.3740234h2.6210938h14.8691406h2.6269531
				c1.2460938,0,2.4511719,0.0332031,3.1318359,0.3867188c0.7080078,0.3945313,0.8300781,0.4794922,0.9589844,0.7519531
				c1.3212891,3.2675781,2.9082031,9.2324219,2.9082031,19.390625
				C530.8925781,153.109375,529.3056641,159.0615234,527.984375,162.3417969z"/>
			<path fill="#0071CE" d="M334.2138672,146.4667969c2.1992188-3.8261719,3.4169922-8.5917969,3.4033203-14.078125
				c0.0068359-6.4609375-1.4628906-11.5810547-3.3769531-15.296875c-1.8916016-3.7246094-5.1328125-6.4023438-8.2509766-7.6972656
				c-3.1650391-1.3144531-6.3310547-1.9707031-9.2988281-1.9707031c-7.3115234,0-18.6943359,0-25.4277344,0
				c-1.7568359,0-3.1660156,0.2148438-4.8125,0.390625c-1.2197266,0.1503906-2.75,0.5029297-4.5546875,1.5644531
				c-1.3408203,0.7773438-2.6005859,2.1992188-3.2744141,3.5195313c-1.0214844,2.0283203-1.2041016,3.5966797-1.3261719,4.9033203
				c-0.0888672,1.3349609-0.1416016,2.6044922-0.1416016,4.0888672v56.5332031h14v-20H309.40625c0.3125,0,0.7822266,0,1.3876953,0
				c0.1230469,0,0.2587891,0,0.3955078,0l9.9658203,20h15.7539063l-11.75-22.9355469
				c0.2451172-0.1308594,0.4833984-0.3994141,0.7207031-0.5351563
				C328.9580078,153.1699219,332.0341797,150.2929688,334.2138672,146.4667969z M322.0683594,139.5224609
				c-1.2460938,2.1523438-3.0634766,3.2890625-5.3779297,4.1191406c-2.2607422,0.8027344-4.7519531,0.7822266-5.8964844,0.7822266
				c-0.2578125,0-19.640625,0-19.640625,0v-22h25.5371094c1.5380859,0,3.0087891,0.0058594,3.8730469,0.3789063
				c0.8925781,0.4160156,1.0693359,0.5214844,1.2324219,0.7998047c0.8847656,1.7705078,1.8183594,4.4541016,1.8242188,8.8525391
				C323.6142578,135.9677734,322.8994141,138.0390625,322.0683594,139.5224609z"/>
			<path fill="#EB0029" d="M608.1611328,142.8857422c1.3076172-1.4707031,2.5732422-3.2412109,3.5732422-5.3505859
				c1.2802734-2.703125,2.0898438-5.9492188,2.0771484-9.5175781c0.0273438-4.8056641-1.0761719-8.8232422-2.7773438-11.8867188
				c-1.0898438-1.9599609-2.6152344-3.5800781-4.2480469-4.7382813c-2.4785156-1.7421875-5.0791016-2.7714844-7.4208984-3.2207031
				c-2.3691406-0.4277344-4.5810547-0.7480469-6.5351563-0.7480469h-24.6767578v0.4833984
				c-2,0-3.0751953-0.0273438-4.7226563,0.1425781c-1.21875,0.1572266-2.6972656,0.3876953-4.5078125,1.4433594
				c-1.3359375,0.7763672-2.5791016,2.1455078-3.2529297,3.4658203c-1.0283203,2.0283203-1.2236328,3.5664063-1.3466797,4.8740234
				c-0.0957031,1.3339844-0.1699219,2.5800781-0.1699219,4.0576172v27.4628906v14.5136719
				c0,1.7646484,0.0722656,3.1728516,0.25,4.8203125c0.1503906,1.21875,0.4287109,2.75,1.4912109,4.5537109
				c0.7773438,1.3417969,2.1708984,2.59375,3.4912109,3.2753906c2.0214844,1.0341797,3.5722656,1.4228516,4.8857422,1.5458984
				c1.3359375,0.0820313,2.59375,0.3613281,4.0644531,0.3613281h24.4941406c2.6142578,0,5.6640625-0.4023438,8.9521484-1.3691406
				c1.640625-0.5039063,3.3564453-1.3789063,5.0039063-2.5488281c1.6328125-1.1523438,3.1582031-2.8408203,4.2480469-4.8017578
				c1.7011719-3.0556641,2.8046875-7.1152344,2.7900391-11.9150391c0-3.5673828-0.8095703-6.84375-2.0898438-9.5332031
				C610.734375,146.1386719,609.46875,144.3496094,608.1611328,142.8857422z M598.7929688,162.8466797
				c-0.0400391,0.0546875,0,0.0273438-0.1220703,0.1220703c-0.1494141,0.1230469-0.7753906,0.2070313-1.8515625,0.4042969
				c-1.0625,0.1972656-2.4785156,0.0507813-3.9892578,0.0507813h-24.6767578v-14h2.3330078h18.90625
				c1.9931641,0,3.8183594,0.3828125,5.1660156,0.7373047c1.375,0.3535156,2.1728516,0.9238281,2.7373047,1.4677734
				c0.7080078,0.7158203,1.3339844,1.5742188,1.7832031,2.515625c0.4365234,0.9511719,0.75,2.0556641,0.75,3.5810547
				C599.8144531,160.5097656,599.2421875,161.9960938,598.7929688,162.8466797z M599.0791016,131.5576172
				c-0.4492188,0.9394531-1.0751953,1.7636719-1.7832031,2.4638672c-0.5644531,0.5449219-1.3623047,1.2773438-2.7373047,1.6240234
				c-1.3476563,0.3535156-3.1728516,0.7783203-5.1660156,0.7783203h-21.2392578v-14h24.6767578
				c2.0078125,0,3.8808594-0.0898438,4.9150391,0.2382813c0.5166016,0.15625,0.8164063,0.1923828,0.9257813,0.2675781
				c0.1220703,0.1015625,0.0820313,0.0019531,0.1220703,0.0546875c0.4492188,0.8515625,1.0214844,2.2753906,1.0361328,5.0664063
				C599.8212891,129.5683594,599.515625,130.6113281,599.0791016,131.5576172z"/>
			<path fill="#EB0029" d="M672.8291016,109.8613281c-3.0917969-1.5664063-6.3515625-2.4375-9.5117188-2.4375h-10.0615234
				h-10.0556641c-3.1650391,0-6.4189453,0.8710938-9.5097656,2.4375c-3.0634766,1.5390625-6.0244141,4.3935547-7.5498047,8.1933594
				c-2.1181641,5.2421875-3.9287109,13.1708984-3.9287109,24.7724609c0,11.59375,1.8105469,19.4853516,3.9287109,24.7275391
				c1.5322266,3.8125,4.4863281,6.84375,7.5498047,8.3818359c3.0976563,1.5722656,6.3447266,2.4873047,9.5175781,2.4873047
				h2.6142578h14.8681641h2.6269531c3.1601563,0,6.4140625-0.8984375,9.5117188-2.4726563
				c3.0566406-1.5371094,6.0253906-4.4140625,7.5488281-8.2265625c2.125-5.2412109,3.9287109-13.1748047,3.9287109-24.7685547
				c0-11.6005859-1.8037109-19.6259766-3.9287109-24.8603516
				C678.8544922,114.2900391,675.8994141,111.4003906,672.8291016,109.8613281z M667.4091797,162.3417969
				c-0.1289063,0.2734375-0.2519531,0.2617188-0.9589844,0.65625c-0.6875,0.3613281-1.8925781,0.4257813-3.1328125,0.4257813
				h-17.4951172h-2.6142578c-1.2460938,0-2.4511719-0.0644531-3.1318359-0.4257813
				c-0.7216797-0.3945313-0.8447266-0.4941406-0.9667969-0.7675781c-1.3203125-3.2792969-2.9003906-9.2441406-2.9003906-19.4003906
				c0-10.1572266,1.5800781-16.1611328,2.9003906-19.4287109c0.1220703-0.2734375,0.2451172-0.2109375,0.9667969-0.6035156
				c0.6806641-0.3554688,1.8857422-0.3740234,3.1240234-0.3740234h2.6220703h14.8681641h2.6269531
				c1.2460938,0,2.4511719,0.0332031,3.1328125,0.3867188c0.7070313,0.3945313,0.8300781,0.4794922,0.9589844,0.7519531
				c1.3222656,3.2675781,2.9072266,9.2324219,2.9072266,19.390625
				C670.3164063,153.109375,668.7314453,159.0615234,667.4091797,162.3417969z"/>
			<path fill="#EB0029" d="M743.4667969,107.4238281h-0.2861328c-3.7714844,0-6.0273438,3.1591797-6.0273438,6.9306641v36.5234375
				l-28.6796875-39.8115234c-0.3681641-0.2587891-0.7792969-0.4257813-1.0859375-0.6289063
				c-1.2050781-1.7441406-3.3183594-3.0136719-5.6054688-3.0136719h-0.5712891
				c-3.6904297,0-6.0576172,3.0976563-6.0576172,6.7880859v56.3408203c0,3.6894531,2.3671875,6.8710938,6.0576172,6.8710938
				h0.5712891c3.6904297,0,6.3710938-3.1816406,6.3710938-6.8710938v-36.7822266l29.7578125,41.2148438
				c0.0664063,0.0341797,0.1738281,0.1337891,0.2421875,0.1679688c1.2460938,1.3271484,3.0605469,2.2705078,5.0273438,2.2705078
				h0.2861328c3.7705078,0,6.6865234-3.2421875,6.6865234-7.0136719v-56.0556641
				C750.1533203,110.5830078,747.2373047,107.4238281,743.4667969,107.4238281z"/>
			<path fill="#EB0029" d="M812.9482422,107.4238281h-1.3955078c-3.4726563,0-6.3994141,3.1044922-6.3994141,6.5761719
				c0,0,0,36.9052734,0,39.4511719c0,2.546875-3.3369141,8.9726563-7.6933594,8.9726563c-4.3574219,0-13.6152344,0-17.3183594,0
				c-3.7050781,0-7.9882813-6.5068359-7.9882813-8.9726563c0-2.4638672,0-39.4980469,0-39.4980469
				c0-3.4589844-3.1035156-6.5292969-6.5683594-6.5292969h-1.3886719c-3.4580078,0-6.0429688,3.0703125-6.0429688,6.5292969
				v27.1699219c0,13.4042969,3.7148438,22.609375,7.5292969,28.1162109c2.171875,3.1855469,4.9121094,5.2753906,7.9619141,6.4677734
				c2.6005859,1.0068359,5.8066406,1.4697266,7.4765625,1.5917969c0,0,4.0087891,0.6416016,8.1982422,0.6416016
				c4.1914063,0,6.2285156-0.296875,6.2285156-0.3378906c2.5253906-0.1220703,5.1181641-0.7373047,7.6982422-1.7373047
				c3.0429688-1.1923828,6.0712891-3.3564453,8.2363281-6.5292969c3.8261719-5.5341797,7.6708984-14.890625,7.6708984-28.390625V114
				C819.1533203,110.5283203,816.4267578,107.4238281,812.9482422,107.4238281z"/>
			<path fill="#EB0029" d="M878.34375,139.6386719c-1.8037109-1.8515625-3.9677734-2.9414063-5.9013672-3.4863281
				c-1.9550781-0.5722656-3.7314453-0.7285156-5.3105469-0.7285156h-18.8173828
				c-1.8173828,0-3.5263672-0.1914063-4.5068359-0.5371094c-1.0341797-0.3964844-1.1035156-0.5722656-1.2109375-0.7285156
				c-0.6005859-1.0957031-1.2265625-2.7363281-1.2402344-5.6513672c0.0136719-2.9199219,0.6396484-4.5712891,1.2402344-5.6533203
				c0.1074219-0.1621094,0.1767578,0.0849609,1.1972656-0.3037109c0.9804688-0.3466797,2.6826172-0.1259766,4.5068359-0.1259766
				h27.1357422c3.4726563,0,5.7167969-3.6650391,5.7167969-7.1435547v-7.8564453h-32.8525391
				c-1.1982422,0-2.4638672,0.1455078-3.7705078,0.2822266c-3.5478516,0.3818359-7.046875,1.4794922-9.9199219,3.5888672
				c-3.4101563,2.5205078-5.4394531,6.4511719-6.4267578,10.5761719c-0.0419922,0.1445313-0.0751953,0.3144531-0.1015625,0.4638672
				c-0.9130859,4.0849609-0.9130859,8.3457031,0.0126953,12.4238281c0.0957031,0.4345703,0.2050781,0.8730469,0.328125,1.2958984
				c0.9658203,3.4384766,2.6679688,6.6992188,5.4042969,9.0019531c3.2138672,2.7089844,7.3789063,3.9199219,11.5605469,4.2460938
				c1.0214844,0.0820313,1.9941406,0.1210938,2.9267578,0.1210938h16.5703125c2.328125,0,4.7119141,1.0703125,5.2890625,3.3105469
				c0.6201172,2.3759766,0.6201172,4.8740234,0.0078125,7.2578125c-0.21875,0.8720703-0.5175781,1.0800781-0.8173828,1.6044922
				c-0.4765625,0.8037109-1.3476563,0.8271484-2.2871094,0.8271484h-30.5410156
				c-3.4785156,0-6.3828125,3.7041016-6.3828125,7.1826172v1.3896484c0,3.4785156,2.9042969,6.4277344,6.3828125,6.4277344
				h30.5410156c1.5722656,0,3.3554688-0.2119141,5.3164063-0.7705078c1.9404297-0.5449219,4.1318359-1.6435547,5.9570313-3.5107422
				c3.0703125-3.0546875,6.25-8.8203125,6.1943359-16.7519531
				C884.6005859,148.4667969,881.4208984,142.6884766,878.34375,139.6386719z"/>
		</g>
		<g opacity="0.4">
			<path d="M292.2958984,208.0693359v20.8173828h-1.7158203v-19.3583984h-8.9501953l-0.2714844,7.9628906
				c-0.1337891,4.15625-0.6074219,7.0947266-1.4228516,8.8144531c-0.8154297,1.7207031-2.2617188,2.5810547-4.3388672,2.5810547
				h-0.5869141v-1.4580078h0.5292969c1.4199219,0,2.4277344-0.7050781,3.0234375-2.1152344
				c0.5957031-1.4091797,0.9560547-4.0185547,1.0800781-7.8291016l0.3291016-9.4150391H292.2958984z"/>
			<path d="M309.4384766,218.8066406h-10.0224609v8.6220703h11.4804688v1.4580078h-13.1826172v-20.8173828h13.1113281v1.4589844
				h-11.4091797v7.8203125h10.0224609V218.8066406z"/>
			<path d="M327.0527344,209.5283203h-10.8232422v19.3583984h-1.7011719v-20.8173828h12.5244141V209.5283203z"/>
			<path d="M335.3027344,219.1074219h-2.859375v9.7792969h-1.7021484v-20.8173828h1.7021484v9.5791016h2.8447266
				l8.1923828-9.5791016h1.9306641l0.0283203,0.0712891l-8.6074219,10.1728516l9.2226563,10.5019531l-0.0292969,0.0712891
				h-2.0302734L335.3027344,219.1074219z"/>
			<path d="M364.1972656,220.1796875c0,2.6875-0.7363281,4.8613281-2.2089844,6.5195313s-3.4472656,2.4873047-5.9257813,2.4873047
				c-2.4404297,0-4.3876953-0.8291016-5.8408203-2.4873047s-2.1806641-3.8320313-2.1806641-6.5195313v-3.3886719
				c0-2.6787109,0.7246094-4.8515625,2.1738281-6.5195313c1.4482422-1.6679688,3.3925781-2.5019531,5.8330078-2.5019531
				c2.4785156,0,4.4560547,0.8339844,5.9335938,2.5019531s2.2158203,3.8408203,2.2158203,6.5195313V220.1796875z
				 M362.4960938,216.7744141c0-2.2529297-0.5693359-4.0673828-1.7080078-5.4414063
				c-1.1396484-1.375-2.7197266-2.0625-4.7402344-2.0625c-1.9824219,0-3.5263672,0.6875-4.6318359,2.0625
				c-1.1064453,1.3740234-1.6591797,3.1884766-1.6591797,5.4414063v3.421875c0,2.2724609,0.5556641,4.0957031,1.6660156,5.4707031
				c1.1103516,1.3740234,2.6572266,2.0615234,4.6396484,2.0615234c2.0302734,0,3.6103516-0.6845703,4.7392578-2.0546875
				c1.1298828-1.3701172,1.6943359-3.1953125,1.6943359-5.4775391V216.7744141z"/>
			<path d="M391.0771484,228.8867188h-1.7011719v-19.3583984h-11.8525391v19.3583984h-1.7021484v-20.8173828h15.2558594V228.8867188
				z"/>
			<path d="M411.7373047,220.1796875c0,2.6875-0.7363281,4.8613281-2.2089844,6.5195313s-3.4472656,2.4873047-5.9257813,2.4873047
				c-2.4404297,0-4.3876953-0.8291016-5.8408203-2.4873047s-2.1806641-3.8320313-2.1806641-6.5195313v-3.3886719
				c0-2.6787109,0.7246094-4.8515625,2.1738281-6.5195313c1.4482422-1.6679688,3.3925781-2.5019531,5.8330078-2.5019531
				c2.4785156,0,4.4560547,0.8339844,5.9335938,2.5019531s2.2158203,3.8408203,2.2158203,6.5195313V220.1796875z
				 M410.0361328,216.7744141c0-2.2529297-0.5693359-4.0673828-1.7080078-5.4414063
				c-1.1396484-1.375-2.7197266-2.0625-4.7402344-2.0625c-1.9824219,0-3.5263672,0.6875-4.6318359,2.0625
				c-1.1064453,1.3740234-1.6591797,3.1884766-1.6591797,5.4414063v3.421875c0,2.2724609,0.5556641,4.0957031,1.6660156,5.4707031
				c1.1103516,1.3740234,2.6572266,2.0615234,4.6396484,2.0615234c2.0302734,0,3.6103516-0.6845703,4.7392578-2.0546875
				c1.1298828-1.3701172,1.6943359-3.1953125,1.6943359-5.4775391V216.7744141z"/>
			<path d="M430.9394531,208.0693359v20.8173828h-1.7158203v-19.3583984h-8.9501953l-0.2714844,7.9628906
				c-0.1337891,4.15625-0.6074219,7.0947266-1.4228516,8.8144531c-0.8154297,1.7207031-2.2617188,2.5810547-4.3388672,2.5810547
				h-0.5869141v-1.4580078h0.5292969c1.4199219,0,2.4277344-0.7050781,3.0234375-2.1152344
				c0.5957031-1.4091797,0.9560547-4.0185547,1.0800781-7.8291016l0.3291016-9.4150391H430.9394531z"/>
			<path d="M442.234375,219.4501953l0.9003906,2.1015625h0.0859375l5.9472656-13.4824219h2.0019531l-7.9638672,17.2714844
				c-0.5712891,1.1816406-1.2060547,2.1181641-1.9013672,2.8095703c-0.6962891,0.6914063-1.7392578,1.0361328-3.1308594,1.0361328
				c-0.2197266,0-0.4716797-0.0166016-0.7578125-0.0498047c-0.2861328-0.0341797-0.4765625-0.0703125-0.5722656-0.1083984
				l0.1435547-1.3994141c0.1142578,0.0283203,0.2978516,0.0517578,0.5498047,0.0712891
				c0.2529297,0.0185547,0.4746094,0.0283203,0.6650391,0.0283203c0.8193359,0,1.4726563-0.2402344,1.9589844-0.7216797
				c0.4863281-0.4804688,0.953125-1.1689453,1.4013672-2.0644531l0.7578125-1.5283203l-7.8779297-15.3447266h1.9580078
				L442.234375,219.4501953z"/>
			<path d="M468.7988281,208.0693359v20.8173828h-1.7158203v-9.4931641
				c-0.9628906,0.2763672-1.8964844,0.4833984-2.8027344,0.6210938c-0.9052734,0.1386719-1.8730469,0.2080078-2.9023438,0.2080078
				c-2.2871094,0-4.0097656-0.5009766-5.1679688-1.5019531c-1.1582031-1-1.7373047-2.6298828-1.7373047-4.8896484v-5.7617188
				h1.7158203v5.7617188c0,1.7734375,0.4238281,3.0380859,1.2724609,3.7958984
				c0.8476563,0.7578125,2.1533203,1.1367188,3.9169922,1.1367188c0.9726563,0,1.9277344-0.0683594,2.8671875-0.2070313
				c0.9384766-0.1376953,1.8847656-0.3457031,2.8378906-0.6220703v-9.8652344H468.7988281z"/>
			<path d="M485.3984375,223.0820313h-9.5361328l-2.1445313,5.8046875h-1.7724609l7.90625-20.8173828h1.6152344
				l7.8496094,20.8173828h-1.7734375L485.3984375,223.0820313z M476.4345703,221.5517578h8.40625l-4.1455078-11.2666016h-0.0859375
				L476.4345703,221.5517578z"/>
			<path d="M504.6142578,209.5283203h-7.1630859v19.3583984h-1.7158203v-19.3583984h-7.1630859v-1.4589844h16.0419922V209.5283203z"
				/>
			<path d="M509.7617188,217.1337891h5.2041016c2.2011719,0,3.8984375,0.5292969,5.0898438,1.5869141
				c1.1914063,1.0585938,1.7871094,2.4785156,1.7871094,4.2607422c0,1.7929688-0.5986328,3.2246094-1.7939453,4.296875
				c-1.1962891,1.0722656-2.890625,1.6083984-5.0830078,1.6083984h-6.9199219v-20.8173828h1.7158203V217.1337891z
				 M509.7617188,218.5927734v8.8359375h5.2041016c1.7246094,0,3.0136719-0.421875,3.8671875-1.2636719
				c0.8525391-0.8417969,1.2792969-1.9150391,1.2792969-3.21875c0-1.2470703-0.4267578-2.2841797-1.2792969-3.1123047
				c-0.8535156-0.8271484-2.1425781-1.2412109-3.8671875-1.2412109H509.7617188z"/>
			<path d="M527.2910156,228.6289063l-1.515625,3.9462891h-1.1728516l0.9863281-3.9882813v-2.3876953h1.7021484V228.6289063z"/>
			<path d="M554.1269531,228.8867188h-1.7011719v-19.3583984h-11.8525391v19.3583984h-1.7021484v-20.8173828h15.2558594V228.8867188
				z"/>
			<path d="M561.2900391,220.2363281v8.6503906h-1.7021484v-20.8173828h7.1630859
				c2.1826172,0,3.8720703,0.5556641,5.0683594,1.6660156s1.7949219,2.5800781,1.7949219,4.4101563
				c0,1.8496094-0.5986328,3.3271484-1.7949219,4.4326172s-2.8857422,1.6582031-5.0683594,1.6582031H561.2900391z
				 M561.2900391,218.7783203h5.4609375c1.7158203,0,3.0048828-0.4365234,3.8681641-1.3085938
				c0.8623047-0.8720703,1.2939453-1.9697266,1.2939453-3.2949219c0-1.3349609-0.4296875-2.4423828-1.2871094-3.3242188
				s-2.1494141-1.3222656-3.875-1.3222656h-5.4609375V218.7783203z"/>
			<path d="M591.3291016,208.0693359h1.7011719v20.8173828h-1.7011719v-17.8007813l-0.0859375-0.0136719l-11.8378906,17.8144531
				h-1.7021484v-20.8173828h1.7021484v17.7861328l0.0849609,0.0146484L591.3291016,208.0693359z"/>
			<path d="M598.9921875,228.8867188h-1.8447266l4.9472656-9.0166016c-1.3632813-0.4482422-2.4023438-1.1445313-3.1171875-2.0888672
				c-0.7148438-0.9433594-1.0722656-2.0927734-1.0722656-3.4462891c0-1.9833984,0.6240234-3.5234375,1.8730469-4.6201172
				s2.9736328-1.6455078,5.1757813-1.6455078h6.3476563v20.8173828h-1.7148438v-8.5068359h-6.0341797L598.9921875,228.8867188z
				 M609.5869141,209.5283203h-4.6328125c-1.7441406,0-3.0712891,0.421875-3.9814453,1.2666016
				c-0.9111328,0.8447266-1.3662109,2.0166016-1.3662109,3.515625c0,1.375,0.4296875,2.4873047,1.2871094,3.3369141
				s2.0488281,1.2734375,3.5742188,1.2734375h5.1191406V209.5283203z"/>
			<path d="M630.046875,209.5283203h-7.1630859v19.3583984h-1.7158203v-19.3583984h-7.1630859v-1.4589844h16.0419922V209.5283203z"
				/>
			<path d="M648.6757813,228.8867188h-1.7011719v-9.5791016h-11.8378906v9.5791016h-1.7021484v-20.8173828h1.7021484v9.7792969
				h11.8378906v-9.7792969h1.7011719V228.8867188z"/>
			<path d="M669.3359375,220.1796875c0,2.6875-0.7363281,4.8613281-2.2089844,6.5195313s-3.4472656,2.4873047-5.9257813,2.4873047
				c-2.4404297,0-4.3876953-0.8291016-5.8408203-2.4873047s-2.1806641-3.8320313-2.1806641-6.5195313v-3.3886719
				c0-2.6787109,0.7246094-4.8515625,2.1738281-6.5195313c1.4482422-1.6679688,3.3925781-2.5019531,5.8330078-2.5019531
				c2.4785156,0,4.4560547,0.8339844,5.9335938,2.5019531s2.2158203,3.8408203,2.2158203,6.5195313V220.1796875z
				 M667.6347656,216.7744141c0-2.2529297-0.5693359-4.0673828-1.7080078-5.4414063
				c-1.1396484-1.375-2.7197266-2.0625-4.7402344-2.0625c-1.9824219,0-3.5263672,0.6875-4.6318359,2.0625
				c-1.1064453,1.3740234-1.6591797,3.1884766-1.6591797,5.4414063v3.421875c0,2.2724609,0.5556641,4.0957031,1.6660156,5.4707031
				c1.1103516,1.3740234,2.6572266,2.0615234,4.6396484,2.0615234c2.0302734,0,3.6103516-0.6845703,4.7392578-2.0546875
				c1.1298828-1.3701172,1.6943359-3.1953125,1.6943359-5.4775391V216.7744141z"/>
			<path d="M694.9150391,209.5283203h-7.1630859v19.3583984h-1.7158203v-19.3583984h-7.1630859v-1.4589844h16.0419922V209.5283203z"
				/>
			<path d="M700.0048828,220.2363281v8.6503906h-1.7021484v-20.8173828h7.1630859
				c2.1826172,0,3.8720703,0.5556641,5.0683594,1.6660156s1.7949219,2.5800781,1.7949219,4.4101563
				c0,1.8496094-0.5986328,3.3271484-1.7949219,4.4326172s-2.8857422,1.6582031-5.0683594,1.6582031H700.0048828z
				 M700.0048828,218.7783203h5.4609375c1.7158203,0,3.0048828-0.4365234,3.8681641-1.3085938
				c0.8623047-0.8720703,1.2939453-1.9697266,1.2939453-3.2949219c0-1.3349609-0.4296875-2.4423828-1.2871094-3.3242188
				s-2.1494141-1.3222656-3.875-1.3222656h-5.4609375V218.7783203z"/>
			<path d="M725.625,223.0820313h-9.5361328l-2.1445313,5.8046875h-1.7724609l7.90625-20.8173828h1.6152344l7.8496094,20.8173828
				h-1.7734375L725.625,223.0820313z M716.6611328,221.5517578h8.40625l-4.1455078-11.2666016h-0.0859375L716.6611328,221.5517578z"
				/>
			<path d="M744.8417969,209.5283203h-7.1630859v19.3583984h-1.7158203v-19.3583984h-7.1630859v-1.4589844h16.0419922V209.5283203z"
				/>
			<path d="M761.8554688,208.0693359h1.7011719v20.8173828h-1.7011719v-17.8007813l-0.0859375-0.0136719l-11.8378906,17.8144531
				h-1.7021484v-20.8173828h1.7021484v17.7861328l0.0849609,0.0146484L761.8554688,208.0693359z"/>
			<path d="M782.5585938,209.5283203h-7.1630859v19.3583984h-1.7158203v-19.3583984h-7.1630859v-1.4589844h16.0419922V209.5283203z"
				/>
			<path d="M787.7060547,217.1337891h5.2041016c2.2011719,0,3.8984375,0.5292969,5.0898438,1.5869141
				c1.1914063,1.0585938,1.7871094,2.4785156,1.7871094,4.2607422c0,1.7929688-0.5986328,3.2246094-1.7939453,4.296875
				c-1.1962891,1.0722656-2.890625,1.6083984-5.0830078,1.6083984h-6.9199219v-20.8173828h1.7158203V217.1337891z
				 M787.7060547,218.5927734v8.8359375h5.2041016c1.7246094,0,3.0136719-0.421875,3.8671875-1.2636719
				c0.8525391-0.8417969,1.2792969-1.9150391,1.2792969-3.21875c0-1.2470703-0.4267578-2.2841797-1.2792969-3.1123047
				c-0.8535156-0.8271484-2.1425781-1.2412109-3.8671875-1.2412109H787.7060547z"/>
		</g>
	</g>
</g>
<g id="Слой_2">
</g>
</svg>
