<?xml version="1.0" encoding="utf-8"?>
<!-- Generator: Adobe Illustrator 17.0.0, SVG Export Plug-In . SVG Version: 6.00 Build 0)  -->
<!DOCTYPE svg PUBLIC "-//W3C//DTD SVG 1.1//EN" "http://www.w3.org/Graphics/SVG/1.1/DTD/svg11.dtd">
<svg version="1.1" id="Layer_1" xmlns="http://www.w3.org/2000/svg" xmlns:xlink="http://www.w3.org/1999/xlink" x="0px" y="0px"
	 width="7.193px" height="15.42px" viewBox="0 0 7.193 15.42" enable-background="new 0 0 7.193 15.42" xml:space="preserve">
<g>
	<g>
		<path fill-rule="evenodd" clip-rule="evenodd" fill="#010101" d="M134.078,7.103c0,0,1.741-0.721,1.741-2.78
			s-1.708-2.941-4.22-2.941c-2.514,0-5.063,0-5.063,0v12.657c0,0,3.161,0,5.321,0c2.16,0,4.803-0.947,4.803-3.877
			C136.66,7.232,134.078,7.103,134.078,7.103z M129.698,3.701c0.47,0,2.886-0.465,2.886,1.34c0,1.805-2.886,1.341-2.886,1.341V3.701
			z M131.282,11.707c-0.744,0-1.584,0.011-1.584,0.011v-3.17c0,0,1.153,0.009,1.845,0.009s1.844,0.113,1.844,1.547
			C133.387,11.537,132.027,11.707,131.282,11.707z"/>
	</g>
	<g>
		<path fill="#010101" d="M4.783,15.42H1.595v-7.71H0V5.052h1.595V3.457C1.595,1.29,2.494,0,5.052,0h2.126v2.658H5.85
			c-0.995,0-1.062,0.372-1.062,1.063L4.783,5.052h2.41L6.912,7.709H4.783V15.42z"/>
	</g>
</g>
</svg>
