<svg xmlns="http://www.w3.org/2000/svg" xmlns:xlink="http://www.w3.org/1999/xlink" version="1.1" id="Layer_1" x="0px" y="0px" width="192px" height="32px" viewBox="0 0 192 32" enable-background="new 0 0 192 32" xml:space="preserve">
<style>
	.style0{
		opacity:	0.5;
		fill:	none;
	}
	.style1{
		fill:	#818181;
	}
	.style2{
		fill:	#A0A1A3;
	}
	.style3{
		fill-rule:	evenodd;
		clip-rule:	evenodd;
		fill:	#A0A1A3;
	}
	.style4{
		fill-rule:	evenodd;
		clip-rule:	evenodd;
		fill:	#818181;
	}
	.style5{
		fill-rule:	evenodd;
		clip-rule:	evenodd;
		fill:	#FFFFFF;
	}
	.style6{
		fill-rule:	evenodd;
		clip-rule:	evenodd;
		fill:	#B2B2B2;
	}
	.style7{
		fill-rule:	evenodd;
		clip-rule:	evenodd;
		fill:	#808080;
	}
	.style8{
		stroke-linejoin:	round;
		stroke:	#D6D6D7;
		stroke-linecap:	round;
		stroke-miterlimit:	2.6131;
		stroke-width:	0.1;
		fill:	none;
	}
</style><g>
	<rect x="128" width="64" height="32" class="style0"/>
	<g id="layer1_23_" transform="translate(-162.85714,-252.25207)">
		<g id="g2249_23_" transform="matrix(2107.2671,0,0,2111.3537,195.14296,-1206.6414)">
			<path id="path52_23_" d="M0.055 0.697L0.055 0.697L0.055 0.697L0.055 0.697L0.055 0.697L0.055 0.697L0.055 0.7 L0.055 0.697L0.055 0.697L0.055 0.697L0.055 0.697L0.055 0.697l-0.001 0l0 0l0 0l0 0l0 0l0 0l0 0 C0.054 0.7 0.1 0.7 0.1 0.697c0 0 0 0 0 0.001c-0.001 0-0.002 0-0.003 0 c0 0 0 0 0 0.001l0 0h0.001l0.001-0.003C0.057 0.7 0.1 0.7 0.1 0.697L0.055 0.697z M0.055 0.7 C0.055 0.7 0.1 0.7 0.1 0.699C0.055 0.7 0.1 0.7 0.1 0.699L0.055 0.699L0.055 0.699L0.055 0.699L0.055 0.7 L0.055 0.699L0.055 0.699L0.055 0.699L0.055 0.699L0.055 0.699L0.055 0.699L0.055 0.699L0.055 0.699L0.055 0.699L0.055 0.7 L0.055 0.699L0.055 0.699L0.055 0.699L0.055 0.699L0.055 0.699L0.055 0.699L0.055 0.699L0.055 0.699L0.055 0.699L0.055 0.7 L0.055 0.699L0.055 0.699L0.055 0.699L0.055 0.699L0.055 0.699L0.055 0.699L0.055 0.699L0.055 0.7 C0.054 0.7 0.1 0.7 0.1 0.699C0.054 0.7 0.1 0.7 0.1 0.699z" class="style1"/>
			<polygon id="polygon54_23_" points="0.1,0.7 0.1,0.7 0.1,0.7 0.1,0.7 0.1,0.7 0.1,0.7 0.1,0.7 0.1,0.7" class="style1"/>
			<path id="path58_23_" d="M0.049 0.696L0.048 0.701H0.05l0-0.002h0.001c0.001 0 0.002-0.001 0.002-0.002 c0-0.001-0.001-0.002-0.001-0.002H0.049z M0.051 0.697L0.051 0.697c0.001 0 0 0 0 0.001l0 0l0 0l0 0l0 0l0 0l0 0l0 0l0 0 l0 0l0 0l0 0l0 0l0 0l0 0l0 0l0 0l0 0l0 0l0 0l0 0l0 0l0 0l0 0l0 0l0 0l0 0l0 0l0 0l0 0l0 0h0l0 0H0.05L0.051 0.697z" class="style1"/>
			<g>
				<path id="path42_23_" d="M0.068 0.697L0.068 0.697L0.068 0.697L0.068 0.697L0.068 0.697L0.068 0.697L0.068 0.7 L0.068 0.697L0.068 0.697L0.068 0.697L0.068 0.697L0.068 0.697l-0.001 0l0 0l0 0l0 0l0 0l0 0l0 0 C0.066 0.7 0.1 0.7 0.1 0.697c0 0 0 0 0 0.001c-0.001 0-0.002 0-0.003 0 c0 0 0 0 0 0.001l0 0h0.001L0.07 0.698C0.07 0.7 0.1 0.7 0.1 0.697L0.068 0.697z M0.068 0.7 C0.068 0.7 0.1 0.7 0.1 0.699C0.068 0.7 0.1 0.7 0.1 0.699L0.068 0.699L0.068 0.699L0.068 0.699L0.068 0.7 L0.068 0.699L0.068 0.699L0.068 0.699L0.068 0.699L0.068 0.699L0.068 0.699L0.068 0.699L0.068 0.699L0.068 0.699L0.068 0.7 L0.068 0.699L0.068 0.699L0.068 0.699L0.068 0.699L0.068 0.699L0.068 0.699L0.068 0.699L0.068 0.699L0.068 0.699L0.068 0.7 L0.068 0.699L0.068 0.699L0.068 0.699L0.068 0.699L0.068 0.699L0.068 0.699L0.068 0.699L0.068 0.7 C0.067 0.7 0.1 0.7 0.1 0.699C0.067 0.7 0.1 0.7 0.1 0.699z" class="style2"/>
				<polygon id="polygon44_23_" points="0.1,0.7 0.1,0.7 0.1,0.7 0.1,0.7" class="style2"/>
				<path id="path48_23_" d="M0.062 0.696L0.061 0.701h0.001l0-0.002h0.001c0.001 0 0.002-0.001 0.002-0.002 c0-0.001-0.001-0.002-0.001-0.002H0.062z M0.063 0.697L0.063 0.697c0.001 0 0 0 0 0.001l0 0l0 0l0 0l0 0l0 0l0 0l0 0 l0 0l0 0l0 0l0 0l0 0l0 0l0 0l0 0l0 0l0 0l0 0l0 0l0 0l0 0l0 0l0 0l0 0l0 0l0 0l0 0l0 0l0 0l0 0h0l0 0H0.063L0.063 0.697z" class="style2"/>
				<polygon id="polygon60_23_" points="0.1,0.7 0.1,0.7 0.1,0.7 0.1,0.7 0.1,0.7 0.1,0.7 0.1,0.7 0.1,0.7" class="style2"/>
				<path id="path62_23_" d="M0.073 0.696L0.073 0.696L0.073 0.696L0.073 0.696C0.073 0.7 0.1 0.7 0.1 0.7 C0.073 0.7 0.1 0.7 0.1 0.696L0.073 0.696L0.073 0.696L0.073 0.696L0.073 0.696L0.073 0.696L0.073 0.696L0.073 0.7 L0.073 0.696L0.073 0.696L0.073 0.696z" class="style2"/>
			</g>
		</g>
	</g>
</g>
<g>
	<rect x="0" width="64" height="32" class="style0"/>
	<g>
		<path d="M22.518 9.917h3.037l-8.238 13.384H13.73l-0.321-10.589 c-0.016-0.48-0.029-0.98-0.21-1.361c-0.182-0.386-0.464-0.656-0.843-0.844s-0.852-0.291-1.315-0.285V9.917h5.911l0.289 9.1 L22.518 9.917L22.518 9.917z" class="style3"/>
		<polygon points="26.1,23.3 30.4,9.9 26.6,9.9 22.4,23.3 26.1,23.3" class="style3"/>
		<path d="M28.325 22.164c0.573 0.6 1.3 1 2.3 1.2 c1.002 0.2 2.3 0.2 3.489-0.016c1.21-0.206 2.352-0.612 3.16-1.228c0.807-0.617 1.279-1.442 1.509-2.334 c0.232-0.895 0.217-1.858-0.263-2.608c-0.49-0.75-1.447-1.291-2.243-1.799c-0.796-0.51-1.433-0.987-1.698-1.522 c-0.263-0.539-0.153-1.139 0.154-1.52c0.31-0.383 0.82-0.553 1.447-0.592c0.628-0.041 1.4 0.1 2 0.2 c0.618 0.2 1.1 0.4 1.5 0.779l1.255-2.006c-0.581-0.416-1.244-0.712-2.181-0.929c-0.935-0.219-2.141-0.358-3.191-0.282 s-1.944 0.375-2.733 0.896c-0.793 0.525-1.478 1.275-1.865 2.086c-0.388 0.808-0.475 1.675-0.237 2.4 c0.238 0.7 0.8 1.4 1.4 1.834c0.576 0.5 1.2 0.7 1.7 1.043c0.522 0.3 1 0.7 1.2 1.1 c0.24 0.4 0.3 0.92-0.016 1.329c-0.293 0.412-0.907 0.738-1.616 0.854c-0.712 0.117-1.517 0.022-2.265-0.204 c-0.747-0.227-1.438-0.588-2.039-1.06L28.325 22.164L28.325 22.164z" class="style3"/>
		<path d="M42.42 20.2l-1.703 3.101h-3.036l8.076-13.384h3.423 l1.153 13.384h-3.562L46.52 20.2H42.42L42.42 20.2z M45.994 13.706l-2.617 4.754h3.003L45.994 13.706L45.994 13.706z" class="style3"/>
		<path d="M51.572 10.157c-0.066-0.08-0.165-0.113-0.26-0.113h-0.552v1.309 h0.126V10.79h0.28l0.383 0.562h0.157l-0.374-0.562c0.074 0 0.157-0.014 0.22-0.07c0.061-0.059 0.105-0.148 0.109-0.254 C51.666 10.4 51.6 10.2 51.6 10.157L51.572 10.157z M50.887 10.64v-0.441h0.377c0.053 0 0.111-0.002 0.2 0 c0.041 0 0.1 0.1 0.1 0.171c0.004 0.075-0.015 0.147-0.059 0.193c-0.041 0.043-0.104 0.041-0.161 0.041H50.887 L50.887 10.64z M51.749 9.722c-0.167-0.098-0.355-0.148-0.547-0.148c-0.189 0-0.378 0.05-0.546 0.1 c-0.164 0.097-0.303 0.232-0.396 0.398c-0.097 0.166-0.148 0.355-0.148 0.546c0 0.2 0.1 0.4 0.1 0.5 c0.094 0.2 0.2 0.3 0.4 0.398c0.168 0.1 0.4 0.1 0.5 0.146c0.191 0 0.38-0.053 0.547-0.146 c0.166-0.094 0.305-0.235 0.399-0.398c0.094-0.168 0.146-0.358 0.146-0.548c0-0.191-0.052-0.38-0.146-0.546 C52.054 10 51.9 9.8 51.7 9.722L51.749 9.722z M51.987 10.216c0.08 0.1 0.1 0.3 0.1 0.5 c0 0.161-0.041 0.317-0.121 0.455c-0.078 0.137-0.195 0.254-0.332 0.333c-0.137 0.082-0.294 0.121-0.455 0.1 c-0.159 0-0.317-0.039-0.454-0.121c-0.137-0.078-0.254-0.195-0.332-0.333c-0.079-0.138-0.125-0.294-0.125-0.455 c0-0.16 0.046-0.316 0.125-0.453c0.078-0.139 0.195-0.256 0.332-0.334s0.295-0.123 0.454-0.123c0.161 0 0.3 0 0.5 0.1 S51.909 10.1 52 10.216L51.987 10.216z" class="style3"/>
	</g>
</g>
<g>
	<g>
		<rect x="64" width="64" height="32" class="style0"/>
	</g>
	<g>
		<g>
			<path d="M75.873 16.454c0-6.625 5.371-11.998 11.998-11.998 s12 5.4 12 11.998c0 6.628-5.373 12.002-12 12.002S75.873 23.1 75.9 16.454L75.873 16.454z" class="style4"/>
			<path d="M92.116 16.454c0-6.625 5.373-11.998 12-11.998 s12 5.4 12 11.998c0 6.628-5.373 12.002-12 12.002S92.116 23.1 92.1 16.454L92.116 16.454z" class="style3"/>
			<g>
				<path d="M95.993 25.283h-4.68v-0.682h5.359 C96.538 24.7 96.1 25.2 96 25.283L95.993 25.283z" class="style4"/>
				<path d="M97.286 23.872h-5.98v-0.68h6.489 C97.795 23.2 97.4 23.8 97.3 23.872L97.286 23.872z" class="style4"/>
				<path d="M98.24 22.46h-6.935v-0.682h7.315 C98.492 22.1 98.3 22.4 98.2 22.46L98.24 22.46z" class="style4"/>
				<path d="M98.945 21.042h-7.64v-0.679h7.892 C99.197 20.4 99.1 20.8 98.9 21.042L98.945 21.042z" class="style4"/>
				<path d="M99.436 19.628h-8.13v-0.68H99.6 C99.552 19.2 99.5 19.6 99.4 19.628L99.436 19.628z" class="style4"/>
				<path d="M99.729 18.217h-8.423v-0.685h8.504 C99.804 17.8 99.7 18.2 99.7 18.217L99.729 18.217z" class="style4"/>
				<path d="M99.846 16.801h-8.544l0.004-0.681h8.546 C99.863 16.4 99.9 16.6 99.8 16.801L99.846 16.801z" class="style4"/>
				<path d="M99.816 15.39h-8.511v-0.682h8.449 C99.816 15 99.8 15.4 99.8 15.39L99.816 15.39z" class="style4"/>
				<path d="M99.605 13.976h-7.317l0.216-0.679h6.938 C99.526 13.5 99.6 14 99.6 13.976L99.605 13.976z" class="style4"/>
				<path d="M99.222 12.56h-6.574l0.319-0.678h6.003 C99.105 12.2 99.2 12.6 99.2 12.56L99.222 12.56z" class="style4"/>
				<path d="M98.621 11.151h-5.482l0.019-0.68h5.108 C98.266 10.5 98.5 10.9 98.6 11.151L98.621 11.151z" class="style4"/>
				<path d="M97.818 9.735h-6.513v-0.68h6.005 C97.311 9.1 97.7 9.6 97.8 9.735L97.818 9.735z" class="style4"/>
				<path d="M96.69 8.321h-5.385v-0.68h4.688 C95.993 7.6 96.5 8.1 96.7 8.321L96.69 8.321z" class="style4"/>
			</g>
			<polygon points="82.4,18.7 81.3,18.7 82.3,14 82.3,14 80.3,18.7 79.1,18.7 79.1,14 79.1,14 78.1,18.7 77,18.7 78.2,13.1 79.9,13.1 80,17.5 80,17.5 81.9,13.1 83.6,13.1 82.4,18.7" class="style5"/>
			<path d="M90.568 15.372c-0.332-0.02-0.854-0.16-1.46-0.094 c-0.589 0.062-0.716 0.215-0.753 0.395c-0.135 0.7 2.5 0.2 2.2 1.7c-0.252 1.202-1.459 1.415-2.104 1.4 c-0.943 0-1.195-0.04-1.731-0.201l0.158-0.803c0.331 0.1 1 0.2 1.7 0.211c0.557-0.02 0.863-0.296 0.899-0.448 c0.146-0.694-2.523-0.174-2.198-1.715c0.127-0.602 0.672-1.379 1.96-1.379c0.809 0 1.3 0.2 1.5 0.198L90.568 15.4 L90.568 15.372z" class="style5"/>
			<path d="M91.18 15.334l0.396-1.886h1.086l-0.233 1.113h0.674 l-0.165 0.773h-0.674l-0.478 2.239c-0.049 0.242-0.061 0.3 0.4 0.334c0.067 0 0.148-0.005 0.228-0.018l-0.152 0.7 c-0.172 0.004-0.368 0.108-0.541 0.108h-0.132c-0.938 0-1.029-0.355-0.914-0.896L91.18 15.334L91.18 15.334z" class="style5"/>
			<path d="M93.795 16.892c-0.031 0.306-0.091 1.1 0.8 1.1 c0.301 0 1.1 0.1 1.893-0.471l-0.171 0.771c-0.674 0.472-1.414 0.472-1.931 0.472c-1.159 0-1.936-0.558-1.573-2.247 c0.109-0.496 0.616-2.092 2.42-2.092c0.812 0 1.9 0.4 1.5 2.273l-0.039 0.191h-2.89l0.177-0.699h1.746 c0.079-0.668-0.306-0.869-0.656-0.869c-0.507 0-0.851 0.324-1.028 0.869L93.795 16.892L93.795 16.892z" class="style5"/>
			<path d="M97.341 14.556h1.037l-0.154 0.711h0.017 c0.313-0.414 0.65-0.814 1.306-0.814c0.074 0 0.2 0 0.3 0.037l-0.398 1.07c-0.085-0.011-0.135-0.011-0.231-0.011 c-0.845 0-1.116 0.527-1.213 0.98l-0.454 2.15h-1.084L97.341 14.556L97.341 14.556z" class="style5"/>
			<path d="M103.889 14.188c-0.246-0.178-0.791-0.295-1.354-0.207 c-0.552 0.085-1.459 0.369-1.794 1.941c-0.171 0.805-0.079 1.8 0.8 1.949c0.258 0 1.4 0.1 1.808-0.299l-0.293 1 c-0.129 0.041-0.246 0.323-1.588 0.25c-1.48-0.084-2.332-1.002-1.925-2.929c0.413-1.941 1.749-2.946 3.188-2.934 c0.735 0 1.3 0.4 1.3 0.521L103.889 14.188L103.889 14.188z" class="style5"/>
			<path d="M113.665 18.679h-1.061l0.11-0.515h-0.014 c-0.366 0.467-0.88 0.619-1.327 0.619c-1.225 0-1.506-1.079-1.268-2.208c0.307-1.432 1.262-2.131 2.167-2.131 c0.7 0 0.9 0.4 1.1 0.645h0.018l0.416-1.979h1.086L113.665 18.679L113.665 18.679z" class="style5"/>
			<path d="M111.826 17.896c0.688 0 1.08-0.571 1.215-1.185 c0.141-0.66 0.091-1.327-0.65-1.327c-0.686 0-1.047 0.613-1.188 1.269C111.099 17.1 111.1 17.9 111.8 17.9 L111.826 17.896z" class="style6"/>
			<path d="M107.123 17.802c0 0-0.104 0.441-0.129 0.663l-0.053 0.2 h-0.964c-0.019-0.195-0.023-0.256 0-0.49c-0.3 0.259-0.724 0.595-1.457 0.595c-0.62 0-1.183-0.349-0.999-1.194 c0.171-0.811 0.766-1.219 1.483-1.316l1.004-0.147c0.177-0.027 0.396-0.093 0.452-0.324c0.094-0.461-0.337-0.549-0.612-0.553 c-0.568-0.025-1.482 0.141-1.658 0.27l0.243-0.802c0.448-0.213 0.987-0.288 1.728-0.272c0.581 0 1.6 0.2 1.4 1.2 L107.123 17.802L107.123 17.802z" class="style5"/>
			<path d="M106.271 16.671c-0.123 0.078-0.316 0.152-0.783 0.2 c-0.416 0.073-0.772 0.17-0.863 0.627c-0.086 0.4 0.2 0.5 0.4 0.492c0.478 0 1.034-0.312 1.139-0.813L106.271 16.7 L106.271 16.671z" class="style6"/>
			<path d="M108.128 14.556h1.034l-0.153 0.711h0.019 c0.313-0.414 0.65-0.814 1.304-0.814c0.076 0 0.2 0 0.3 0.037l-0.398 1.07c-0.085-0.011-0.135-0.011-0.231-0.011 c-0.847 0-1.116 0.527-1.214 0.98l-0.453 2.15h-1.084L108.128 14.556L108.128 14.556z" class="style5"/>
			<path d="M86.492 17.802c0 0-0.104 0.441-0.129 0.663l-0.054 0.2 h-0.963c-0.018-0.195-0.024-0.256 0-0.49c-0.3 0.259-0.721 0.595-1.457 0.595c-0.618 0-1.183-0.349-0.998-1.194 c0.173-0.811 0.765-1.219 1.481-1.316l1.006-0.147c0.176-0.027 0.396-0.093 0.451-0.324c0.094-0.461-0.335-0.549-0.61-0.553 c-0.571-0.025-1.484 0.141-1.661 0.27l0.244-0.802c0.448-0.213 0.987-0.288 1.729-0.272c0.582 0 1.6 0.2 1.4 1.2 L86.492 17.802L86.492 17.802z" class="style5"/>
			<path d="M85.642 16.671c-0.122 0.078-0.319 0.152-0.784 0.2 c-0.416 0.073-0.771 0.17-0.864 0.627c-0.085 0.4 0.2 0.5 0.4 0.492c0.479 0 1.034-0.312 1.14-0.813L85.642 16.7 L85.642 16.671z" class="style7"/>
			
				<path d=" M114.725 18.687c0.227 0 0.416-0.187 0.416-0.416c0-0.234-0.189-0.421-0.416-0.421c-0.228 0-0.416 0.187-0.416 0.4 C114.309 18.5 114.5 18.7 114.7 18.7 M114.578 18.495v-0.441 M114.578 18.054c0 0 0.306-0.054 0.3 0.1 c0.006 0.213-0.3 0.173-0.3 0.2 M114.805 18.306l0.116 0.2" class="style8"/>
			
				<path d=" M114.725 24.095c0.227 0 0.416-0.186 0.416-0.418s-0.189-0.424-0.416-0.424c-0.228 0-0.416 0.191-0.416 0.4 S114.497 24.1 114.7 24.1 M114.578 23.903v-0.441 M114.578 23.462c0 0 0.306-0.055 0.3 0.1 c0.006 0.214-0.3 0.17-0.3 0.2 M114.805 23.715l0.116 0.2" class="style8"/>
		</g>
	</g>
</g>
</svg>
