<svg xmlns="http://www.w3.org/2000/svg" xmlns:xlink="http://www.w3.org/1999/xlink" version="1.1" id="Layer_1" x="0px" y="0px" width="14.6308594px" height="18.8491211px" viewBox="0 0 14.6308594 18.8491211" enable-background="new 0 0 14.6308594 18.8491211" xml:space="preserve"><path fill-rule="evenodd" clip-rule="evenodd" fill="#FFFFFF" d="M63.0234375-35.4765625h11.7958984c1.1191406 0 2.0361328 0.9160156 2.0361328 2.0371094v11.7949219c0 1.1210938-0.9169922 2.0371094-2.0361328 2.0371094H63.0234375c-1.1210938 0-2.0361328-0.9160156-2.0361328-2.0371094v-11.7949219C60.9873047-34.5605469 61.9023438-35.4765625 63.0234375-35.4765625L63.0234375-35.4765625zM72.546875-33.7128906L72.546875-33.7128906c-0.3945312 0-0.7148438 0.3222656-0.7148438 0.7148438v1.7089844c0 0.3925781 0.3203125 0.7148438 0.7148438 0.7148438h1.7929688c0.3935547 0 0.7148438-0.3222656 0.7148438-0.7148438v-1.7089844c0-0.3925781-0.3212891-0.7148438-0.7148438-0.7148438H72.546875L72.546875-33.7128906zM75.0615234-28.765625L75.0615234-28.765625h-1.3964844c0.1337891 0.4316406 0.203125 0.8886719 0.203125 1.3613281 0 2.6386719-2.2089844 4.7792969-4.9326172 4.7792969s-4.9296875-2.140625-4.9296875-4.7792969c0-0.4726562 0.0683594-0.9296875 0.2011719-1.3613281H62.75v6.703125c0 0.3476562 0.2841797 0.6308594 0.6318359 0.6308594h11.0488281c0.3476562 0 0.6308594-0.2832031 0.6308594-0.6308594V-28.765625L75.0615234-28.765625zM68.9355469-30.6640625L68.9355469-30.6640625c-1.7617188 0-3.1865234 1.3828125-3.1865234 3.0878906s1.4248047 3.0878906 3.1865234 3.0878906c1.7607422 0 3.1875-1.3828125 3.1875-3.0878906S70.6962891-30.6640625 68.9355469-30.6640625L68.9355469-30.6640625z"/><g><rect x="-74.1054688" y="53.2143555" opacity="0.5" fill="none" width="32" height="32"/><g><g><defs><polygon id="SVGID_1_" points="-51.8447266,60.9584961 -51.8447266,64.7709961 -55.6572266,64.7709961 -55.6572266,65.7260742       -51.8447266,65.7260742 -51.8447266,69.5385742 -50.890625,69.5385742 -50.890625,65.7260742 -47.078125,65.7260742       -47.078125,64.7709961 -50.890625,64.7709961 -50.890625,60.9584961     "/></defs><use xlink:href="#SVGID_1_" overflow="visible" fill="#FFFFFF"/><clipPath id="SVGID_2_"><use xlink:href="#SVGID_1_" overflow="visible"/></clipPath><rect x="-55.6572266" y="60.9584961" clip-path="url(#SVGID_2_)" fill="#FFFFFF" width="8.5791016" height="8.5800781"/></g><g><path fill="#FFFFFF" d="M-59.3125 71.909668c-0.5322266-0.375-1.5517578-1.2929688-1.5517578-1.8320312 0-0.6308594 0.1806641-0.9414062 1.1318359-1.6855469 0.9726562-0.7617188 1.6640625-1.8320312 1.6640625-3.0761719 0-1.484375-0.6621094-2.9277344-1.9003906-3.4042969h1.8691406l1.3183594-0.953125h-5.8945312c-2.640625 0-5.1279297 2-5.1279297 4.3203125 0 2.3671875 1.8017578 4.2792969 4.4902344 4.2792969 0.1855469 0 0.3681641-0.0019531 0.5449219-0.015625 -0.1728516 0.3339844-0.296875 0.7109375-0.296875 1.1015625 0 0.6582031 0.3535156 1.1914062 0.7998047 1.6289062 -0.3378906 0-0.6640625 0.0078125-1.0214844 0.0078125 -3.2714844 0-5.7910156 2.0839844-5.7910156 4.2460938 0 2.1289062 2.7617188 3.4609375 6.0351562 3.4609375 3.7304688 0 5.7910156-2.1171875 5.7910156-4.2480469C-57.2519531 74.034668-57.7558594 73.0112305-59.3125 71.909668M-62.4628906 68.9584961c-1.5175781-0.046875-2.9609375-1.6992188-3.2226562-3.6914062 -0.2617188-1.9941406 0.7568359-3.5195312 2.2753906-3.4765625 1.5175781 0.046875 2.9609375 1.6484375 3.2246094 3.640625C-59.9257812 67.425293-60.9433594 69.003418-62.4628906 68.9584961M-63.0556641 79.0463867c-2.2626953 0-3.8935547-1.4316406-3.8935547-3.1523438 0-1.6855469 2.0234375-3.0898438 4.2861328-3.0644531 0.5273438 0.0058594 1.0185547 0.0917969 1.4648438 0.234375 1.2294922 0.8554688 2.1103516 1.3359375 2.3583984 2.3105469 0.046875 0.1953125 0.0722656 0.4003906 0.0722656 0.6074219C-58.7675781 77.7006836-59.8769531 79.0463867-63.0556641 79.0463867"/></g></g></g><path fill-rule="evenodd" clip-rule="evenodd" fill="#FFFFFF" d="M-67.9960938 159.956543c-0.7460938 0-0.9042969 0.3847656-0.6328125 0.9042969 0.2695312 0.5195312 3.9238281 9.6132812 9.1855469 9.6132812 0 0 0.515625 0 1.0595703 0 0.5400391 0 0.9912109-0.2929688 0.9912109-0.8789062 0-0.5878906 0.2275391-1.6484375 0.7910156-1.6484375 0.5664062 0 1.8730469 2.5273438 3.4765625 2.5273438 1.6025391 0 1.7597656 0 2.7753906 0 1.0136719 0 1.0820312-0.5410156 0.8115234-1.0839844 -0.2714844-0.5410156-0.4960938-0.7441406-1.2421875-1.5332031 -0.7421875-0.7890625-1.8037109-1.5117188-1.8037109-2.1660156 0-0.65625 2.234375-3.09375 2.7529297-4.1074219 0.5185547-1.015625 0.5888672-1.6269531-0.2714844-1.6269531 -0.8564453 0-2.796875 0-3.3173828 0 -0.5175781 0-0.6308594 0.6347656-0.7998047 0.9277344 -0.1699219 0.2929688-1.9072266 3.9492188-2.7441406 3.9492188 -0.8320312 0-0.4951172-1.8046875-0.4951172-2.1015625 0-0.2910156 0.0908203-1.5761719 0.0908203-2.1875 0-0.609375-0.5419922-1.0605469-1.2421875-1.0605469 -0.6982422 0-1.3759766 0-2.1884766 0 -0.8105469 0-1.7158203 0.5429688-1.6025391 0.7675781 0.1123047 0.2265625 1.0830078-0.0449219 1.1962891 1.2636719s0.1132812 3.3632812-0.4960938 3.3632812c-0.6113281 0-1.9394531-2.3925781-2.3945312-3.3398438 -0.4492188-0.9472656-0.6308594-1.6035156-1.4873047-1.6035156C-66.4414062 159.9350586-67.9960938 159.956543-67.9960938 159.956543z"/><path fill="#FFFFFF" d="M71.2734375 73.4741211c-1.2988281 0.0332031-1.5488281-0.8925781-1.5605469-1.5644531v-4.6640625h3.0234375v-2.7011719h-3.0117188v-4.0175781c0 0-2.3349609 0-2.3740234 0 -0.0380859 0-0.1064453 0.0332031-0.1152344 0.1191406 -0.1396484 1.2363281-0.7314453 3.4082031-3.1904297 4.2753906v2.3242188h1.8710938v4.9082031c0 1.7753906 1.1074219 4.296875 4.6376953 4.2382812 1.1914062-0.0195312 2.5146484-0.5097656 2.8076172-0.9296875l-0.7792969-2.2617188C72.2802734 73.3393555 71.7041016 73.4624023 71.2734375 73.4741211L71.2734375 73.4741211z"/><path fill="#FFFFFF" d="M3.2382812 18.847168c-0.3066406-0.0683594-0.3510742-2.3808594 0-4.3320312 0.3515625-1.9511719 1.4042969-5.8530273 1.4042969-5.8530273s-0.9355469-1.5996094 0-3.4335938c0.9375-1.8339844 3.4726562-1.0136719 3.2011719 0.6259766 -0.2734375 1.6376953-2.0683594 4.6040039-0.2734375 5.5024414 1.7949219 0.8964844 4.3320312-0.546875 4.3320312-5.4633789 0-4.9179688-6.8691406-4.9570312-8.4296875-2.4990234C1.9125977 5.8544922 1.8344727 7.4140625 2.3413086 8.3505859c0.5068359 0.9375 0.6625977 1.1318359 0.5844727 1.6005859 -0.0776367 0.4682617-0.284668 1.1303711-0.862793 0.8178711 -0.5800781-0.3105469-2.0625-1.2866211-2.0625-4.3305664S3.0429688 0 8.5058594 0s7.84375 7.0234375 4.7617188 10.9643555c-3.0839844 3.9433594-6.0488281 2.7324219-7.140625 1.328125 0 0-0.546875 2.0292969-0.78125 2.9257812C5.1113281 16.1166992 3.5898438 18.925293 3.2382812 18.847168z"/><path fill="#FFFFFF" d="M76.2978516-125.3066406c0 0-0.6962891-3.828125-4.1533203-3.828125 1.2763672-0.40625 1.7402344-0.4628906 1.6123047-0.8564453 0 0-0.0820312-0.5947266-1.6123047 0.2646484 0.71875-0.5683594 0.6728516-0.7070312 0.5449219-0.7646484 -0.1259766-0.0595703-0.9042969 0.2431641-1.2421875 0.6943359 -0.3359375 0.4521484 0.2558594-0.5332031 0.046875-0.5546875 -0.2080078-0.0253906-1.8339844 1.0771484-3.109375 4.8613281 -2.0068359-1.8105469-5.59375-3.2841797-6.6494141-3.4589844 0 0-0.3056641 0.8574219 0.3505859 1.5664062 0.6523438 0.7070312 1.2050781 0.9863281 1.2050781 0.9863281s-0.9082031-0.0058594-1.1933594 0.1025391c-0.09375 0.1064453 0.0332031 0.9072266 0.7636719 1.3583984 0.7314453 0.453125 1.4726562 0.6621094 1.4726562 0.6621094s-0.9277344 0.0585938-1.2871094 0.5917969c0.2099609 0.5097656 0.6035156 0.9980469 1.3125 1.1835938 0.7070312 0.1865234 1.078125 0.046875 1.078125 0.046875s-0.859375 0.4179688-0.7070312 1.0087891c0.1494141 0.5927734 0.9150391 0.7431641 1.3330078 0.7080078 0.4189453-0.0351562-3.4931641 3.5273438-7.3115234 0.2792969C59.9482422-118.0996094 63.4648438-116.5 67.1552734-116.5c3.6884766 0 7.7148438-1.7626953 9.2705078-6.6015625 0 0 1.7539062 0.0703125 2.3457031-0.8808594 -0.4404297 0.1152344-1.8945312 0.0332031-2.0898438-0.2207031 1.3115234-0.2216797 2.0654297-0.8710938 2.0898438-1.1152344C78.1210938-125.0625 76.4375-125.1904297 76.2978516-125.3066406z"/></svg>