<svg xmlns="http://www.w3.org/2000/svg" xmlns:xlink="http://www.w3.org/1999/xlink" version="1.1" id="Layer_1" x="0px" y="0px" width="9.3164062px" height="15.8691406px" viewBox="0 0 9.3164062 15.8691406" enable-background="new 0 0 9.3164062 15.8691406" xml:space="preserve"><path fill="#FFFFFF" d="M7.2285156 12.9492188c-1.2988281 0.0332031-1.5488281-0.8925781-1.5605469-1.5644531V6.7207031h3.0234375V4.0195312H5.6796875V0.0019531c0 0-2.3349609 0-2.3740234 0 -0.0380859 0-0.1064453 0.0332031-0.1152344 0.1191406C3.0507812 1.3574219 2.4589844 3.5292969 0 4.3964844v2.3242188h1.8710938v4.9082031c0 1.7753906 1.1074219 4.296875 4.6376953 4.2382812 1.1914062-0.0195312 2.5146484-0.5097656 2.8076172-0.9296875l-0.7792969-2.2617188C8.2353516 12.8144531 7.6591797 12.9375 7.2285156 12.9492188L7.2285156 12.9492188z"/></svg>