<svg xmlns="http://www.w3.org/2000/svg" xmlns:xlink="http://www.w3.org/1999/xlink" version="1.1" id="Layer_1" x="0px" y="0px" width="20.0195312px" height="13.9985352px" viewBox="0 0 20.0195312 13.9985352" enable-background="new 0 0 20.0195312 13.9985352" xml:space="preserve"><path fill="#191818" d="M17.5458984 5.1918945c0 0-0.6962891-3.828125-4.1533203-3.828125 1.2763672-0.40625 1.7402344-0.4628906 1.6123047-0.8564453 0 0-0.0820312-0.5947266-1.6123047 0.2646484 0.71875-0.5683594 0.6728516-0.7070312 0.5449219-0.7646484 -0.1259766-0.0595703-0.9042969 0.2431641-1.2421875 0.6943359 -0.3359375 0.4521484 0.2558594-0.5332031 0.046875-0.5546875 -0.2080078-0.0253906-1.8339844 1.0771484-3.109375 4.8613281 -2.0068359-1.8105469-5.59375-3.2841797-6.6494141-3.4589844 0 0-0.3056641 0.8574219 0.3505859 1.5664062 0.6523438 0.7070312 1.2050781 0.9863281 1.2050781 0.9863281S3.6308594 4.0961914 3.3457031 4.2045898c-0.09375 0.1064453 0.0332031 0.9072266 0.7636719 1.3583984 0.7314453 0.453125 1.4726562 0.6621094 1.4726562 0.6621094S4.6542969 6.2836914 4.2949219 6.8168945c0.2099609 0.5097656 0.6035156 0.9980469 1.3125 1.1835938 0.7070312 0.1865234 1.078125 0.046875 1.078125 0.046875S5.8261719 8.465332 5.9785156 9.0561523c0.1494141 0.5927734 0.9150391 0.7431641 1.3330078 0.7080078C7.7304688 9.7290039 3.8183594 13.2915039 0 10.043457c1.1962891 2.3554688 4.7128906 3.9550781 8.4033203 3.9550781 3.6884766 0 7.7148438-1.7626953 9.2705078-6.6015625 0 0 1.7539062 0.0703125 2.3457031-0.8808594C19.5791016 6.6313477 18.125 6.5493164 17.9296875 6.2954102c1.3115234-0.2216797 2.0654297-0.8710938 2.0898438-1.1152344C19.3691406 5.4360352 17.6855469 5.3081055 17.5458984 5.1918945z"/></svg>