<svg xmlns="http://www.w3.org/2000/svg" xmlns:xlink="http://www.w3.org/1999/xlink" version="1.1" id="Layer_1" x="0px" y="0px" width="20.0195312px" height="13.9980469px" viewBox="0 0 20.0195312 13.9980469" enable-background="new 0 0 20.0195312 13.9980469" xml:space="preserve"><path fill-rule="evenodd" clip-rule="evenodd" fill="#FFFFFF" d="M62.1015625-35.4350586h11.7958984c1.1191406 0 2.0361328 0.9160156 2.0361328 2.0371094v11.7949219c0 1.1210938-0.9169922 2.0371094-2.0361328 2.0371094H62.1015625c-1.1210938 0-2.0361328-0.9160156-2.0361328-2.0371094v-11.7949219C60.0654297-34.519043 60.9804688-35.4350586 62.1015625-35.4350586L62.1015625-35.4350586zM71.625-33.6713867L71.625-33.6713867c-0.3945312 0-0.7148438 0.3222656-0.7148438 0.7148438v1.7089844c0 0.3925781 0.3203125 0.7148438 0.7148438 0.7148438h1.7929688c0.3935547 0 0.7148438-0.3222656 0.7148438-0.7148438v-1.7089844c0-0.3925781-0.3212891-0.7148438-0.7148438-0.7148438H71.625L71.625-33.6713867zM74.1396484-28.7241211L74.1396484-28.7241211h-1.3964844c0.1337891 0.4316406 0.203125 0.8886719 0.203125 1.3613281 0 2.6386719-2.2089844 4.7792969-4.9326172 4.7792969s-4.9296875-2.140625-4.9296875-4.7792969c0-0.4726562 0.0683594-0.9296875 0.2011719-1.3613281H61.828125v6.703125c0 0.3476562 0.2841797 0.6308594 0.6318359 0.6308594h11.0488281c0.3476562 0 0.6308594-0.2832031 0.6308594-0.6308594V-28.7241211L74.1396484-28.7241211zM68.0136719-30.6225586L68.0136719-30.6225586c-1.7617188 0-3.1865234 1.3828125-3.1865234 3.0878906s1.4248047 3.0878906 3.1865234 3.0878906c1.7607422 0 3.1875-1.3828125 3.1875-3.0878906S69.7744141-30.6225586 68.0136719-30.6225586L68.0136719-30.6225586z"/><path fill="#FFFFFF" d="M70.3515625 73.515625c-1.2988281 0.0332031-1.5488281-0.8925781-1.5605469-1.5644531v-4.6640625h3.0234375v-2.7011719h-3.0117188v-4.0175781c0 0-2.3349609 0-2.3740234 0 -0.0380859 0-0.1064453 0.0332031-0.1152344 0.1191406 -0.1396484 1.2363281-0.7314453 3.4082031-3.1904297 4.2753906v2.3242188h1.8710938v4.9082031c0 1.7753906 1.1074219 4.296875 4.6376953 4.2382812 1.1914062-0.0195312 2.5146484-0.5097656 2.8076172-0.9296875l-0.7792969-2.2617188C71.3583984 73.3808594 70.7822266 73.5039062 70.3515625 73.515625L70.3515625 73.515625z"/><path fill="#FFFFFF" d="M17.5458984 5.1918945c0 0-0.6962891-3.828125-4.1533203-3.828125 1.2763672-0.40625 1.7402344-0.4628906 1.6123047-0.8564453 0 0-0.0820312-0.5947266-1.6123047 0.2646484 0.71875-0.5683594 0.6728516-0.7070312 0.5449219-0.7646484 -0.1259766-0.0595703-0.9042969 0.2431641-1.2421875 0.6943359 -0.3359375 0.4521484 0.2558594-0.5332031 0.046875-0.5546875 -0.2080078-0.0253906-1.8339844 1.0771484-3.109375 4.8613281 -2.0068359-1.8105469-5.59375-3.2841797-6.6494141-3.4589844 0 0-0.3056641 0.8574219 0.3505859 1.5664062 0.6523438 0.7070312 1.2050781 0.9863281 1.2050781 0.9863281S3.6308594 4.0961914 3.3457031 4.2045898c-0.09375 0.1064453 0.0332031 0.9072266 0.7636719 1.3583984 0.7314453 0.453125 1.4726562 0.6621094 1.4726562 0.6621094S4.6542969 6.2836914 4.2949219 6.8168945c0.2099609 0.5097656 0.6035156 0.9980469 1.3125 1.1835938 0.7070312 0.1865234 1.078125 0.046875 1.078125 0.046875S5.8261719 8.465332 5.9785156 9.0561523c0.1494141 0.5927734 0.9150391 0.7431641 1.3330078 0.7080078C7.7304688 9.7290039 3.8183594 13.2910156 0 10.043457c1.1962891 2.3549805 4.7128906 3.9545898 8.4033203 3.9545898 3.6884766 0 7.7148438-1.7617188 9.2705078-6.6010742 0 0 1.7539062 0.0703125 2.3457031-0.8808594C19.5791016 6.6313477 18.125 6.5493164 17.9296875 6.2954102c1.3115234-0.2216797 2.0654297-0.8710938 2.0898438-1.1152344C19.3691406 5.4360352 17.6855469 5.3081055 17.5458984 5.1918945z"/></svg>