<?xml version="1.0" encoding="utf-8"?>
<!-- Generator: Adobe Illustrator 17.0.0, SVG Export Plug-In . SVG Version: 6.00 Build 0)  -->
<!DOCTYPE svg PUBLIC "-//W3C//DTD SVG 1.1//EN" "http://www.w3.org/Graphics/SVG/1.1/DTD/svg11.dtd">
<svg version="1.1" id="Layer_1" xmlns="http://www.w3.org/2000/svg" xmlns:xlink="http://www.w3.org/1999/xlink" x="0px" y="0px"
	 width="10.124px" height="12.657px" viewBox="0 0 10.124 12.657" enable-background="new 0 0 10.124 12.657" xml:space="preserve">
<g>
	<g>
		<path fill-rule="evenodd" clip-rule="evenodd" fill="#010101" d="M7.542,5.721c0,0,1.741-0.721,1.741-2.78S7.575,0,5.063,0
			C2.55,0,0,0,0,0v12.657c0,0,3.161,0,5.321,0c2.16,0,4.803-0.947,4.803-3.877C10.124,5.85,7.542,5.721,7.542,5.721z M3.162,2.319
			c0.47,0,2.886-0.465,2.886,1.34C6.048,5.464,3.162,5,3.162,5V2.319z M4.746,10.325c-0.744,0-1.584,0.011-1.584,0.011v-3.17
			c0,0,1.153,0.009,1.845,0.009s1.844,0.113,1.844,1.547C6.851,10.155,5.491,10.325,4.746,10.325z"/>
	</g>
	<g>
		<path fill="#010101" d="M-121.753,14.038h-3.188v-7.71h-1.595V3.67h1.595V2.075c0-2.168,0.899-3.457,3.457-3.457h2.126v2.658
			h-1.328c-0.995,0-1.062,0.372-1.062,1.063l-0.005,1.331h2.41l-0.281,2.657h-2.129V14.038z"/>
	</g>
</g>
</svg>
