<svg xmlns="http://www.w3.org/2000/svg" xmlns:xlink="http://www.w3.org/1999/xlink" version="1.1" id="Layer_1" x="0px" y="0px" width="19.3505859px" height="10.9897461px" viewBox="0 0 19.3505859 10.9897461" enable-background="new 0 0 19.3505859 10.9897461" xml:space="preserve"><path fill-rule="evenodd" clip-rule="evenodd" fill="#191818" d="M0.7568359 0.4726562c-0.7460938 0-0.9042969 0.3847656-0.6328125 0.9023438 0.2695312 0.5195312 3.9238281 9.6147461 9.1855469 9.6147461 0 0 0.515625 0 1.0595703 0 0.5400391 0 0.9912109-0.2929688 0.9912109-0.8793945 0-0.5869141 0.2275391-1.6474609 0.7910156-1.6474609 0.5664062 0 1.8730469 2.5268555 3.4765625 2.5268555 1.6025391 0 1.7597656 0 2.7753906 0 1.0136719 0 1.0820312-0.5410156 0.8115234-1.0834961 -0.2714844-0.5410156-0.4960938-0.7451172-1.2421875-1.5341797 -0.7421875-0.7880859-1.8037109-1.5117188-1.8037109-2.1669922 0-0.6542969 2.234375-3.0917969 2.7529297-4.1054688 0.5185547-1.015625 0.5888672-1.6269531-0.2714844-1.6269531 -0.8564453 0-2.796875 0-3.3173828 0 -0.5175781 0-0.6308594 0.6328125-0.7998047 0.9257812 -0.1699219 0.2949219-1.9072266 3.9492188-2.7441406 3.9492188 -0.8320312 0-0.4951172-1.8037109-0.4951172-2.0996094 0-0.2929688 0.0908203-1.578125 0.0908203-2.1875S10.8427734 0 10.1425781 0C9.4443359 0 8.7666016 0 7.9541016 0 7.1435547 0 6.2382812 0.5410156 6.3515625 0.765625 6.4638672 0.9921875 7.4345703 0.7216797 7.5478516 2.03125c0.1132812 1.3085938 0.1132812 3.3613281-0.4960938 3.3613281 -0.6113281 0-1.9394531-2.390625-2.3945312-3.3398438C4.2080078 1.1054688 4.0263672 0.4511719 3.1699219 0.4511719 2.3115234 0.4511719 0.7568359 0.4726562 0.7568359 0.4726562z"/></svg>