<?xml version="1.0" encoding="utf-8"?>
<!-- Generator: Adobe Illustrator 16.0.0, SVG Export Plug-In . SVG Version: 6.00 Build 0)  -->
<!DOCTYPE svg [
	<!ENTITY ns_extend "http://ns.adobe.com/Extensibility/1.0/">
	<!ENTITY ns_ai "http://ns.adobe.com/AdobeIllustrator/10.0/">
	<!ENTITY ns_graphs "http://ns.adobe.com/Graphs/1.0/">
	<!ENTITY ns_vars "http://ns.adobe.com/Variables/1.0/">
	<!ENTITY ns_imrep "http://ns.adobe.com/ImageReplacement/1.0/">
	<!ENTITY ns_sfw "http://ns.adobe.com/SaveForWeb/1.0/">
	<!ENTITY ns_custom "http://ns.adobe.com/GenericCustomNamespace/1.0/">
	<!ENTITY ns_adobe_xpath "http://ns.adobe.com/XPath/1.0/">
]>
<svg version="1.2" baseProfile="tiny" xmlns:x="&ns_extend;" xmlns:i="&ns_ai;" xmlns:graph="&ns_graphs;"
	 xmlns="http://www.w3.org/2000/svg" xmlns:xlink="http://www.w3.org/1999/xlink" x="0px" y="0px" width="662.6655273px"
	 height="77.4492188px" viewBox="0 0 662.6655273 77.4492188" xml:space="preserve">
<metadata>
	<sfw  xmlns="&ns_sfw;">
		<slices></slices>
		<sliceSourceBounds  height="16383" width="16383" y="-8472" x="-7711" bottomLeftOrigin="true"></sliceSourceBounds>
	</sfw>
</metadata>
<g id="Слой_1">
	<g>
		<g>
			<path fill="#0071CE" d="M215.5766602,44.6542969c-1.1044922-2.3476563-2.4980469-4.3066406-3.9467773-5.9296875
				c1.4487305-1.6230469,2.8422852-3.5820313,3.9467773-5.9257813c1.4145508-2.984375,2.3120117-6.5800781,2.3032227-10.53125
				c0.012207-5.3183594-1.1943359-9.7617188-3.0834961-13.15625c-1.1928711-2.1699219-2.8857422-3.9648438-4.6943359-5.2441406
				C207.3662109,1.9375,204.503418,1.0625,201.9013672,0.5703125C199.2856445,0.09375,196.8447266,0.0039063,194.6816406,0
				h-27.0668945v0.0019531c-1.9448242,0.0078125-3.5014648-0.0234375-5.3261719,0.1679688
				c-1.3452148,0.1679688-3.0351563,0.421875-5.0317383,1.5976563c-1.4804688,0.859375-2.8759766,2.3710938-3.6196289,3.8359375
				c-1.1401367,2.234375-1.2626953,3.9414063-1.3959961,5.3945313c-0.1025391,1.4746094-0.0898438,2.8535156-0.0917969,4.4921875
				c-0.0019531,7.0195313-0.0019531,26.7597656,0,30.3984375c0,6.1503906,0,12.6328125,0,16.0664063
				c0.0048828,1.9511719-0.0253906,3.5117188,0.1689453,5.3378906c0.1674805,1.3476563,0.4179688,3.0429688,1.5927734,5.0390625
				c0.862793,1.4863281,2.3686523,2.8808594,3.8320313,3.6269531c2.2304688,1.140625,3.9326172,1.2597656,5.3876953,1.3984375
				c1.472168,0.1015625,2.8466797,0.0859375,4.4838867,0.0917969l0,0h27.0668945
				c2.8867188-0.015625,6.2602539-0.140625,9.8945313-1.2128906c1.8105469-0.5507813,3.7138672-1.3671875,5.5258789-2.65625
				c1.8085938-1.2773438,3.5014648-3.0722656,4.6943359-5.2421875c1.8891602-3.3945313,3.0957031-7.8398438,3.0849609-13.1542969
				C217.8857422,51.2324219,216.9912109,47.6328125,215.5766602,44.6542969z M194.6816406,15.4902344
				c2.2207031-0.015625,4.2841797,0.1875,5.4321289,0.5566406c0.5771484,0.1699219,0.9013672,0.3574219,1.027832,0.4472656
				c0.128418,0.1035156,0.0864258,0.0664063,0.128418,0.1289063c0.5097656,0.9414063,1.1313477,2.5546875,1.1430664,5.6445313
				c-0.0063477,1.6875-0.3388672,2.8730469-0.8266602,3.9238281c-0.487793,1.0390625-1.1777344,1.9433594-1.972168,2.7246094
				c-0.6210938,0.6035156-1.5004883,1.1113281-3.0205078,1.5039063c-1.4897461,0.3886719-3.5102539,0.5683594-5.7055664,0.5605469
				l0,0c-6.5595703,0-16.0498047,0-23.2734375,0c0-5.9746094,0-12.1640625,0-15.4902344H194.6816406z M201.2724609,60.8242188
				c-0.0463867,0.0605469-0.003418,0.0273438-0.1337891,0.1328125c-0.1699219,0.1347656-0.8613281,0.4785156-2.046875,0.6875
				c-1.168457,0.2246094-2.7431641,0.3164063-4.4101563,0.3105469h-27.0668945c0-3.3261719,0-9.5117188,0-15.4863281l0,0l0,0
				c0.7719727,0,1.5576172,0,2.3735352,0c6.8334961,0,15.0405273,0,20.8979492,0
				c2.1992188-0.0058594,4.2177734,0.1699219,5.7075195,0.5605469c1.5200195,0.3925781,2.3994141,0.9003906,3.0205078,1.5058594
				c0.7944336,0.78125,1.484375,1.6816406,1.972168,2.7226563c0.487793,1.0507813,0.8208008,2.2402344,0.8266602,3.9257813
				C202.4013672,58.2714844,201.7797852,59.8828125,201.2724609,60.8242188z"/>
			<path fill="#0071CE" d="M137.7553711,11.3789063c-1.684082-4.2148438-4.9570313-7.2421875-8.3422852-8.9492188
				C125.9946289,0.6894531,122.3955078,0.0117188,118.9008789,0c-3.2270508,0-7.1499023,0-11.1210938,0
				c-3.9716797,0-7.8930664,0-11.1220703,0c-3.4946289,0.0117188-7.090332,0.6894531-10.5087891,2.4296875
				c-3.3867188,1.7070313-6.6586914,4.734375-8.3457031,8.9492188c-2.3408203,5.796875-4.3408203,14.5117188-4.3408203,27.3476563
				c0,12.8339844,2,21.5488281,4.3408203,27.34375c1.6879883,4.2109375,4.9599609,7.2441406,8.3500977,8.9511719
				c3.4189453,1.7382813,7.0166016,2.4160156,10.512207,2.4277344h2.8984375h16.4331055h2.8984375
				c3.4970703-0.0117188,7.0927734-0.6894531,10.512207-2.4277344c3.3876953-1.7070313,6.6606445-4.7402344,8.3476563-8.9511719
				c2.3432617-5.7949219,4.3398438-14.5097656,4.3398438-27.34375
				C142.0952148,25.890625,140.0986328,17.1757813,137.7553711,11.3789063z M123.4174805,60.2578125
				c-0.1391602,0.3027344-0.277832,0.5429688-1.0615234,0.9765625c-0.7524414,0.4003906-2.0864258,0.7324219-3.4604492,0.7207031
				h-19.331543l0,0h-2.8984375c-1.3745117,0.0117188-2.7104492-0.3203125-3.4633789-0.7207031
				c-0.7827148-0.4335938-0.9189453-0.6738281-1.0605469-0.9765625c-1.4624023-3.6210938-3.2124023-10.2949219-3.2124023-21.53125
				c0-11.2421875,1.75-17.9140625,3.2124023-21.5351563c0.1416016-0.3027344,0.277832-0.5449219,1.0605469-0.9765625
				c0.7529297-0.4023438,2.0888672-0.734375,3.4555664-0.7246094c0.918457,0,1.894043,0,2.90625,0
				c5.2856445,0,11.3710938,0,16.4331055,0c1.0136719,0,1.9897461,0,2.9038086,0
				c1.3710938-0.0097656,2.7026367,0.3222656,3.4550781,0.7246094c0.7836914,0.4316406,0.9223633,0.6738281,1.0615234,0.9765625
				c1.4643555,3.6210938,3.2119141,10.2929688,3.2119141,21.5351563
				C126.6293945,49.9628906,124.8818359,56.6367188,123.4174805,60.2578125z"/>
			<path fill="#0071CE" d="M291.449707,11.3808594c-1.6845703-4.2167969-4.9580078-7.2421875-8.3427734-8.9511719
				C279.690918,0.6894531,276.0913086,0.0117188,272.5991211,0c-3.2285156,0-7.1523438,0-11.1230469,0
				c-3.9726563,0-7.8955078,0-11.1210938,0c-3.4985352,0.0117188-7.0922852,0.6894531-10.5136719,2.4296875
				c-3.3823242,1.7089844-6.6552734,4.734375-8.3413086,8.9492188c-2.3413086,5.796875-4.340332,14.5117188-4.340332,27.3476563
				c0,12.8339844,1.9990234,21.5488281,4.340332,27.34375c1.6879883,4.2109375,4.9599609,7.2441406,8.3452148,8.9511719
				c3.421875,1.7382813,7.0170898,2.4160156,10.515625,2.4277344h2.8994141h16.4326172h2.9003906
				c3.4931641-0.0117188,7.0898438-0.6894531,10.5097656-2.4277344c3.3867188-1.7070313,6.6621094-4.7402344,8.3466797-8.9511719
				c2.3447266-5.7949219,4.3427734-14.5097656,4.3427734-27.34375
				C295.7924805,25.890625,293.7944336,17.1757813,291.449707,11.3808594z M277.1147461,60.2597656
				c-0.1435547,0.3007813-0.2753906,0.5410156-1.0605469,0.9746094c-0.7519531,0.4003906-2.0878906,0.7324219-3.4609375,0.7207031
				h-19.3330078l0,0h-2.8994141c-1.3730469,0.0117188-2.7104492-0.3203125-3.4619141-0.7207031
				c-0.7841797-0.4335938-0.9233398-0.6738281-1.0605469-0.9746094c-1.4628906-3.6230469-3.2119141-10.296875-3.2119141-21.5332031
				c0-11.2421875,1.7490234-17.9140625,3.2119141-21.5351563c0.137207-0.3027344,0.2763672-0.5449219,1.0605469-0.9765625
				c0.7514648-0.4023438,2.0864258-0.734375,3.4560547-0.7246094c0.9160156,0,1.8916016,0,2.9052734,0
				c5.2851563,0,11.3701172,0,16.4326172,0c1.0136719,0,1.9882813,0,2.90625,0
				c1.3691406-0.0097656,2.703125,0.3222656,3.4550781,0.7246094c0.7832031,0.4316406,0.9169922,0.6738281,1.0605469,0.9765625
				c1.4619141,3.6210938,3.2109375,10.2929688,3.2109375,21.5351563
				C280.3256836,49.9628906,278.5766602,56.6367188,277.1147461,60.2597656z"/>
			<path fill="#0071CE" d="M37.050293,56.1875c0.1357422-0.0019531,0.2890625-0.0039063,0.4370117-0.0078125l11.0112305,21.2695313
				h17.4228516L52.934082,52.3652344c0.2661133-0.1425781,0.5288086-0.2773438,0.796875-0.4335938
				c3.3979492-1.9707031,6.7978516-5.0058594,9.2084961-9.2460938c2.4238281-4.2324219,3.7705078-9.5058594,3.7573242-15.5761719
				c0.0102539-7.1542969-1.6118164-12.8203125-3.7290039-16.9355469c-2.0922852-4.1230469-5.6743164-6.8261719-9.1264648-8.2519531
				C50.3452148,0.46875,46.8452148,0.0117188,43.5742188,0c-8.0893555,0-20.6777344,0-28.1074219,0.0019531
				c-1.9453125,0.0078125-3.5024414-0.0253906-5.3256836,0.1699219C8.793457,0.3378906,7.1035156,0.5917969,5.105957,1.7675781
				C3.6269531,2.6328125,2.2324219,4.1386719,1.4868164,5.6015625c-1.1376953,2.2382813-1.2617188,3.9433594-1.394043,5.3964844
				C-0.0078125,12.4726563,0.0039063,13.8496094,0,15.4902344c0,7.7441406,0,61.9589844,0,61.9589844h15.4667969
				c0,0,0-9.6035156,0-21.2988281h20.0537109C35.8564453,56.1660156,36.3764648,56.1875,37.050293,56.1875z M15.4667969,15.4902344
				c7.4296875,0,20.0180664,0,28.1074219,0c1.6987305-0.0117188,3.3208008,0.296875,4.2714844,0.7148438
				c0.9916992,0.4453125,1.1806641,0.7246094,1.3579102,1.0332031c0.9902344,1.9550781,2.0180664,4.9941406,2.0292969,9.8710938
				C51.2197266,30.9960938,50.4350586,33.3632813,49.5097656,35c-1.3740234,2.3945313-3.3911133,3.7109375-5.9389648,4.6328125
				c-2.4926758,0.890625-5.2558594,1.078125-6.5205078,1.0664063c-0.2841797,0-0.4921875-0.0058594-0.6074219-0.0117188
				c-0.0341797,0-0.0581055-0.0019531-0.0756836-0.0058594c-0.0214844,0-0.0273438,0-0.0273438,0l0,0l-0.25-0.0214844H15.4667969
				C15.4667969,29.1328125,15.4667969,18.5917969,15.4667969,15.4902344z"/>
		</g>
		<path fill="#EB0029" d="M363.4995117,53.6875c-4.1835938-5.9746094-9.7617188-11.1054688-14.3691406-14.9921875
			c-0.0507813-0.0449219-0.1035156-0.0859375-0.15625-0.1269531c2.4863281-2.078125,5.2734375-4.5644531,7.9648438-7.3203125
			c2.8203125-2.8984375,5.5527344-6.0800781,7.7558594-9.6210938c2.1582031-3.5390625,3.984375-7.5117188,4.03125-12.3632813
			v-2.3125c0-3.8300781-3.0996094-6.9394531-6.9296875-6.9394531h-3.84375c-2.5546875,0-4.6230469,2.0722656-4.6230469,4.6269531
			c0,3.0800781-0.1132813,6.2949219-1.7402344,8.9121094c-0.21875,0.3515625-0.4589844,0.7128906-0.7265625,1.0839844
			c-2.7460938,3.9921875-7.5625,8.6074219-11.6152344,11.9785156c-2.0273438,1.703125-3.8691406,3.1230469-5.1875,4.1113281
			c-0.0585938,0.0429688-0.1132813,0.0839844-0.1699219,0.1269531c-0.8710938,0-1.921875,0-3.0996094,0.0019531
			c-2.421875-0.0019531-5.3613281-0.0097656-8.2539063-0.0195313c0-9.2832031,0-17.9824219,0-23.8769531
			c0-3.8320313-3.0996094-6.9453125-6.9277344-6.9453125h-1.5380859c-3.8310547,0-6.9287109,3.1230469-6.9287109,6.9589844
			c0,15.15625,0,48.7851563,0,63.3691406c0,3.8359375,3.0947266,6.9648438,6.9287109,6.9648438h1.5380859
			c3.8222656,0,6.9277344-3.0976563,6.9277344-6.9257813c0-5.7910156,0-14.6074219,0-24.0820313
			c2.8251953-0.0097656,5.6972656-0.0195313,8.0878906-0.0234375c1.2421875,0.0039063,2.3496094,0.0039063,3.2617188,0.0039063
			c2.3339844,1.7421875,6.40625,4.9199219,10.2734375,8.6328125c2.6972656,2.578125,5.2480469,5.4179688,6.9277344,7.9199219
			c1.7402344,2.4882813,2.3183594,4.5917969,2.2421875,5.0390625v2.3105469c0,3.8320313,3.1054688,6.9394531,6.9277344,6.9394531
			h1.5429688c3.8261719,0,6.9257813-3.1074219,6.9257813-6.9394531v-2.3105469
			C368.6401367,62.1660156,366.222168,57.6953125,363.4995117,53.6875z M503.2612305,31.625
			c-2.15625-0.6210938-4.1269531-0.7675781-5.8730469-0.7734375H476.597168
			c-2.0117188,0.0136719-3.9023438-0.2382813-4.9902344-0.625c-1.140625-0.4316406-1.2128906-0.6464844-1.3359375-0.8242188
			c-0.65625-1.2050781-1.3535156-3.0332031-1.3671875-6.2617188c0.0136719-3.2304688,0.7109375-5.0566406,1.3671875-6.2617188
			c0.1230469-0.1777344,0.1953125-0.3886719,1.3320313-0.8183594c1.0820313-0.390625,2.9667969-0.6425781,4.9746094-0.6289063
			c8.078125,0,20.8632813,0,29.9902344,0c3.8378906,0,6.9863281-3.0878906,6.9863281-6.9355469v-8.484375
			c0,0-26.4824219,0-36.9765625,0c-1.3203125,0.0058594-2.7148438,0.0566406-4.1640625,0.2109375
			c-3.921875,0.4238281-7.7929688,1.578125-10.9667969,3.9199219c-3.7734375,2.7832031-6.015625,7.1152344-7.1113281,11.6757813
			c-0.0390625,0.1640625-0.0761719,0.328125-0.1132813,0.4960938c-1,4.5273438-0.9980469,9.2304688,0.0214844,13.7519531
			c0.109375,0.4863281,0.2285156,0.9609375,0.3574219,1.4257813c1.0742188,3.8085938,2.9550781,7.421875,5.9804688,9.9648438
			c3.5527344,2.9902344,8.1542969,4.3242188,12.78125,4.6894531c1.1191406,0.0898438,2.1972656,0.1210938,3.234375,0.125h18.3222656
			c2.5585938,0,5.1914063,1.1894531,5.8378906,3.6679688c0.6855469,2.6328125,0.6855469,5.4023438,0.0078125,8.0390625
			c-0.2460938,0.96875-0.5703125,1.7011719-0.9042969,2.28125c-0.5214844,0.8984375-1.4941406,1.4433594-2.5292969,1.4296875
			c-7.2519531,0-23.0332031,0-33.7558594,0c-3.84375,0-6.9882813,3.0898438-6.9882813,6.9394531v1.5429688
			c0,3.8457031,3.1445313,6.9375,6.9882813,6.9375c10.7226563,0,26.5039063,0,33.7558594,0
			c1.7363281-0.0039063,3.7089844-0.1445313,5.8769531-0.7578125c2.1445313-0.609375,4.5703125-1.78125,6.5800781-3.8476563
			c3.4003906-3.3828125,6.9160156-9.75,6.8457031-18.5253906c0.0703125-8.7753906-3.4453125-15.140625-6.8476563-18.5214844
			C507.7944336,33.4101563,505.3959961,32.234375,503.2612305,31.625z M572.4135742,31.6230469
			c-2.1621094-0.6191406-4.1328125-0.765625-5.8769531-0.7714844h-20.7871094
			c-2.015625,0.0136719-3.9082031-0.2382813-4.9921875-0.625c-1.1445313-0.4316406-1.2128906-0.6464844-1.3378906-0.8242188
			c-0.6601563-1.2050781-1.3496094-3.0332031-1.3671875-6.2617188c0.0175781-3.2285156,0.7070313-5.0566406,1.3671875-6.2617188
			c0.125-0.1777344,0.1972656-0.390625,1.3339844-0.8183594c1.078125-0.390625,2.96875-0.6425781,4.9707031-0.6289063
			c8.0820313,0,20.8652344,0,29.9882813,0c3.8457031,0,6.9882813-3.0878906,6.9882813-6.9394531V0.015625
			c-8.0292969-0.0039063-26.4785156-0.0039063-36.9765625-0.0039063c-1.3203125,0.0058594-2.7148438,0.0566406-4.1621094,0.2148438
			c-3.921875,0.4199219-7.7929688,1.5722656-10.9667969,3.9160156c-3.7695313,2.7832031-6.0175781,7.1152344-7.1113281,11.6757813
			c-0.0371094,0.1640625-0.078125,0.328125-0.1152344,0.4960938c-1.0019531,4.5273438-0.9941406,9.2304688,0.0214844,13.7519531
			c0.1113281,0.4863281,0.2304688,0.9609375,0.3613281,1.4257813c1.0722656,3.8085938,2.9511719,7.421875,5.9785156,9.9648438
			c3.5527344,2.9902344,8.1542969,4.3242188,12.7792969,4.6894531c1.1210938,0.0898438,2.203125,0.1210938,3.2402344,0.125
			h18.3144531c2.5625,0,5.1972656,1.1894531,5.8417969,3.671875c0.6835938,2.6289063,0.6835938,5.3984375,0.0097656,8.0351563
			c-0.2519531,0.96875-0.5683594,1.7011719-0.9042969,2.28125c-0.5214844,0.8984375-1.4960938,1.4433594-2.53125,1.4296875
			c-7.2519531,0-23.0351563,0-33.7558594,0c-3.8417969,0-6.9882813,3.0917969-6.9882813,6.9394531v1.5429688
			c0,3.8457031,3.1464844,6.9375,6.9882813,6.9375c10.7246094,0,26.5039063,0,33.7558594,0
			c1.7402344-0.0039063,3.7109375-0.140625,5.8808594-0.7578125c2.1425781-0.609375,4.5644531-1.78125,6.5761719-3.8476563
			c3.3964844-3.3828125,6.9140625-9.75,6.8457031-18.5234375c0.0683594-8.7773438-3.4492188-15.1425781-6.8457031-18.5234375
			C576.9428711,33.4101563,574.5444336,32.234375,572.4135742,31.6230469z M437.1948242,8.9707031
			c-2.4023438-3.5175781-5.8046875-5.8339844-9.171875-7.1503906c-2.8671875-1.125-5.7597656-1.6308594-8.5527344-1.765625
			V0.0117188c0-0.0253906-0.0429688,0-0.0703125,0c-2.9570313,0-5.8046875,0-8.4160156,0c-2.1542969,0-4.4433594,0-6.796875,0
			c-0.046875,0-0.1152344-0.0019531-0.1152344,0.0449219c-2.7851563,0.1328125-5.6660156,0.6386719-8.5175781,1.7578125
			c-3.3632813,1.3183594-6.75,3.6289063-9.1445313,7.140625c-4.2226563,6.1269531-8.5390625,16.390625-8.5117188,31.3417969
			c0,13.7890625,0,23.7675781,0,29.8261719c0,3.8476563,3.0878906,6.9863281,6.9277344,6.9863281h1.5390625
			c3.8417969,0,6.9296875-3.1386719,6.9296875-6.9863281c0-3.1835938,0-7.4648438,0-12.8007813h36.9511719
			c0,5.3554688,0,9.65625,0,12.8515625c0,3.8339844,3.0996094,6.9355469,6.9257813,6.9355469h1.546875
			c3.8203125,0,6.9238281-3.1015625,6.9238281-6.9355469c0-6.1015625,0-16.1835938,0-30.0683594
			C445.6694336,25.2597656,441.4135742,15.0742188,437.1948242,8.9707031z M430.2456055,41.9042969h-36.9511719
			c0-0.5351563,0-1.0625,0-1.6074219c0.0273438-12.0585938,3.2890625-18.8828125,5.8183594-22.6230469
			c0.3984375-0.5703125,0.9628906-1.0585938,2.0917969-1.5175781c1.1054688-0.4414063,2.7109375-0.7304688,4.4042969-0.7246094
			c4.6054688,0,8.90625,0,12.3261719,0c1.7070313-0.0058594,3.3261719,0.2832031,4.4414063,0.7324219
			c1.1445313,0.4667969,1.7207031,0.9550781,2.1289063,1.5351563c2.4960938,3.6953125,5.7128906,10.4277344,5.7402344,22.40625
			C430.2456055,40.7148438,430.2456055,41.3085938,430.2456055,41.9042969z M662.6655273,40.1015625
			c0.03125-14.8417969-4.2285156-25.0292969-8.4453125-31.1269531c-2.4042969-3.5253906-5.8046875-5.8378906-9.1738281-7.1542969
			c-2.8671875-1.125-5.7617188-1.6308594-8.5585938-1.765625c0-0.0253906-0.0292969-0.0429688-0.0566406-0.0429688
			c-5.1660156,0-10.0214844,0-13.8046875,0c-0.0234375,0-0.046875,0-0.0742188,0c-0.453125,0-0.9042969,0-1.3652344,0
			c-0.0390625,0-0.0898438,0.0058594-0.0898438,0.0429688c-2.7832031,0.1347656-5.6699219,0.640625-8.5253906,1.7617188
			c-3.3574219,1.3144531-6.7421875,3.6230469-9.1367188,7.1386719c-4.2226563,6.1269531-8.5410156,16.390625-8.5136719,31.3417969
			c0,13.7890625,0,23.7675781,0,29.8261719c0,3.8476563,3.0878906,6.9863281,6.9277344,6.9863281h1.5390625
			c3.8417969,0,6.9296875-3.1386719,6.9277344-6.9863281c0-3.1835938,0-7.4648438,0.0019531-12.8007813h36.953125
			c0,5.3554688,0,9.65625,0,12.8515625c0,3.8339844,3.0976563,6.9355469,6.9238281,6.9355469h1.5410156
			c3.828125,0,6.9277344-3.1054688,6.9277344-6.9355469C662.6616211,64.0722656,662.6635742,53.9882813,662.6655273,40.1015625z
			 M647.2709961,41.9042969h-36.953125c0-0.5351563,0-1.0644531,0-1.6074219
			c0.0273438-12.0585938,3.2890625-18.8867188,5.8144531-22.6230469c0.4023438-0.5703125,0.9648438-1.0527344,2.09375-1.5136719
			c1.1054688-0.4453125,2.703125-0.734375,4.3945313-0.7285156c0.1328125,0,0.2695313,0,0.4023438,0
			c3.3769531,0,7.5507813,0,12.0175781,0c1.6777344,0.0039063,3.2597656,0.2890625,4.3574219,0.7324219
			c1.1464844,0.4667969,1.7226563,0.9550781,2.1289063,1.5371094c2.4980469,3.6894531,5.7128906,10.4277344,5.7441406,22.4003906
			C647.2709961,40.7148438,647.2709961,41.3085938,647.2709961,41.9042969z"/>
	</g>
</g>
<g id="Слой_2">
</g>
<g id="Слой_3">
</g>
<g id="Слой_4">
</g>
</svg>
