<svg xmlns="http://www.w3.org/2000/svg" xmlns:xlink="http://www.w3.org/1999/xlink" version="1.1" id="Layer_1" x="0px" y="0px" width="22px" height="19.0288086px" viewBox="0 0 22 19.0288086" enable-background="new 0 0 22 19.0288086" xml:space="preserve"><g><g><defs><polygon id="SVGID_1_" points="17.2333984,0 17.2333984,3.8125 13.4208984,3.8125 13.4208984,4.7666016 17.2333984,4.7666016      17.2333984,8.5791016 18.1875,8.5791016 18.1875,4.7666016 22,4.7666016 22,3.8125 18.1875,3.8125 18.1875,0    "/></defs><use xlink:href="#SVGID_1_" overflow="visible" fill="#191818"/><clipPath id="SVGID_2_"><use xlink:href="#SVGID_1_" overflow="visible"/></clipPath><rect x="13.4208984" clip-path="url(#SVGID_2_)" fill="#191818" width="8.5791016" height="8.5791016"/></g><g><path fill="#191818" d="M9.765625 10.9511719c-0.5322266-0.375-1.5517578-1.2929688-1.5517578-1.8320312 0-0.6308594 0.1806641-0.9414062 1.1318359-1.6855469 0.9726562-0.7617188 1.6640625-1.8320312 1.6640625-3.0761719 0-1.484375-0.6621094-2.9277344-1.9003906-3.4052734h1.8691406L12.296875 0H6.4023438c-2.640625 0-5.1279297 2-5.1279297 4.3203125 0 2.3671875 1.8017578 4.2792969 4.4902344 4.2792969 0.1855469 0 0.3681641-0.0029297 0.5449219-0.015625 -0.1728516 0.3339844-0.296875 0.7109375-0.296875 1.1015625 0 0.6572266 0.3535156 1.1914062 0.7998047 1.6279297 -0.3378906 0-0.6640625 0.0087891-1.0214844 0.0087891C2.5195312 11.3222656 0 13.4052734 0 15.5678711c0 2.1289062 2.7617188 3.4609375 6.0351562 3.4609375 3.7304688 0 5.7910156-2.1171875 5.7910156-4.2480469C11.8261719 13.0751953 11.3222656 12.0527344 9.765625 10.9511719M6.6152344 8C5.0976562 7.953125 3.6542969 6.3007812 3.3925781 4.3076172 3.1308594 2.3134766 4.1494141 0.7880859 5.6679688 0.8320312c1.5175781 0.046875 2.9609375 1.6474609 3.2246094 3.640625C9.1523438 6.4658203 8.1347656 8.0449219 6.6152344 8M6.0224609 18.0874023c-2.2626953 0-3.8935547-1.4316406-3.8935547-3.1523438 0-1.6850586 2.0234375-3.0893555 4.2861328-3.0639648 0.5273438 0.0058594 1.0185547 0.0908203 1.4648438 0.234375 1.2294922 0.8544922 2.1103516 1.3359375 2.3583984 2.3100586 0.046875 0.1953125 0.0722656 0.4003906 0.0722656 0.6074219C10.3105469 16.7416992 9.2011719 18.0874023 6.0224609 18.0874023"/></g></g></svg>