<svg xmlns="http://www.w3.org/2000/svg" xmlns:xlink="http://www.w3.org/1999/xlink" version="1.1" id="Layer_1" x="0px" y="0px" width="15.8681641px" height="15.8691406px" viewBox="0 0 15.8681641 15.8691406" enable-background="new 0 0 15.8681641 15.8691406" xml:space="preserve"><path fill-rule="evenodd" clip-rule="evenodd" fill="#FFFFFF" d="M2.0361328 0h11.7958984c1.1191406 0 2.0361328 0.9160156 2.0361328 2.0371094v11.7949219c0 1.1210938-0.9169922 2.0371094-2.0361328 2.0371094H2.0361328C0.9150391 15.8691406 0 14.953125 0 13.8320312V2.0371094C0 0.9160156 0.9150391 0 2.0361328 0L2.0361328 0zM11.5595703 1.7636719L11.5595703 1.7636719c-0.3945312 0-0.7148438 0.3222656-0.7148438 0.7148438V4.1875c0 0.3925781 0.3203125 0.7148438 0.7148438 0.7148438h1.7929688c0.3935547 0 0.7148438-0.3222656 0.7148438-0.7148438V2.4785156c0-0.3925781-0.3212891-0.7148438-0.7148438-0.7148438H11.5595703L11.5595703 1.7636719zM14.0742188 6.7109375L14.0742188 6.7109375h-1.3964844c0.1337891 0.4316406 0.203125 0.8886719 0.203125 1.3613281 0 2.6386719-2.2089844 4.7792969-4.9326172 4.7792969s-4.9296875-2.140625-4.9296875-4.7792969c0-0.4726562 0.0683594-0.9296875 0.2011719-1.3613281H1.7626953v6.703125c0 0.3476562 0.2841797 0.6308594 0.6318359 0.6308594h11.0488281c0.3476562 0 0.6308594-0.2832031 0.6308594-0.6308594V6.7109375L14.0742188 6.7109375zM7.9482422 4.8125L7.9482422 4.8125c-1.7617188 0-3.1865234 1.3828125-3.1865234 3.0878906s1.4248047 3.0878906 3.1865234 3.0878906c1.7607422 0 3.1875-1.3828125 3.1875-3.0878906S9.7089844 4.8125 7.9482422 4.8125L7.9482422 4.8125z"/><path fill="#FFFFFF" d="M70.3515625 73.515625c-1.2988281 0.0332031-1.5488281-0.8925781-1.5605469-1.5644531v-4.6640625h3.0234375v-2.7011719h-3.0117188v-4.0175781c0 0-2.3349609 0-2.3740234 0 -0.0380859 0-0.1064453 0.0332031-0.1152344 0.1191406 -0.1396484 1.2363281-0.7314453 3.4082031-3.1904297 4.2753906v2.3242188h1.8710938v4.9082031c0 1.7753906 1.1074219 4.296875 4.6376953 4.2382812 1.1914062-0.0195312 2.5146484-0.5097656 2.8076172-0.9296875l-0.7792969-2.2617188C71.3583984 73.3808594 70.7822266 73.5039062 70.3515625 73.515625L70.3515625 73.515625z"/></svg>