<?xml version="1.0" encoding="utf-8"?>
<!-- Generator: Adobe Illustrator 16.0.0, SVG Export Plug-In . SVG Version: 6.00 Build 0)  -->
<!DOCTYPE svg PUBLIC "-//W3C//DTD SVG 1.1 Tiny//EN" "http://www.w3.org/Graphics/SVG/1.1/DTD/svg11-tiny.dtd">
<svg version="1.1" baseProfile="tiny" xmlns="http://www.w3.org/2000/svg" xmlns:xlink="http://www.w3.org/1999/xlink" x="0px"
	 y="0px" width="163.2050781px" height="40.0703125px" viewBox="0 0 163.2050781 40.0703125" xml:space="preserve">
<g id="Фон">
</g>
<g id="Слой_1">
	<polygon fill="#FFFFFF" stroke="#231F20" stroke-width="2" points="130.2050781,1 130.2050781,33 140.5488281,33 
		146.2050781,38.65625 151.8613281,33 162.2050781,33 162.2050781,1 	"/>
	<g>
		<path d="M142.2773438,24.2646484l1.5751953-0.3994141c0.5039063-0.1259766,0.9238281-0.8818359,0.9658203-1.4482422
			l0.8818359-11.7578125h-2.7509766c-1.0283203,0-1.5742188,0.8808594-1.8886719,2.0996094
			c-0.2314453,0.0410156-0.3994141,0.0205078-0.671875-0.0634766l0.2304688-3.1708984h12.1992188l-0.2314453,3.1708984
			c-0.2939453,0.0839844-0.3154297,0.0839844-0.6513672,0.0634766c-0.1679688-1.3027344-0.671875-2.0996094-1.8261719-2.0996094
			h-2.5615234l-0.7763672,12.4707031c-0.0214844,0.4833984,0,0.671875,0.3984375,0.7558594l1.9736328,0.3789063
			c-0.0205078,0.1884766-0.0634766,0.5039063-0.1474609,0.734375h-6.6972656
			C142.2568359,24.6845703,142.2363281,24.5371094,142.2773438,24.2646484z"/>
	</g>
	<polygon fill="#FFFFFF" stroke="#231F20" stroke-width="2" points="65.1904297,0.9995117 65.1904297,32.9995117 
		75.5341797,32.9995117 81.1904297,38.6567383 86.8476563,32.9995117 97.1904297,32.9995117 97.1904297,0.9995117 	"/>
	<g>
		<path d="M74.7539063,24.2851563l1.4487305-0.3779297c0.5039063-0.1259766,0.8608398-0.6503906,0.902832-1.2382813
			l0.8608398-11.2333984c0.0209961-0.3359375-0.1049805-0.7138672-0.440918-0.8398438l-1.4487305-0.5458984
			c0-0.1679688,0-0.3779297,0.0629883-0.5253906h10.3930664l-0.2099609,3.2128906
			c-0.2519531,0.0419922-0.6088867,0.0419922-0.7978516-0.0214844c-0.1889648-0.9863281-0.440918-1.8046875-1.784668-1.8886719
			l-3.8632813-0.2314453l-0.3779297,5.4384766h2.6035156c2.6035156,0,4.6191406,1.46875,4.6191406,3.9472656
			c0,3.2753906-2.918457,5.0175781-6.0678711,5.0175781h-5.8789063
			C74.7539063,24.6845703,74.7119141,24.5576172,74.7539063,24.2851563z M80.96875,23.9072266
			c2.3725586,0,3.800293-1.2597656,3.800293-3.6328125c0-1.9726563-1.2387695-3.1699219-3.9472656-3.1699219h-1.3857422
			l-0.4619141,6.8027344H80.96875z"/>
	</g>
	<polygon fill="#FFFFFF" stroke="#000000" stroke-width="2" stroke-linecap="round" stroke-linejoin="round" points="
		1.1904297,0.9995117 1.1904297,32.9995117 11.5341797,32.9995117 17.1904297,38.6567383 22.8466797,32.9995117 
		33.1904297,32.9995117 33.1904297,0.9995117 	"/>
	<g>
		<path d="M9.8510742,23.9072266h1.3017578c1.112793-1.1972656,2.3305664-3.7578125,2.6245117-4.5771484
			c0.4619141-1.2597656,1.5537109-6.3193359,1.5537109-7.5585938c0-0.5458984-0.0419922-1.0078125-0.4619141-1.1962891
			l-1.112793-0.4833984c0-0.2099609,0.0419922-0.3154297,0.1049805-0.5673828H24.590332
			c0,0.1894531-0.0419922,0.4199219-0.1049805,0.6513672l-1.112793,0.2519531
			c-0.4619141,0.1474609-0.6088867,0.2519531-0.6508789,0.8398438l-0.7558594,12.6396484h2.0576172l-0.2519531,5.0605469
			c-0.2519531,0.0410156-0.671875,0.0625-0.8188477-0.0214844c-0.1889648-1.0078125-0.6088867-3.9472656-2.2885742-3.9472656
			h-7.2226563c-2.7714844,0-2.8344727,2.9814453-3.1494141,3.9892578c-0.1679688,0.0839844-0.6088867,0.0634766-0.8398438,0.0205078
			L9.8510742,23.9072266z M20.0341797,23.9072266l0.902832-13.2910156h-4.2202148
			c-0.440918,3.0449219-1.3227539,7.7695313-1.6586914,8.7773438c-0.3569336,1.1123047-1.3647461,3.2539063-2.0996094,4.5136719
			H20.0341797z"/>
	</g>
</g>
<g id="Слой_2">
</g>
</svg>
