<?xml version="1.0" encoding="utf-8"?>
<!-- Generator: Adobe Illustrator 16.2.0, SVG Export Plug-In . SVG Version: 6.00 Build 0)  -->
<!DOCTYPE svg PUBLIC "-//W3C//DTD SVG 1.1//EN" "http://www.w3.org/Graphics/SVG/1.1/DTD/svg11.dtd">
<svg version="1.1" id="Слой_1" xmlns="http://www.w3.org/2000/svg" xmlns:xlink="http://www.w3.org/1999/xlink" x="0px" y="0px"
	 width="192px" height="32px" viewBox="0 0 192 32" enable-background="new 0 0 192 32" xml:space="preserve">
<g>
	<g>
		<g id="layer1_10_" transform="translate(-162.85714,-252.25207)">
			<g id="g2249_10_" transform="matrix(2107.2671,0,0,2111.3537,195.14296,-1206.6414)">
				<path id="path52_10_" fill="#7F7F7F" d="M0.0536881,0.6961117L0.0536269,0.6961145H0.053568L0.0535083,0.6961187
					L0.0533947,0.6961274l-0.0001154,0.000013L0.0531704,0.6961552L0.0530648,0.6961723L0.0529623,0.6961894L0.0528623,0.696213
					L0.0527649,0.6962301L0.0526708,0.6962537L0.0525823,0.6962736L0.0524957,0.6962948L0.0524099,0.6963148L0.0523302,0.6963365
					l-0.000076,0.0000199L0.0521805,0.6963693L0.0520577,0.6973901c0.0001844-0.0000985,0.0008166-0.0002747,0.0013411-0.0002896
					c0.0005232-0.0000157,0.0008295,0.0000967,0.0007387,0.000549c-0.0015553,0-0.0026021,0.0003238-0.0028186,0.0013413
					C0.0510113,0.7007393,0.0529035,0.7006917,0.0536422,0.6999304l-0.0000927,0.00042h0.0014056l0.0006002-0.0027812
					c0.0002461-0.0011808-0.0008365-0.0014746-0.0018055-0.0014575H0.0536881z M0.0535824,0.6985862
					c0.0001223,0,0.0002322,0,0.0003545,0c-0.0000306,0.000129-0.0000616,0.0002428-0.0000774,0.000371L0.0538526,0.6989909
					L0.0538424,0.699028L0.0538313,0.6990557L0.0538164,0.6990886l-0.0000097,0.00003L0.0537896,0.6991454L0.0537784,0.6991751
					L0.0537618,0.6992L0.0537409,0.6992227l-0.0000171,0.000025l-0.000019,0.0000199L0.0536839,0.6992934L0.053663,0.6993124
					L0.0536389,0.6993341L0.0536181,0.6993504L0.053594,0.6993661L0.053568,0.6993822L0.0535402,0.6993998L0.0535166,0.6994109
					l-0.0000273,0.000013L0.0534596,0.699441L0.0534309,0.6994488l-0.0000292,0.000013L0.0533729,0.6994669L0.0533437,0.6994766
					L0.0533132,0.6994845L0.0532793,0.6994895L0.0532492,0.6994974L0.0532182,0.6995016L0.0531853,0.6995053H0.0531537
					L0.0531195,0.6995094C0.0528117,0.6995252,0.0525476,0.6992486,0.0527478,0.6989262
					C0.0529012,0.6986487,0.053335,0.6985862,0.0535824,0.6985862z"/>
				<polygon id="polygon54_10_" fill="#7F7F7F" points="0.0561651,0.6961894 0.0575651,0.6961894 0.0577894,0.6986667 
					0.0591621,0.6961894 0.0606093,0.6961894 0.0572787,0.7021195 0.0557128,0.7021195 0.0567365,0.7003762 				"/>
				<path id="path58_10_" fill="#7F7F7F" d="M0.0476478,0.6950289L0.0464883,0.7003503h0.0015353L0.048398,0.6985862h0.0010997
					c0.0010496,0,0.0019251-0.000648,0.0021596-0.0017483c0.000266-0.0012447-0.0006242-0.001809-0.0013917-0.001809H0.0476478z
					 M0.0489505,0.6961117h0.0007508c0.0003758,0,0.0006252,0.0003234,0.0005153,0.0007262l-0.000007,0.000037L0.0501948,0.6969156
					L0.0501827,0.6969484L0.050167,0.6969863L0.0501507,0.697022L0.050135,0.6970548l-0.0000172,0.000037l-0.000019,0.0000328
					l-0.000026,0.0000328L0.050052,0.6971852L0.0500284,0.6972172l-0.000025,0.0000296L0.0499756,0.6972759L0.0499464,0.6973045
					l-0.0000278,0.000025L0.0498908,0.6973573l-0.0000301,0.000025l-0.000032,0.0000199L0.049799,0.697423L0.049767,0.6974429
					L0.049729,0.6974637L0.049697,0.6974798L0.0496641,0.6974956L0.0496275,0.6975136L0.0495946,0.6975242l-0.0000361,0.000013
					L0.0495219,0.6975442l-0.000038,0.0000083L0.0494491,0.6975613L0.0494102,0.6975664H0.049374L0.0493383,0.6975691H0.0486196
					L0.0489505,0.6961117z"/>
				<g>
					<path id="path42_10_" fill="#9D9FA0" d="M0.0673536,0.6961117L0.0672938,0.6961145h-0.000063L0.0671742,0.6961187
						L0.0670565,0.6961274l-0.0001158,0.000013L0.0668322,0.6961552L0.0667215,0.6961723L0.0666181,0.6961894L0.0665171,0.696213
						L0.0664184,0.6962301L0.0663206,0.6962537L0.0662302,0.6962736L0.0661394,0.6962948l-0.000083,0.0000199L0.0659679,0.6963365
						L0.065891,0.6963564L0.0658104,0.6963693L0.0656876,0.6973901c0.0002025-0.0000985,0.0008406-0.0002747,0.0013717-0.0002896
						c0.0005306-0.0000157,0.0008444,0.0000967,0.0007368,0.000549c-0.0015752,0-0.0026388,0.0003238-0.0028561,0.0013413
						C0.0646272,0.7007393,0.066544,0.7006917,0.0673086,0.6999304l-0.0000946,0.00042h0.0014065L0.06923,0.6975691
						c0.0002479-0.0011808-0.0008267-0.0014746-0.0018106-0.0014575H0.0673536z M0.0672479,0.6985862
						c0.0001089,0,0.0002345,0,0.000342,0C0.0675598,0.6987153,0.067544,0.6988291,0.067513,0.6989572L0.0675051,0.6989909
						L0.0674931,0.699028L0.0674843,0.6990557l-0.000012,0.0000328l-0.0000121,0.00003L0.0674444,0.6991454L0.0674323,0.6991751
						L0.0674166,0.6992L0.0673994,0.6992227l-0.0000218,0.000025L0.0673614,0.6992676l-0.000019,0.0000259l-0.0000209,0.000019
						l-0.000025,0.0000218l-0.000026,0.0000162L0.067253,0.6993661l-0.000026,0.0000162L0.0671993,0.6993998l-0.000025,0.0000111
						l-0.000025,0.000013L0.0671214,0.699441L0.0670922,0.6994488l-0.0000287,0.000013L0.0670357,0.6994669L0.0670028,0.6994766
						L0.066975,0.6994845L0.0669407,0.6994895L0.0669138,0.6994974L0.06688,0.6995016L0.0668471,0.6995053h-0.000032
						L0.0667775,0.6995094c-0.00031,0.0000157-0.0005923-0.0002609-0.0003879-0.0005832
						C0.0665449,0.6986487,0.0669805,0.6985862,0.0672479,0.6985862z"/>
					<polygon id="polygon44_10_" fill="#9D9FA0" points="0.070427,0.6950114 0.0692675,0.7003503 0.0706921,0.7003503 
						0.0718678,0.6950114 					"/>
					<path id="path48_10_" fill="#9D9FA0" d="M0.0612674,0.6950289L0.0601139,0.7003503h0.0015135l0.0003916-0.0017641h0.0010798
						c0.0010617,0,0.0019371-0.000648,0.0021721-0.0017483c0.0002665-0.0012447-0.0006437-0.001809-0.0013916-0.001809H0.0612674z
						 M0.0625506,0.6961117h0.0007517c0.0003916,0,0.0006238,0.0003234,0.0005302,0.0007262l-0.000012,0.000037L0.0638084,0.6969156
						L0.0637945,0.6969484L0.0637847,0.6969863L0.0637676,0.697022L0.0637467,0.6970548l-0.0000199,0.000037L0.063706,0.6971247
						L0.063686,0.6971575L0.0636619,0.6971852l-0.000025,0.0000319L0.0636133,0.6972467L0.0635841,0.6972759L0.0635563,0.6973045
						l-0.0000297,0.000025L0.0634965,0.6973573l-0.0000297,0.000025L0.0634339,0.6974022L0.0633996,0.697423L0.0633667,0.6974429
						L0.0633352,0.6974637L0.0633023,0.6974798L0.0632652,0.6974956l-0.000032,0.0000181L0.0631976,0.6975242l-0.000038,0.000013
						L0.0631239,0.6975442l-0.000038,0.0000083L0.0630488,0.6975613L0.0630159,0.6975664H0.0629761L0.0629432,0.6975691H0.0622364
						L0.0625506,0.6961117z"/>
					<polygon id="polygon60_10_" fill="#9D9FA0" points="0.0721737,0.6957029 0.0721737,0.6950729 0.0719415,0.6950729 
						0.0719415,0.6949873 0.0725055,0.6949873 0.0725055,0.6950729 0.0722696,0.6950729 0.0722696,0.6957029 					"/>
					<path id="path62_10_" fill="#9D9FA0" d="M0.0725982,0.6957029V0.6949873h0.0001446l0.0001668,0.0005065
						c0.0000158,0.0000458,0.0000269,0.0000814,0.0000338,0.0001054c0.0000097-0.0000259,0.0000227-0.0000647,0.0000398-0.0001133
						l0.0001706-0.0004986h0.0001274v0.0007156H0.0731895v-0.000599l-0.0002062,0.000599H0.0728966L0.0726908,0.6950937v0.0006092
						H0.0725982z"/>
				</g>
			</g>
		</g>
	</g>
	<g>
		<g>
			<path fill-rule="evenodd" clip-rule="evenodd" fill="#9D9FA0" d="M17.6372375,7.8494873h3.2666016l-8.8603516,14.3955078
				h-3.859375L7.8398743,10.8563232C7.8227844,10.3397217,7.808136,9.8016357,7.6128235,9.3924561
				C7.417511,8.977417,7.1147766,8.6864014,6.70755,8.4842529C6.2998352,8.2830811,5.7915344,8.1727295,5.2915344,8.1776123
				v-0.328125h6.3588867l0.3110352,9.796875L17.6372375,7.8494873L17.6372375,7.8494873z"/>
			<polygon fill-rule="evenodd" clip-rule="evenodd" fill="#9D9FA0" points="21.5342102,22.2449951 26.0840149,7.8494873 
				22.0361633,7.8494873 17.4819641,22.2449951 21.5342102,22.2449951 			"/>
			<path fill-rule="evenodd" clip-rule="evenodd" fill="#9D9FA0" d="M23.882843,21.0223389
				c0.6171875,0.6259766,1.4072266,1.0615234,2.4931641,1.2753906c1.078125,0.2138672,2.4501953,0.2060547,3.7548828-0.0146484
				c1.2998047-0.2226563,2.5292969-0.6601563,3.3984375-1.3212891c0.8681641-0.6640625,1.3759766-1.5527344,1.6220703-2.5107422
				c0.25-0.9619141,0.2333984-2-0.28125-2.8066406c-0.5273438-0.8056641-1.5566406-1.3876953-2.4140625-1.9345703
				c-0.8554688-0.5488281-1.5400391-1.0615234-1.8251953-1.6367188c-0.2841797-0.5800781-0.1660156-1.2246094,0.1660156-1.6347656
				c0.3310547-0.4121094,0.8818359-0.5947266,1.5566406-0.6367188c0.6738281-0.0439453,1.4785156,0.0556641,2.1445313,0.2373047
				c0.6660156,0.1894531,1.1933594,0.4667969,1.6464844,0.8388672l1.3496094-2.1582031
				c-0.6240234-0.4472656-1.3388672-0.7666016-2.3447266-1c-1.0068359-0.2353516-2.3027344-0.3837891-3.4326172-0.3017578
				C30.585968,7.4998779,29.624054,7.821167,28.7754211,8.3817139c-0.8525391,0.5654297-1.5878906,1.3720703-2.0058594,2.2451172
				c-0.4160156,0.8681641-0.5107422,1.8007813-0.2548828,2.6123047c0.2568359,0.8037109,0.8574219,1.484375,1.4755859,1.9726563
				c0.6191406,0.4912109,1.2597656,0.78125,1.8212891,1.1220703c0.5625,0.3378906,1.0478516,0.7177734,1.3066406,1.1757813
				c0.2578125,0.4580078,0.2958984,0.9902344-0.0175781,1.4306641c-0.3144531,0.4433594-0.9746094,0.7949219-1.7373047,0.9179688
				c-0.7666016,0.1269531-1.6318359,0.0253906-2.4365234-0.2177734c-0.8027344-0.2441406-1.5458984-0.6328125-2.1933594-1.140625
				L23.882843,21.0223389L23.882843,21.0223389z"/>
			<path fill-rule="evenodd" clip-rule="evenodd" fill="#9D9FA0" d="M39.0439758,18.9110107l-1.8320313,3.3339844H33.945343
				l8.6865234-14.3955078h3.6826172l1.2402344,14.3955078h-3.8320313l-0.2695313-3.3339844H39.0439758L39.0439758,18.9110107z
				 M42.8887024,11.9256592l-2.8154297,5.1142578h3.2294922L42.8887024,11.9256592L42.8887024,11.9256592z"/>
			<path fill-rule="evenodd" clip-rule="evenodd" fill="#9D9FA0" d="M48.8887024,8.1082764
				c-0.0722656-0.0859375-0.1787109-0.1210938-0.2802734-0.1210938h-0.59375v1.4072266h0.1357422V8.7889404h0.3007813
				l0.4121094,0.6054688h0.1699219l-0.4033203-0.6054688c0.0800781,0.0126953,0.1699219-0.0146484,0.2373047-0.0751953
				c0.0654297-0.0634766,0.1132813-0.1601563,0.1171875-0.2734375C48.9892883,8.3250732,48.9551086,8.1971436,48.8887024,8.1082764
				L48.8887024,8.1082764z M48.1504211,8.6278076V8.1541748h0.40625c0.0566406,0,0.1191406-0.0029297,0.1611328,0.0371094
				c0.0439453,0.0410156,0.0712891,0.1083984,0.0742188,0.1845703c0.0039063,0.0791016-0.0146484,0.1582031-0.0634766,0.2080078
				c-0.0439453,0.0458984-0.1113281,0.0439453-0.171875,0.0439453H48.1504211L48.1504211,8.6278076z M49.077179,7.6405029
				c-0.1787109-0.1064453-0.3818359-0.1601563-0.5878906-0.1601563c-0.2041016,0-0.4052734,0.0537109-0.5859375,0.1601563
				c-0.1767578,0.1035156-0.3261719,0.25-0.4267578,0.4277344c-0.1054688,0.1787109-0.1601563,0.3828125-0.1601563,0.5878906
				c0,0.2041016,0.0546875,0.4082031,0.1601563,0.5898438c0.1005859,0.1757813,0.25,0.3271484,0.4267578,0.4277344
				c0.1806641,0.1005859,0.3818359,0.1572266,0.5859375,0.1572266c0.2060547,0,0.4091797-0.0566406,0.5878906-0.1572266
				s0.328125-0.2519531,0.4306641-0.4277344c0.1005859-0.1816406,0.1552734-0.3857422,0.1552734-0.5898438
				c0-0.2050781-0.0546875-0.4091797-0.1552734-0.5878906C49.405304,7.8905029,49.2558899,7.7440186,49.077179,7.6405029
				L49.077179,7.6405029z M49.3340149,8.1727295c0.0859375,0.1455078,0.1298828,0.3144531,0.1298828,0.4863281
				s-0.0439453,0.3417969-0.1298828,0.4882813c-0.0839844,0.1484375-0.2109375,0.2744141-0.3574219,0.3583984
				c-0.1474609,0.0878906-0.3154297,0.1298828-0.4892578,0.1298828c-0.1708984,0-0.3408203-0.0419922-0.4873047-0.1298828
				c-0.1474609-0.0839844-0.2734375-0.2099609-0.3574219-0.3583984c-0.0859375-0.1464844-0.1347656-0.3164063-0.1347656-0.4882813
				s0.0488281-0.3408203,0.1347656-0.4863281c0.0839844-0.1503906,0.2099609-0.2763672,0.3574219-0.3603516
				c0.1464844-0.0839844,0.3164063-0.1318359,0.4873047-0.1318359c0.1738281,0,0.3417969,0.0478516,0.4892578,0.1318359
				C49.1230774,7.8963623,49.2500305,8.0223389,49.3340149,8.1727295L49.3340149,8.1727295z"/>
		</g>
	</g>
	<g>
		<g>
			<g>
				<path fill-rule="evenodd" clip-rule="evenodd" fill="#7F7F7F" d="M69.3955383,15.9979248
					c0-7.1259766,5.7773438-12.9052734,12.9052734-12.9052734s12.9072266,5.7792969,12.9072266,12.9052734
					c0,7.1279297-5.7792969,12.9091797-12.9072266,12.9091797S69.3955383,23.1258545,69.3955383,15.9979248L69.3955383,15.9979248z"
					/>
				<path fill-rule="evenodd" clip-rule="evenodd" fill="#9D9FA0" d="M86.8681946,15.9979248
					c0-7.1259766,5.7792969-12.9052734,12.9072266-12.9052734s12.9072266,5.7792969,12.9072266,12.9052734
					c0,7.1279297-5.7792969,12.9091797-12.9072266,12.9091797S86.8681946,23.1258545,86.8681946,15.9979248L86.8681946,15.9979248z"
					/>
				<g>
					<path fill-rule="evenodd" clip-rule="evenodd" fill="#7F7F7F" d="M91.0381165,25.493042h-5.0332031v-0.7324219h5.7646484
						C91.624054,24.9139404,91.1347961,25.4119873,91.0381165,25.493042L91.0381165,25.493042z"/>
					<path fill-rule="evenodd" clip-rule="evenodd" fill="#7F7F7F" d="M92.4287415,23.9764404h-6.4326172v-0.7304688h6.9785156
						C92.9746399,23.2459717,92.5527649,23.8846436,92.4287415,23.9764404L92.4287415,23.9764404z"/>
					<path fill-rule="evenodd" clip-rule="evenodd" fill="#7F7F7F" d="M93.4541321,22.4578857h-7.4580078v-0.7333984h7.8671875
						C93.7246399,22.0418701,93.4892883,22.4071045,93.4541321,22.4578857L93.4541321,22.4578857z"/>
					<path fill-rule="evenodd" clip-rule="evenodd" fill="#7F7F7F" d="M94.2119446,20.930542h-8.2158203v-0.7285156h8.4873047
						C94.483429,20.2020264,94.3594055,20.6551514,94.2119446,20.930542L94.2119446,20.930542z"/>
					<path fill-rule="evenodd" clip-rule="evenodd" fill="#7F7F7F" d="M94.7392883,19.4119873h-8.7431641V18.680542h8.9199219
						C94.8652649,18.9832764,94.7588196,19.3651123,94.7392883,19.4119873L94.7392883,19.4119873z"/>
					<path fill-rule="evenodd" clip-rule="evenodd" fill="#7F7F7F" d="M95.054718,17.8934326h-9.0585938v-0.7353516h9.1464844
						C95.1367493,17.4432373,95.054718,17.8934326,95.054718,17.8934326L95.054718,17.8934326z"/>
					<path fill-rule="evenodd" clip-rule="evenodd" fill="#7F7F7F" d="M95.1806946,16.3699951H85.992218l0.0039063-0.7314453
						h9.1904297C95.1992493,15.9852295,95.2168274,16.1278076,95.1806946,16.3699951L95.1806946,16.3699951z"/>
					<path fill-rule="evenodd" clip-rule="evenodd" fill="#7F7F7F" d="M95.1494446,14.852417h-9.1533203v-0.734375h9.0878906
						C95.1494446,14.4725342,95.1494446,14.852417,95.1494446,14.852417L95.1494446,14.852417z"/>
					<path fill-rule="evenodd" clip-rule="evenodd" fill="#7F7F7F" d="M94.9219055,13.3319092h-7.8691406l0.2314453-0.7314453
						h7.4619141C94.8379211,12.8729248,94.9219055,13.3319092,94.9219055,13.3319092L94.9219055,13.3319092z"/>
					<path fill-rule="evenodd" clip-rule="evenodd" fill="#7F7F7F" d="M94.5107727,11.8084717h-7.0712891l0.3427734-0.7285156
						h6.4570313C94.3847961,11.4285889,94.5107727,11.8084717,94.5107727,11.8084717L94.5107727,11.8084717z"/>
					<path fill-rule="evenodd" clip-rule="evenodd" fill="#7F7F7F" d="M93.8633118,10.2938232h-5.8964844l0.0205078-0.7304688
						h5.4941406C93.4814758,9.5633545,93.764679,10.071167,93.8633118,10.2938232L93.8633118,10.2938232z"/>
					<path fill-rule="evenodd" clip-rule="evenodd" fill="#7F7F7F" d="M93.0000305,8.7713623h-7.0039063V8.039917h6.4580078
						C92.4541321,8.039917,92.874054,8.6004639,93.0000305,8.7713623L93.0000305,8.7713623z"/>
					<path fill-rule="evenodd" clip-rule="evenodd" fill="#7F7F7F" d="M91.7881165,7.2498779h-5.7919922V6.5184326h5.0419922
						C91.0381165,6.5184326,91.585968,6.993042,91.7881165,7.2498779L91.7881165,7.2498779z"/>
				</g>
				<polygon fill-rule="evenodd" clip-rule="evenodd" fill="#FFFFFF" points="76.4121399,18.3905029 75.2441711,18.3905029 
					76.311554,13.3914795 76.2949524,13.3914795 74.1103821,18.3905029 72.8847961,18.3905029 72.8603821,13.3914795 
					72.8388977,13.3914795 71.780304,18.3905029 70.608429,18.3905029 71.8847961,12.4012451 73.710968,12.4012451 
					73.789093,17.1258545 73.8076477,17.1258545 75.8769836,12.4012451 77.6816711,12.4012451 76.4121399,18.3905029 				"/>
				<path fill-rule="evenodd" clip-rule="evenodd" fill="#FFFFFF" d="M85.202179,14.8338623
					c-0.3574219-0.0214844-0.9179688-0.1728516-1.5693359-0.1005859c-0.6347656,0.0664063-0.7714844,0.2304688-0.8105469,0.4238281
					c-0.1455078,0.7041016,2.7324219,0.1933594,2.3857422,1.828125c-0.2705078,1.2939453-1.5693359,1.5234375-2.2626953,1.5234375
					c-1.0136719,0-1.2851563-0.0439453-1.8632813-0.2167969l0.1708984-0.8632813
					c0.3564453,0.0712891,1.1132813,0.2519531,1.7871094,0.2265625c0.5986328-0.0205078,0.9287109-0.3193359,0.9667969-0.4824219
					c0.1572266-0.7460938-2.7138672-0.1875-2.3632813-1.8447266c0.1367188-0.6474609,0.7226563-1.4833984,2.1064453-1.4833984
					c0.8701172,0,1.4433594,0.1865234,1.6074219,0.2128906L85.202179,14.8338623L85.202179,14.8338623z"/>
				<path fill-rule="evenodd" clip-rule="evenodd" fill="#FFFFFF" d="M85.8594055,14.7938232l0.4267578-2.0292969h1.1679688
					L87.202179,13.961792h0.7246094l-0.1767578,0.8320313h-0.7246094l-0.5146484,2.4082031
					c-0.0527344,0.2607422-0.0654297,0.359375,0.4072266,0.359375c0.0742188,0,0.1601563-0.0068359,0.2460938-0.0195313
					l-0.1640625,0.7841797c-0.1845703,0.0039063-0.3964844,0.1171875-0.5820313,0.1171875h-0.1425781
					c-1.0078125,0-1.1074219-0.3818359-0.9833984-0.9638672L85.8594055,14.7938232L85.8594055,14.7938232z"/>
				<path fill-rule="evenodd" clip-rule="evenodd" fill="#FFFFFF" d="M88.6728821,16.4686279
					c-0.0341797,0.328125-0.0966797,1.2041016,0.8359375,1.2041016c0.3232422,0,1.1533203,0.0546875,2.0351563-0.5068359
					l-0.1826172,0.8300781c-0.7246094,0.5058594-1.5205078,0.5058594-2.0771484,0.5058594
					c-1.2460938,0-2.0820313-0.5986328-1.6914063-2.4160156c0.1171875-0.5332031,0.6621094-2.25,2.6025391-2.25
					c0.8740234,0,1.9960938,0.4248047,1.5615234,2.4453125l-0.0419922,0.2060547h-3.1074219l0.1894531-0.7519531h1.8779297
					c0.0859375-0.7197266-0.328125-0.9355469-0.7060547-0.9355469c-0.5439453,0-0.9140625,0.3476563-1.1054688,0.9355469
					L88.6728821,16.4686279L88.6728821,16.4686279z"/>
				<path fill-rule="evenodd" clip-rule="evenodd" fill="#FFFFFF" d="M92.4873352,13.9559326h1.1162109l-0.1660156,0.7646484
					h0.0166016c0.3378906-0.4453125,0.6992188-0.8759766,1.4052734-0.8759766c0.0800781,0,0.25,0.0361328,0.3212891,0.0400391
					l-0.4287109,1.1503906c-0.0898438-0.0107422-0.1445313-0.0107422-0.2480469-0.0107422
					c-0.9091797,0-1.2011719,0.5654297-1.3046875,1.0527344l-0.4892578,2.3134766h-1.1660156L92.4873352,13.9559326
					L92.4873352,13.9559326z"/>
				<path fill-rule="evenodd" clip-rule="evenodd" fill="#FFFFFF" d="M99.5293274,13.5604248
					c-0.2646484-0.1914063-0.8505859-0.3173828-1.4560547-0.2216797c-0.5917969,0.0917969-1.5693359,0.3964844-1.9287109,2.0869141
					c-0.1845703,0.8662109-0.0859375,1.8984375,0.8740234,2.0976563c0.2773438,0.0507813,1.4892578,0.1572266,1.9433594-0.3212891
					l-0.3154297,1.0839844c-0.1386719,0.0439453-0.2646484,0.3486328-1.7070313,0.2685547
					c-1.5927734-0.0898438-2.5087891-1.0771484-2.0693359-3.1494141c0.4433594-2.0878906,1.8798828-3.1689453,3.4277344-3.1552734
					c0.7900391,0.0146484,1.390625,0.4423828,1.4433594,0.5605469L99.5293274,13.5604248L99.5293274,13.5604248z"/>
				<path fill-rule="evenodd" clip-rule="evenodd" fill="#FFFFFF" d="M110.045929,18.3905029h-1.140625l0.1171875-0.5546875
					h-0.0146484c-0.3925781,0.5029297-0.9453125,0.6660156-1.4267578,0.6660156
					c-1.3164063,0-1.6191406-1.1591797-1.3632813-2.3740234c0.3300781-1.5400391,1.3574219-2.2919922,2.3300781-2.2919922
					c0.7539063,0,1.0146484,0.4121094,1.1347656,0.6933594h0.0185547l0.4472656-2.1279297h1.1679688L110.045929,18.3905029
					L110.045929,18.3905029z"/>
				<path fill-rule="evenodd" clip-rule="evenodd" fill="#ADADAD" d="M108.0664368,17.5487061
					c0.7402344,0,1.1621094-0.6132813,1.3066406-1.2734375c0.1513672-0.7089844,0.0996094-1.4277344-0.6992188-1.4277344
					c-0.7373047,0-1.1259766,0.6591797-1.2773438,1.3642578C107.2851868,16.7293701,107.3232727,17.5487061,108.0664368,17.5487061
					L108.0664368,17.5487061z"/>
				<path fill-rule="evenodd" clip-rule="evenodd" fill="#FFFFFF" d="M103.007843,17.4471436
					c0,0-0.1113281,0.4755859-0.1386719,0.7128906l-0.0566406,0.2304688h-1.0351563
					c-0.0214844-0.2099609-0.0253906-0.2744141,0-0.5273438c-0.3242188,0.2773438-0.7792969,0.6386719-1.5673828,0.6386719
					c-0.6679688,0-1.2734375-0.3740234-1.0751953-1.2832031c0.1845703-0.8720703,0.8232422-1.3115234,1.5957031-1.4160156
					l1.0800781-0.1582031c0.1894531-0.0292969,0.4267578-0.1005859,0.4853516-0.3486328
					c0.1005859-0.4960938-0.3613281-0.5898438-0.6572266-0.5957031c-0.6113281-0.0263672-1.5947266,0.1523438-1.7841797,0.2910156
					l0.2607422-0.8623047c0.4833984-0.2294922,1.0634766-0.3095703,1.859375-0.2929688
					c0.6240234,0.0224609,1.7265625,0.1953125,1.5146484,1.2666016L103.007843,17.4471436L103.007843,17.4471436z"/>
				<path fill-rule="evenodd" clip-rule="evenodd" fill="#ADADAD" d="M102.0918274,16.2303467
					c-0.1318359,0.0830078-0.3398438,0.1650391-0.8417969,0.2382813c-0.4472656,0.078125-0.8320313,0.1826172-0.9287109,0.6748047
					c-0.0927734,0.4052734,0.1953125,0.5292969,0.4287109,0.5292969c0.5126953,0,1.1113281-0.3369141,1.2246094-0.8759766
					L102.0918274,16.2303467L102.0918274,16.2303467z"/>
				<path fill-rule="evenodd" clip-rule="evenodd" fill="#FFFFFF" d="M104.0898743,13.9559326h1.1113281l-0.1640625,0.7646484
					h0.0195313c0.3378906-0.4453125,0.6992188-0.8759766,1.4033203-0.8759766c0.0820313,0,0.2519531,0.0361328,0.3232422,0.0400391
					l-0.4287109,1.1503906c-0.0898438-0.0107422-0.1445313-0.0107422-0.2480469-0.0107422
					c-0.9111328,0-1.2011719,0.5654297-1.3066406,1.0527344l-0.4873047,2.3134766h-1.1660156L104.0898743,13.9559326
					L104.0898743,13.9559326z"/>
				<path fill-rule="evenodd" clip-rule="evenodd" fill="#FFFFFF" d="M80.8174133,17.4471436
					c0,0-0.1113281,0.4755859-0.1386719,0.7128906l-0.0566406,0.2304688h-1.0351563
					c-0.0195313-0.2099609-0.0273438-0.2744141,0-0.5273438c-0.3232422,0.2773438-0.7753906,0.6386719-1.5673828,0.6386719
					c-0.6660156,0-1.2734375-0.3740234-1.0732422-1.2832031c0.1845703-0.8720703,0.8212891-1.3115234,1.5917969-1.4160156
					l1.0820313-0.1582031c0.1894531-0.0292969,0.4267578-0.1005859,0.4853516-0.3486328
					c0.1005859-0.4960938-0.359375-0.5898438-0.6552734-0.5957031c-0.6152344-0.0263672-1.5966797,0.1523438-1.7880859,0.2910156
					l0.2626953-0.8623047c0.4833984-0.2294922,1.0634766-0.3095703,1.859375-0.2929688
					c0.6259766,0.0224609,1.7265625,0.1953125,1.5166016,1.2666016L80.8174133,17.4471436L80.8174133,17.4471436z"/>
				<path fill-rule="evenodd" clip-rule="evenodd" fill="#7E7E7E" d="M79.9043274,16.2303467
					c-0.1328125,0.0830078-0.3447266,0.1650391-0.8447266,0.2382813c-0.4472656,0.078125-0.8300781,0.1826172-0.9287109,0.6748047
					c-0.0927734,0.4052734,0.1953125,0.5292969,0.4287109,0.5292969c0.5146484,0,1.1113281-0.3369141,1.2246094-0.8759766
					L79.9043274,16.2303467L79.9043274,16.2303467z"/>
				
					<path fill="none" stroke="#D3D3D4" stroke-width="0.1" stroke-linecap="round" stroke-linejoin="round" stroke-miterlimit="2.6131001" d="
					M111.1846008,18.399292c0.2431641,0,0.4472656-0.1992188,0.4472656-0.4472656
					c0-0.2519531-0.2041016-0.4541016-0.4472656-0.4541016c-0.2441406,0-0.4472656,0.2021484-0.4472656,0.4541016
					C110.7373352,18.2000732,110.9404602,18.399292,111.1846008,18.399292 M111.0263977,18.1932373v-0.4746094
					 M111.0263977,17.7186279c0,0,0.3300781-0.0566406,0.3427734,0.1132813
					c0.0058594,0.2294922-0.3232422,0.1845703-0.3232422,0.1845703 M111.2705383,17.9891357l0.1259766,0.1914063"/>
				
					<path fill="none" stroke="#D3D3D4" stroke-width="0.1" stroke-linecap="round" stroke-linejoin="round" stroke-miterlimit="2.6131001" d="
					M111.1846008,24.2166748c0.2431641,0,0.4472656-0.2001953,0.4472656-0.4501953s-0.2041016-0.4560547-0.4472656-0.4560547
					c-0.2441406,0-0.4472656,0.2060547-0.4472656,0.4560547S110.9404602,24.2166748,111.1846008,24.2166748 M111.0263977,24.0106201
					v-0.4746094 M111.0263977,23.5360107c0,0,0.3300781-0.0595703,0.3427734,0.1132813
					c0.0058594,0.2285156-0.3232422,0.1826172-0.3232422,0.1826172 M111.2705383,23.8065186l0.1259766,0.1914063"/>
			</g>
		</g>
	</g>
</g>
</svg>
