<svg xmlns="http://www.w3.org/2000/svg" xmlns:xlink="http://www.w3.org/1999/xlink" version="1.1" id="Layer_1" x="0px" y="0px" width="14.6308594px" height="18.8476562px" viewBox="0 0 14.6308594 18.8476562" enable-background="new 0 0 14.6308594 18.8476562" xml:space="preserve"><style>.style0{fill:	#191818;}</style><path d="M3.2382812 18.8476562c-0.3066406-0.0683594-0.3515625-2.3818359 0-4.3320312 c0.3515625-1.9511719 1.4042969-5.8535156 1.4042969-5.8535156s-0.9355469-1.5996094 0-3.4335938 c0.9375-1.8339844 3.4726562-1.0136719 3.2 0.6259766c-0.2724609 1.6376953-2.0673828 4.6035156-0.2724609 5.5 c1.7949219 0.9 4.3320312-0.546875 4.3320312-5.4628906c0-4.9179688-6.8691406-4.9570312-8.4296875-2.4990234 C1.9121094 5.9 1.8 7.4 2.3 8.3505859c0.5068359 0.9 0.7 1.1 0.6 1.6 C2.8476562 10.4 2.6 11.1 2.1 10.7695312C1.4824219 10.5 0 9.5 0 6.4 S3.0429688 0 8.5 0s7.84375 7 4.8 10.9648438c-3.0839844 3.9423828-6.0488281 2.7324219-7.1416016 1.3 c0 0-0.5458984 2.0292969-0.7802734 2.9267578S3.5898438 18.9 3.2 18.8476562z" class="style0"/></svg>