<svg xmlns="http://www.w3.org/2000/svg" xmlns:xlink="http://www.w3.org/1999/xlink" version="1.1" id="Layer_1" x="0px" y="0px" width="160px" height="64px" viewBox="0 0 160 64" enable-background="new 0 0 160 64" xml:space="preserve">
<style>
	.style0{
		fill:	none;
	}
	.style1{
		fill-rule:	evenodd;
		clip-rule:	evenodd;
		fill:	#FFFFFF;
	}
	.style2{
		fill:	#FFFFFF;
	}
	.style3{
		fill:	#5DA3D9;
	}
	.style4{
		fill:	#AA1E29;
	}
	.style5{
		fill:	#4D6C80;
	}
	.style6{
		fill:	#3A5C88;
	}
	.style7{
		fill:	#31688A;
	}
</style><g>
	<rect x="128" y="32" width="32" height="32" class="style0"/>
	<path d="M135.553 43.677c-0.652 0-0.79 0.335-0.553 0.8 s3.434 8.4 8 8.409c0 0 0.5 0 0.9 0c0.474 0 0.87-0.256 0.87-0.77c0-0.513 0.197-1.441 0.689-1.441 c0.494 0 1.6 2.2 3 2.211c1.4 0 1.5 0 2.4 0c0.887 0 0.945-0.475 0.709-0.947c-0.237-0.473-0.433-0.652-1.085-1.342 c-0.65-0.691-1.578-1.323-1.578-1.895c0-0.572 1.954-2.705 2.406-3.592c0.454-0.889 0.516-1.423-0.235-1.423 c-0.75 0-2.448 0-2.902 0c-0.455 0-0.551 0.554-0.701 0.81c-0.146 0.258-1.666 3.455-2.4 3.455c-0.726 0-0.432-1.578-0.432-1.838 c0-0.256 0.078-1.381 0.078-1.913s-0.473-0.928-1.085-0.928c-0.61 0-1.204 0-1.913 0c-0.712 0-1.503 0.474-1.403 0.7 c0.101 0.2 0.946-0.039 1 1.107c0.1 1.1 0.1 2.939-0.434 2.939c-0.534 0-1.697-2.092-2.092-2.922 c-0.396-0.828-0.553-1.4-1.305-1.4C136.915 43.7 135.6 43.7 135.6 43.677z" class="style1"/>
</g>
<g>
	<rect x="64" y="32" width="32" height="32" class="style0"/>
	<path d="M87.259 46.242c0 0-0.677-3.727-4.042-3.727c1.243-0.395 1.695-0.451 1.57-0.834c0 0-0.08-0.579-1.57 0.3 c0.701-0.555 0.654-0.691 0.53-0.748c-0.122-0.056-0.88 0.238-1.209 0.678c-0.326 0.4 0.249-0.52 0.048-0.541 c-0.205-0.023-1.786 1.049-3.027 4.733c-1.953-1.765-5.445-3.198-6.473-3.366c0 0-0.296 0.8 0.3 1.5 c0.635 0.7 1.2 1 1.2 0.961s-0.885-0.006-1.161 0.098c-0.092 0.1 0 0.9 0.7 1.3 c0.713 0.4 1.4 0.6 1.4 0.646s-0.902 0.057-1.252 0.575c0.205 0.5 0.6 1 1.3 1.2 c0.688 0.2 1.1 0 1.1 0.045s-0.837 0.406-0.688 0.98c0.145 0.6 0.9 0.7 1.3 0.691c0.408-0.037-3.4 3.43-7.115 0.3 c1.164 2.3 4.6 3.9 8.2 3.85c3.589 0 7.509-1.715 9.021-6.424c0 0 1.7 0.1 2.284-0.859 c-0.43 0.113-1.844 0.033-2.035-0.214c1.276-0.217 2.01-0.847 2.035-1.085C89.034 46.5 87.4 46.4 87.3 46.242z" class="style2"/>
</g>
<g>
	<rect x="96" y="32" width="32" height="32" class="style0"/>
	<path d="M108.007 57.704c-0.298-0.066-0.342-2.317 0-4.216c0.343-1.899 1.368-5.697 1.368-5.697 s-0.912-1.557 0-3.342s3.381-0.986 3.1 0.608c-0.266 1.595-2.011 4.481-0.266 5.354c1.748 0.9 4.218-0.531 4.218-5.316 c0-4.786-6.687-4.824-8.204-2.432c-1.521 2.394-1.596 3.912-1.102 4.823c0.493 0.9 0.6 1.1 0.6 1.6 s-0.277 1.102-0.84 0.797c-0.564-0.303-2.008-1.252-2.008-4.215s2.961-6.267 8.281-6.267c5.313 0 7.6 6.8 4.6 10.7 s-5.888 2.659-6.95 1.292c0 0-0.531 1.975-0.76 2.848C109.832 55 108.3 57.8 108 57.704z" class="style2"/>
</g>
<g>
	<rect x="32" y="32" width="32" height="32" class="style0"/>
	<path d="M49.155 55.97h-3.104v-7.503H44.5v-2.588h1.552v-1.551c0-2.109 0.875-3.363 3.363-3.363h2.071v2.584H50.19 c-0.967 0-1.031 0.363-1.031 1.037l-0.004 1.293H51.5l-0.272 2.588h-2.072V55.97z" class="style2"/>
</g>
<g>
	<rect y="32" width="32" height="32" class="style0"/>
	<path d="M10.312 40.577h11.731c1.112 0 2 0.9 2 2.025v11.729 c0 1.113-0.912 2.025-2.024 2.025H10.312c-1.113 0-2.024-0.912-2.024-2.025V42.603C8.288 41.5 9.2 40.6 10.3 40.6 L10.312 40.577z M19.783 42.33L19.783 42.33c-0.391 0-0.711 0.32-0.711 0.711v1.7c0 0.4 0.3 0.7 0.7 0.71h1.783 c0.391 0 0.711-0.318 0.711-0.71v-1.7c0-0.391-0.32-0.711-0.711-0.711H19.783L19.783 42.33z M22.283 47.25L22.283 47.25h-1.389 c0.133 0.4 0.2 0.9 0.2 1.355c0 2.623-2.196 4.752-4.903 4.752c-2.711 0-4.905-2.129-4.905-4.752 c0-0.471 0.07-0.927 0.202-1.355h-1.449v6.666c0 0.3 0.3 0.6 0.6 0.627h10.988c0.346 0 0.627-0.281 0.627-0.627V47.25 L22.283 47.25z M16.193 45.361L16.193 45.361c-1.752 0-3.169 1.375-3.169 3.07c0 1.7 1.4 3.1 3.2 3.1 c1.748 0 3.17-1.375 3.17-3.072C19.363 46.7 17.9 45.4 16.2 45.361L16.193 45.361z" class="style1"/>
</g>
<g>
	<g>
		<rect x="64" width="32" height="32" class="style3"/>
		<path d="M87.259 14.242c0 0-0.677-3.727-4.042-3.727c1.243-0.395 1.695-0.451 1.57-0.834c0 0-0.08-0.579-1.57 0.3 c0.701-0.555 0.654-0.691 0.53-0.748c-0.122-0.056-0.88 0.238-1.209 0.678c-0.326 0.4 0.249-0.52 0.048-0.541 c-0.205-0.023-1.786 1.049-3.027 4.733c-1.953-1.765-5.445-3.198-6.473-3.366c0 0-0.296 0.8 0.3 1.5 c0.635 0.7 1.2 1 1.2 0.961s-0.885-0.006-1.161 0.098c-0.092 0.1 0 0.9 0.7 1.3 c0.713 0.4 1.4 0.6 1.4 0.646s-0.902 0.057-1.252 0.575c0.205 0.5 0.6 1 1.3 1.2 c0.688 0.2 1.1 0 1.1 0.045s-0.837 0.406-0.688 0.98c0.145 0.6 0.9 0.7 1.3 0.691c0.408-0.037-3.4 3.43-7.115 0.3 c1.164 2.3 4.6 3.9 8.2 3.85c3.589 0 7.509-1.715 9.021-6.424c0 0 1.7 0.1 2.284-0.859 c-0.43 0.113-1.844 0.033-2.035-0.214c1.276-0.217 2.01-0.847 2.035-1.085C89.034 14.5 87.4 14.4 87.3 14.242z" class="style2"/>
	</g>
	<g>
		<rect x="96" width="32" height="32" class="style4"/>
		<path d="M108.007 25.704c-0.298-0.066-0.342-2.317 0-4.216c0.343-1.899 1.368-5.697 1.368-5.697 s-0.912-1.557 0-3.342s3.381-0.986 3.1 0.608c-0.266 1.595-2.011 4.481-0.266 5.354c1.748 0.9 4.218-0.531 4.218-5.316 c0-4.786-6.687-4.824-8.204-2.432c-1.521 2.394-1.596 3.912-1.102 4.823c0.493 0.9 0.6 1.1 0.6 1.6 s-0.277 1.102-0.84 0.797c-0.564-0.303-2.008-1.252-2.008-4.215s2.961-6.267 8.281-6.267c5.313 0 7.6 6.8 4.6 10.7 s-5.888 2.659-6.95 1.292c0 0-0.531 1.975-0.76 2.848C109.832 23 108.3 25.8 108 25.704z" class="style2"/>
	</g>
	<g>
		<rect x="128" width="32" height="32" class="style5"/>
		<path d="M135.553 11.677c-0.652 0-0.79 0.335-0.553 0.8 s3.434 8.4 8 8.409c0 0 0.5 0 0.9 0c0.474 0 0.87-0.256 0.87-0.77c0-0.513 0.197-1.441 0.689-1.441 c0.494 0 1.6 2.2 3 2.211c1.4 0 1.5 0 2.4 0c0.887 0 0.945-0.475 0.709-0.947c-0.237-0.473-0.433-0.652-1.085-1.342 c-0.65-0.691-1.578-1.323-1.578-1.895c0-0.572 1.954-2.705 2.406-3.592c0.454-0.889 0.516-1.423-0.235-1.423 c-0.75 0-2.448 0-2.902 0c-0.455 0-0.551 0.554-0.701 0.81c-0.146 0.258-1.666 3.455-2.4 3.455c-0.726 0-0.432-1.578-0.432-1.838 c0-0.256 0.078-1.381 0.078-1.913s-0.473-0.928-1.085-0.928c-0.61 0-1.204 0-1.913 0c-0.712 0-1.503 0.474-1.403 0.7 c0.101 0.2 0.946-0.039 1 1.107c0.1 1.1 0.1 2.939-0.434 2.939c-0.534 0-1.697-2.092-2.092-2.922 c-0.396-0.828-0.553-1.4-1.305-1.4C136.915 11.7 135.6 11.7 135.6 11.677z" class="style1"/>
	</g>
	<g>
		<rect x="32" width="32" height="32" class="style6"/>
		<path d="M49.155 23.97h-3.104v-7.503H44.5v-2.588h1.552v-1.551c0-2.109 0.875-3.363 3.363-3.363h2.071v2.584H50.19 c-0.967 0-1.031 0.363-1.031 1.037l-0.004 1.293H51.5l-0.272 2.588h-2.072V23.97z" class="style2"/>
	</g>
	<g>
		<rect width="32" height="32" class="style7"/>
		<path d="M10.312 8.577h11.731c1.112 0 2 0.9 2 2.025v11.729 c0 1.113-0.912 2.025-2.024 2.025H10.312c-1.113 0-2.024-0.912-2.024-2.025V10.603C8.288 9.5 9.2 8.6 10.3 8.6 L10.312 8.577z M19.783 10.33L19.783 10.33c-0.391 0-0.711 0.32-0.711 0.711v1.7c0 0.4 0.3 0.7 0.7 0.71h1.783 c0.391 0 0.711-0.318 0.711-0.71v-1.7c0-0.391-0.32-0.711-0.711-0.711H19.783L19.783 10.33z M22.283 15.25L22.283 15.25h-1.389 c0.133 0.4 0.2 0.9 0.2 1.355c0 2.623-2.196 4.752-4.903 4.752c-2.711 0-4.905-2.129-4.905-4.752 c0-0.471 0.07-0.927 0.202-1.355h-1.449v6.666c0 0.3 0.3 0.6 0.6 0.627h10.988c0.346 0 0.627-0.281 0.627-0.627V15.25 L22.283 15.25z M16.193 13.361L16.193 13.361c-1.752 0-3.169 1.375-3.169 3.07c0 1.7 1.4 3.1 3.2 3.1 c1.748 0 3.17-1.375 3.17-3.072C19.363 14.7 17.9 13.4 16.2 13.361L16.193 13.361z" class="style1"/>
	</g>
</g>
</svg>
