<svg xmlns="http://www.w3.org/2000/svg" xmlns:xlink="http://www.w3.org/1999/xlink" version="1.1" id="Layer_1" x="0px" y="0px" width="9.3164062px" height="15.8657227px" viewBox="0 0 9.3164062 15.8657227" enable-background="new 0 0 9.3164062 15.8657227" xml:space="preserve"><path fill="#191818" d="M7.2285156 12.9467773c-1.2988281 0.0332031-1.5488281-0.8925781-1.5605469-1.5649414V6.71875h3.0234375V4.0166016H5.6796875V0c0 0-2.3349609 0-2.3740234 0C3.2675781 0 3.1992188 0.0332031 3.1904297 0.1181641 3.0507812 1.3554688 2.4589844 3.5263672 0 4.3935547V6.71875h1.8710938v4.9082031c0 1.7749023 1.1074219 4.2963867 4.6376953 4.237793 1.1914062-0.0195312 2.5146484-0.5097656 2.8076172-0.9296875l-0.7792969-2.2617188C8.2353516 12.8120117 7.6591797 12.9350586 7.2285156 12.9467773L7.2285156 12.9467773z"/></svg>