<svg xmlns="http://www.w3.org/2000/svg" xmlns:xlink="http://www.w3.org/1999/xlink" version="1.1" id="Layer_1" x="0px" y="0px" width="19.3222656px" height="10.9804688px" viewBox="0 0 19.3222656 10.9804688" enable-background="new 0 0 19.3222656 10.9804688" xml:space="preserve"><path fill-rule="evenodd" clip-rule="evenodd" fill="#FFFFFF" d="M62.1015625-35.4350586h11.7958984c1.1191406 0 2.0361328 0.9160156 2.0361328 2.0371094v11.7949219c0 1.1210938-0.9169922 2.0371094-2.0361328 2.0371094H62.1015625c-1.1210938 0-2.0361328-0.9160156-2.0361328-2.0371094v-11.7949219C60.0654297-34.519043 60.9804688-35.4350586 62.1015625-35.4350586L62.1015625-35.4350586zM71.625-33.6713867L71.625-33.6713867c-0.3945312 0-0.7148438 0.3222656-0.7148438 0.7148438v1.7089844c0 0.3925781 0.3203125 0.7148438 0.7148438 0.7148438h1.7929688c0.3935547 0 0.7148438-0.3222656 0.7148438-0.7148438v-1.7089844c0-0.3925781-0.3212891-0.7148438-0.7148438-0.7148438H71.625L71.625-33.6713867zM74.1396484-28.7241211L74.1396484-28.7241211h-1.3964844c0.1337891 0.4316406 0.203125 0.8886719 0.203125 1.3613281 0 2.6386719-2.2089844 4.7792969-4.9326172 4.7792969s-4.9296875-2.140625-4.9296875-4.7792969c0-0.4726562 0.0683594-0.9296875 0.2011719-1.3613281H61.828125v6.703125c0 0.3476562 0.2841797 0.6308594 0.6318359 0.6308594h11.0488281c0.3476562 0 0.6308594-0.2832031 0.6308594-0.6308594V-28.7241211L74.1396484-28.7241211zM68.0136719-30.6225586L68.0136719-30.6225586c-1.7617188 0-3.1865234 1.3828125-3.1865234 3.0878906s1.4248047 3.0878906 3.1865234 3.0878906c1.7607422 0 3.1875-1.3828125 3.1875-3.0878906S69.7744141-30.6225586 68.0136719-30.6225586L68.0136719-30.6225586z"/><path fill-rule="evenodd" clip-rule="evenodd" fill="#FFFFFF" d="M0.7568359 0.4731445c-0.7460938 0-0.9042969 0.3847656-0.6328125 0.9042969 0.2695312 0.5195312 3.9238281 9.612793 9.1855469 9.612793 0 0 0.515625 0 1.0595703 0 0.5400391 0 0.9912109-0.2929688 0.9912109-0.878418 0-0.5878906 0.2275391-1.6484375 0.7910156-1.6484375 0.5664062 0 1.8730469 2.5268555 3.4765625 2.5268555 1.6025391 0 1.7597656 0 2.7753906 0 1.0136719 0 1.0820312-0.5410156 0.8115234-1.0834961 -0.2714844-0.5410156-0.4960938-0.7441406-1.2421875-1.5332031 -0.7421875-0.7890625-1.8037109-1.5117188-1.8037109-2.1660156 0-0.65625 2.234375-3.09375 2.7529297-4.1074219 0.5185547-1.015625 0.5888672-1.6269531-0.2714844-1.6269531 -0.8564453 0-2.796875 0-3.3173828 0 -0.5175781 0-0.6308594 0.6347656-0.7998047 0.9277344 -0.1699219 0.2929688-1.9072266 3.9492188-2.7441406 3.9492188 -0.8320312 0-0.4951172-1.8046875-0.4951172-2.1015625 0-0.2910156 0.0908203-1.5761719 0.0908203-2.1875 0-0.609375-0.5419922-1.0605469-1.2421875-1.0605469 -0.6982422 0-1.3759766 0-2.1884766 0 -0.8105469 0-1.7158203 0.5429688-1.6025391 0.7675781 0.1123047 0.2265625 1.0830078-0.0449219 1.1962891 1.2636719s0.1132812 3.3632812-0.4960938 3.3632812c-0.6113281 0-1.9394531-2.3925781-2.3945312-3.3398438C4.2080078 1.1079102 4.0263672 0.4516602 3.1699219 0.4516602 2.3115234 0.4516602 0.7568359 0.4731445 0.7568359 0.4731445z"/><path fill="#FFFFFF" d="M70.3515625 73.515625c-1.2988281 0.0332031-1.5488281-0.8925781-1.5605469-1.5644531v-4.6640625h3.0234375v-2.7011719h-3.0117188v-4.0175781c0 0-2.3349609 0-2.3740234 0 -0.0380859 0-0.1064453 0.0332031-0.1152344 0.1191406 -0.1396484 1.2363281-0.7314453 3.4082031-3.1904297 4.2753906v2.3242188h1.8710938v4.9082031c0 1.7753906 1.1074219 4.296875 4.6376953 4.2382812 1.1914062-0.0195312 2.5146484-0.5097656 2.8076172-0.9296875l-0.7792969-2.2617188C71.3583984 73.3808594 70.7822266 73.5039062 70.3515625 73.515625L70.3515625 73.515625z"/><path fill="#FFFFFF" d="M75.3759766-125.2651367c0 0-0.6962891-3.828125-4.1533203-3.828125 1.2763672-0.40625 1.7402344-0.4628906 1.6123047-0.8564453 0 0-0.0820312-0.5947266-1.6123047 0.2646484 0.71875-0.5683594 0.6728516-0.7070312 0.5449219-0.7646484 -0.1259766-0.0595703-0.9042969 0.2431641-1.2421875 0.6943359 -0.3359375 0.4521484 0.2558594-0.5332031 0.046875-0.5546875 -0.2080078-0.0253906-1.8339844 1.0771484-3.109375 4.8613281 -2.0068359-1.8105469-5.59375-3.2841797-6.6494141-3.4589844 0 0-0.3056641 0.8574219 0.3505859 1.5664062 0.6523438 0.7070312 1.2050781 0.9863281 1.2050781 0.9863281s-0.9082031-0.0058594-1.1933594 0.1025391c-0.09375 0.1064453 0.0332031 0.9072266 0.7636719 1.3583984 0.7314453 0.453125 1.4726562 0.6621094 1.4726562 0.6621094s-0.9277344 0.0585938-1.2871094 0.5917969c0.2099609 0.5097656 0.6035156 0.9980469 1.3125 1.1835938 0.7070312 0.1865234 1.078125 0.046875 1.078125 0.046875s-0.859375 0.4179688-0.7070312 1.0087891c0.1494141 0.5927734 0.9150391 0.7431641 1.3330078 0.7080078 0.4189453-0.0351562-3.4931641 3.5273438-7.3115234 0.2792969 1.1962891 2.3554688 4.7128906 3.9550781 8.4033203 3.9550781 3.6884766 0 7.7148438-1.7626953 9.2705078-6.6015625 0 0 1.7539062 0.0703125 2.3457031-0.8808594 -0.4404297 0.1152344-1.8945312 0.0332031-2.0898438-0.2207031 1.3115234-0.2216797 2.0654297-0.8710938 2.0898438-1.1152344C77.1992188-125.0209961 75.515625-125.1489258 75.3759766-125.2651367z"/></svg>