<?xml version="1.0" encoding="utf-8"?>
<!-- Generator: Adobe Illustrator 16.0.0, SVG Export Plug-In . SVG Version: 6.00 Build 0)  -->
<!DOCTYPE svg PUBLIC "-//W3C//DTD SVG 1.1//EN" "http://www.w3.org/Graphics/SVG/1.1/DTD/svg11.dtd" [
	<!ENTITY ns_extend "http://ns.adobe.com/Extensibility/1.0/">
	<!ENTITY ns_ai "http://ns.adobe.com/AdobeIllustrator/10.0/">
	<!ENTITY ns_graphs "http://ns.adobe.com/Graphs/1.0/">
	<!ENTITY ns_vars "http://ns.adobe.com/Variables/1.0/">
	<!ENTITY ns_imrep "http://ns.adobe.com/ImageReplacement/1.0/">
	<!ENTITY ns_sfw "http://ns.adobe.com/SaveForWeb/1.0/">
	<!ENTITY ns_custom "http://ns.adobe.com/GenericCustomNamespace/1.0/">
	<!ENTITY ns_adobe_xpath "http://ns.adobe.com/XPath/1.0/">
]>
<svg version="1.1" xmlns:x="&ns_extend;" xmlns:i="&ns_ai;" xmlns:graph="&ns_graphs;"
	 xmlns="http://www.w3.org/2000/svg" xmlns:xlink="http://www.w3.org/1999/xlink" x="0px" y="0px" width="342.2451172px"
	 height="40px" viewBox="0 0 342.2451172 40" enable-background="new 0 0 342.2451172 40" xml:space="preserve">
<metadata>
	<sfw  xmlns="&ns_sfw;">
		<slices></slices>
		<sliceSourceBounds  width="16383" height="16383" y="-8472" x="-7711" bottomLeftOrigin="true"></sliceSourceBounds>
	</sfw>
</metadata>
<g id="Слой_1">
	<g>
		<defs>
			<rect id="SVGID_7_" x="-75.8774414" y="122.0009766" width="2560" height="1260"/>
		</defs>
		<clipPath id="SVGID_2_">
			<use xlink:href="#SVGID_7_"  overflow="visible"/>
		</clipPath>
		<g clip-path="url(#SVGID_2_)">
			<g>
				<g>
					<defs>
						<rect id="SVGID_9_" x="-75.8774414" y="-461.9990234" width="2767" height="1844"/>
					</defs>
					<clipPath id="SVGID_4_">
						<use xlink:href="#SVGID_9_"  overflow="visible"/>
					</clipPath>
					<g transform="matrix(1 0 0 1 0.0000038 0)" clip-path="url(#SVGID_4_)">
						
							<image overflow="visible" width="7500" height="5000" xlink:href="42B81F79.jpg"  transform="matrix(0.406176 0 0 0.406176 -56.4199219 -648.8764648)">
						</image>
					</g>
				</g>
			</g>
		</g>
	</g>
	<g>
		<g>
			<path fill="#FFFFFF" d="M111.3383789,23.0625c-0.5703125-1.2124023-1.2905273-2.2241211-2.0385742-3.0625
				c0.7480469-0.8383789,1.4682617-1.8500977,2.0385742-3.0605469c0.7304688-1.5415039,1.1938477-3.3984375,1.1894531-5.4389648
				c0.0058594-2.746582-0.6171875-5.0415039-1.5927734-6.7944336c-0.6162109-1.1210938-1.4902344-2.0483398-2.4243164-2.7089844
				c-1.4130859-0.9960938-2.8916016-1.4482422-4.2353516-1.7026367C102.9243164,0.0483398,101.6635742,0.0019531,100.5463867,0
				H86.5673828v0.0009766c-1.0043945,0.0039063-1.8085938-0.0117188-2.7504883,0.0869141
				c-0.6953125,0.0869141-1.5678711,0.2177734-2.5991211,0.8251953c-0.7646484,0.4433594-1.4853516,1.2246094-1.8696289,1.980957
				c-0.5883789,1.1538086-0.6518555,2.0356445-0.7207031,2.7861328c-0.0527344,0.7617188-0.0463867,1.4736328-0.0473633,2.3203125
				c-0.0009766,3.625-0.0009766,13.8203125,0,15.699707c0,3.1762695,0,6.5244141,0,8.2973633
				c0.0024414,1.0078125-0.0131836,1.8139648,0.0869141,2.7573242c0.0869141,0.6958008,0.2163086,1.5712891,0.8227539,2.6020508
				c0.4458008,0.7675781,1.2236328,1.487793,1.9794922,1.8735352c1.1518555,0.5888672,2.0307617,0.6503906,2.7822266,0.722168
				C85.012207,40.0048828,85.7216797,39.9970703,86.5673828,40l0,0h13.9790039
				c1.4912109-0.0083008,3.2333984-0.0727539,5.1103516-0.6264648c0.9350586-0.284668,1.9179688-0.7060547,2.8540039-1.3720703
				c0.934082-0.6591797,1.8081055-1.5864258,2.4243164-2.7075195c0.9755859-1.7529297,1.5986328-4.0488281,1.5932617-6.793457
				C112.5307617,26.4599609,112.0688477,24.6005859,111.3383789,23.0625z M100.5463867,8.0004883
				c1.1474609-0.0083008,2.2128906,0.0961914,2.8056641,0.2871094c0.2983398,0.0878906,0.465332,0.1845703,0.5307617,0.230957
				c0.0664063,0.0537109,0.0449219,0.034668,0.0664063,0.0664063c0.2631836,0.4863281,0.5844727,1.3198242,0.590332,2.9155273
				c-0.003418,0.871582-0.1748047,1.4838867-0.4267578,2.0263672c-0.2519531,0.5366211-0.6083984,1.0039063-1.0185547,1.4077148
				c-0.3208008,0.3110352-0.7753906,0.5737305-1.5600586,0.7763672c-0.7695313,0.2006836-1.8129883,0.293457-2.9467773,0.2895508
				l0,0c-3.3876953,0-8.2890625,0-12.0200195,0c0-3.0854492,0-6.2827148,0-8H100.5463867z M103.9506836,31.4135742
				c-0.0244141,0.03125-0.0019531,0.0141602-0.0693359,0.0688477c-0.0878906,0.0693359-0.4448242,0.2470703-1.0571289,0.3549805
				c-0.6035156,0.1162109-1.4169922,0.1635742-2.277832,0.1601563H86.5673828c0-1.7172852,0-4.9125977,0-7.9980469l0,0l0,0
				c0.3984375,0,0.8041992,0,1.2260742,0c3.5292969,0,7.7675781,0,10.7929688,0
				c1.1357422-0.0029297,2.1782227,0.0878906,2.9477539,0.2895508c0.784668,0.2026367,1.2392578,0.465332,1.5600586,0.777832
				c0.4101563,0.4033203,0.7666016,0.8681641,1.0185547,1.40625c0.2519531,0.5424805,0.4238281,1.1567383,0.4267578,2.0273438
				C104.5336914,30.0952148,104.2124023,30.9272461,103.9506836,31.4135742z"/>
			<path fill="#FFFFFF" d="M71.1459961,5.8769531c-0.8701172-2.1767578-2.5600586-3.7407227-4.3085938-4.6220703
				C65.0717773,0.3564453,63.2133789,0.0058594,61.4082031,0c-1.6665039,0-3.6928711,0-5.7436523,0
				c-2.0512695,0-4.0761719,0-5.7441406,0c-1.8046875,0.0058594-3.6621094,0.3564453-5.4277344,1.2548828
				c-1.7490234,0.8813477-3.4389648,2.4453125-4.3100586,4.6220703c-1.2089844,2.9936523-2.2416992,7.4946289-2.2416992,14.1240234
				c0,6.628418,1.0327148,11.1293945,2.2416992,14.1220703c0.8720703,2.1748047,2.5620117,3.7412109,4.3125,4.6230469
				C46.2607422,39.6435547,48.1191406,39.9936523,49.9243164,40h1.4970703h8.4873047h1.496582
				c1.8061523-0.0063477,3.6635742-0.3564453,5.4291992-1.2539063c1.75-0.8818359,3.4399414-2.4482422,4.3115234-4.6230469
				c1.2099609-2.9926758,2.2412109-7.4936523,2.2412109-14.1220703C73.387207,13.371582,72.355957,8.8706055,71.1459961,5.8769531z
				 M63.7407227,31.1210938c-0.0717773,0.1567383-0.1430664,0.2802734-0.5478516,0.5043945
				c-0.3886719,0.2070313-1.0776367,0.378418-1.7875977,0.3720703h-9.9838867l0,0h-1.4970703
				c-0.7099609,0.0063477-1.3999023-0.1650391-1.7885742-0.3720703c-0.4042969-0.2241211-0.4746094-0.3476563-0.5478516-0.5043945
				c-0.7553711-1.8701172-1.6591797-5.3168945-1.6591797-11.1201172c0-5.8061523,0.9038086-9.2519531,1.6591797-11.1220703
				c0.0732422-0.1567383,0.1435547-0.2817383,0.5478516-0.5043945c0.3886719-0.2075195,1.0786133-0.3793945,1.784668-0.3740234
				c0.4746094,0,0.9785156,0,1.5009766,0c2.7294922,0,5.8725586,0,8.4873047,0c0.5234375,0,1.0273438,0,1.4995117,0
				c0.7080078-0.0053711,1.3959961,0.1665039,1.784668,0.3740234c0.4047852,0.2226563,0.4760742,0.3476563,0.5478516,0.5043945
				c0.7563477,1.8701172,1.6591797,5.315918,1.6591797,11.1220703
				C65.3999023,25.8041992,64.4970703,29.2509766,63.7407227,31.1210938z"/>
			<path fill="#FFFFFF" d="M150.5239258,5.8779297c-0.8696289-2.1777344-2.5605469-3.7402344-4.3085938-4.6230469
				C144.4511719,0.3564453,142.5922852,0.0058594,140.7880859,0c-1.6669922,0-3.6938477,0-5.7446289,0
				c-2.0512695,0-4.0776367,0-5.7436523,0c-1.8066406,0.0058594-3.6625977,0.3564453-5.4296875,1.2548828
				c-1.746582,0.8828125-3.4375,2.4453125-4.3081055,4.6220703c-1.2089844,2.9936523-2.2416992,7.4946289-2.2416992,14.1240234
				c0,6.628418,1.0327148,11.1293945,2.2416992,14.1220703c0.8720703,2.1748047,2.5615234,3.7412109,4.3100586,4.6230469
				c1.7670898,0.8974609,3.6240234,1.2475586,5.4311523,1.2539063h1.4975586h8.4868164h1.4980469
				c1.8037109-0.0063477,3.6616211-0.3564453,5.4277344-1.2539063c1.7490234-0.8818359,3.440918-2.4482422,4.3105469-4.6230469
				c1.2109375-2.9926758,2.2431641-7.4936523,2.2431641-14.1220703
				C152.7670898,13.371582,151.7348633,8.8706055,150.5239258,5.8779297z M143.1206055,31.1220703
				c-0.0742188,0.1557617-0.1420898,0.2792969-0.5478516,0.503418c-0.3886719,0.2070313-1.078125,0.378418-1.7871094,0.3720703
				h-9.9848633l0,0h-1.4975586c-0.7089844,0.0063477-1.4003906-0.1650391-1.7880859-0.3720703
				c-0.4052734-0.2241211-0.4770508-0.3476563-0.5478516-0.503418c-0.7558594-1.8710938-1.6586914-5.3178711-1.6586914-11.1210938
				c0-5.8061523,0.902832-9.2519531,1.6586914-11.1220703c0.0708008-0.1567383,0.1425781-0.2817383,0.5478516-0.5043945
				c0.3876953-0.2075195,1.0771484-0.3793945,1.784668-0.3740234c0.4731445,0,0.9770508,0,1.5009766,0
				c2.7290039,0,5.871582,0,8.4868164,0c0.5234375,0,1.0268555,0,1.5004883,0
				c0.7075195-0.0053711,1.3959961,0.1665039,1.784668,0.3740234c0.4042969,0.2226563,0.4736328,0.3476563,0.5478516,0.5043945
				c0.7548828,1.8701172,1.6582031,5.315918,1.6582031,11.1220703
				C144.7788086,25.8041992,143.8754883,29.2509766,143.1206055,31.1220703z"/>
			<path fill="#FFFFFF" d="M19.1352539,29.019043c0.0703125-0.0009766,0.1489258-0.0019531,0.2255859-0.0043945L25.0473633,40
				h8.9985352l-6.7075195-12.9550781c0.1376953-0.0732422,0.2734375-0.1435547,0.4116211-0.2236328
				c1.7548828-1.0180664,3.5107422-2.5859375,4.7563477-4.7753906c1.2514648-2.1860352,1.9472656-4.909668,1.9399414-8.0449219
				c0.0053711-3.6948242-0.8325195-6.6210938-1.9257813-8.746582C31.4399414,3.125,29.590332,1.7290039,27.8071289,0.9926758
				C26.0014648,0.2421875,24.1938477,0.0058594,22.5043945,0C18.3266602,0,11.824707,0,7.987793,0.0009766
				C6.9829102,0.0048828,6.1787109-0.012207,5.2373047,0.0888672C4.5415039,0.1748047,3.668457,0.3056641,2.637207,0.9130859
				C1.8730469,1.3598633,1.152832,2.1376953,0.7680664,2.8930664c-0.5878906,1.15625-0.6523438,2.0366211-0.7207031,2.7871094
				C-0.0043945,6.4418945,0.0019531,7.152832,0,8.0004883C0,11.9995117,0,40,0,40h7.987793c0,0,0-4.9599609,0-11h10.3569336
				C18.5185547,29.0078125,18.7871094,29.019043,19.1352539,29.019043z M7.987793,8.0004883c3.8369141,0,10.3388672,0,14.5166016,0
				c0.8774414-0.0063477,1.7148438,0.152832,2.2060547,0.3691406c0.512207,0.2294922,0.6098633,0.3740234,0.7016602,0.5336914
				c0.5112305,1.0097656,1.0419922,2.5791016,1.0478516,5.0976563c-0.0068359,2.0078125-0.4121094,3.2299805-0.8901367,4.0751953
				c-0.7094727,1.2368164-1.7509766,1.9169922-3.0673828,2.3930664c-1.2871094,0.4594727-2.7143555,0.5566406-3.3671875,0.5507813
				c-0.1469727,0-0.2543945-0.003418-0.3139648-0.0063477c-0.0175781,0-0.0297852-0.0009766-0.0390625-0.0029297
				c-0.0112305,0-0.0141602,0-0.0141602,0l0,0l-0.1289063-0.0112305H7.987793
				C7.987793,15.0458984,7.987793,9.6020508,7.987793,8.0004883z"/>
		</g>
		<path fill="#FFFFFF" d="M187.7353516,27.7275391c-2.1606445-3.0854492-5.0415039-5.7353516-7.4208984-7.7426758
			c-0.0263672-0.0229492-0.0537109-0.0444336-0.0810547-0.065918c1.284668-1.0727539,2.7236328-2.3574219,4.1137695-3.7802734
			c1.456543-1.4970703,2.8676758-3.1401367,4.0058594-4.9692383c1.1142578-1.8276367,2.0576172-3.8793945,2.081543-6.3852539
			V3.590332c0-1.9780273-1.6005859-3.5844727-3.5786133-3.5844727h-1.9853516c-1.3193359,0-2.3876953,1.0703125-2.3876953,2.3896484
			c0,1.5908203-0.0585938,3.2514648-0.8984375,4.6030273c-0.1132813,0.1816406-0.2373047,0.3681641-0.3754883,0.5595703
			c-1.418457,2.0620117-3.9057617,4.4458008-5.9990234,6.1870117c-1.046875,0.8793945-1.9985352,1.612793-2.6787109,2.1230469
			c-0.0307617,0.0224609-0.0585938,0.043457-0.0878906,0.065918c-0.4501953,0-0.9926758,0-1.6010742,0.0004883
			c-1.2509766-0.0004883-2.769043-0.0048828-4.2626953-0.0097656c0-4.7944336,0-9.2871094,0-12.3320313
			c0-1.9785156-1.6005859-3.5869141-3.578125-3.5869141h-0.7944336c-1.9785156,0-3.578125,1.6132813-3.578125,3.5942383
			c0,7.8276367,0,25.1958008,0,32.7280273c0,1.9814453,1.5981445,3.597168,3.578125,3.597168h0.7944336
			c1.9741211,0,3.578125-1.6000977,3.578125-3.5766602c0-2.9912109,0-7.5444336,0-12.4375
			c1.4589844-0.0053711,2.9423828-0.0102539,4.1767578-0.012207c0.6420898,0.0019531,1.2138672,0.0019531,1.6850586,0.0019531
			c1.2055664,0.8994141,3.3085938,2.5410156,5.3056641,4.4584961c1.3930664,1.3310547,2.7104492,2.7978516,3.5776367,4.090332
			c0.8989258,1.2851563,1.1977539,2.371582,1.1582031,2.6025391v1.1933594c0,1.9790039,1.6040039,3.5839844,3.578125,3.5839844
			h0.796875c1.9760742,0,3.5766602-1.6049805,3.5766602-3.5839844v-1.1933594
			C190.390625,32.1064453,189.1416016,29.7978516,187.7353516,27.7275391z M259.9179688,16.3330078
			c-1.1137695-0.3203125-2.1313477-0.3964844-3.0332031-0.3989258h-10.737793
			c-1.0390625,0.0068359-2.015625-0.1230469-2.5776367-0.3232422c-0.5888672-0.2226563-0.6264648-0.3339844-0.6899414-0.4257813
			c-0.3388672-0.6220703-0.6992188-1.5664063-0.7060547-3.2333984c0.0068359-1.6689453,0.3671875-2.6118164,0.7060547-3.2338867
			c0.0634766-0.0917969,0.1010742-0.2011719,0.6879883-0.4228516c0.559082-0.2021484,1.5322266-0.3320313,2.5693359-0.3251953
			c4.171875,0,10.7749023,0,15.4887695,0c1.9824219,0,3.6083984-1.5947266,3.6083984-3.5820313V0.0058594
			c0,0-13.6772461,0-19.097168,0c-0.6821289,0.0029297-1.4018555,0.0292969-2.1508789,0.1088867
			c-2.0253906,0.2192383-4.0244141,0.8154297-5.6635742,2.0249023c-1.9487305,1.4375-3.1069336,3.6748047-3.6733398,6.0297852
			c-0.0195313,0.0849609-0.0390625,0.1694336-0.0581055,0.2563477c-0.5166016,2.3383789-0.515625,4.7670898,0.0112305,7.1025391
			c0.0566406,0.2514648,0.1176758,0.4960938,0.1845703,0.7363281c0.5546875,1.9667969,1.5263672,3.8330078,3.0888672,5.1464844
			c1.8344727,1.5444336,4.2109375,2.2333984,6.6010742,2.421875c0.5776367,0.046875,1.1347656,0.0625,1.6704102,0.0644531h9.4628906
			c1.3212891,0,2.6811523,0.6147461,3.0146484,1.8945313c0.3544922,1.3598633,0.3544922,2.7905273,0.0043945,4.1523438
			c-0.1274414,0.5-0.2944336,0.878418-0.4672852,1.1777344c-0.269043,0.4643555-0.7714844,0.7456055-1.3061523,0.7382813
			c-3.7456055,0-11.8959961,0-17.4335938,0c-1.9858398,0-3.609375,1.5957031-3.609375,3.5839844v0.796875
			c0,1.9863281,1.6235352,3.5834961,3.609375,3.5834961c5.5375977,0,13.6879883,0,17.4335938,0
			c0.8969727-0.0019531,1.9155273-0.074707,3.0351563-0.3916016c1.1079102-0.3149414,2.3603516-0.9199219,3.3984375-1.9868164
			c1.7563477-1.7475586,3.5717773-5.0361328,3.5356445-9.5683594c0.0361328-4.5317383-1.7792969-7.8193359-3.5366211-9.5654297
			C262.2592773,17.2548828,261.0200195,16.6479492,259.9179688,16.3330078z M295.6328125,16.3325195
			c-1.1166992-0.3198242-2.1342773-0.3959961-3.0351563-0.3984375h-10.7358398
			c-1.0410156,0.0068359-2.0185547-0.1230469-2.578125-0.3232422c-0.5917969-0.2226563-0.6269531-0.3339844-0.6914063-0.4257813
			c-0.3408203-0.6220703-0.6972656-1.5664063-0.7060547-3.2333984c0.0087891-1.6674805,0.3652344-2.6118164,0.7060547-3.2338867
			c0.0644531-0.0917969,0.1020508-0.2021484,0.6889648-0.4228516c0.5571289-0.2021484,1.5336914-0.3320313,2.5668945-0.3251953
			c4.1743164,0,10.7768555,0,15.4882813,0c1.9863281,0,3.609375-1.5947266,3.609375-3.5839844V0.0083008
			c-4.1469727-0.0024414-13.6757813-0.0024414-19.0976563-0.0024414c-0.6816406,0.0029297-1.4018555,0.0292969-2.1489258,0.1113281
			c-2.0258789,0.2167969-4.0249023,0.8115234-5.6640625,2.0224609c-1.9467773,1.4375-3.1079102,3.6748047-3.6728516,6.0297852
			c-0.0195313,0.0849609-0.0405273,0.1694336-0.0595703,0.2563477c-0.5175781,2.3383789-0.5131836,4.7670898,0.0112305,7.1025391
			c0.0576172,0.2514648,0.1186523,0.4960938,0.1865234,0.7363281c0.5537109,1.9667969,1.5239258,3.8330078,3.0878906,5.1464844
			c1.8344727,1.5444336,4.2109375,2.2333984,6.5996094,2.421875c0.5791016,0.046875,1.1381836,0.0625,1.6738281,0.0644531h9.4589844
			c1.3232422,0,2.6835938,0.6147461,3.0166016,1.8964844c0.3530273,1.3579102,0.3530273,2.7885742,0.0048828,4.1503906
			c-0.1298828,0.5-0.2929688,0.878418-0.4667969,1.1777344c-0.2695313,0.4643555-0.7724609,0.7456055-1.3071289,0.7382813
			c-3.7456055,0-11.8969727,0-17.434082,0c-1.9838867,0-3.6088867,1.597168-3.6088867,3.5839844v0.796875
			c0,1.9863281,1.625,3.5834961,3.6088867,3.5834961c5.5390625,0,13.6884766,0,17.434082,0
			c0.8989258-0.0019531,1.9165039-0.0727539,3.0371094-0.3916016c1.1064453-0.3149414,2.3574219-0.9199219,3.3964844-1.9868164
			c1.7543945-1.7475586,3.5708008-5.0361328,3.5356445-9.5668945c0.0351563-4.5332031-1.78125-7.8208008-3.5356445-9.5668945
			C297.9716797,17.2548828,296.7333984,16.6479492,295.6328125,16.3325195z M225.796875,4.6333008
			c-1.2407227-1.8168945-2.9980469-3.0131836-4.7373047-3.6928711c-1.480957-0.581543-2.9746094-0.8427734-4.4169922-0.9121094
			V0.0058594c0-0.0126953-0.0224609,0-0.0366211,0c-1.5273438,0-2.9975586,0-4.3461914,0c-1.112793,0-2.2949219,0-3.5107422,0
			c-0.0239258,0-0.059082-0.0009766-0.059082,0.0234375c-1.4384766,0.0683594-2.9267578,0.3295898-4.3994141,0.9077148
			c-1.7368164,0.6811523-3.4858398,1.8745117-4.7226563,3.6879883c-2.1806641,3.1645508-4.4101563,8.465332-4.3959961,16.1870117
			c0,7.121582,0,12.2749023,0,15.4042969c0,1.9873047,1.5947266,3.6083984,3.578125,3.6083984h0.7944336
			c1.984375,0,3.5791016-1.6210938,3.5791016-3.6083984c0-1.6445313,0-3.8554688,0-6.6113281h19.0839844
			c0,2.7661133,0,4.9873047,0,6.6376953c0,1.9799805,1.6010742,3.5820313,3.5771484,3.5820313h0.7988281
			c1.9731445,0,3.5756836-1.6020508,3.5756836-3.5820313c0-3.1513672,0-8.3583984,0-15.5292969
			C230.1733398,13.0458984,227.9755859,7.7851563,225.796875,4.6333008z M222.2075195,21.6420898h-19.0839844
			c0-0.2763672,0-0.5488281,0-0.8300781c0.0141602-6.2280273,1.6987305-9.7524414,3.0048828-11.684082
			c0.2060547-0.2944336,0.4970703-0.546875,1.0805664-0.7836914c0.5708008-0.2280273,1.3999023-0.3774414,2.2744141-0.3745117
			c2.378418,0,4.6000977,0,6.3662109,0c0.8813477-0.0029297,1.7177734,0.1464844,2.2939453,0.378418
			c0.5913086,0.2412109,0.8886719,0.4931641,1.0991211,0.7929688c1.2890625,1.9086914,2.9511719,5.3852539,2.9648438,11.5722656
			C222.2075195,21.027832,222.2075195,21.3344727,222.2075195,21.6420898z M342.2451172,20.7114258
			c0.0161133-7.6655273-2.184082-12.9272461-4.3618164-16.0761719c-1.2421875-1.8208008-2.9980469-3.0151367-4.7382813-3.6948242
			c-1.4804688-0.581543-2.9755859-0.8427734-4.4199219-0.9121094c0-0.0131836-0.0151367-0.0224609-0.0292969-0.0224609
			c-2.6679688,0-5.1757813,0-7.1293945,0c-0.0126953,0-0.0244141,0-0.0385742,0c-0.234375,0-0.4667969,0-0.7050781,0
			c-0.0200195,0-0.0463867,0.0029297-0.0463867,0.0224609c-1.4375,0.0693359-2.9282227,0.3305664-4.402832,0.9101563
			c-1.734375,0.6782227-3.4824219,1.8710938-4.71875,3.6865234c-2.1816406,3.1645508-4.4116211,8.465332-4.3974609,16.1870117
			c0,7.121582,0,12.2749023,0,15.4042969c0,1.9873047,1.5947266,3.6083984,3.5776367,3.6083984h0.7954102
			c1.9838867,0,3.5791016-1.6210938,3.5776367-3.6083984c0-1.6445313,0-3.8554688,0.0014648-6.6113281h19.0849609
			c0,2.7661133,0,4.9873047,0,6.6376953c0,1.9799805,1.5996094,3.5820313,3.5756836,3.5820313h0.7958984
			c1.9770508,0,3.578125-1.6040039,3.578125-3.5820313C342.2426758,33.0913086,342.2441406,27.8833008,342.2451172,20.7114258z
			 M334.2944336,21.6420898h-19.0849609c0-0.2763672,0-0.5493164,0-0.8300781
			c0.0136719-6.2280273,1.6982422-9.7543945,3.0024414-11.684082c0.2080078-0.2944336,0.4985352-0.543457,1.081543-0.7817383
			c0.5708008-0.2299805,1.3964844-0.3793945,2.2695313-0.3764648c0.0683594,0,0.1391602,0,0.2080078,0
			c1.7436523,0,3.8994141,0,6.206543,0c0.8666992,0.0019531,1.6835938,0.1494141,2.2504883,0.378418
			c0.5922852,0.2412109,0.8896484,0.4931641,1.0996094,0.7939453c1.2900391,1.9057617,2.9501953,5.3857422,2.9667969,11.5693359
			C334.2944336,21.027832,334.2944336,21.3344727,334.2944336,21.6420898z"/>
	</g>
</g>
<g id="Слой_2">
</g>
</svg>
