<?xml version="1.0" encoding="utf-8"?>
<!-- Generator: Adobe Illustrator 16.0.0, SVG Export Plug-In . SVG Version: 6.00 Build 0)  -->
<!DOCTYPE svg PUBLIC "-//W3C//DTD SVG 1.1//EN" "http://www.w3.org/Graphics/SVG/1.1/DTD/svg11.dtd">
<svg version="1.1" id="Layer_1" xmlns="http://www.w3.org/2000/svg" xmlns:xlink="http://www.w3.org/1999/xlink" x="0px" y="0px"
	 width="200px" height="200px" viewBox="0 0 200 200" enable-background="new 0 0 200 200" xml:space="preserve">
<path fill="#0071CE" d="M190.625,165.673c0,13.696-10.84,24.792-24.212,24.792H35.15c-13.373,0-24.213-11.096-24.213-24.792V36.059
	c0-13.696,10.84-24.793,24.213-24.793h131.263c13.372,0,24.212,11.097,24.212,24.793V165.673z"/>
<path fill="#FFFFFF" d="M171.094,0.463H29.688c-16.18,0-29.297,13.439-29.297,30.005v140.003c0,16.564,13.117,29.992,29.297,29.992
	h141.406c16.181,0,29.297-13.428,29.297-29.992V30.468C200.391,13.903,187.274,0.463,171.094,0.463z M190.234,165.283
	c0,13.685-10.84,24.78-24.212,24.78H34.76c-13.373,0-24.213-11.096-24.213-24.78V35.657c0-13.685,10.84-24.793,24.213-24.793
	h131.263c13.372,0,24.212,11.108,24.212,24.793V165.283z"/>
<path fill="#FFFFFF" d="M80.316,104.418v-32.58c0-11.097,8.984-20.081,20.074-20.081s20.075,8.984,20.075,20.081v32.58h14.19V71.911
	c0-18.92-15.338-34.265-34.266-34.265c-18.927,0-34.259,15.345-34.259,34.265v32.508H80.316z"/>
<path fill="#FFFFFF" d="M52.112,160.961c0,3.442,2.801,6.25,6.25,6.25h84.058c3.448,0,6.25-2.808,6.25-6.25v-58.594
	c0-3.442-2.802-6.25-6.25-6.25H58.362c-3.449,0-6.25,2.808-6.25,6.25V160.961z"/>
<path fill="#0071CE" d="M108.594,147.473c0,4.528-3.668,8.203-8.203,8.203l0,0c-4.535,0-8.203-3.675-8.203-8.203V132.25
	c0-4.529,3.668-8.203,8.203-8.203l0,0c4.535,0,8.203,3.674,8.203,8.203V147.473z"/>
</svg>
