<?xml version="1.0" encoding="utf-8"?>
<!-- Generator: Adobe Illustrator 16.0.0, SVG Export Plug-In . SVG Version: 6.00 Build 0)  -->
<!DOCTYPE svg PUBLIC "-//W3C//DTD SVG 1.1//EN" "http://www.w3.org/Graphics/SVG/1.1/DTD/svg11.dtd">
<svg version="1.1" id="Layer_1" xmlns="http://www.w3.org/2000/svg" xmlns:xlink="http://www.w3.org/1999/xlink" x="0px" y="0px"
	 width="662.666px" height="77.107px" viewBox="0 0 662.666 77.107" enable-background="new 0 0 662.666 77.107"
	 xml:space="preserve">
<g>
	<g>
		<path fill="#0071CE" d="M215.577,44.642c-1.104-2.348-2.498-4.307-3.947-5.929c1.449-1.623,2.842-3.582,3.947-5.926
			c1.415-2.984,2.312-6.58,2.303-10.531c0.012-5.318-1.194-9.762-3.083-13.156c-1.193-2.17-2.886-3.965-4.694-5.244
			c-2.736-1.93-5.599-2.805-8.201-3.297c-2.616-0.477-5.057-0.566-7.22-0.57h-27.067v0.002c-1.945,0.008-3.501-0.023-5.326,0.168
			c-1.345,0.168-3.035,0.422-5.032,1.598c-1.48,0.859-2.876,2.371-3.62,3.836c-1.14,2.234-1.263,3.941-1.396,5.395
			c-0.103,1.475-0.09,2.854-0.092,4.492c-0.002,7.02-0.002,26.759,0,30.398c0,6.15,0,12.633,0,16.066
			c0.005,1.951-0.025,3.512,0.169,5.338c0.167,1.348,0.418,3.043,1.593,5.039c0.863,1.486,2.369,2.881,3.832,3.627
			c2.23,1.141,3.933,1.26,5.388,1.398c1.472,0.102,2.847,0.086,4.484,0.092l0,0h27.067c2.887-0.016,6.26-0.141,9.895-1.213
			c1.811-0.551,3.714-1.367,5.526-2.656c1.809-1.277,3.501-3.072,4.694-5.242c1.889-3.395,3.096-7.84,3.085-13.154
			C217.886,51.22,216.991,47.621,215.577,44.642z M194.682,15.479c2.221-0.016,4.284,0.188,5.432,0.557
			c0.577,0.17,0.901,0.357,1.028,0.447c0.128,0.104,0.086,0.066,0.128,0.129c0.51,0.941,1.131,2.555,1.143,5.645
			c-0.006,1.688-0.339,2.873-0.827,3.924c-0.488,1.039-1.178,1.943-1.972,2.725c-0.621,0.604-1.5,1.111-3.021,1.504
			c-1.49,0.389-3.51,0.568-5.706,0.561l0,0c-6.56,0-16.05,0-23.273,0c0-5.975,0-12.164,0-15.49H194.682z M201.272,60.812
			c-0.046,0.061-0.003,0.027-0.134,0.133c-0.17,0.135-0.861,0.479-2.047,0.688c-1.168,0.225-2.743,0.316-4.41,0.311h-27.067
			c0-3.326,0-9.512,0-15.486l0,0l0,0c0.772,0,1.558,0,2.374,0c6.833,0,15.041,0,20.898,0c2.199-0.006,4.218,0.17,5.708,0.561
			c1.52,0.393,2.399,0.9,3.021,1.506c0.794,0.781,1.484,1.682,1.972,2.723c0.488,1.051,0.821,2.24,0.827,3.926
			C202.401,58.259,201.78,59.871,201.272,60.812z"/>
		<path fill="#0071CE" d="M137.755,11.367c-1.684-4.215-4.957-7.242-8.342-8.949c-3.418-1.74-7.018-2.418-10.512-2.43
			c-3.227,0-7.15,0-11.121,0c-3.972,0-7.893,0-11.122,0C93.163,0,89.567,0.678,86.149,2.418c-3.387,1.707-6.659,4.734-8.346,8.949
			c-2.341,5.797-4.341,14.512-4.341,27.348c0,12.833,2,21.548,4.341,27.343c1.688,4.211,4.96,7.244,8.35,8.951
			c3.419,1.738,7.017,2.416,10.512,2.428h2.898h16.433h2.898c3.497-0.012,7.093-0.689,10.512-2.428
			c3.388-1.707,6.661-4.74,8.348-8.951c2.343-5.795,4.34-14.51,4.34-27.343C142.095,25.879,140.099,17.164,137.755,11.367z
			 M123.417,60.246c-0.139,0.303-0.278,0.543-1.062,0.977c-0.752,0.4-2.086,0.732-3.46,0.721H99.564l0,0h-2.898
			c-1.375,0.012-2.71-0.32-3.463-0.721c-0.783-0.434-0.919-0.674-1.061-0.977c-1.462-3.621-3.212-10.295-3.212-21.531
			c0-11.242,1.75-17.914,3.212-21.535c0.142-0.303,0.278-0.545,1.061-0.977c0.753-0.402,2.089-0.734,3.456-0.725
			c0.918,0,1.894,0,2.906,0c5.286,0,11.371,0,16.433,0c1.014,0,1.99,0,2.904,0c1.371-0.01,2.703,0.322,3.455,0.725
			c0.784,0.432,0.922,0.674,1.062,0.977c1.464,3.621,3.212,10.293,3.212,21.535C126.629,49.951,124.882,56.625,123.417,60.246z"/>
		<path fill="#0071CE" d="M291.45,11.369c-1.685-4.217-4.958-7.242-8.343-8.951c-3.416-1.74-7.016-2.418-10.508-2.43
			c-3.229,0-7.152,0-11.123,0c-3.973,0-7.896,0-11.121,0c-3.499,0.012-7.092,0.689-10.514,2.43
			c-3.382,1.709-6.655,4.734-8.341,8.949c-2.341,5.797-4.34,14.512-4.34,27.348c0,12.833,1.999,21.548,4.34,27.343
			c1.688,4.211,4.96,7.244,8.345,8.951c3.422,1.738,7.017,2.416,10.516,2.428h2.899h16.433h2.9c3.493-0.012,7.09-0.689,10.51-2.428
			c3.387-1.707,6.662-4.74,8.347-8.951c2.345-5.795,4.343-14.51,4.343-27.343C295.792,25.879,293.794,17.164,291.45,11.369z
			 M277.115,60.248c-0.144,0.301-0.275,0.541-1.061,0.975c-0.752,0.4-2.088,0.732-3.461,0.721H253.26l0,0h-2.899
			c-1.373,0.012-2.71-0.32-3.462-0.721c-0.784-0.434-0.923-0.674-1.061-0.975c-1.463-3.623-3.212-10.297-3.212-21.533
			c0-11.242,1.749-17.914,3.212-21.535c0.137-0.303,0.276-0.545,1.061-0.977c0.751-0.402,2.086-0.734,3.456-0.725
			c0.916,0,1.892,0,2.905,0c5.285,0,11.37,0,16.433,0c1.014,0,1.988,0,2.906,0c1.369-0.01,2.703,0.322,3.455,0.725
			c0.783,0.432,0.917,0.674,1.061,0.977c1.462,3.621,3.211,10.293,3.211,21.535C280.326,49.951,278.577,56.625,277.115,60.248z"/>
		<path fill="#0071CE" d="M37.05,56.175c0.136-0.002,0.289-0.004,0.437-0.008l11.011,21.27h17.423L52.934,52.353
			c0.266-0.143,0.529-0.277,0.797-0.434c3.398-1.971,6.798-5.006,9.208-9.246c2.424-4.232,3.771-9.505,3.757-15.576
			c0.01-7.154-1.612-12.82-3.729-16.936c-2.092-4.123-5.674-6.826-9.126-8.252C50.345,0.457,46.845,0,43.574-0.012
			c-8.089,0-20.678,0-28.107,0.002c-1.945,0.008-3.502-0.025-5.326,0.17C8.793,0.326,7.104,0.58,5.106,1.756
			C3.627,2.621,2.232,4.127,1.487,5.59c-1.138,2.238-1.262,3.943-1.394,5.396C-0.008,12.461,0.004,13.838,0,15.479
			c0,7.744,0,61.958,0,61.958h15.467c0,0,0-9.604,0-21.299h20.054C35.856,56.154,36.376,56.175,37.05,56.175z M15.467,15.479
			c7.43,0,20.018,0,28.107,0c1.699-0.012,3.321,0.297,4.271,0.715c0.992,0.445,1.181,0.725,1.358,1.033
			c0.99,1.955,2.018,4.994,2.029,9.871c-0.013,3.887-0.798,6.254-1.723,7.891c-1.374,2.395-3.391,3.711-5.939,4.632
			c-2.493,0.891-5.256,1.078-6.521,1.066c-0.284,0-0.492-0.006-0.607-0.012c-0.034,0-0.058-0.002-0.076-0.006
			c-0.021,0-0.027,0-0.027,0l0,0l-0.25-0.021H15.467C15.467,29.121,15.467,18.58,15.467,15.479z"/>
	</g>
	<path fill="#EB0029" d="M363.499,53.675c-4.184-5.975-9.762-11.105-14.369-14.992c-0.051-0.045-0.104-0.086-0.156-0.127
		c2.486-2.078,5.273-4.564,7.965-7.32c2.82-2.898,5.553-6.08,7.756-9.621c2.158-3.539,3.984-7.512,4.031-12.363V6.939
		c0-3.83-3.1-6.939-6.93-6.939h-3.844c-2.555,0-4.623,2.072-4.623,4.627c0,3.08-0.113,6.295-1.74,8.912
		c-0.219,0.352-0.459,0.713-0.727,1.084c-2.746,3.992-7.563,8.607-11.615,11.979c-2.027,1.703-3.869,3.123-5.188,4.111
		c-0.059,0.043-0.113,0.084-0.17,0.127c-0.871,0-1.921,0-3.099,0.002c-2.422-0.002-5.361-0.01-8.254-0.02c0-9.283,0-17.982,0-23.877
		c0-3.832-3.1-6.945-6.928-6.945h-1.538c-3.831,0-6.929,3.123-6.929,6.959c0,15.156,0,48.785,0,63.369
		c0,3.836,3.095,6.965,6.929,6.965h1.538c3.822,0,6.928-3.098,6.928-6.926c0-5.791,0-14.607,0-24.082
		c2.825-0.01,5.697-0.02,8.088-0.023c1.242,0.004,2.349,0.004,3.261,0.004c2.334,1.742,6.406,4.92,10.273,8.633
		c2.697,2.578,5.248,5.418,6.928,7.92c1.74,2.488,2.318,4.592,2.242,5.039v2.311c0,3.832,3.105,6.939,6.928,6.939h1.543
		c3.826,0,6.926-3.107,6.926-6.939v-2.311C368.64,62.154,366.222,57.683,363.499,53.675z M503.261,31.613
		c-2.156-0.621-4.127-0.768-5.873-0.773h-20.791c-2.012,0.014-3.902-0.238-4.99-0.625c-1.141-0.432-1.213-0.646-1.336-0.824
		c-0.656-1.205-1.354-3.033-1.367-6.262c0.014-3.23,0.711-5.057,1.367-6.262c0.123-0.178,0.195-0.389,1.332-0.818
		c1.082-0.391,2.967-0.643,4.975-0.629c8.078,0,20.863,0,29.99,0c3.838,0,6.986-3.088,6.986-6.936V0c0,0-26.482,0-36.977,0
		c-1.32,0.006-2.715,0.057-4.164,0.211c-3.922,0.424-7.793,1.578-10.967,3.92c-3.773,2.783-6.016,7.115-7.111,11.676
		c-0.039,0.164-0.076,0.328-0.113,0.496c-1,4.527-0.998,9.23,0.021,13.752c0.109,0.486,0.229,0.961,0.357,1.426
		c1.074,3.809,2.955,7.422,5.98,9.964c3.553,2.99,8.154,4.324,12.781,4.689c1.119,0.09,2.197,0.121,3.234,0.125h18.322
		c2.559,0,5.191,1.189,5.838,3.668c0.686,2.633,0.686,5.402,0.008,8.039c-0.246,0.969-0.57,1.701-0.904,2.281
		c-0.521,0.898-1.494,1.443-2.529,1.43c-7.252,0-23.033,0-33.756,0c-3.844,0-6.988,3.09-6.988,6.939v1.543
		c0,3.846,3.145,6.938,6.988,6.938c10.723,0,26.504,0,33.756,0c1.736-0.004,3.709-0.145,5.877-0.758
		c2.145-0.609,4.57-1.781,6.58-3.848c3.4-3.383,6.916-9.75,6.846-18.525c0.07-8.775-3.445-15.14-6.848-18.521
		C507.794,33.398,505.396,32.223,503.261,31.613z M572.413,31.611c-2.162-0.619-4.133-0.766-5.877-0.771h-20.787
		c-2.016,0.014-3.908-0.238-4.992-0.625c-1.145-0.432-1.213-0.646-1.338-0.824c-0.66-1.205-1.35-3.033-1.367-6.262
		c0.018-3.229,0.707-5.057,1.367-6.262c0.125-0.178,0.197-0.391,1.334-0.818c1.078-0.391,2.969-0.643,4.971-0.629
		c8.082,0,20.865,0,29.988,0c3.846,0,6.988-3.088,6.988-6.939V0.004C574.671,0,556.222,0,545.724,0
		c-1.32,0.006-2.715,0.057-4.162,0.215c-3.922,0.42-7.793,1.572-10.967,3.916c-3.77,2.783-6.018,7.115-7.111,11.676
		c-0.037,0.164-0.078,0.328-0.115,0.496c-1.002,4.527-0.994,9.23,0.021,13.752c0.111,0.486,0.23,0.961,0.361,1.426
		c1.072,3.809,2.951,7.422,5.979,9.964c3.553,2.99,8.154,4.324,12.779,4.689c1.121,0.09,2.203,0.121,3.24,0.125h18.314
		c2.563,0,5.197,1.189,5.842,3.672c0.684,2.629,0.684,5.398,0.01,8.035c-0.252,0.969-0.568,1.701-0.904,2.281
		c-0.521,0.898-1.496,1.443-2.531,1.43c-7.252,0-23.035,0-33.756,0c-3.842,0-6.988,3.092-6.988,6.939v1.543
		c0,3.846,3.146,6.938,6.988,6.938c10.725,0,26.504,0,33.756,0c1.74-0.004,3.711-0.141,5.881-0.758
		c2.143-0.609,4.564-1.781,6.576-3.848c3.396-3.383,6.914-9.75,6.846-18.523c0.068-8.777-3.449-15.142-6.846-18.523
		C576.942,33.398,574.544,32.223,572.413,31.611z M437.194,8.959c-2.402-3.518-5.805-5.834-9.172-7.15
		c-2.867-1.125-5.76-1.631-8.553-1.766V0c0-0.025-0.043,0-0.07,0c-2.957,0-5.805,0-8.416,0c-2.154,0-4.443,0-6.797,0
		c-0.047,0-0.115-0.002-0.115,0.045c-2.785,0.133-5.666,0.639-8.518,1.758c-3.363,1.318-6.75,3.629-9.145,7.141
		c-4.223,6.127-8.539,16.391-8.512,31.341c0,13.789,0,23.768,0,29.826c0,3.848,3.088,6.986,6.928,6.986h1.539
		c3.842,0,6.93-3.139,6.93-6.986c0-3.184,0-7.465,0-12.801h36.951c0,5.355,0,9.656,0,12.852c0,3.834,3.1,6.936,6.926,6.936h1.547
		c3.82,0,6.924-3.102,6.924-6.936c0-6.102,0-16.184,0-30.068C445.669,25.248,441.413,15.063,437.194,8.959z M430.245,41.892h-36.951
		c0-0.535,0-1.063,0-1.607c0.027-12.058,3.289-18.882,5.818-22.623c0.398-0.57,0.963-1.059,2.092-1.518
		c1.105-0.441,2.711-0.73,4.404-0.725c4.605,0,8.906,0,12.326,0c1.707-0.006,3.326,0.283,4.441,0.732
		c1.145,0.467,1.721,0.955,2.129,1.535c2.496,3.695,5.713,10.428,5.74,22.406C430.245,40.703,430.245,41.296,430.245,41.892z
		 M662.665,40.089c0.031-14.841-4.229-25.029-8.445-31.126c-2.404-3.525-5.805-5.838-9.174-7.154
		c-2.867-1.125-5.762-1.631-8.559-1.766c0-0.025-0.029-0.043-0.057-0.043c-5.166,0-10.021,0-13.805,0c-0.023,0-0.047,0-0.074,0
		c-0.453,0-0.904,0-1.365,0c-0.039,0-0.09,0.006-0.09,0.043c-2.783,0.135-5.67,0.641-8.525,1.762
		c-3.357,1.314-6.742,3.623-9.137,7.139c-4.223,6.127-8.541,16.391-8.514,31.341c0,13.789,0,23.768,0,29.826
		c0,3.848,3.088,6.986,6.928,6.986h1.539c3.842,0,6.93-3.139,6.928-6.986c0-3.184,0-7.465,0.002-12.801h36.953
		c0,5.355,0,9.656,0,12.852c0,3.834,3.098,6.936,6.924,6.936h1.541c3.828,0,6.928-3.105,6.928-6.936
		C662.661,64.06,662.663,53.976,662.665,40.089z M647.271,41.892h-36.953c0-0.535,0-1.064,0-1.607
		c0.027-12.058,3.289-18.886,5.814-22.623c0.402-0.57,0.965-1.053,2.094-1.514c1.105-0.445,2.703-0.734,4.395-0.729
		c0.133,0,0.27,0,0.402,0c3.377,0,7.551,0,12.018,0c1.678,0.004,3.26,0.289,4.357,0.732c1.146,0.467,1.723,0.955,2.129,1.537
		c2.498,3.689,5.713,10.428,5.744,22.4C647.271,40.703,647.271,41.296,647.271,41.892z"/>
</g>
</svg>
