<?xml version="1.0" encoding="utf-8"?>
<!-- Generator: Adobe Illustrator 18.0.0, SVG Export Plug-In . SVG Version: 6.00 Build 0)  -->
<!DOCTYPE svg PUBLIC "-//W3C//DTD SVG 1.1//EN" "http://www.w3.org/Graphics/SVG/1.1/DTD/svg11.dtd" [
	<!ENTITY ns_extend "http://ns.adobe.com/Extensibility/1.0/">
	<!ENTITY ns_ai "http://ns.adobe.com/AdobeIllustrator/10.0/">
	<!ENTITY ns_graphs "http://ns.adobe.com/Graphs/1.0/">
	<!ENTITY ns_vars "http://ns.adobe.com/Variables/1.0/">
	<!ENTITY ns_imrep "http://ns.adobe.com/ImageReplacement/1.0/">
	<!ENTITY ns_sfw "http://ns.adobe.com/SaveForWeb/1.0/">
	<!ENTITY ns_custom "http://ns.adobe.com/GenericCustomNamespace/1.0/">
	<!ENTITY ns_adobe_xpath "http://ns.adobe.com/XPath/1.0/">
]>
<svg 
	 version="1.1" 
	 id="Слой_1" 
	 xmlns:x="&ns_extend;" 
	 xmlns:i="&ns_ai;" 
	 xmlns:graph="&ns_graphs;"
	 xmlns="http://www.w3.org/2000/svg" 
	 xmlns:xlink="http://www.w3.org/1999/xlink" 
	 x="0px" 
	 y="0px" 
	 viewBox="0 0 384.2 270.2"
	 enable-background="new 0 0 384.2 270.2" 
	 xml:space="preserve">
	<g i:extraneous="self">
		<path fill="none" stroke="#8bc196" stroke-miterlimit="10" d="M379.9,137c0,14.1,0.5,28.2-0.1,42.3c-0.6,15.8-2.4,31.5-6.1,47
			c-4.5,18.9-21.2,34.3-41.5,35.9c-31.6,2.5-63.1,5.3-94.7,7.5c-11.2,0.8-22.5,0.5-33.7,0.4c-19.8-0.1-39.6-0.1-59.4-0.8
			c-18.9-0.7-37.8-2.1-56.6-3.5c-12.9-1-25.9-2.2-38.7-4c-19.5-2.7-35-18.5-39-38.9c-3.8-19.3-5.6-38.7-5.6-58.3
			c0-21.6-0.1-43.1,0.3-64.7c0.3-17.2,2.3-34.2,6.1-51c5.2-23.1,25-35.9,42.7-37.1c22.6-1.6,45.1-4.4,67.7-6
			c17.3-1.2,34.7-1.6,52.1-1.7C196.1,4.1,219,3.9,241.8,5c25.7,1.2,51.3,3.7,77,5.7c4.2,0.3,8.3,0.8,12.5,1.3
			c23,2.6,38.8,16.9,43.4,39.6c3.9,19.5,5.6,39.2,5.6,59c0,8.8,0,17.6,0,26.4C380.1,137,380,137,379.9,137z"/>
	</g>
</svg>