<?xml version="1.0" encoding="utf-8"?>
<!-- Generator: Adobe Illustrator 18.0.0, SVG Export Plug-In . SVG Version: 6.00 Build 0)  -->
<!DOCTYPE svg PUBLIC "-//W3C//DTD SVG 1.1//EN" "http://www.w3.org/Graphics/SVG/1.1/DTD/svg11.dtd" [
	<!ENTITY ns_extend "http://ns.adobe.com/Extensibility/1.0/">
	<!ENTITY ns_ai "http://ns.adobe.com/AdobeIllustrator/10.0/">
	<!ENTITY ns_graphs "http://ns.adobe.com/Graphs/1.0/">
	<!ENTITY ns_vars "http://ns.adobe.com/Variables/1.0/">
	<!ENTITY ns_imrep "http://ns.adobe.com/ImageReplacement/1.0/">
	<!ENTITY ns_sfw "http://ns.adobe.com/SaveForWeb/1.0/">
	<!ENTITY ns_custom "http://ns.adobe.com/GenericCustomNamespace/1.0/">
	<!ENTITY ns_adobe_xpath "http://ns.adobe.com/XPath/1.0/">
]>
<svg version="1.1" id="Слой_1" xmlns:x="&ns_extend;" xmlns:i="&ns_ai;" xmlns:graph="&ns_graphs;"
	 xmlns="http://www.w3.org/2000/svg" xmlns:xlink="http://www.w3.org/1999/xlink" x="0px" y="0px" viewBox="0 0 1000 1000"
	 enable-background="new 0 0 1000 1000" xml:space="preserve">
	<g i:extraneous="self">
		<path opacity="1" fill="#374B52" d="M420.4,513.9c-4.3,0-8.7,0-13-0.1c-2.6,0-5.2,0-7.8-0.1c-4.8,0-9.5,0-14.3-0.1
			c-21.9-0.1-44.5-0.2-66.7-1c-25.3-0.9-50.9-2.8-77.1-4.8c-20-1.5-36.7-3.2-52.4-5.4c-22.2-3-40.3-21.2-45-45.2
			c-5-25.5-7.5-51.8-7.5-77.9c0-6.4,0-12.8,0-19.3c0-22.7,0-46.1,0.3-69.1c0.4-22.8,3.1-45.6,8.1-67.8c6.2-27.6,30-41.7,49.4-43
			c15.4-1.1,31.1-2.6,46.1-4.1c15.3-1.5,31-3,46.5-4.1c20.9-1.4,43.3-2.2,70.7-2.3c10.1-0.1,20.5-0.1,30.9-0.1
			c25.3,0,44.5,0.4,62.5,1.2c24.9,1.2,50.2,3.3,74.7,5.3c9.9,0.8,20.2,1.7,30.3,2.5c4.2,0.3,8.3,0.8,12.7,1.3
			c1.4,0.2,2.7,0.3,4.1,0.5c27.3,3,45.3,19.4,50.7,46.2c5,24.8,7.4,50.5,7.4,78.8c0,8.4,0,26.2,0,26.2h-0.4v10c0,6,0.1,12,0.1,17.8
			c0.1,13,0.3,26.5-0.3,39.6c-0.9,23-3.6,43.4-8.1,62.4c-5.4,22.6-25.1,39.7-47.9,41.5c-14.5,1.2-29,2.3-43.5,3.5
			c-28.2,2.3-57.4,4.7-86,6.7C437.9,513.6,430.4,513.9,420.4,513.9z"/>
	</g>
</svg>