<?xml version="1.0" standalone="no"?>
<!DOCTYPE svg PUBLIC "-//W3C//DTD SVG 1.1//EN" "http://www.w3.org/Graphics/SVG/1.1/DTD/svg11.dtd" >
<svg xmlns="http://www.w3.org/2000/svg">
<metadata></metadata>
<defs>
<font id="franklingothicbookcitalic" horiz-adv-x="1253" >
<font-face units-per-em="2048" ascent="1655" descent="-393" />
<missing-glyph horiz-adv-x="477" />
<glyph horiz-adv-x="0" />
<glyph horiz-adv-x="682" />
<glyph unicode=" "  horiz-adv-x="477" />
<glyph unicode="&#x09;" horiz-adv-x="477" />
<glyph unicode="&#xa0;" horiz-adv-x="477" />
<glyph unicode="!" horiz-adv-x="563" d="M90 0l35 217h213l-35 -217h-213zM205 350l94 1055h242l-248 -1055h-88z" />
<glyph unicode="&#x22;" horiz-adv-x="649" d="M201 874l59 531h154l-119 -531h-94zM475 874l60 531h153l-119 -531h-94z" />
<glyph unicode="#" horiz-adv-x="1271" d="M90 424l21 129h249l109 326h-223l20 129h250l139 397h142l-140 -397h271l139 397h141l-139 -397h223l-20 -129h-250l-109 -326h224l-21 -129h-250l-147 -424h-141l147 424h-270l-148 -424h-141l147 424h-223zM502 553h270l109 326h-271z" />
<glyph unicode="$" horiz-adv-x="1212" d="M72 360l141 68q29 -80 86 -143q74 -79 170 -95l76 476q-98 24 -162 59q-73 39 -125.5 113t-52.5 184q0 112 52.5 189.5t131.5 121.5q89 49 205 56q33 3 65 0l33 182h127l-33 -191q112 -14 204.5 -80t137.5 -170l-135 -67q-38 78 -88 123q-61 54 -139 65l-74 -446 q144 -31 234 -88q151 -96 151 -271q0 -189 -148 -307.5t-358 -95.5l-36 -209h-127l36 223q-140 19 -237 111q-78 73 -135 192zM356 1044q0 -46 23.5 -90t69.5 -77q60 -42 124 -46l70 426q-106 10 -184 -36q-45 -26 -74 -73t-29 -104zM586 170q118 -11 215 49q117 74 117 191 q0 44 -20 85t-52 68q-30 26 -82 47t-100 29z" />
<glyph unicode="%" horiz-adv-x="1495" d="M145 971q0 89 34 185.5t89 160.5q94 108 236 108q113 0 172 -67q59 -68 59 -197q0 -95 -32 -197t-91 -171q-91 -105 -231 -105q-124 0 -184 90q-52 74 -52 193zM150 0l1073 1405h149l-1073 -1405h-149zM272 958q0 -77 29 -118q38 -45 96 -45q112 0 172 151q39 101 39 195 q0 88 -20 123q-31 55 -101 55q-115 0 -176 -152q-39 -102 -39 -209zM780 262q0 89 34 185.5t89 160.5q95 109 236 109q112 0 172 -68q59 -68 59 -196q0 -95 -32 -197.5t-91 -171.5q-90 -104 -231 -104q-125 0 -185 90q-51 73 -51 192zM907 250q0 -78 29 -119q38 -45 96 -45 q112 0 172 152q39 101 39 194q0 88 -20 123q-31 55 -101 55q-115 0 -176 -151q-39 -102 -39 -209z" />
<glyph unicode="&#x26;" horiz-adv-x="1386" d="M68 383q0 40 8.5 80t30.5 89t68 98.5t112 90.5q107 63 219 90l-29 54q-67 123 -67 243q0 153 122 238q89 59 216 59q78 0 141 -25.5t100.5 -68t57.5 -93.5t20 -105q0 -142 -131 -244q-57 -46 -123 -78.5t-104 -44.5l206 -430q109 109 175 221q42 70 104 207l133 -45 q-67 -175 -184 -336q-65 -91 -146 -166q42 -86 129 -86q70 0 113 14l-18 -143q-53 -22 -121 -22q-164 0 -232 135q-163 -135 -383 -135q-181 0 -299 118q-57 57 -87.5 131.5t-30.5 153.5zM256 412q0 -50 20.5 -106.5t55.5 -94.5q34 -37 85 -58.5t107 -21.5q65 0 141 28.5 t136 67.5l-242 502q-97 -36 -176 -94q-55 -41 -91 -93t-36 -130zM573 1106q0 -69 80 -229q121 47 185.5 100t64.5 137q0 72 -47 116t-119 44t-118 -46.5t-46 -121.5z" />
<glyph unicode="'" horiz-adv-x="374" d="M201 874l59 531h154l-119 -531h-94z" />
<glyph unicode="(" horiz-adv-x="600" d="M113 313q0 270 110 543q125 305 350 549h107q-210 -260 -313 -547q-48 -132 -77.5 -288t-29.5 -279q0 -338 143 -641h-106q-99 154 -147 356q-37 148 -37 307z" />
<glyph unicode=")" horiz-adv-x="634" d="M-25 -350q204 251 316 561q104 287 104 561q0 351 -139 633h106q181 -304 181 -653q0 -279 -107 -551q-126 -309 -354 -551h-107z" />
<glyph unicode="*" horiz-adv-x="1124" d="M205 883l338 106l-281 215l80 92l264 -237l47 348l119 -21l-78 -344l328 134l39 -113l-342 -105l285 -217l-74 -94l-262 238l-45 -346l-119 20l74 342l-328 -133z" />
<glyph unicode="+" horiz-adv-x="1263" d="M129 524v133h463v463h133v-463h463v-133h-463v-463h-133v463h-463z" />
<glyph unicode="," horiz-adv-x="542" d="M25 -264l163 264h-106l37 236h225l-33 -211l-198 -289h-88z" />
<glyph unicode="-" horiz-adv-x="751" d="M150 463l20 127h436l-20 -127h-436z" />
<glyph unicode="." horiz-adv-x="522" d="M61 0l37 229h226l-37 -229h-226z" />
<glyph unicode="/" horiz-adv-x="913" d="M-260 -350l1126 1755h140l-1127 -1755h-139z" />
<glyph unicode="0" d="M129 539q0 228 69 427.5t195 317.5q150 141 377 141q192 0 299 -118q71 -81 95 -187.5t24 -234.5q0 -204 -53 -393.5t-156 -319.5q-85 -109 -181 -150.5t-227 -41.5q-89 0 -165 23t-142 93q-135 143 -135 443zM309 500q0 -237 113 -322q64 -47 170 -47q164 0 272 170 q66 106 105 286t39 333q0 170 -58 258q-33 51 -78.5 73.5t-111.5 22.5q-202 0 -316 -187q-66 -107 -100.5 -270t-34.5 -317z" />
<glyph unicode="1" d="M102 0l21 152h420l168 1040q-213 -193 -435 -299l29 174q293 138 483 338h134l-203 -1253h393l-20 -152h-990z" />
<glyph unicode="2" horiz-adv-x="1320" d="M33 0l28 166q276 163 619 397q180 121 254 217q82 111 82 219q0 127 -72 199q-79 76 -227 76q-158 0 -264 -109q-80 -80 -105 -196l-143 55q30 89 69 157t103 124q139 120 358 120q223 0 342 -114q115 -110 115 -279q0 -205 -162 -379q-54 -58 -128.5 -115t-125 -89 t-155.5 -95q-11 -7 -42.5 -26.5t-41 -25t-35.5 -21.5t-37 -22t-34.5 -19.5t-39 -21.5t-38 -20t-45 -23t-48.5 -23h799l-29 -152h-997z" />
<glyph unicode="3" d="M61 334l138 53q38 -101 108 -162q105 -94 260 -94q69 0 137 21.5t111 58.5q39 34 66.5 88.5t27.5 108.5q0 59 -29 111t-77 85q-78 51 -221 51h-150l31 144h194q63 0 130.5 22.5t115.5 63.5q80 67 80 151q0 116 -74 178q-72 60 -182 60q-141 0 -246 -78q-60 -44 -106 -111 l-123 68q54 101 154 174q73 55 152 76.5t183 21.5q195 0 301 -90q113 -96 113 -248q0 -150 -108 -258q-89 -86 -209 -98l2 -6q102 -25 170 -102q75 -87 75 -228q0 -91 -45.5 -180t-134.5 -149q-128 -86 -321 -86q-230 0 -363 110q-108 89 -160 244z" />
<glyph unicode="4" d="M53 328l19 116l802 961h226l-156 -934h230l-23 -143h-229l-54 -328h-176l53 328h-692zM258 471h510l131 797z" />
<glyph unicode="5" d="M92 305l139 60q26 -65 73.5 -117.5t105.5 -81.5q71 -35 168 -35q187 0 286 115q45 53 68.5 126.5t23.5 141.5q0 134 -75 209q-83 78 -219 78q-208 0 -324 -168l-152 41l174 731h830l-51 -152h-672l-107 -444q129 143 338 143q189 0 303 -96q132 -115 132 -321 q0 -113 -36.5 -211.5t-97.5 -169.5q-150 -174 -413 -174q-257 0 -396 157q-63 71 -98 168z" />
<glyph unicode="6" d="M139 541q0 133 22.5 250.5t61 204.5t79.5 148.5t89 110.5q86 88 188.5 129t235.5 41q227 0 340 -145q55 -69 76 -170l-156 -35q-15 63 -57 109q-78 90 -230 90q-86 0 -148 -28t-122 -91t-105 -156t-65 -164t-31 -139h5q24 45 56.5 82.5t79.5 72.5t112.5 55t142.5 20 q224 0 340 -142q47 -56 72.5 -131.5t25.5 -146.5q0 -81 -25.5 -165t-68.5 -146q-71 -101 -189.5 -158t-261.5 -57q-259 0 -387 204q-48 77 -64 163t-16 194zM330 424q0 -84 31.5 -145t76.5 -95q71 -53 164 -53q141 0 234 72q139 108 139 278q0 56 -17 107t-50.5 93.5 t-91 67.5t-132.5 25q-144 0 -238 -86q-55 -49 -85.5 -119.5t-30.5 -144.5z" />
<glyph unicode="7" d="M262 1253l43 152h928l-19 -107q-162 -162 -303 -358q-250 -348 -346 -682q-26 -90 -55 -258h-180q79 463 358 856q128 179 336 397h-762z" />
<glyph unicode="8" d="M84 360q0 167 135 267q86 66 230 98v8q-103 39 -155 126.5t-52 187.5q0 93 44 164.5t109 117.5q134 96 340 96q159 0 264 -55q79 -42 128 -117t49 -159q0 -68 -29 -132t-80 -108q-70 -63 -201 -106v-5q79 -30 142 -84q127 -105 127 -262q0 -73 -32 -146t-83 -124 q-72 -71 -194.5 -109t-266.5 -38q-288 0 -409 165q-66 91 -66 215zM260 373q0 -113 86 -176q103 -74 266 -74q85 0 153.5 24t109.5 62.5t62 84t21 91.5q0 105 -102 180q-94 68 -233 92q-120 -22 -213 -71q-150 -81 -150 -213zM414 1051q0 -81 57 -138q30 -30 91.5 -60.5 t121.5 -45.5q105 31 190 82q60 35 95 76.5t35 103.5q0 50 -23 94.5t-61 71.5q-67 47 -189 47q-123 0 -203 -49q-54 -33 -84 -82t-30 -100z" />
<glyph unicode="9" d="M82 295l156 35q15 -63 57 -109q44 -51 102 -70.5t135 -19.5q68 0 128.5 24.5t104 62.5t80.5 92.5t61 106t43.5 111t29 100.5t16.5 81h-4q-24 -45 -56.5 -82.5t-79 -72.5t-111 -55t-140.5 -20q-113 0 -202 38t-144 104q-46 55 -71 133t-25 155q0 172 94 305 q72 97 190.5 154t260.5 57q256 0 385 -204q48 -78 65 -162.5t17 -188.5q0 -324 -138 -565q-100 -176 -234.5 -250.5t-303.5 -74.5q-227 0 -340 145q-55 69 -76 170zM338 922q0 -117 59 -193q77 -98 232 -98q142 0 237 86q53 47 85 117.5t32 146.5q0 78 -29 140t-80 100 q-71 53 -163 53q-141 0 -234 -72q-73 -56 -106 -130.5t-33 -149.5z" />
<glyph unicode=":" horiz-adv-x="518" d="M61 0l39 229h226l-39 -229h-226zM195 815l38 229h226l-39 -229h-225z" />
<glyph unicode=";" horiz-adv-x="573" d="M59 -264l166 264h-106l39 236h225l-35 -211l-201 -289h-88zM252 815l39 229h225l-39 -229h-225z" />
<glyph unicode="&#x3c;" horiz-adv-x="1267" d="M92 555v70l1002 424v-127l-809 -332l809 -332v-127z" />
<glyph unicode="=" horiz-adv-x="1263" d="M129 326v133h1059v-133h-1059zM129 723v133h1059v-133h-1059z" />
<glyph unicode="&#x3e;" horiz-adv-x="1296" d="M199 131v127l800 332l-800 332v127l1001 -424v-70z" />
<glyph unicode="?" horiz-adv-x="1079" d="M139 1012q43 190 198.5 301.5t350.5 111.5q176 0 286.5 -89t110.5 -253q0 -196 -163 -325q-51 -41 -138 -85t-129 -71q-18 -11 -31 -20.5t-22 -22t-14.5 -17.5t-9.5 -21.5t-5 -19t-4.5 -24t-3.5 -24.5l-16 -105h-152l15 88q1 9 5 32.5t5.5 32.5t6 30t8 31t11 28.5t16 30 t21.5 27.5t28 28.5t35 27t44 27.5q25 14 71 37t74.5 40t55.5 38q112 90 112 219q0 99 -72 154t-182 55q-122 0 -222.5 -79t-139.5 -216zM317 0l33 201h209l-33 -201h-209z" />
<glyph unicode="@" horiz-adv-x="1728" d="M150 666q0 114 31.5 224t97 208t157.5 172t221 117t279 43q143 0 261.5 -36t197.5 -96t133.5 -139t79 -163t24.5 -171q0 -143 -54.5 -260t-152 -184.5t-219.5 -67.5q-166 0 -202 117q-99 -117 -238 -117q-106 0 -183 77t-77 220q0 113 56.5 219t151.5 172t201 66 q164 0 213 -141l37 114h135l-159 -495q-11 -39 -11 -43q0 -84 82 -84q124 0 206.5 107t82.5 268q0 81 -23.5 155.5t-73 140t-120 114t-171 76.5t-220.5 28q-173 0 -308.5 -76t-213.5 -220.5t-78 -336.5q0 -260 153.5 -416t425.5 -156q180 0 326 62l47 -115 q-42 -18 -71.5 -28.5t-116.5 -25.5t-187 -15q-145 0 -276.5 49.5t-229.5 137t-156 217.5t-58 282zM649 596q0 -76 43 -127t105 -51q61 0 115.5 47t87.5 113.5t52 133t19 111.5q0 55 -38.5 93t-98.5 38q-59 0 -108 -25t-81 -64t-54.5 -87.5t-32 -94.5t-9.5 -87z" />
<glyph unicode="A" horiz-adv-x="1159" d="M-59 0l677 1405h201l238 -1405h-193l-65 408h-504l-195 -408h-159zM354 551h426l-106 666z" />
<glyph unicode="B" horiz-adv-x="1310" d="M90 0l229 1405h500q177 0 283 -64q82 -51 112.5 -120.5t30.5 -157.5q0 -70 -25 -129t-66 -97.5t-85 -63.5t-92 -38l2 -4q91 -23 149 -92q31 -37 50.5 -96.5t19.5 -116.5q0 -78 -33 -161.5t-92 -141.5q-75 -74 -168 -98.5t-209 -24.5h-606zM289 152h358q94 0 164 21 t107 50.5t59 70t27.5 70t5.5 60.5q0 55 -22.5 103t-63.5 77q-71 51 -207 51h-342zM397 799h316q56 0 93 3t89 20t90 50q76 68 76 181q0 89 -64 143q-68 57 -215 57h-311z" />
<glyph unicode="C" horiz-adv-x="1220" d="M115 586q0 159 49.5 319t148.5 287q182 233 445 233q101 0 184.5 -27.5t127 -60t75.5 -71.5q100 -124 106 -303l-155 -37q-2 44 -12.5 88.5t-34.5 92t-58.5 84t-89 60t-121.5 23.5q-196 0 -325 -189q-69 -101 -110.5 -258t-41.5 -290q0 -182 94 -299q83 -107 226 -107 q37 0 75 7.5t83.5 29.5t85.5 56t79 92.5t66 134.5l143 -56q-42 -115 -113 -205q-165 -210 -428 -210q-261 0 -399 219q-100 159 -100 387z" />
<glyph unicode="D" horiz-adv-x="1374" d="M90 0l232 1405h393q77 0 135.5 -7t123 -26.5t120 -60t102.5 -101.5q119 -157 119 -415q0 -161 -53.5 -320.5t-157.5 -275.5q-101 -113 -214 -156t-272 -43h-528zM287 152h297q56 0 98.5 5t96 21t104 52t96.5 92q71 87 109 212t38 265q0 260 -145 372q-106 82 -285 82 h-223z" />
<glyph unicode="E" horiz-adv-x="1148" d="M90 0l232 1405h888l-26 -152h-713l-74 -446h568l-25 -143h-565l-84 -512h733l-25 -152h-909z" />
<glyph unicode="F" horiz-adv-x="1058" d="M90 0l232 1405h860l-27 -152h-684l-74 -446h570l-25 -143h-567l-109 -664h-176z" />
<glyph unicode="G" horiz-adv-x="1335" d="M113 575q0 168 47.5 330t144.5 287q180 233 465 233q130 0 223 -46t146 -111q83 -102 98 -248l-154 -39q-15 122 -96 207.5t-215 85.5q-196 0 -326 -189q-68 -102 -106.5 -255t-38.5 -295q0 -171 92 -285q95 -119 258 -119q65 0 120.5 16.5t94.5 45t65 57.5t46 63 q57 100 80 254h-361l23 144h526l-117 -711h-90l-20 166h-4q-79 -96 -174 -141t-224 -45q-168 0 -297 100q-53 43 -95.5 101.5t-76.5 163.5t-34 230z" />
<glyph unicode="H" horiz-adv-x="1349" d="M90 0l232 1405h176l-99 -586h656l98 586h176l-231 -1405h-176l110 668h-655l-111 -668h-176z" />
<glyph unicode="I" horiz-adv-x="518" d="M90 0l232 1405h176l-232 -1405h-176z" />
<glyph unicode="J" horiz-adv-x="763" d="M-88 -6l18 156q107 -19 166 -19q62 0 124.5 20.5t101.5 59.5q67 70 98 268l153 926h177l-142 -875q-2 -12 -8.5 -53.5t-9 -54t-9 -48t-10.5 -50t-12 -44t-16.5 -46t-19.5 -39.5t-24.5 -41.5t-29.5 -36.5q-40 -44 -90 -73.5t-104.5 -42.5t-97.5 -17t-95 -4q-93 0 -170 14z " />
<glyph unicode="K" horiz-adv-x="1241" d="M90 0l232 1405h176l-133 -805l753 805h203l-461 -492l342 -913h-188l-291 774l-395 -399l-62 -375h-176z" />
<glyph unicode="L" horiz-adv-x="1042" d="M90 0l232 1405h176l-207 -1253h659l-24 -152h-836z" />
<glyph unicode="M" horiz-adv-x="1701" d="M90 0l232 1405h249l238 -1124l4 -5l602 1129h266l-231 -1405h-176l201 1227l-7 2l-649 -1229h-119l-260 1225l-2 2l-200 -1227h-148z" />
<glyph unicode="N" horiz-adv-x="1374" d="M90 0l232 1405h221l475 -1145q2 13 12 88q4 30 10 59.5t9 49.5l157 948h148l-232 -1405h-172l-479 1147q-1 3 -5 15.5t-10 27.5t-16 35h-6q-4 -41 -22 -164l-174 -1061h-148z" />
<glyph unicode="O" horiz-adv-x="1343" d="M117 565q0 169 48.5 344t143.5 297q94 120 209.5 169.5t267.5 49.5q162 0 275 -79q229 -158 229 -504q0 -175 -49.5 -350t-142.5 -293q-173 -219 -459 -219q-253 0 -389 165q-133 158 -133 420zM305 571q0 -188 80 -307q49 -73 109.5 -103t142.5 -30q205 0 321 176 q65 96 104.5 242.5t39.5 277.5q0 198 -80 314q-49 72 -111 102.5t-155 30.5q-97 0 -171 -43t-136 -133q-73 -108 -108.5 -252.5t-35.5 -274.5z" />
<glyph unicode="P" horiz-adv-x="1189" d="M90 0l232 1405h446q245 0 354 -105q47 -45 75 -120t28 -164q0 -87 -36 -180t-120 -160q-62 -49 -149 -75.5t-144.5 -31t-134.5 -4.5h-283l-96 -565h-172zM385 717h297q91 0 154.5 18t119.5 78q80 86 80 209q0 115 -59 170q-30 28 -80.5 42.5t-82 16.5t-81.5 2h-264z" />
<glyph unicode="Q" horiz-adv-x="1337" d="M115 573q0 207 66 391t184 300q158 155 395 155q180 0 299 -80q36 -24 69 -58t72 -93.5t62.5 -151t23.5 -202.5q0 -172 -54.5 -347.5t-154.5 -293.5q-148 -174 -362 -209q-6 -32 -6 -58q0 -57 28 -88q33 -37 133 -37q86 0 170 17l-20 -140q-73 -16 -166 -16 q-22 0 -40.5 1t-41.5 4t-41.5 8.5t-40.5 14.5t-37 22t-31.5 30.5t-25 40.5t-16.5 52q-8 25 -8 54v11q2 36 6 80q-146 2 -252 73q-91 63 -151 189.5t-60 330.5zM303 594q0 -87 19 -179t59 -153q86 -131 254 -131q111 0 184.5 43t134.5 135q68 102 106 238.5t38 263.5 q0 215 -76 328q-86 129 -268 129q-187 0 -305 -176q-66 -99 -106 -233t-40 -265z" />
<glyph unicode="R" horiz-adv-x="1361" d="M90 0l229 1405h490q112 0 199.5 -24.5t138.5 -62.5t84 -89t45 -98.5t12 -96.5q0 -145 -89.5 -255t-242.5 -140l203 -639h-184l-191 612h-417l-101 -612h-176zM389 756h361q186 0 268 69q82 70 82 199q0 100 -58 158q-24 25 -56 40.5t-71 21.5t-64.5 7.5t-64.5 1.5h-315z " />
<glyph unicode="S" horiz-adv-x="1189" d="M8 362l160 54q18 -76 76 -146q65 -80 139.5 -109.5t175.5 -29.5q170 0 268 86q88 75 88 182q0 48 -17 84.5t-37 57.5t-66 40.5t-71 26.5t-86 22q-8 2 -12.5 3t-11 3t-12.5 3l-98 25q-195 46 -277 161q-63 89 -63 217q0 82 41.5 162t118.5 135q122 86 313 86 q193 0 309 -71q138 -86 184 -248l-141 -64q-30 88 -92 144q-97 88 -272 88q-145 0 -230 -92q-55 -61 -55 -133q0 -166 254 -226l106 -24q54 -12 89.5 -22.5t87 -30t92 -49t69.5 -68.5q66 -86 66 -221q0 -85 -41.5 -170.5t-128.5 -151.5q-79 -60 -167 -83t-200 -23 q-254 0 -391 108q-57 43 -102 114.5t-66 159.5z" />
<glyph unicode="T" horiz-adv-x="989" d="M129 1253l27 152h970l-26 -152h-398l-204 -1253h-176l204 1253h-397z" />
<glyph unicode="U" horiz-adv-x="1302" d="M141 379q0 66 19 182l141 844h176l-121 -725q-37 -216 -37 -281q0 -130 77.5 -199t213.5 -69q179 0 271 96q30 31 52.5 73t36.5 93.5t20 82t14 79.5l141 850h143l-141 -873q-15 -91 -25 -137.5t-39 -116t-73 -124.5q-141 -174 -428 -174q-60 0 -116.5 10t-117 38t-105 71 t-73.5 115.5t-29 164.5z" />
<glyph unicode="V" horiz-adv-x="1122" d="M141 1405h189l200 -1159l572 1159h164l-699 -1405h-168z" />
<glyph unicode="W" horiz-adv-x="1716" d="M174 1405h176l99 -1135l6 -4l483 1139h139l137 -1137l7 -2l442 1139h164l-565 -1405h-177l-129 1094l-4 -4l-460 -1090h-177z" />
<glyph unicode="X" horiz-adv-x="1091" d="M-84 0l573 733l-292 672h196l221 -520l392 520h176l-498 -649l326 -756h-197l-258 598l-463 -598h-176z" />
<glyph unicode="Y" horiz-adv-x="1040" d="M117 1405h205l266 -647l477 647h164l-600 -813l-97 -592h-176l97 592z" />
<glyph unicode="Z" horiz-adv-x="1105" d="M-39 0l23 147l938 1106h-727l24 152h934l-18 -117l-955 -1136h797l-25 -152h-991z" />
<glyph unicode="[" horiz-adv-x="561" d="M-8 -350l289 1755h364l-18 -111h-224l-253 -1534h223l-17 -110h-364z" />
<glyph unicode="\" horiz-adv-x="1169" d="M199 1405h139l625 -1405h-140z" />
<glyph unicode="]" horiz-adv-x="561" d="M-76 -350l19 110h223l250 1534h-223l16 111h364l-284 -1755h-365z" />
<glyph unicode="^" horiz-adv-x="987" d="M143 528l355 877h94l354 -877h-123l-278 682l-279 -682h-123z" />
<glyph unicode="_" horiz-adv-x="1024" d="M0 -133h1024v-127h-1024v127z" />
<glyph unicode="`" horiz-adv-x="1062" d="M403 1382l64 121l377 -231l-45 -82z" />
<glyph unicode="a" horiz-adv-x="1116" d="M41 289q0 159 129 254q63 46 155.5 71.5t158 30t153.5 4.5q113 0 184 -10q17 71 17 117q0 90 -64 137q-60 45 -184 45q-107 0 -187 -55q-62 -46 -100 -111l-145 64q27 65 90 120q125 109 334 109q49 0 93.5 -5t94 -17.5t89 -36.5t72 -58t50.5 -86t18 -117q0 -37 -5 -79 t-12 -77t-21 -106.5t-25 -130.5q-28 -154 -37 -219t-10 -133h-156q0 102 17 201q-62 -87 -117 -131q-115 -90 -264 -90q-152 0 -238 86q-90 87 -90 223zM213 281q0 -76 47 -123q52 -52 137 -52q174 0 301 170q83 114 105 236q-95 10 -201 10q-184 0 -280 -55 q-109 -63 -109 -186z" />
<glyph unicode="b" horiz-adv-x="1155" d="M76 0l229 1405h156l-78 -522q55 70 123 116q103 66 221 66q63 0 122.5 -20.5t111 -62.5t83 -116t31.5 -170q0 -134 -42.5 -280t-117.5 -250q-137 -186 -354 -186q-157 0 -252 102q-37 37 -69 102l-95 -184h-69zM309 391q0 -105 45 -176q31 -49 84 -74.5t111 -25.5 q69 0 137 45.5t117 134.5q38 70 65 182t27 197q0 119 -55.5 187.5t-153.5 68.5q-172 0 -276 -168q-50 -78 -75.5 -182.5t-25.5 -188.5z" />
<glyph unicode="c" horiz-adv-x="999" d="M76 428q0 265 133 442q147 195 383 195q176 0 280 -113q95 -106 95 -254l-156 -34q1 13 1 26q0 83 -40 148q-57 92 -168 92q-150 0 -244 -135q-45 -65 -74.5 -176.5t-29.5 -212.5q0 -112 43 -187q59 -104 193 -104q115 0 198 106q50 67 76 137l127 -59 q-56 -141 -150 -223q-58 -52 -126 -74t-160 -22q-85 0 -151 25.5t-122 86.5q-108 122 -108 336z" />
<glyph unicode="d" horiz-adv-x="1146" d="M68 418q0 183 62 328t159 223q115 96 272 96q122 0 194.5 -54.5t106.5 -133.5h4l90 528h156l-231 -1405h-144l25 190q-20 -36 -47.5 -69t-68 -67t-98 -54t-122.5 -20q-165 0 -262 118q-96 117 -96 320zM248 397q0 -132 61 -209q59 -73 158 -73q106 0 192 80 q80 74 125 213q37 113 37 229q0 78 -21.5 137.5t-57.5 92t-75 48t-81 15.5q-32 0 -64.5 -9t-72 -31t-77 -69t-65.5 -114q-59 -140 -59 -310z" />
<glyph unicode="e" horiz-adv-x="1101" d="M72 455q0 233 129 403q157 207 403 207q184 0 291 -100q127 -116 127 -369q0 -46 -6 -96h-762q-8 -39 -8 -88q0 -84 28 -148q66 -149 248 -149q124 0 203 65q64 52 100 129l138 -69q-59 -104 -156 -174q-124 -86 -291 -86q-201 0 -317 124q-127 134 -127 351zM274 627 h584v39q-4 119 -51 182q-67 90 -203 90q-121 0 -211 -82q-99 -92 -119 -229z" />
<glyph unicode="f" horiz-adv-x="624" d="M72 918l20 126h176l17 70q16 71 39.5 120.5t72.5 96.5q63 58 138.5 78.5t173.5 20.5q15 0 98 -5l-21 -127q-58 5 -65 5q-144 0 -211 -62t-86 -197h264l-20 -126h-265l-149 -918h-156l150 918h-176z" />
<glyph unicode="g" horiz-adv-x="1075" d="M-53 -139q0 26 7 52t26 59t60.5 63.5t102.5 52.5q-40 16 -62 54.5t-22 80.5q0 43 17.5 80t50 65.5t68 48.5t81.5 40q-112 85 -112 250q0 72 32 140t93 120q114 98 303 98q98 0 162 -25q30 96 77 148q73 84 201 84q54 0 94 -8l-8 -138q-50 11 -80 11q-70 0 -114 -29 q-56 -34 -80 -107q44 -27 73 -64.5t41 -75.5t15.5 -63t3.5 -48q0 -152 -96 -258q-60 -66 -147 -102t-189 -36q-99 0 -187 47q-53 -21 -95 -59.5t-42 -79.5q0 -27 17 -43t34.5 -19.5t44.5 -4.5l160 -9q17 -1 103 -3t127 -7q144 -16 208 -92q58 -67 58 -162q0 -58 -27.5 -118 t-77.5 -101q-113 -96 -399 -96q-269 0 -385 61q-72 36 -104.5 89t-32.5 104zM106 -98q0 -63 62 -105q89 -63 350 -63q128 0 215 47q80 44 80 117q0 67 -63 98q-19 10 -47 15t-42.5 6.5t-57 2t-48.5 0.5l-115 5q-125 3 -198 18q-70 -31 -103 -60.5t-33 -80.5zM332 690 q0 -99 64.5 -154t160.5 -55q124 0 201 94q51 66 51 177q0 92 -64 139t-157 47q-107 0 -176 -61q-80 -73 -80 -187z" />
<glyph unicode="h" horiz-adv-x="1128" d="M76 0l231 1405h156l-90 -545q51 96 142 150.5t200 54.5q118 0 198 -68q97 -80 97 -229q0 -71 -11 -133l-104 -635h-156l105 635q12 82 12 119q0 70 -31 110q-49 66 -145 66q-116 0 -207 -99q-58 -63 -102.5 -161.5t-57.5 -180.5l-82 -489h-155z" />
<glyph unicode="i" horiz-adv-x="448" d="M76 0l170 1044h155l-170 -1044h-155zM268 1229l31 180h172l-31 -180h-172z" />
<glyph unicode="j" horiz-adv-x="473" d="M-256 -344l12 135q54 -14 105 -14q45 0 75.5 7t60.5 28.5t50 66.5t31 115l172 1050h156l-156 -950q-27 -162 -42 -213q-46 -151 -157 -204q-73 -35 -180 -35q-69 0 -127 14zM272 1229l27 180h172l-27 -180h-172z" />
<glyph unicode="k" horiz-adv-x="1034" d="M76 0l231 1405h156l-150 -899l570 538h172l-379 -364l252 -680h-172l-211 569l-260 -247l-54 -322h-155z" />
<glyph unicode="l" horiz-adv-x="468" d="M76 0l231 1405h156l-232 -1405h-155z" />
<glyph unicode="m" horiz-adv-x="1691" d="M76 0l170 1044h143l-29 -172h7q23 47 58 87.5t100.5 73t144.5 32.5q113 0 186 -70q59 -57 84 -153h4q59 101 149.5 162t186.5 61q56 0 111 -21t92 -59q38 -39 59 -100t21 -125q0 -85 -21 -211l-90 -549h-156l103 623q8 49 8 110q0 100 -33 144q-39 53 -117 53 q-69 0 -130 -42t-103 -106q-73 -111 -102 -293l-80 -489h-156l107 610q12 68 12 131q0 82 -37 133q-42 56 -119 56q-100 0 -186 -96q-104 -113 -144 -332l-88 -502h-155z" />
<glyph unicode="n" horiz-adv-x="1153" d="M76 0l172 1044h143l-37 -215h4q68 116 155.5 176t205.5 60q133 0 223 -90q86 -90 86 -227q0 -79 -16 -173l-99 -575h-155l106 621q10 58 10 102q0 105 -53 158q-46 49 -127 49q-162 0 -272 -164q-35 -52 -66 -133t-43 -152l-82 -481h-155z" />
<glyph unicode="o" horiz-adv-x="1103" d="M80 434q0 153 52 281.5t142 214.5q141 135 342 135q179 0 289 -113q119 -126 119 -340q0 -153 -52.5 -281t-142.5 -216q-73 -71 -151.5 -103t-177.5 -32q-109 0 -190 32.5t-138 110.5q-92 125 -92 311zM260 420q0 -138 61.5 -221.5t178.5 -83.5q162 0 258 161 q38 64 62 164.5t24 194.5q0 130 -62 212.5t-176 82.5q-140 0 -233 -123q-51 -67 -82 -176t-31 -211z" />
<glyph unicode="p" horiz-adv-x="1142" d="M16 -340l230 1384h141l-35 -202h4q57 97 152.5 160t214.5 63q142 0 235 -90q109 -106 109 -279q0 -133 -42.5 -278.5t-119.5 -251.5q-73 -99 -155 -142.5t-189 -43.5q-109 0 -189.5 46t-119.5 134l-4 2l-76 -502h-156zM299 391q0 -74 21 -129.5t56 -86t75 -45.5t84 -15 q13 0 29 2.5t46.5 13t59 28.5t62 54t59.5 84q39 70 67.5 183t28.5 198q0 112 -56 182t-165 70q-22 0 -46.5 -5t-63 -20t-79.5 -51.5t-76 -91.5q-46 -73 -74 -172t-28 -199z" />
<glyph unicode="q" horiz-adv-x="1128" d="M74 403q0 249 108 426q143 236 385 236q165 0 258 -90q42 -40 68 -98l84 167h74l-230 -1384h-155l77 479h-4q-57 -86 -144 -122.5t-173 -36.5q-159 0 -254 114q-94 112 -94 309zM254 397q0 -129 53 -204q56 -78 156 -78q79 0 157 51.5t130 157.5q32 65 50.5 150.5 t18.5 164.5q0 149 -65.5 220t-161.5 71q-122 0 -209 -105q-64 -77 -96.5 -198t-32.5 -230z" />
<glyph unicode="r" horiz-adv-x="727" d="M76 0l172 1044h143l-41 -249h6q69 147 168 213q85 57 201 57q15 0 43 -4l-12 -158h-31q-59 0 -100 -10q-79 -19 -142 -82q-86 -86 -126.5 -188.5t-61.5 -231.5l-64 -391h-155z" />
<glyph unicode="s" horiz-adv-x="995" d="M20 270l148 47q21 -89 78 -143q71 -68 196 -68q108 0 181 37q98 50 98 146q0 70 -47 108q-25 21 -66.5 32.5t-120.5 23.5l-24 4q-60 9 -133.5 34t-118.5 66q-78 75 -78 193q0 70 30 130t81 101q106 84 305 84q129 0 217 -45q127 -66 158 -201l-142 -55q-10 54 -51 102 q-65 72 -188 72q-104 0 -162 -43q-68 -50 -68 -127q0 -51 37 -88q53 -47 172 -64l27 -4q67 -10 108 -19.5t93.5 -35.5t87.5 -65q63 -71 63 -168t-53.5 -176.5t-132.5 -118.5q-96 -49 -277 -49q-215 0 -315 96q-79 73 -103 194z" />
<glyph unicode="t" horiz-adv-x="653" d="M92 918l21 126h155l43 263l158 16l-45 -279h235l-20 -126h-236l-84 -506q-20 -130 -20 -170q0 -59 29 -88q33 -31 106 -31q52 0 125 10l-14 -131q-69 -14 -139 -14q-118 0 -179 41q-90 61 -90 196q0 21 2.5 45t5.5 39.5t8 40t7 33.5l88 535h-156z" />
<glyph unicode="u" horiz-adv-x="1110" d="M117 270q0 39 3 66.5t10 64t9 52.5l99 591h155l-82 -493q-3 -21 -14 -76t-17 -100.5t-6 -89.5q0 -86 41 -127q43 -43 113 -43q133 0 231 127q49 64 88.5 164t55.5 192l76 446h155l-172 -1044h-143l35 229h-4q-24 -51 -63 -103t-83 -83q-89 -63 -215 -63q-120 0 -192 69 q-80 75 -80 221z" />
<glyph unicode="v" horiz-adv-x="921" d="M82 1044h180l152 -849h4l418 849h143l-522 -1044h-168z" />
<glyph unicode="w" horiz-adv-x="1378" d="M102 1044h164l96 -782l5 2l340 780h127l106 -778l2 -2l348 780h140l-472 -1044h-131l-106 776h-2l-338 -776h-131z" />
<glyph unicode="x" horiz-adv-x="917" d="M-66 0l437 539l-240 505h188l166 -360l283 360h156l-377 -471l268 -573h-188l-195 422l-342 -422h-156z" />
<glyph unicode="y" horiz-adv-x="882" d="M-102 -340l20 129q46 -14 98 -14q80 0 131 37q32 23 68.5 72.5t60.5 99.5l17 34l-199 1026h172l148 -802l405 802h139l-587 -1142q-69 -132 -135 -189q-86 -73 -205 -73q-72 0 -133 20z" />
<glyph unicode="z" horiz-adv-x="845" d="M-51 0l18 127l678 786h-510l19 131h723l-13 -88l-702 -825h569l-18 -131h-764z" />
<glyph unicode="{" horiz-adv-x="587" d="M90 477l21 123q60 -3 114 51q31 29 50.5 69t26.5 70t15 80l52 322q6 43 13 70t28 61.5t55 58.5q60 43 158 43h100l-21 -122h-49q-63 0 -92 -25q-30 -25 -41 -104l-55 -332q-14 -93 -72 -176q-49 -67 -127 -125v-2q105 -71 105 -224q0 -24 -9 -94l-51 -317q-4 -28 -4 -45 q0 -41 15 -58q22 -28 75 -28h56l-21 -123h-94q-97 0 -145 45q-43 40 -43 119q0 26 12 102l45 289q12 74 12 108q0 105 -63 146q-29 18 -66 18z" />
<glyph unicode="|" horiz-adv-x="1001" d="M426 0v1405h123v-1405h-123z" />
<glyph unicode="}" horiz-adv-x="587" d="M-133 -350l20 123h56q54 0 86 32t41 99l55 334q21 124 82 204q49 64 117 97v8q-107 85 -107 241q0 8 1 17t2.5 20t2.5 17l56 332q0 3 3 22.5t3 28.5q0 38 -21 57q-24 21 -74 21h-53l21 122h112q93 0 138 -47q34 -36 34 -100q0 -28 -8 -86l-51 -322q-12 -74 -12 -104 q0 -79 41 -123q38 -43 88 -43l-21 -123q-65 0 -112 -47q-71 -69 -95 -225l-51 -322q-17 -110 -71 -164q-66 -69 -189 -69h-94z" />
<glyph unicode="~" horiz-adv-x="1198" d="M92 506q71 125 150 184q39 30 89 48t95 18q26 0 66 -8q56 -12 108 -39l53 -27q5 -3 28 -14.5t31.5 -16t29.5 -13t35 -12t35 -7t42 -3.5q68 0 123 41q40 28 94 103l86 -58q-69 -112 -147 -172q-92 -71 -195 -71q-63 0 -135 30q-12 4 -92 46l-51 26q-80 39 -142 39 q-63 0 -121 -45q-44 -34 -98 -111z" />
<glyph unicode="&#xa4;" horiz-adv-x="1175" d="M182 391l107 107q-66 86 -66 200q0 115 66 201l-107 107l94 94l107 -107q79 70 205 70t205 -70l106 107l94 -94l-106 -107q65 -85 65 -201q0 -115 -65 -200l106 -107l-94 -94l-106 106q-84 -69 -205 -69t-205 69l-107 -106zM358 698q0 -95 67.5 -162t162.5 -67t162 67 t67 162t-67 162.5t-162 67.5t-162.5 -67.5t-67.5 -162.5z" />
<glyph unicode="&#xa6;" horiz-adv-x="974" d="M426 0v563h123v-563h-123zM426 842v563h123v-563h-123z" />
<glyph unicode="&#xa7;" horiz-adv-x="1351" d="M137 -82l185 27q26 -92 101 -143.5t179 -51.5q146 0 240 75.5t94 176.5q0 33 -14 60t-32.5 43.5t-51.5 31.5t-54 22t-57 17l-156 43q-58 17 -86 26t-69 29t-70 45q-74 65 -74 170q0 99 65.5 191t182.5 154q-71 40 -101 102t-30 119q0 43 13 89t46 97.5t82.5 91.5t131 66 t182.5 26q98 0 176.5 -26t136.5 -89.5t74 -158.5l-158 -16q-51 155 -252 155q-77 0 -132 -20.5t-81 -53t-36.5 -61.5t-10.5 -57q0 -55 39 -99t94 -63l109 -35q19 -6 67.5 -20.5t73.5 -23.5t62 -23.5t64 -31t48 -36.5q68 -66 68 -156q0 -95 -62.5 -182t-162.5 -145 q79 -35 117 -102t38 -146q0 -49 -18 -103t-60.5 -111t-102.5 -102.5t-153 -74.5t-204 -29q-110 0 -198 29.5t-154 99t-89 174.5zM442 553q0 -34 17 -62.5t38.5 -46t57.5 -34t55.5 -22.5t51.5 -15l169 -49q86 40 144 118q39 55 39 101q0 70 -44.5 106t-142.5 70l-186 63 q-83 -34 -141 -96.5t-58 -132.5z" />
<glyph unicode="&#xa9;" horiz-adv-x="1648" d="M115 702q0 152 58.5 289.5t157.5 236.5t236 157.5t289 58.5t289 -58.5t236 -157.5t157.5 -236.5t58.5 -289.5t-58.5 -289t-157.5 -236t-236 -157.5t-289 -58.5t-289 58.5t-236 157.5t-157.5 236t-58.5 289zM221 702q0 -171 85.5 -317t232 -231.5t317.5 -85.5t317.5 85.5 t232 231.5t85.5 317q0 128 -50.5 245.5t-136 203t-203 136t-245.5 50.5t-245.5 -50.5t-203 -136t-136 -203t-50.5 -245.5zM489 647q0 228 138 389q113 133 276 133q49 0 104.5 -15.5t94.5 -43.5q50 -36 84.5 -100.5t38.5 -135.5l-119 -28q2 35 -12.5 81.5t-40.5 76.5 q-55 65 -148 65q-111 0 -188 -111q-45 -67 -67.5 -158t-22.5 -165q0 -142 65 -207q52 -55 133 -55q80 0 140 53q26 23 42.5 47t33 59t20.5 43l110 -40q-5 -10 -19 -40t-22 -44t-23.5 -37.5t-36 -43t-48.5 -38.5q-89 -60 -203 -60q-95 0 -170 45q-65 40 -112.5 121.5 t-47.5 208.5z" />
<glyph unicode="&#xab;" horiz-adv-x="718" d="M84 522l221 295h90l-151 -295l61 -295h-90zM352 522l221 295h91l-152 -295l61 -295h-90z" />
<glyph unicode="&#xac;" horiz-adv-x="1265" d="M129 657v134h1061v-553h-133v419h-928z" />
<glyph unicode="&#xad;" horiz-adv-x="751" d="M150 463l20 127h436l-20 -127h-436z" />
<glyph unicode="&#xae;" horiz-adv-x="1648" d="M115 702q0 152 58.5 289.5t157.5 236.5t236 157.5t289 58.5t289 -58.5t236 -157.5t157.5 -236.5t58.5 -289.5t-58.5 -289t-157.5 -236t-236 -157.5t-289 -58.5t-289 58.5t-236 157.5t-157.5 236t-58.5 289zM221 702q0 -171 85.5 -317t232 -231.5t317.5 -85.5t317.5 85.5 t232 231.5t85.5 317q0 128 -50.5 245.5t-136 203t-203 136t-245.5 50.5t-245.5 -50.5t-203 -136t-136 -203t-50.5 -245.5zM473 287l143 860h289q38 0 60.5 -1t58.5 -5.5t67 -16.5t58 -32q90 -64 90 -172q0 -111 -80 -183q-50 -44 -123 -59l129 -391h-139l-119 370h-241 l-62 -370h-131zM682 756h219q129 0 176 65q29 40 29 94q0 66 -45 101q-46 35 -137 35h-193z" />
<glyph unicode="&#xb0;" horiz-adv-x="839" d="M164 1118q0 128 90 217.5t217 89.5q126 0 216.5 -90.5t90.5 -216.5t-90.5 -216.5t-216.5 -90.5q-127 0 -217 90.5t-90 216.5zM287 1118q0 -75 54.5 -129.5t129.5 -54.5t129.5 54.5t54.5 129.5t-54.5 130t-129.5 55t-129.5 -55t-54.5 -130z" />
<glyph unicode="&#xb1;" horiz-adv-x="1325" d="M154 0v133h1058v-133h-1058zM154 698v133h462v463h134v-463h462v-133h-462v-462h-134v462h-462z" />
<glyph unicode="&#xb6;" horiz-adv-x="1185" d="M164 834q0 130 61 255t164 201q80 58 185.5 86.5t213.5 28.5h439l-25 -133h-119l-270 -1657h-133l270 1657h-166l-270 -1657h-133l135 825q-139 3 -233 88q-57 51 -88 131.5t-31 174.5z" />
<glyph unicode="&#xb7;" horiz-adv-x="524" d="M131 475l37 230h225l-37 -230h-225z" />
<glyph unicode="&#xbb;" horiz-adv-x="718" d="M53 227l152 295l-62 295h90l132 -295l-222 -295h-90zM322 227l151 295l-61 295h90l131 -295l-221 -295h-90z" />
<glyph unicode="&#x2000;" horiz-adv-x="785" />
<glyph unicode="&#x2001;" horiz-adv-x="1571" />
<glyph unicode="&#x2002;" horiz-adv-x="785" />
<glyph unicode="&#x2003;" horiz-adv-x="1571" />
<glyph unicode="&#x2004;" horiz-adv-x="523" />
<glyph unicode="&#x2005;" horiz-adv-x="392" />
<glyph unicode="&#x2006;" horiz-adv-x="261" />
<glyph unicode="&#x2007;" horiz-adv-x="261" />
<glyph unicode="&#x2008;" horiz-adv-x="196" />
<glyph unicode="&#x2009;" horiz-adv-x="314" />
<glyph unicode="&#x200a;" horiz-adv-x="87" />
<glyph unicode="&#x2010;" horiz-adv-x="751" d="M150 463l20 127h436l-20 -127h-436z" />
<glyph unicode="&#x2011;" horiz-adv-x="751" d="M150 463l20 127h436l-20 -127h-436z" />
<glyph unicode="&#x2012;" horiz-adv-x="751" d="M150 463l20 127h436l-20 -127h-436z" />
<glyph unicode="&#x2013;" horiz-adv-x="1239" d="M100 463l21 127h1024l-21 -127h-1024z" />
<glyph unicode="&#x2014;" horiz-adv-x="2058" d="M100 463l21 127h1843l-20 -127h-1844z" />
<glyph unicode="&#x2018;" horiz-adv-x="493" d="M221 954l29 176l207 275h78l-160 -248h84l-33 -203h-205z" />
<glyph unicode="&#x2019;" horiz-adv-x="473" d="M180 954l160 248h-84l33 203h205l-29 -176l-207 -275h-78z" />
<glyph unicode="&#x201a;" horiz-adv-x="471" d="M-27 -248l160 248h-84l33 203h205l-29 -176l-207 -275h-78z" />
<glyph unicode="&#x201c;" horiz-adv-x="813" d="M225 956l29 177l207 272h78l-160 -246h84l-33 -203h-205zM535 956l28 177l207 272h78l-160 -246h84l-33 -203h-204z" />
<glyph unicode="&#x201d;" horiz-adv-x="794" d="M190 956l160 246h-84l33 203h205l-29 -176l-207 -273h-78zM502 956l160 246h-84l32 203h205l-29 -176l-206 -273h-78z" />
<glyph unicode="&#x201e;" horiz-adv-x="792" d="M-16 -248l159 248h-84l33 203h205l-29 -176l-207 -275h-77zM295 -248l160 248h-84l32 203h205l-28 -176l-207 -275h-78z" />
<glyph unicode="&#x2022;" horiz-adv-x="1542" d="M436 702q0 143 103 246t245 103t245.5 -103.5t103.5 -245.5t-103 -245t-246 -103q-142 0 -245 103t-103 245z" />
<glyph unicode="&#x2026;" horiz-adv-x="1886" d="M61 0l37 229h226l-37 -229h-226zM743 0l37 229h226l-37 -229h-226zM1425 0l37 229h226l-37 -229h-226z" />
<glyph unicode="&#x202f;" horiz-adv-x="314" />
<glyph unicode="&#x205f;" horiz-adv-x="392" />
<glyph unicode="&#x20ac;" d="M53 500l74 135h96q5 42 10 74q6 46 15 69h-150l74 135h111q37 110 93.5 200t135.5 161.5t188 111t238 39.5q120 0 212.5 -30.5t137.5 -71.5l-28 -176q-45 54 -129 88.5t-201 34.5q-179 0 -299.5 -99.5t-171.5 -257.5h669l-71 -135h-641q-12 -48 -15 -67q-5 -39 -10 -76 h584l-74 -135h-510q0 -172 91.5 -267.5t265.5 -95.5q212 0 366 121l-29 -178q-53 -39 -155 -68.5t-228 -29.5q-236 0 -361 130t-124 388h-164z" />
<glyph unicode="&#x2122;" horiz-adv-x="1726" d="M137 1303l17 102h622l-16 -102h-246l-117 -715h-131l117 715h-246zM741 588l133 817h181l149 -621l344 621h178l-133 -817h-127l107 649l-367 -649h-90l-155 649l-107 -649h-113z" />
<glyph unicode="&#x25fc;" horiz-adv-x="1044" d="M0 0v1044h1044v-1044h-1044z" />
</font>
</defs>
</svg>
