<?xml version="1.0" encoding="utf-8"?>
<!-- Generator: Adobe Illustrator 16.0.0, SVG Export Plug-In . SVG Version: 6.00 Build 0)  -->
<!DOCTYPE svg PUBLIC "-//W3C//DTD SVG 1.1//EN" "http://www.w3.org/Graphics/SVG/1.1/DTD/svg11.dtd">
<svg version="1.1" id="Layer_1" xmlns="http://www.w3.org/2000/svg" xmlns:xlink="http://www.w3.org/1999/xlink" x="0px" y="0px"
	 width="238.8085938px" height="55px" viewBox="0 0 238.8085938 55" enable-background="new 0 0 238.8085938 55"
	 xml:space="preserve">
<polygon fill="#FFFFFF" points="201,39 201,26.6806641 195.8544922,24 81.1791992,24 75.1733398,39 "/>
<rect x="70" y="52" fill="#CE5253" width="154" height="3"/>
<rect x="41" y="53" fill="#FFFFFF" width="77" height="2"/>
<rect x="124" y="53" fill="#FFFFFF" width="95" height="2"/>
<rect x="13" y="53" fill="#FFFFFF" width="21" height="2"/>
<rect y="53" fill="#FFFFFF" width="7" height="2"/>
<polygon fill="#FFFFFF" points="195.203125,24 114.5820312,24 120.2832031,9 178.0996094,9 "/>
<polygon fill="#72C1DC" points="191.734375,21 82,21 82,24 195.8544922,24 "/>
<polygon fill="#565656" points="137.1171875,0 125.6914062,0 128.9560547,9 140.3828125,9 "/>
<polygon fill="#CE5253" points="137.1171875,0 125.6914062,0 126.7792969,3 138.2050781,3 "/>
<polygon fill="#565656" points="151.8085938,0 140.3828125,0 143.6464844,9 155.0742188,9 "/>
<polygon fill="#565656" points="166.5,0 155.0742188,0 158.3378906,9 169.7646484,9 "/>
<polygon fill="#CE5253" points="151.8085938,0 140.3828125,0 141.4707031,3 152.8964844,3 "/>
<polygon fill="#CE5253" points="166.5,0 155.0742188,0 156.1621094,3 167.5878906,3 "/>
<g>
	<rect x="87" y="11" fill="#C59C6D" width="3" height="10"/>
	<rect x="87" y="11" fill="#079247" width="3" height="8"/>
	<rect x="87" y="11" fill="#3A53A4" width="3" height="5"/>
	<rect x="87" y="8" fill="#FAED24" width="3" height="4"/>
	<rect x="91" y="11" fill="#C59C6D" width="4" height="10"/>
	<rect x="91" y="11" fill="#673090" width="4" height="8"/>
	<rect x="91" y="11" fill="#FAED24" width="4" height="5"/>
	<rect x="91" y="8" fill="#F15C27" width="4" height="4"/>
	<rect x="88.1464844" y="9.2939453" fill="#C59C6D" width="1.6328125" height="1.6323242"/>
	<rect x="91.4121094" y="9.2939453" fill="#C59C6D" width="1.6318359" height="1.6323242"/>
	<rect x="96" y="11" fill="#C59C6D" width="4" height="10"/>
	<rect x="96" y="11" fill="#FAED24" width="4" height="8"/>
	<rect x="96" y="11" fill="#272361" width="4" height="5"/>
	<rect x="96" y="8" fill="#010101" width="4" height="4"/>
	<rect x="101" y="11" fill="#C59C6D" width="3" height="10"/>
	<rect x="101" y="11" fill="#D41C5C" width="3" height="8"/>
	<rect x="101" y="11" fill="#3DB54A" width="3" height="5"/>
	<rect x="101" y="8" fill="#F6EB16" width="3" height="4"/>
	<rect x="97.9414062" y="9.2939453" fill="#C59C6D" width="1.6328125" height="1.6323242"/>
	<rect x="101.2060547" y="9.2939453" fill="#C59C6D" width="1.6318359" height="1.6323242"/>
</g>
<g>
	<rect x="106" y="11" fill="#C59C6D" width="3" height="10"/>
	<rect x="106" y="11" fill="#079247" width="3" height="8"/>
	<rect x="106" y="11" fill="#3A53A4" width="3" height="5"/>
	<rect x="106" y="8" fill="#FAED24" width="3" height="4"/>
	<rect x="111" y="11" fill="#C59C6D" width="3" height="10"/>
	<rect x="111" y="11" fill="#673090" width="3" height="8"/>
	<rect x="111" y="11" fill="#FAED24" width="3" height="5"/>
	<rect x="111" y="8" fill="#F15C27" width="3" height="4"/>
	<rect x="107.7353516" y="9.2939453" fill="#C59C6D" width="1.6318359" height="1.6323242"/>
	<rect x="111" y="9.2939453" fill="#C59C6D" width="1.6328125" height="1.6323242"/>
	<rect x="116" y="11" fill="#C59C6D" width="3" height="10"/>
	<rect x="116" y="11" fill="#FAED24" width="3" height="8"/>
	<rect x="116" y="11" fill="#272361" width="3" height="5"/>
	<rect x="116" y="8" fill="#010101" width="3" height="4"/>
	<rect x="121" y="11" fill="#C59C6D" width="3" height="10"/>
	<rect x="121" y="11" fill="#D41C5C" width="3" height="8"/>
	<rect x="121" y="11" fill="#3DB54A" width="3" height="5"/>
	<rect x="121" y="8" fill="#F6EB16" width="3" height="4"/>
	<rect x="117.5292969" y="9.2939453" fill="#C59C6D" width="1.6328125" height="1.6323242"/>
	<rect x="120.7939453" y="9.2939453" fill="#C59C6D" width="1.6318359" height="1.6323242"/>
</g>
<g>
	<rect x="126" y="11" fill="#C59C6D" width="3" height="10"/>
	<rect x="126" y="11" fill="#079247" width="3" height="8"/>
	<rect x="126" y="11" fill="#3A53A4" width="3" height="5"/>
	<rect x="126" y="8" fill="#FAED24" width="3" height="4"/>
	<rect x="131" y="11" fill="#C59C6D" width="3" height="10"/>
	<rect x="131" y="11" fill="#673090" width="3" height="8"/>
	<rect x="131" y="11" fill="#FAED24" width="3" height="5"/>
	<rect x="131" y="8" fill="#F15C27" width="3" height="4"/>
	<rect x="127.3242188" y="9.2939453" fill="#C59C6D" width="1.6318359" height="1.6323242"/>
	<rect x="130.5878906" y="9.2939453" fill="#C59C6D" width="1.6328125" height="1.6323242"/>
	<rect x="135" y="11" fill="#C59C6D" width="4" height="10"/>
	<rect x="135" y="11" fill="#FAED24" width="4" height="8"/>
	<rect x="135" y="11" fill="#272361" width="4" height="5"/>
	<rect x="135" y="8" fill="#010101" width="4" height="4"/>
	<rect x="140" y="11" fill="#C59C6D" width="4" height="10"/>
	<rect x="140" y="11" fill="#D41C5C" width="4" height="8"/>
	<rect x="140" y="11" fill="#3DB54A" width="4" height="5"/>
	<rect x="140" y="8" fill="#F6EB16" width="4" height="4"/>
	<rect x="137.1171875" y="9.2939453" fill="#C59C6D" width="1.6328125" height="1.6323242"/>
	<rect x="140.3828125" y="9.2939453" fill="#C59C6D" width="1.6318359" height="1.6323242"/>
</g>
<g>
	<rect x="145" y="11" fill="#C59C6D" width="4" height="10"/>
	<rect x="145" y="11" fill="#079247" width="4" height="8"/>
	<rect x="145" y="11" fill="#3A53A4" width="4" height="5"/>
	<rect x="145" y="8" fill="#FAED24" width="4" height="4"/>
	<rect x="150" y="11" fill="#C59C6D" width="3" height="10"/>
	<rect x="150" y="11" fill="#673090" width="3" height="8"/>
	<rect x="150" y="11" fill="#FAED24" width="3" height="5"/>
	<rect x="150" y="8" fill="#F15C27" width="3" height="4"/>
	<rect x="146.9121094" y="9.2939453" fill="#C59C6D" width="1.6318359" height="1.6323242"/>
	<rect x="150.1757812" y="9.2939453" fill="#C59C6D" width="1.6328125" height="1.6323242"/>
	<rect x="155" y="11" fill="#C59C6D" width="3" height="10"/>
	<rect x="155" y="11" fill="#FAED24" width="3" height="8"/>
	<rect x="155" y="11" fill="#272361" width="3" height="5"/>
	<rect x="155" y="8" fill="#010101" width="3" height="4"/>
	<rect x="160" y="11" fill="#C59C6D" width="3" height="10"/>
	<rect x="160" y="11" fill="#D41C5C" width="3" height="8"/>
	<rect x="160" y="11" fill="#3DB54A" width="3" height="5"/>
	<rect x="160" y="8" fill="#F6EB16" width="3" height="4"/>
	<rect x="156.7060547" y="9.2939453" fill="#C59C6D" width="1.6318359" height="1.6323242"/>
	<rect x="159.9707031" y="9.2939453" fill="#C59C6D" width="1.6328125" height="1.6323242"/>
</g>
<g>
	<rect x="165" y="11" fill="#C59C6D" width="3" height="10"/>
	<rect x="165" y="11" fill="#079247" width="3" height="8"/>
	<rect x="165" y="11" fill="#3A53A4" width="3" height="5"/>
	<rect x="165" y="8" fill="#FAED24" width="3" height="4"/>
	<rect x="170" y="11" fill="#C59C6D" width="3" height="10"/>
	<rect x="170" y="11" fill="#673090" width="3" height="8"/>
	<rect x="170" y="11" fill="#FAED24" width="3" height="5"/>
	<rect x="170" y="8" fill="#F15C27" width="3" height="4"/>
	<rect x="166.5" y="9.2939453" fill="#C59C6D" width="1.6328125" height="1.6323242"/>
	<rect x="169.7646484" y="9.2939453" fill="#C59C6D" width="1.6318359" height="1.6323242"/>
	<rect x="175" y="11" fill="#C59C6D" width="3" height="10"/>
	<rect x="175" y="11" fill="#FAED24" width="3" height="8"/>
	<rect x="175" y="11" fill="#272361" width="3" height="5"/>
	<rect x="175" y="8" fill="#010101" width="3" height="4"/>
	<rect x="180" y="11" fill="#C59C6D" width="3" height="10"/>
	<rect x="180" y="11" fill="#D41C5C" width="3" height="8"/>
	<rect x="180" y="11" fill="#3DB54A" width="3" height="5"/>
	<rect x="180" y="8" fill="#F6EB16" width="3" height="4"/>
	<rect x="176.2939453" y="9.2939453" fill="#C59C6D" width="1.6318359" height="1.6323242"/>
	<rect x="179.5585938" y="9.2939453" fill="#C59C6D" width="1.6328125" height="1.6323242"/>
</g>
<g>
	<rect x="196" y="19" fill="#C59C6D" width="3" height="10"/>
	<rect x="196" y="19" fill="#079247" width="3" height="8"/>
	<rect x="196" y="19" fill="#3A53A4" width="3" height="5"/>
	<rect x="196" y="17" fill="#FAED24" width="3" height="3"/>
	<rect x="201" y="19" fill="#C59C6D" width="3" height="10"/>
	<rect x="201" y="19" fill="#673090" width="3" height="8"/>
	<rect x="201" y="19" fill="#FAED24" width="3" height="5"/>
	<rect x="201" y="17" fill="#F15C27" width="3" height="3"/>
	<rect x="197.5146484" y="17.4560547" fill="#C59C6D" width="1.6318359" height="1.6323242"/>
	<rect x="200.7792969" y="17.4560547" fill="#C59C6D" width="1.6328125" height="1.6323242"/>
	<rect x="206" y="19" fill="#C59C6D" width="3" height="10"/>
	<rect x="206" y="19" fill="#FAED24" width="3" height="8"/>
	<rect x="206" y="19" fill="#272361" width="3" height="5"/>
	<rect x="206" y="17" fill="#010101" width="3" height="3"/>
	<rect x="211" y="19" fill="#C59C6D" width="3" height="10"/>
	<rect x="211" y="19" fill="#D41C5C" width="3" height="8"/>
	<rect x="211" y="19" fill="#3DB54A" width="3" height="5"/>
	<rect x="211" y="17" fill="#F6EB16" width="3" height="3"/>
	<rect x="207.3085938" y="17.4560547" fill="#C59C6D" width="1.6328125" height="1.6323242"/>
	<rect x="210.5742188" y="17.4560547" fill="#C59C6D" width="1.6318359" height="1.6323242"/>
</g>
<g>
	<rect x="215" y="19" fill="#C59C6D" width="4" height="10"/>
	<rect x="215" y="19" fill="#079247" width="4" height="8"/>
	<rect x="215" y="19" fill="#3A53A4" width="4" height="5"/>
	<rect x="215" y="17" fill="#FAED24" width="4" height="3"/>
	<rect x="220" y="19" fill="#C59C6D" width="4" height="10"/>
	<rect x="220" y="19" fill="#673090" width="4" height="8"/>
	<rect x="220" y="19" fill="#FAED24" width="4" height="5"/>
	<rect x="220" y="17" fill="#F15C27" width="4" height="3"/>
	<rect x="217.1035156" y="17.4560547" fill="#C59C6D" width="1.6318359" height="1.6323242"/>
	<rect x="220.3671875" y="17.4560547" fill="#C59C6D" width="1.6328125" height="1.6323242"/>
	<rect x="225" y="19" fill="#C59C6D" width="4" height="10"/>
	<rect x="225" y="19" fill="#FAED24" width="4" height="8"/>
	<rect x="225" y="19" fill="#272361" width="4" height="5"/>
	<rect x="225" y="17" fill="#010101" width="4" height="3"/>
	<rect x="230" y="19" fill="#C59C6D" width="3" height="10"/>
	<rect x="230" y="19" fill="#D41C5C" width="3" height="8"/>
	<rect x="230" y="19" fill="#3DB54A" width="3" height="5"/>
	<rect x="230" y="17" fill="#F6EB16" width="3" height="3"/>
	<rect x="226.8964844" y="17.4560547" fill="#C59C6D" width="1.6328125" height="1.6323242"/>
	<rect x="230.1621094" y="17.4560547" fill="#C59C6D" width="1.6318359" height="1.6323242"/>
</g>
<g>
	<rect x="70" y="29" fill="#C59C6D" width="3" height="10"/>
	<rect x="70" y="29" fill="#079247" width="3" height="8"/>
	<rect x="70" y="29" fill="#3A53A4" width="3" height="5"/>
	<rect x="70" y="26" fill="#FAED24" width="3" height="4"/>
	<rect x="75" y="29" fill="#C59C6D" width="3" height="10"/>
	<rect x="75" y="29" fill="#673090" width="3" height="8"/>
	<rect x="75" y="29" fill="#FAED24" width="3" height="5"/>
	<rect x="75" y="26" fill="#F15C27" width="3" height="4"/>
	<rect x="71.8237305" y="27.25" fill="#C59C6D" width="1.6323242" height="1.6323242"/>
	<rect x="75.0883789" y="27.25" fill="#C59C6D" width="1.6323242" height="1.6323242"/>
	<rect x="80" y="29" fill="#C59C6D" width="3" height="10"/>
	<rect x="80" y="29" fill="#FAED24" width="3" height="8"/>
	<rect x="80" y="29" fill="#272361" width="3" height="5"/>
	<rect x="80" y="26" fill="#010101" width="3" height="4"/>
	<rect x="85" y="29" fill="#C59C6D" width="3" height="10"/>
	<rect x="85" y="29" fill="#D41C5C" width="3" height="8"/>
	<rect x="85" y="29" fill="#3DB54A" width="3" height="5"/>
	<rect x="85" y="26" fill="#F6EB16" width="3" height="4"/>
	<rect x="81.6176758" y="27.25" fill="#C59C6D" width="1.6323242" height="1.6323242"/>
	<rect x="84.8828125" y="27.25" fill="#C59C6D" width="1.6318359" height="1.6323242"/>
</g>
<g>
	<rect x="90" y="29" fill="#C59C6D" width="3" height="10"/>
	<rect x="90" y="29" fill="#079247" width="3" height="8"/>
	<rect x="90" y="29" fill="#3A53A4" width="3" height="5"/>
	<rect x="90" y="26" fill="#FAED24" width="3" height="4"/>
	<rect x="95" y="29" fill="#C59C6D" width="3" height="10"/>
	<rect x="95" y="29" fill="#673090" width="3" height="8"/>
	<rect x="95" y="29" fill="#FAED24" width="3" height="5"/>
	<rect x="95" y="26" fill="#F15C27" width="3" height="4"/>
	<rect x="91.4121094" y="27.25" fill="#C59C6D" width="1.6318359" height="1.6323242"/>
	<rect x="94.6757812" y="27.25" fill="#C59C6D" width="1.6328125" height="1.6323242"/>
	<rect x="100" y="29" fill="#C59C6D" width="3" height="10"/>
	<rect x="100" y="29" fill="#FAED24" width="3" height="8"/>
	<rect x="100" y="29" fill="#272361" width="3" height="5"/>
	<rect x="100" y="26" fill="#010101" width="3" height="4"/>
	<rect x="104" y="29" fill="#C59C6D" width="4" height="10"/>
	<rect x="104" y="29" fill="#D41C5C" width="4" height="8"/>
	<rect x="104" y="29" fill="#3DB54A" width="4" height="5"/>
	<rect x="104" y="26" fill="#F6EB16" width="4" height="4"/>
	<rect x="101.2060547" y="27.25" fill="#C59C6D" width="1.6318359" height="1.6323242"/>
	<rect x="104.4707031" y="27.25" fill="#C59C6D" width="1.6328125" height="1.6323242"/>
</g>
<g>
	<rect x="109" y="29" fill="#C59C6D" width="4" height="10"/>
	<rect x="109" y="29" fill="#079247" width="4" height="8"/>
	<rect x="109" y="29" fill="#3A53A4" width="4" height="5"/>
	<rect x="109" y="26" fill="#FAED24" width="4" height="4"/>
	<rect x="114" y="29" fill="#C59C6D" width="4" height="10"/>
	<rect x="114" y="29" fill="#673090" width="4" height="8"/>
	<rect x="114" y="29" fill="#FAED24" width="4" height="5"/>
	<rect x="114" y="26" fill="#F15C27" width="4" height="4"/>
	<rect x="111" y="27.25" fill="#C59C6D" width="1.6328125" height="1.6323242"/>
	<rect x="114.2646484" y="27.25" fill="#C59C6D" width="1.6318359" height="1.6323242"/>
	<rect x="119" y="29" fill="#C59C6D" width="3" height="10"/>
	<rect x="119" y="29" fill="#FAED24" width="3" height="8"/>
	<rect x="119" y="29" fill="#272361" width="3" height="5"/>
	<rect x="119" y="26" fill="#010101" width="3" height="4"/>
	<rect x="124" y="29" fill="#C59C6D" width="3" height="10"/>
	<rect x="124" y="29" fill="#D41C5C" width="3" height="8"/>
	<rect x="124" y="29" fill="#3DB54A" width="3" height="5"/>
	<rect x="124" y="26" fill="#F6EB16" width="3" height="4"/>
	<rect x="120.7939453" y="27.25" fill="#C59C6D" width="1.6318359" height="1.6323242"/>
	<rect x="124.0585938" y="27.25" fill="#C59C6D" width="1.6328125" height="1.6323242"/>
</g>
<g>
	<rect x="129" y="29" fill="#C59C6D" width="3" height="10"/>
	<rect x="129" y="29" fill="#079247" width="3" height="8"/>
	<rect x="129" y="29" fill="#3A53A4" width="3" height="5"/>
	<rect x="129" y="26" fill="#FAED24" width="3" height="4"/>
	<rect x="134" y="29" fill="#C59C6D" width="3" height="10"/>
	<rect x="134" y="29" fill="#673090" width="3" height="8"/>
	<rect x="134" y="29" fill="#FAED24" width="3" height="5"/>
	<rect x="134" y="26" fill="#F15C27" width="3" height="4"/>
	<rect x="130.5878906" y="27.25" fill="#C59C6D" width="1.6328125" height="1.6323242"/>
	<rect x="133.8535156" y="27.25" fill="#C59C6D" width="1.6318359" height="1.6323242"/>
	<rect x="139" y="29" fill="#C59C6D" width="3" height="10"/>
	<rect x="139" y="29" fill="#FAED24" width="3" height="8"/>
	<rect x="139" y="29" fill="#272361" width="3" height="5"/>
	<rect x="139" y="26" fill="#010101" width="3" height="4"/>
	<rect x="144" y="29" fill="#C59C6D" width="3" height="10"/>
	<rect x="144" y="29" fill="#D41C5C" width="3" height="8"/>
	<rect x="144" y="29" fill="#3DB54A" width="3" height="5"/>
	<rect x="144" y="26" fill="#F6EB16" width="3" height="4"/>
	<rect x="140.3828125" y="27.25" fill="#C59C6D" width="1.6318359" height="1.6323242"/>
	<rect x="143.6464844" y="27.25" fill="#C59C6D" width="1.6328125" height="1.6323242"/>
</g>
<g>
	<rect x="149" y="29" fill="#C59C6D" width="3" height="10"/>
	<rect x="149" y="29" fill="#079247" width="3" height="8"/>
	<rect x="149" y="29" fill="#3A53A4" width="3" height="5"/>
	<rect x="149" y="26" fill="#FAED24" width="3" height="4"/>
	<rect x="153" y="29" fill="#C59C6D" width="4" height="10"/>
	<rect x="153" y="29" fill="#673090" width="4" height="8"/>
	<rect x="153" y="29" fill="#FAED24" width="4" height="5"/>
	<rect x="153" y="26" fill="#F15C27" width="4" height="4"/>
	<rect x="150.1757812" y="27.25" fill="#C59C6D" width="1.6328125" height="1.6323242"/>
	<rect x="153.4414062" y="27.25" fill="#C59C6D" width="1.6328125" height="1.6323242"/>
	<rect x="158" y="29" fill="#C59C6D" width="4" height="10"/>
	<rect x="158" y="29" fill="#FAED24" width="4" height="8"/>
	<rect x="158" y="29" fill="#272361" width="4" height="5"/>
	<rect x="158" y="26" fill="#010101" width="4" height="4"/>
	<rect x="163" y="29" fill="#C59C6D" width="3" height="10"/>
	<rect x="163" y="29" fill="#D41C5C" width="3" height="8"/>
	<rect x="163" y="29" fill="#3DB54A" width="3" height="5"/>
	<rect x="163" y="26" fill="#F6EB16" width="3" height="4"/>
	<rect x="159.9707031" y="27.25" fill="#C59C6D" width="1.6328125" height="1.6323242"/>
	<rect x="163.2353516" y="27.25" fill="#C59C6D" width="1.6318359" height="1.6323242"/>
</g>
<g>
	<rect x="168" y="29" fill="#C59C6D" width="3" height="10"/>
	<rect x="168" y="29" fill="#079247" width="3" height="8"/>
	<rect x="168" y="29" fill="#3A53A4" width="3" height="5"/>
	<rect x="168" y="26" fill="#FAED24" width="3" height="4"/>
	<rect x="173" y="29" fill="#C59C6D" width="3" height="10"/>
	<rect x="173" y="29" fill="#673090" width="3" height="8"/>
	<rect x="173" y="29" fill="#FAED24" width="3" height="5"/>
	<rect x="173" y="26" fill="#F15C27" width="3" height="4"/>
	<rect x="169.7646484" y="27.25" fill="#C59C6D" width="1.6318359" height="1.6323242"/>
	<rect x="173.0292969" y="27.25" fill="#C59C6D" width="1.6328125" height="1.6323242"/>
	<rect x="178" y="29" fill="#C59C6D" width="3" height="10"/>
	<rect x="178" y="29" fill="#FAED24" width="3" height="8"/>
	<rect x="178" y="29" fill="#272361" width="3" height="5"/>
	<rect x="178" y="26" fill="#010101" width="3" height="4"/>
	<rect x="183" y="29" fill="#C59C6D" width="3" height="10"/>
	<rect x="183" y="29" fill="#D41C5C" width="3" height="8"/>
	<rect x="183" y="29" fill="#3DB54A" width="3" height="5"/>
	<rect x="183" y="26" fill="#F6EB16" width="3" height="4"/>
	<rect x="179.5585938" y="27.25" fill="#C59C6D" width="1.6328125" height="1.6323242"/>
	<rect x="182.8242188" y="27.25" fill="#C59C6D" width="1.6318359" height="1.6323242"/>
</g>
<polygon fill="#FFFFFF" points="237.9619141,23.5683594 194.9082031,27.7441406 183.5654297,39 66.9262695,39 69.7768555,52 
	223.7089844,52 "/>
<polygon fill="#72C1DC" points="192.484375,27.9052734 237.2519531,25.1240234 238.8085938,22.2797852 192.3076172,25.0605469 "/>
<polygon fill="#72C1DC" points="192.3076172,25.0844727 182.4375,35.8198242 184.4521484,38.6762695 195.1875,27.0996094 "/>
<polygon fill="#72C1DC" points="183.8007812,35 67,35 67,39 184.4521484,39 "/>
<rect x="193" y="37" fill="#3878BB" width="3" height="3"/>
<rect x="193" y="40" fill="#3878BB" width="3" height="3"/>
<rect x="204" y="37" fill="#3878BB" width="3" height="3"/>
<rect x="204" y="40" fill="#3878BB" width="3" height="3"/>
<rect x="207" y="40" fill="#3878BB" width="3" height="3"/>
<rect x="210" y="37" fill="#3878BB" width="3" height="3"/>
<rect x="210" y="43" fill="#3878BB" width="3" height="3"/>
<rect x="204" y="43" fill="#3878BB" width="3" height="3"/>
<rect x="199" y="37" fill="#3878BB" width="3" height="3"/>
<rect x="199" y="40" fill="#3878BB" width="3" height="3"/>
<rect x="196" y="43" fill="#3878BB" width="3" height="3"/>
<rect x="160" y="31" fill="#754D25" width="5" height="1"/>
<rect x="161" y="32" fill="#010101" width="1" height="1"/>
<rect x="159" y="31" fill="#010101" width="1" height="1"/>
<rect x="224" y="32" fill="#565656" width="3" height="3"/>
</svg>
