<?xml version="1.0" encoding="utf-8"?>
<!-- Generator: Adobe Illustrator 16.0.0, SVG Export Plug-In . SVG Version: 6.00 Build 0)  -->
<!DOCTYPE svg PUBLIC "-//W3C//DTD SVG 1.1//EN" "http://www.w3.org/Graphics/SVG/1.1/DTD/svg11.dtd">
<svg version="1.1" id="Layer_1" xmlns="http://www.w3.org/2000/svg" xmlns:xlink="http://www.w3.org/1999/xlink" x="0px" y="0px"
	 width="75px" height="110px" viewBox="0 0 75 110" enable-background="new 0 0 75 110" xml:space="preserve">
<rect x="10" y="75" fill="#72C1DC" width="55" height="30"/>
<rect y="35" fill="#72C1DC" width="75" height="35"/>
<rect x="10" y="25" fill="#72C1DC" width="55" height="5"/>
<rect x="20" y="15" fill="#72C1DC" width="35" height="5"/>
<rect x="35" y="5" fill="#72C1DC" width="5" height="5"/>
<rect y="105" fill="#FFFFFF" width="75" height="5"/>
<rect x="5" y="75" fill="#FFFFFF" width="5" height="30"/>
<rect x="15" y="75" fill="#FFFFFF" width="5" height="30"/>
<rect x="25" y="75" fill="#FFFFFF" width="5" height="30"/>
<rect x="35" y="75" fill="#FFFFFF" width="5" height="30"/>
<rect x="45" y="75" fill="#FFFFFF" width="5" height="30"/>
<rect x="55" y="75" fill="#FFFFFF" width="5" height="30"/>
<rect x="65" y="75" fill="#FFFFFF" width="5" height="30"/>
<rect y="70" fill="#FFFFFF" width="75" height="5"/>
<rect y="30" fill="#FFFFFF" width="75" height="5"/>
<rect x="10" y="20" fill="#FFFFFF" width="55" height="5"/>
<rect x="20" y="10" fill="#FFFFFF" width="35" height="5"/>
<rect x="35" fill="#FFFFFF" width="5" height="5"/>
<rect y="50" fill="#FFFFFF" width="5" height="5"/>
<rect y="45" fill="#FFFFFF" width="5" height="5"/>
<rect y="40" fill="#FFFFFF" width="5" height="5"/>
<rect x="5" y="40" fill="#FFFFFF" width="5" height="5"/>
<rect x="10" y="40" fill="#FFFFFF" width="5" height="5"/>
<rect x="10" y="60" fill="#FFFFFF" width="5" height="5"/>
<rect y="55" fill="#FFFFFF" width="5" height="5"/>
<rect y="60" fill="#FFFFFF" width="5" height="5"/>
<rect x="5" y="60" fill="#FFFFFF" width="5" height="5"/>
<rect x="5" y="50" fill="#FFFFFF" width="5" height="5"/>
<rect x="10" y="55" fill="#FFFFFF" width="5" height="5"/>
<rect x="20" y="50" fill="#FFFFFF" width="5" height="5"/>
<rect x="30" y="50" fill="#FFFFFF" width="5" height="5"/>
<rect x="20" y="45" fill="#FFFFFF" width="5" height="5"/>
<rect x="25" y="40" fill="#FFFFFF" width="5" height="5"/>
<rect x="30" y="45" fill="#FFFFFF" width="5" height="5"/>
<rect x="30" y="60" fill="#FFFFFF" width="5" height="5"/>
<rect x="20" y="55" fill="#FFFFFF" width="5" height="5"/>
<rect x="20" y="60" fill="#FFFFFF" width="5" height="5"/>
<rect x="25" y="50" fill="#FFFFFF" width="5" height="5"/>
<rect x="30" y="55" fill="#FFFFFF" width="5" height="5"/>
<rect x="40" y="50" fill="#FFFFFF" width="5" height="5"/>
<rect x="50" y="50" fill="#FFFFFF" width="5" height="5"/>
<rect x="40" y="45" fill="#FFFFFF" width="5" height="5"/>
<rect x="40" y="40" fill="#FFFFFF" width="5" height="5"/>
<rect x="50" y="40" fill="#FFFFFF" width="5" height="5"/>
<rect x="50" y="45" fill="#FFFFFF" width="5" height="5"/>
<rect x="50" y="60" fill="#FFFFFF" width="5" height="5"/>
<rect x="40" y="55" fill="#FFFFFF" width="5" height="5"/>
<rect x="40" y="60" fill="#FFFFFF" width="5" height="5"/>
<rect x="45" y="50" fill="#FFFFFF" width="5" height="5"/>
<rect x="50" y="55" fill="#FFFFFF" width="5" height="5"/>
<rect x="60" y="50" fill="#FFFFFF" width="5" height="5"/>
<rect x="60" y="45" fill="#FFFFFF" width="5" height="5"/>
<rect x="60" y="40" fill="#FFFFFF" width="5" height="5"/>
<rect x="70" y="40" fill="#FFFFFF" width="5" height="5"/>
<rect x="70" y="45" fill="#FFFFFF" width="5" height="5"/>
<rect x="70" y="60" fill="#FFFFFF" width="5" height="5"/>
<rect x="60" y="55" fill="#FFFFFF" width="5" height="5"/>
<rect x="60" y="60" fill="#FFFFFF" width="5" height="5"/>
<rect x="65" y="50" fill="#FFFFFF" width="5" height="5"/>
<rect x="70" y="55" fill="#FFFFFF" width="5" height="5"/>
</svg>
