<?xml version="1.0" encoding="utf-8"?>
<!-- Generator: Adobe Illustrator 16.0.0, SVG Export Plug-In . SVG Version: 6.00 Build 0)  -->
<!DOCTYPE svg PUBLIC "-//W3C//DTD SVG 1.1//EN" "http://www.w3.org/Graphics/SVG/1.1/DTD/svg11.dtd">
<svg version="1.1" id="Layer_1" xmlns="http://www.w3.org/2000/svg" xmlns:xlink="http://www.w3.org/1999/xlink" x="0px" y="0px"
	 width="124px" height="120px" viewBox="0 0 124 120" enable-background="new 0 0 124 120" xml:space="preserve">
<polygon opacity="0.25" fill="#FFFFFF" points="10,23 10,20 9,20 8,20 5,20 3,20 3,22 3,23 0,23 0,25 3,25 5,25 5,23 5,22 8,22 
	8,23 8,25 10,25 13,25 13,23 "/>
<polygon opacity="0.25" fill="#FFFFFF" points="109,113 109,110 108,110 107,110 104,110 102,110 102,112 102,113 99,113 99,115 
	102,115 104,115 104,113 104,112 107,112 107,113 107,115 109,115 112,115 112,113 "/>
<polygon opacity="0.25" fill="#FFFFFF" points="83,68 83,65 82,65 81,65 78,65 76,65 76,67 76,68 73,68 73,70 76,70 78,70 78,68 
	78,67 81,67 81,68 81,70 83,70 86,70 86,68 "/>
<polygon opacity="0.25" fill="#FFFFFF" points="121,30 121,27 120,27 119,27 116,27 114,27 114,29 114,30 111,30 111,32 114,32 
	116,32 116,30 116,29 119,29 119,30 119,32 121,32 124,32 124,30 "/>
<polygon opacity="0.25" fill="#FFFFFF" points="60,3 60,0 59,0 58,0 55,0 53,0 53,2 53,3 50,3 50,5 53,5 55,5 55,3 55,2 58,2 58,3 
	58,5 60,5 63,5 63,3 "/>
<polygon opacity="0.25" fill="#FFFFFF" points="21,118 21,115 20,115 19,115 16,115 14,115 14,117 14,118 11,118 11,120 14,120 
	16,120 16,118 16,117 19,117 19,118 19,120 21,120 24,120 24,118 "/>
</svg>
