<?xml version="1.0" encoding="utf-8"?>
<!-- Generator: Adobe Illustrator 16.0.0, SVG Export Plug-In . SVG Version: 6.00 Build 0)  -->
<!DOCTYPE svg PUBLIC "-//W3C//DTD SVG 1.1//EN" "http://www.w3.org/Graphics/SVG/1.1/DTD/svg11.dtd">
<svg version="1.1" id="Layer_1" xmlns="http://www.w3.org/2000/svg" xmlns:xlink="http://www.w3.org/1999/xlink" x="0px" y="0px"
	 width="125px" height="37px" viewBox="0 0 125 37" enable-background="new 0 0 125 37" xml:space="preserve">
<polygon fill="#0071CE" points="35,5 30,5 30,0 5,0 5,5 0,5 0,30 5,30 5,35 30,35 30,30 35,30 "/>
<g opacity="0.25">
	<rect x="5" y="35" fill="#0071CE" width="25" height="2"/>
</g>
<g opacity="0.25">
	<rect x="55" y="35" fill="#EB0029" width="70" height="2"/>
</g>
<rect x="5" y="5" opacity="0.25" fill="#FFFFFF" width="25" height="25"/>
<rect x="15" y="20" fill="#FFFFFF" width="5" height="5"/>
<rect x="10" y="10" fill="#FFFFFF" width="5" height="10"/>
<rect x="20" y="10" fill="#FFFFFF" width="5" height="10"/>
<rect x="55" fill="#EB0029" width="70" height="35"/>
<rect x="60" y="5" opacity="0.45" fill="#FFFFFF" width="60" height="25"/>
<rect x="65" y="10" fill="#FFFFFF" width="5" height="15"/>
<rect x="105" y="10" fill="#FFFFFF" width="5" height="15"/>
<rect x="110" y="15" fill="#FFFFFF" width="5" height="10"/>
<rect x="85" y="10" fill="#FFFFFF" width="5" height="15"/>
<rect x="95" y="10" fill="#FFFFFF" width="5" height="15"/>
<rect x="70" y="10" fill="#FFFFFF" width="5" height="5"/>
<rect x="75" y="15" fill="#FFFFFF" width="5" height="5"/>
<rect x="40" y="10" fill="#C3CBD3" width="5" height="5"/>
<rect x="45" y="15" fill="#C3CBD3" width="5" height="5"/>
<rect x="40" y="20" fill="#C3CBD3" width="5" height="5"/>
<rect x="85" y="20" fill="#FFFFFF" width="15" height="5"/>
</svg>
