<?xml version="1.0" encoding="utf-8"?>
<!-- Generator: Adobe Illustrator 16.0.0, SVG Export Plug-In . SVG Version: 6.00 Build 0)  -->
<!DOCTYPE svg PUBLIC "-//W3C//DTD SVG 1.1//EN" "http://www.w3.org/Graphics/SVG/1.1/DTD/svg11.dtd">
<svg version="1.1" id="Layer_1" xmlns="http://www.w3.org/2000/svg" xmlns:xlink="http://www.w3.org/1999/xlink" x="0px" y="0px"
	 width="76px" height="13px" viewBox="0 0 76 13" enable-background="new 0 0 76 13" xml:space="preserve">
<g>
	<g>
		<rect y="3" fill="#C59C6D" width="3" height="10"/>
		<rect y="3" fill="#079247" width="3" height="8"/>
		<rect y="3" fill="#3A53A4" width="3" height="5"/>
		<rect fill="#FAED24" width="3" height="4"/>
		<rect x="4" y="3" fill="#C59C6D" width="4" height="10"/>
		<rect x="4" y="3" fill="#673090" width="4" height="8"/>
		<rect x="4" y="3" fill="#FAED24" width="4" height="5"/>
		<rect x="4" fill="#F15C27" width="4" height="4"/>
		<rect x="1.1464844" y="1.2939453" fill="#C59C6D" width="1.6328125" height="1.6318359"/>
		<rect x="4.4121094" y="1.2939453" fill="#C59C6D" width="1.6318359" height="1.6318359"/>
		<rect x="9" y="3" fill="#C59C6D" width="4" height="10"/>
		<rect x="9" y="3" fill="#FAED24" width="4" height="8"/>
		<rect x="9" y="3" fill="#272361" width="4" height="5"/>
		<rect x="9" fill="#010101" width="4" height="4"/>
		<rect x="14" y="3" fill="#C59C6D" width="3" height="10"/>
		<rect x="14" y="3" fill="#D41C5C" width="3" height="8"/>
		<rect x="14" y="3" fill="#3DB54A" width="3" height="5"/>
		<rect x="14" fill="#F6EB16" width="3" height="4"/>
		<rect x="10.9414062" y="1.2939453" fill="#C59C6D" width="1.6328125" height="1.6318359"/>
		<rect x="14.2060547" y="1.2939453" fill="#C59C6D" width="1.6318359" height="1.6318359"/>
	</g>
	<g>
		<rect x="19" y="3" fill="#C59C6D" width="3" height="10"/>
		<rect x="19" y="3" fill="#079247" width="3" height="8"/>
		<rect x="19" y="3" fill="#3A53A4" width="3" height="5"/>
		<rect x="19" fill="#FAED24" width="3" height="4"/>
		<rect x="24" y="3" fill="#C59C6D" width="3" height="10"/>
		<rect x="24" y="3" fill="#673090" width="3" height="8"/>
		<rect x="24" y="3" fill="#FAED24" width="3" height="5"/>
		<rect x="24" fill="#F15C27" width="3" height="4"/>
		<rect x="20.7353516" y="1.2939453" fill="#C59C6D" width="1.6318359" height="1.6318359"/>
		<rect x="24" y="1.2939453" fill="#C59C6D" width="1.6328125" height="1.6318359"/>
		<rect x="29" y="3" fill="#C59C6D" width="3" height="10"/>
		<rect x="29" y="3" fill="#FAED24" width="3" height="8"/>
		<rect x="29" y="3" fill="#272361" width="3" height="5"/>
		<rect x="29" fill="#010101" width="3" height="4"/>
		<rect x="34" y="3" fill="#C59C6D" width="3" height="10"/>
		<rect x="34" y="3" fill="#D41C5C" width="3" height="8"/>
		<rect x="34" y="3" fill="#3DB54A" width="3" height="5"/>
		<rect x="34" fill="#F6EB16" width="3" height="4"/>
		<rect x="30.5292969" y="1.2939453" fill="#C59C6D" width="1.6328125" height="1.6318359"/>
		<rect x="33.7939453" y="1.2939453" fill="#C59C6D" width="1.6318359" height="1.6318359"/>
	</g>
	<g>
		<rect x="39" y="3" fill="#C59C6D" width="3" height="10"/>
		<rect x="39" y="3" fill="#079247" width="3" height="8"/>
		<rect x="39" y="3" fill="#3A53A4" width="3" height="5"/>
		<rect x="39" fill="#FAED24" width="3" height="4"/>
		<rect x="44" y="3" fill="#C59C6D" width="3" height="10"/>
		<rect x="44" y="3" fill="#673090" width="3" height="8"/>
		<rect x="44" y="3" fill="#FAED24" width="3" height="5"/>
		<rect x="44" fill="#F15C27" width="3" height="4"/>
		<rect x="40.3242188" y="1.2939453" fill="#C59C6D" width="1.6318359" height="1.6318359"/>
		<rect x="43.5878906" y="1.2939453" fill="#C59C6D" width="1.6328125" height="1.6318359"/>
		<rect x="48" y="3" fill="#C59C6D" width="4" height="10"/>
		<rect x="48" y="3" fill="#FAED24" width="4" height="8"/>
		<rect x="48" y="3" fill="#272361" width="4" height="5"/>
		<rect x="48" fill="#010101" width="4" height="4"/>
		<rect x="53" y="3" fill="#C59C6D" width="4" height="10"/>
		<rect x="53" y="3" fill="#D41C5C" width="4" height="8"/>
		<rect x="53" y="3" fill="#3DB54A" width="4" height="5"/>
		<rect x="53" fill="#F6EB16" width="4" height="4"/>
		<rect x="50.1171875" y="1.2939453" fill="#C59C6D" width="1.6328125" height="1.6318359"/>
		<rect x="53.3828125" y="1.2939453" fill="#C59C6D" width="1.6318359" height="1.6318359"/>
	</g>
	<g>
		<rect x="58" y="3" fill="#C59C6D" width="4" height="10"/>
		<rect x="58" y="3" fill="#079247" width="4" height="8"/>
		<rect x="58" y="3" fill="#3A53A4" width="4" height="5"/>
		<rect x="58" fill="#FAED24" width="4" height="4"/>
		<rect x="63" y="3" fill="#C59C6D" width="3" height="10"/>
		<rect x="63" y="3" fill="#673090" width="3" height="8"/>
		<rect x="63" y="3" fill="#FAED24" width="3" height="5"/>
		<rect x="63" fill="#F15C27" width="3" height="4"/>
		<rect x="59.9121094" y="1.2939453" fill="#C59C6D" width="1.6318359" height="1.6318359"/>
		<rect x="63.1757812" y="1.2939453" fill="#C59C6D" width="1.6328125" height="1.6318359"/>
		<rect x="68" y="3" fill="#C59C6D" width="3" height="10"/>
		<rect x="68" y="3" fill="#FAED24" width="3" height="8"/>
		<rect x="68" y="3" fill="#272361" width="3" height="5"/>
		<rect x="68" fill="#010101" width="3" height="4"/>
		<rect x="73" y="3" fill="#C59C6D" width="3" height="10"/>
		<rect x="73" y="3" fill="#D41C5C" width="3" height="8"/>
		<rect x="73" y="3" fill="#3DB54A" width="3" height="5"/>
		<rect x="73" fill="#F6EB16" width="3" height="4"/>
		<rect x="69.7060547" y="1.2939453" fill="#C59C6D" width="1.6318359" height="1.6318359"/>
		<rect x="72.9707031" y="1.2939453" fill="#C59C6D" width="1.6328125" height="1.6318359"/>
	</g>
</g>
</svg>
