<?xml version="1.0" encoding="utf-8"?>
<!-- Generator: Adobe Illustrator 16.0.0, SVG Export Plug-In . SVG Version: 6.00 Build 0)  -->
<!DOCTYPE svg PUBLIC "-//W3C//DTD SVG 1.1//EN" "http://www.w3.org/Graphics/SVG/1.1/DTD/svg11.dtd">
<svg version="1.1" id="Layer_1" xmlns="http://www.w3.org/2000/svg" xmlns:xlink="http://www.w3.org/1999/xlink" x="0px" y="0px"
	 width="128.0878906px" height="64px" viewBox="0 0 128.0878906 64" enable-background="new 0 0 128.0878906 64"
	 xml:space="preserve">
<g>
	<rect x="9.0878906" y="35" fill="#C59C6D" width="3" height="9"/>
	<rect x="9.0878906" y="35" fill="#D41C5C" width="3" height="8"/>
	<rect x="9.0878906" y="35" fill="#3DB54A" width="3" height="5"/>
	<rect x="9.0878906" y="32" fill="#F6EB16" width="3" height="3"/>
	<rect x="8.7050781" y="32.9853516" fill="#C59C6D" width="1.6328125" height="1.6323242"/>
</g>
<polygon fill="#EB0029" points="72.3671875,62 10.3378906,62 2.1757812,42.5957031 75.6318359,50.6660156 "/>
<rect x="9.0878906" y="31" fill="#3F6388" width="3" height="1"/>
<rect x="11.9707031" y="30.6899414" fill="#FFFFFF" width="1.6318359" height="1.6323242"/>
<rect x="13.6025391" y="29.0576172" fill="#FFFFFF" width="1.6328125" height="1.6323242"/>
<g>
	<rect x="14.0878906" y="49" fill="#FFFFFF" width="3" height="3"/>
	<rect x="11.0878906" y="52" fill="#FFFFFF" width="3" height="3"/>
	<rect x="17.0878906" y="52" fill="#FFFFFF" width="3" height="3"/>
	<rect x="24.0878906" y="49" fill="#FFFFFF" width="3" height="3"/>
	<rect x="27.0878906" y="52" fill="#FFFFFF" width="3" height="3"/>
	<rect x="27.0878906" y="55" fill="#FFFFFF" width="3" height="3"/>
	<rect x="27.0878906" y="49" fill="#FFFFFF" width="3" height="3"/>
	<rect x="30.0878906" y="55" fill="#FFFFFF" width="3" height="3"/>
	<rect x="24.0878906" y="55" fill="#FFFFFF" width="3" height="3"/>
	<rect x="14.0878906" y="52" fill="#FFFFFF" width="3" height="3"/>
	<rect x="14.0878906" y="55" fill="#FFFFFF" width="3" height="3"/>
</g>
<polygon fill="#CE5253" points="72.3671875,64 10.3378906,64 8.7050781,61 72.8339844,61 "/>
<rect x="15.0878906" y="62" fill="#FFFFFF" width="69" height="2"/>
<rect x="89.0878906" y="62" fill="#FFFFFF" width="22" height="2"/>
<rect x="116.0878906" y="62" fill="#FFFFFF" width="12" height="2"/>
<rect x="41.0878906" fill="#EB0029" width="3" height="50"/>
<polygon fill="#FFFFFF" points="1.9287109,43.7607422 75.7626953,53.0273438 76.8564453,50.0566406 0,40.9365234 "/>
<polygon fill="#F7F8F8" points="41.0878906,1.25 22.0878906,39 41.0878906,39 "/>
<polygon fill="#F7F8F8" points="44.0878906,11 60.0878906,39 44.0878906,39 "/>
</svg>
