<?xml version="1.0" encoding="utf-8"?>
<!-- Generator: Adobe Illustrator 16.0.0, SVG Export Plug-In . SVG Version: 6.00 Build 0)  -->
<!DOCTYPE svg PUBLIC "-//W3C//DTD SVG 1.1//EN" "http://www.w3.org/Graphics/SVG/1.1/DTD/svg11.dtd">
<svg version="1.1" id="Layer_1" xmlns="http://www.w3.org/2000/svg" xmlns:xlink="http://www.w3.org/1999/xlink" x="0px" y="0px"
	 width="70px" height="59.5410156px" viewBox="0 0 70 59.5410156" enable-background="new 0 0 70 59.5410156" xml:space="preserve">
<path fill="#727C8E" d="M55.7119141,59.5410156H9.0634766C3.1337891,59.5410156,0,56.4082031,0,50.4794922V9.0556641
	C0,3.1313477,3.1337891,0,9.0634766,0h46.6484375c5.9296875,0,9.0634766,3.1313477,9.0634766,9.0556641v17.1098633
	C67.9628906,26.3300781,70,28.496582,70,31.7792969v8.6630859c0,3.3291016-2.0673828,5.6474609-5.2246094,5.9755859v4.0615234
	C64.7753906,56.4082031,61.6416016,59.5410156,55.7119141,59.5410156z M9.0634766,2C4.2441406,2,2,4.2421875,2,9.0556641v41.4238281
	c0,4.8173828,2.2441406,7.0615234,7.0634766,7.0615234h46.6484375c4.8193359,0,7.0634766-2.2441406,7.0634766-7.0615234v-6.0205078
	h1.2109375C66.5,44.4589844,68,42.9570313,68,40.4423828v-8.6630859c0-2.3369141-1.2861328-3.6240234-3.6201172-3.6240234
	H40.2246094c-3.8837891,0-6.8964844,4.2685547-6.8964844,7.9404297v0.265625c0,0.6376953,0.1201172,1.2958984,0.2382813,1.8554688
	l0.6015625,2.8574219l-2.2265625-1.8886719c-2.0117188-1.7050781-3.1660156-4.1865234-3.1660156-6.8056641
	c0-4.8735352,3.9677734-8.8388672,8.8447266-8.8388672h24.1337891c0.3623047,0,0.7011719,0.0200195,1.0214844,0.0610352V9.0556641
	C62.7753906,4.2421875,60.53125,2,55.7119141,2H9.0634766z M37.6201172,25.5410156
	c-3.7744141,0-6.8447266,3.0678711-6.8447266,6.8388672c0,0.9990234,0.2050781,1.9541016,0.5976563,2.8261719
	c0.4384766-4.4414063,4.0800781-9.0507813,8.8515625-9.0507813h24.0517578l-0.8740234-0.3515625
	c-0.4394531-0.1767578-0.9785156-0.2626953-1.6484375-0.2626953H37.6201172z M41.5419922,43.8427734
	c-2.7138672,0-4.921875-2.2099609-4.921875-4.9248047C36.6201172,36.2060547,38.828125,34,41.5419922,34
	c2.7099609,0,4.9140625,2.2060547,4.9140625,4.9179688C46.4560547,41.6328125,44.2519531,43.8427734,41.5419922,43.8427734z
	 M41.5419922,36c-1.6113281,0-2.921875,1.3085938-2.921875,2.9179688c0,1.6132813,1.3105469,2.9248047,2.921875,2.9248047
	c1.6064453,0,2.9140625-1.3115234,2.9140625-2.9248047C44.4560547,37.3085938,43.1484375,36,41.5419922,36z M55.9248047,12.4589844
	H8.8505859c-1.9990234,0-3.6259766-1.6220703-3.6259766-3.6162109c0-1.9921875,1.6269531-3.6132813,3.6259766-3.6132813h47.0742188
	c1.9941406,0,3.6171875,1.6210938,3.6171875,3.6132813C59.5419922,10.8369141,57.9189453,12.4589844,55.9248047,12.4589844z
	 M8.8505859,7.2294922c-0.8964844,0-1.6259766,0.7236328-1.6259766,1.6132813c0,0.8911133,0.7294922,1.6162109,1.6259766,1.6162109
	h47.0742188c0.8916016,0,1.6171875-0.7250977,1.6171875-1.6162109c0-0.8745117-0.7402344-1.6132813-1.6171875-1.6132813H8.8505859z"
	/>
</svg>
